<?xml version="1.0" encoding="UTF-8"?><svg xmlns="http://www.w3.org/2000/svg" xmlns:xlink="http://www.w3.org/1999/xlink" fill-opacity="1" color-rendering="auto" color-interpolation="auto" text-rendering="auto" stroke="black" stroke-linecap="square" width="301" stroke-miterlimit="10" shape-rendering="auto" stroke-opacity="1" fill="black" stroke-dasharray="none" font-weight="normal" stroke-width="1" height="206" font-family="'Dialog'" font-style="normal" stroke-linejoin="miter" font-size="12px" stroke-dashoffset="0" image-rendering="auto">
  <!--Generated by ySVG 2.5-->
  <defs id="genericDefs"/>
  <g>
    <defs id="defs1">
      <clipPath clipPathUnits="userSpaceOnUse" id="clipPath1">
        <path d="M0 0 L301 0 L301 206 L0 206 L0 0 Z"/>
      </clipPath>
      <clipPath clipPathUnits="userSpaceOnUse" id="clipPath2">
        <path d="M-81 -30 L220 -30 L220 176 L-81 176 L-81 -30 Z"/>
      </clipPath>
    </defs>
    <g fill="lime" text-rendering="geometricPrecision" shape-rendering="geometricPrecision" transform="matrix(1,0,0,1,81,30)" stroke="lime">
      <rect x="-35.5" width="30" height="30" y="-14.6667" clip-path="url(#clipPath2)" stroke="none"/>
    </g>
    <g text-rendering="geometricPrecision" stroke-miterlimit="1.45" shape-rendering="geometricPrecision" transform="matrix(1,0,0,1,81,30)" stroke-linecap="butt">
      <rect fill="none" x="-35.5" width="30" height="30" y="-14.6667" clip-path="url(#clipPath2)"/>
      <text x="-22.2695" xml:space="preserve" y="4.4876" clip-path="url(#clipPath2)" font-family="sans-serif" stroke="none">I</text>
    </g>
    <g fill="lime" text-rendering="geometricPrecision" shape-rendering="geometricPrecision" transform="matrix(1,0,0,1,81,30)" stroke="lime">
      <rect x="-5.5" width="30" height="30" y="-14.6667" clip-path="url(#clipPath2)" stroke="none"/>
    </g>
    <g text-rendering="geometricPrecision" stroke-miterlimit="1.45" shape-rendering="geometricPrecision" transform="matrix(1,0,0,1,81,30)" stroke-linecap="butt">
      <rect fill="none" x="-5.5" width="30" height="30" y="-14.6667" clip-path="url(#clipPath2)"/>
      <text x="5.0117" xml:space="preserve" y="4.4876" clip-path="url(#clipPath2)" font-family="sans-serif" stroke="none">N</text>
    </g>
    <g fill="lime" text-rendering="geometricPrecision" shape-rendering="geometricPrecision" transform="matrix(1,0,0,1,81,30)" stroke="lime">
      <rect x="54.5" width="30" height="30" y="-14.6667" clip-path="url(#clipPath2)" stroke="none"/>
    </g>
    <g text-rendering="geometricPrecision" stroke-miterlimit="1.45" shape-rendering="geometricPrecision" transform="matrix(1,0,0,1,81,30)" stroke-linecap="butt">
      <rect fill="none" x="54.5" width="30" height="30" y="-14.6667" clip-path="url(#clipPath2)"/>
      <text x="65.6914" xml:space="preserve" y="4.4876" clip-path="url(#clipPath2)" font-family="sans-serif" stroke="none">S</text>
    </g>
    <g fill="lime" text-rendering="geometricPrecision" shape-rendering="geometricPrecision" transform="matrix(1,0,0,1,81,30)" stroke="lime">
      <rect x="-65.5" width="30" height="30" y="-14.6667" clip-path="url(#clipPath2)" stroke="none"/>
    </g>
    <g text-rendering="geometricPrecision" stroke-miterlimit="1.45" shape-rendering="geometricPrecision" transform="matrix(1,0,0,1,81,30)" stroke-linecap="butt">
      <rect fill="none" x="-65.5" width="30" height="30" y="-14.6667" clip-path="url(#clipPath2)"/>
      <text x="-54.291" xml:space="preserve" y="4.4876" clip-path="url(#clipPath2)" font-family="sans-serif" stroke="none">E</text>
    </g>
    <g fill="lime" text-rendering="geometricPrecision" shape-rendering="geometricPrecision" transform="matrix(1,0,0,1,81,30)" stroke="lime">
      <rect x="24.5" width="30" height="30" y="-14.6667" clip-path="url(#clipPath2)" stroke="none"/>
    </g>
    <g text-rendering="geometricPrecision" stroke-miterlimit="1.45" shape-rendering="geometricPrecision" transform="matrix(1,0,0,1,81,30)" stroke-linecap="butt">
      <rect fill="none" x="24.5" width="30" height="30" y="-14.6667" clip-path="url(#clipPath2)"/>
      <text x="35.3311" xml:space="preserve" y="4.4876" clip-path="url(#clipPath2)" font-family="sans-serif" stroke="none">R</text>
    </g>
    <g fill="lime" text-rendering="geometricPrecision" shape-rendering="geometricPrecision" transform="matrix(1,0,0,1,81,30)" stroke="lime">
      <rect x="84.5" width="30" height="30" y="-14.6667" clip-path="url(#clipPath2)" stroke="none"/>
    </g>
    <g text-rendering="geometricPrecision" stroke-miterlimit="1.45" shape-rendering="geometricPrecision" transform="matrix(1,0,0,1,81,30)" stroke-linecap="butt">
      <rect fill="none" x="84.5" width="30" height="30" y="-14.6667" clip-path="url(#clipPath2)"/>
      <text x="95.835" xml:space="preserve" y="4.4876" clip-path="url(#clipPath2)" font-family="sans-serif" stroke="none">T</text>
    </g>
    <g fill="red" text-rendering="geometricPrecision" shape-rendering="geometricPrecision" transform="matrix(1,0,0,1,81,30)" stroke="red">
      <rect x="114.5" width="30" height="30" y="-14.6667" clip-path="url(#clipPath2)" stroke="none"/>
    </g>
    <g text-rendering="geometricPrecision" stroke-miterlimit="1.45" shape-rendering="geometricPrecision" transform="matrix(1,0,0,1,81,30)" stroke-linecap="butt">
      <rect fill="none" x="114.5" width="30" height="30" y="-14.6667" clip-path="url(#clipPath2)"/>
      <text x="127.7305" xml:space="preserve" y="4.4876" clip-path="url(#clipPath2)" font-family="sans-serif" stroke="none">I</text>
    </g>
    <g fill="red" text-rendering="geometricPrecision" shape-rendering="geometricPrecision" transform="matrix(1,0,0,1,81,30)" stroke="red">
      <rect x="144.5" width="30" height="30" y="-14.6667" clip-path="url(#clipPath2)" stroke="none"/>
    </g>
    <g text-rendering="geometricPrecision" stroke-miterlimit="1.45" shape-rendering="geometricPrecision" transform="matrix(1,0,0,1,81,30)" stroke-linecap="butt">
      <rect fill="none" x="144.5" width="30" height="30" y="-14.6667" clip-path="url(#clipPath2)"/>
      <text x="154.7773" xml:space="preserve" y="4.4876" clip-path="url(#clipPath2)" font-family="sans-serif" stroke="none">O</text>
    </g>
    <g fill="red" text-rendering="geometricPrecision" shape-rendering="geometricPrecision" transform="matrix(1,0,0,1,81,30)" stroke="red">
      <rect x="174.5" width="30" height="30" y="-14.6667" clip-path="url(#clipPath2)" stroke="none"/>
    </g>
    <g text-rendering="geometricPrecision" stroke-miterlimit="1.45" shape-rendering="geometricPrecision" transform="matrix(1,0,0,1,81,30)" stroke-linecap="butt">
      <rect fill="none" x="174.5" width="30" height="30" y="-14.6667" clip-path="url(#clipPath2)"/>
      <text x="185.0117" xml:space="preserve" y="4.4876" clip-path="url(#clipPath2)" font-family="sans-serif" stroke="none">N</text>
    </g>
    <g fill="lime" text-rendering="geometricPrecision" shape-rendering="geometricPrecision" transform="matrix(1,0,0,1,81,30)" stroke="lime">
      <rect x="-35.5" width="30" height="30" y="92.6667" clip-path="url(#clipPath2)" stroke="none"/>
    </g>
    <g text-rendering="geometricPrecision" stroke-miterlimit="1.45" shape-rendering="geometricPrecision" transform="matrix(1,0,0,1,81,30)" stroke-linecap="butt">
      <rect fill="none" x="-35.5" width="30" height="30" y="92.6667" clip-path="url(#clipPath2)"/>
      <text x="-22.2695" xml:space="preserve" y="111.821" clip-path="url(#clipPath2)" font-family="sans-serif" stroke="none">I</text>
    </g>
    <g fill="silver" text-rendering="geometricPrecision" shape-rendering="geometricPrecision" transform="matrix(1,0,0,1,81,30)" stroke="silver">
      <rect x="-5.5" width="30" height="30" y="92.6667" clip-path="url(#clipPath2)" stroke="none"/>
    </g>
    <g text-rendering="geometricPrecision" stroke-miterlimit="1.45" shape-rendering="geometricPrecision" transform="matrix(1,0,0,1,81,30)" stroke-linecap="butt">
      <rect fill="none" x="-5.5" width="30" height="30" y="92.6667" clip-path="url(#clipPath2)"/>
      <text x="5.0117" xml:space="preserve" y="111.821" clip-path="url(#clipPath2)" font-family="sans-serif" stroke="none">N</text>
    </g>
    <g fill="lime" text-rendering="geometricPrecision" shape-rendering="geometricPrecision" transform="matrix(1,0,0,1,81,30)" stroke="lime">
      <rect x="54.5" width="30" height="30" y="92.6667" clip-path="url(#clipPath2)" stroke="none"/>
    </g>
    <g text-rendering="geometricPrecision" stroke-miterlimit="1.45" shape-rendering="geometricPrecision" transform="matrix(1,0,0,1,81,30)" stroke-linecap="butt">
      <rect fill="none" x="54.5" width="30" height="30" y="92.6667" clip-path="url(#clipPath2)"/>
      <text x="65.6914" xml:space="preserve" y="111.821" clip-path="url(#clipPath2)" font-family="sans-serif" stroke="none">S</text>
    </g>
    <g fill="lime" text-rendering="geometricPrecision" shape-rendering="geometricPrecision" transform="matrix(1,0,0,1,81,30)" stroke="lime">
      <rect x="-65.5" width="30" height="30" y="92.6667" clip-path="url(#clipPath2)" stroke="none"/>
    </g>
    <g text-rendering="geometricPrecision" stroke-miterlimit="1.45" shape-rendering="geometricPrecision" transform="matrix(1,0,0,1,81,30)" stroke-linecap="butt">
      <rect fill="none" x="-65.5" width="30" height="30" y="92.6667" clip-path="url(#clipPath2)"/>
      <text x="-54.291" xml:space="preserve" y="111.821" clip-path="url(#clipPath2)" font-family="sans-serif" stroke="none">E</text>
    </g>
    <g fill="lime" text-rendering="geometricPrecision" shape-rendering="geometricPrecision" transform="matrix(1,0,0,1,81,30)" stroke="lime">
      <rect x="24.5" width="30" height="30" y="92.6667" clip-path="url(#clipPath2)" stroke="none"/>
    </g>
    <g text-rendering="geometricPrecision" stroke-miterlimit="1.45" shape-rendering="geometricPrecision" transform="matrix(1,0,0,1,81,30)" stroke-linecap="butt">
      <rect fill="none" x="24.5" width="30" height="30" y="92.6667" clip-path="url(#clipPath2)"/>
      <text x="35.3311" xml:space="preserve" y="111.821" clip-path="url(#clipPath2)" font-family="sans-serif" stroke="none">R</text>
    </g>
    <g fill="lime" text-rendering="geometricPrecision" shape-rendering="geometricPrecision" transform="matrix(1,0,0,1,81,30)" stroke="lime">
      <rect x="84.5" width="30" height="30" y="92.6667" clip-path="url(#clipPath2)" stroke="none"/>
    </g>
    <g text-rendering="geometricPrecision" stroke-miterlimit="1.45" shape-rendering="geometricPrecision" transform="matrix(1,0,0,1,81,30)" stroke-linecap="butt">
      <rect fill="none" x="84.5" width="30" height="30" y="92.6667" clip-path="url(#clipPath2)"/>
      <text x="95.835" xml:space="preserve" y="111.821" clip-path="url(#clipPath2)" font-family="sans-serif" stroke="none">T</text>
    </g>
    <g fill="silver" text-rendering="geometricPrecision" shape-rendering="geometricPrecision" transform="matrix(1,0,0,1,81,30)" stroke="silver">
      <rect x="114.5" width="30" height="30" y="92.6667" clip-path="url(#clipPath2)" stroke="none"/>
    </g>
    <g text-rendering="geometricPrecision" stroke-miterlimit="1.45" shape-rendering="geometricPrecision" transform="matrix(1,0,0,1,81,30)" stroke-linecap="butt">
      <rect fill="none" x="114.5" width="30" height="30" y="92.6667" clip-path="url(#clipPath2)"/>
      <text x="127.7305" xml:space="preserve" y="111.821" clip-path="url(#clipPath2)" font-family="sans-serif" stroke="none">I</text>
    </g>
    <g fill="red" text-rendering="geometricPrecision" shape-rendering="geometricPrecision" transform="matrix(1,0,0,1,81,30)" stroke="red">
      <rect x="144.5" width="30" height="30" y="92.6667" clip-path="url(#clipPath2)" stroke="none"/>
    </g>
    <g text-rendering="geometricPrecision" stroke-miterlimit="1.45" shape-rendering="geometricPrecision" transform="matrix(1,0,0,1,81,30)" stroke-linecap="butt">
      <rect fill="none" x="144.5" width="30" height="30" y="92.6667" clip-path="url(#clipPath2)"/>
      <text x="154.7773" xml:space="preserve" y="111.821" clip-path="url(#clipPath2)" font-family="sans-serif" stroke="none">O</text>
    </g>
    <g fill="red" text-rendering="geometricPrecision" shape-rendering="geometricPrecision" transform="matrix(1,0,0,1,81,30)" stroke="red">
      <rect x="174.5" width="30" height="30" y="92.6667" clip-path="url(#clipPath2)" stroke="none"/>
    </g>
    <g text-rendering="geometricPrecision" stroke-miterlimit="1.45" shape-rendering="geometricPrecision" transform="matrix(1,0,0,1,81,30)" stroke-linecap="butt">
      <rect fill="none" x="174.5" width="30" height="30" y="92.6667" clip-path="url(#clipPath2)"/>
      <text x="185.0117" xml:space="preserve" y="111.821" clip-path="url(#clipPath2)" font-family="sans-serif" stroke="none">N</text>
      <path fill="none" d="M9.5 122.6667 L9.5 160.3333 L129.5 160.3333 L129.5 130.6667" clip-path="url(#clipPath2)"/>
      <path d="M129.5 122.6667 L124.5 134.6667 L129.5 131.6667 L134.5 134.6667 Z" clip-path="url(#clipPath2)" stroke="none"/>
      <path fill="none" d="M114.5 77.6667 L32.5 77.6667" clip-path="url(#clipPath2)"/>
      <path d="M24.5 77.6667 L36.5 82.6667 L33.5 77.6667 L36.5 72.6667 Z" clip-path="url(#clipPath2)" stroke="none"/>
    </g>
  </g>
</svg>
