<?xml version="1.0" encoding="UTF-8"?><svg xmlns="http://www.w3.org/2000/svg" xmlns:xlink="http://www.w3.org/1999/xlink" fill-opacity="1" color-rendering="auto" color-interpolation="auto" text-rendering="auto" stroke="black" stroke-linecap="square" width="515" stroke-miterlimit="10" shape-rendering="auto" stroke-opacity="1" fill="black" stroke-dasharray="none" font-weight="normal" stroke-width="1" height="144" font-family="'Dialog'" font-style="normal" stroke-linejoin="miter" font-size="12px" stroke-dashoffset="0" image-rendering="auto">
  <!--Generated by ySVG 2.5-->
  <defs id="genericDefs"/>
  <g>
    <defs id="defs1">
      <clipPath clipPathUnits="userSpaceOnUse" id="clipPath1">
        <path d="M0 0 L515 0 L515 144 L0 144 L0 0 Z"/>
      </clipPath>
      <clipPath clipPathUnits="userSpaceOnUse" id="clipPath2">
        <path d="M85 222 L600 222 L600 366 L85 366 L85 222 Z"/>
      </clipPath>
    </defs>
    <g fill="rgb(255,204,0)" text-rendering="geometricPrecision" shape-rendering="geometricPrecision" transform="matrix(1,0,0,1,-85,-222)" stroke="rgb(255,204,0)">
      <rect x="100" width="30" height="30" y="321" clip-path="url(#clipPath2)" stroke="none"/>
    </g>
    <g text-rendering="geometricPrecision" stroke-miterlimit="1.45" shape-rendering="geometricPrecision" transform="matrix(1,0,0,1,-85,-222)" stroke-linecap="butt">
      <rect fill="none" x="100" width="30" height="30" y="321" clip-path="url(#clipPath2)"/>
    </g>
    <g fill="rgb(255,204,0)" text-rendering="geometricPrecision" shape-rendering="geometricPrecision" transform="matrix(1,0,0,1,-85,-222)" stroke="rgb(255,204,0)">
      <rect x="191" width="30" height="30" y="321" clip-path="url(#clipPath2)" stroke="none"/>
    </g>
    <g text-rendering="geometricPrecision" stroke-miterlimit="1.45" shape-rendering="geometricPrecision" transform="matrix(1,0,0,1,-85,-222)" stroke-linecap="butt">
      <rect fill="none" x="191" width="30" height="30" y="321" clip-path="url(#clipPath2)"/>
      <text x="291.2783" xml:space="preserve" y="340.1543" clip-path="url(#clipPath2)" font-family="sans-serif" stroke="none">...</text>
    </g>
    <g fill="rgb(255,204,0)" text-rendering="geometricPrecision" shape-rendering="geometricPrecision" transform="matrix(1,0,0,1,-85,-222)" stroke="rgb(255,204,0)">
      <rect x="373" width="30" height="30" y="321" clip-path="url(#clipPath2)" stroke="none"/>
    </g>
    <g text-rendering="geometricPrecision" stroke-miterlimit="1.45" shape-rendering="geometricPrecision" transform="matrix(1,0,0,1,-85,-222)" stroke-linecap="butt">
      <rect fill="none" x="373" width="30" height="30" y="321" clip-path="url(#clipPath2)"/>
    </g>
    <g fill="rgb(255,204,0)" text-rendering="geometricPrecision" shape-rendering="geometricPrecision" transform="matrix(1,0,0,1,-85,-222)" stroke="rgb(255,204,0)">
      <rect x="464" width="30" height="30" y="321" clip-path="url(#clipPath2)" stroke="none"/>
    </g>
    <g text-rendering="geometricPrecision" stroke-miterlimit="1.45" shape-rendering="geometricPrecision" transform="matrix(1,0,0,1,-85,-222)" stroke-linecap="butt">
      <rect fill="none" x="464" width="30" height="30" y="321" clip-path="url(#clipPath2)"/>
      <rect x="555" y="321" clip-path="url(#clipPath2)" fill="none" width="30" stroke-dasharray="6,2" height="30"/>
    </g>
    <g fill="red" text-rendering="geometricPrecision" shape-rendering="geometricPrecision" transform="matrix(1,0,0,1,-85,-222)" stroke="red">
      <rect x="237" width="30" height="30" y="237" clip-path="url(#clipPath2)" stroke="none"/>
    </g>
    <g text-rendering="geometricPrecision" stroke-miterlimit="1.45" shape-rendering="geometricPrecision" transform="matrix(1,0,0,1,-85,-222)" stroke-linecap="butt">
      <rect fill="none" x="237" width="30" height="30" y="237" clip-path="url(#clipPath2)"/>
      <text x="178.9844" font-size="16px" y="257.5391" clip-path="url(#clipPath2)" font-family="sans-serif" stroke="none" font-weight="bold" xml:space="preserve">begin:</text>
    </g>
    <g fill="red" text-rendering="geometricPrecision" shape-rendering="geometricPrecision" transform="matrix(1,0,0,1,-85,-222)" stroke="red">
      <rect x="419" width="30" height="30" y="237" clip-path="url(#clipPath2)" stroke="none"/>
    </g>
    <g text-rendering="geometricPrecision" stroke-miterlimit="1.45" shape-rendering="geometricPrecision" transform="matrix(1,0,0,1,-85,-222)" stroke-linecap="butt">
      <rect fill="none" x="419" width="30" height="30" y="237" clip-path="url(#clipPath2)"/>
      <text x="367.9531" font-size="16px" y="257.5391" clip-path="url(#clipPath2)" font-family="sans-serif" stroke="none" font-weight="bold" xml:space="preserve">end:</text>
      <path fill="none" d="M138 336 L183 336" clip-path="url(#clipPath2)"/>
      <path d="M130 336 L142 341 L139 336 L142 331 Z" clip-path="url(#clipPath2)" stroke="none"/>
      <path d="M191 336 L179 331 L182 336 L179 341 Z" clip-path="url(#clipPath2)" stroke="none"/>
      <path fill="none" d="M229 336 L274 336" clip-path="url(#clipPath2)"/>
      <path d="M221 336 L233 341 L230 336 L233 331 Z" clip-path="url(#clipPath2)" stroke="none"/>
      <path d="M282 336 L270 331 L273 336 L270 341 Z" clip-path="url(#clipPath2)" stroke="none"/>
      <path fill="none" d="M320 336 L365 336" clip-path="url(#clipPath2)"/>
      <path d="M312 336 L324 341 L321 336 L324 331 Z" clip-path="url(#clipPath2)" stroke="none"/>
      <path d="M373 336 L361 331 L364 336 L361 341 Z" clip-path="url(#clipPath2)" stroke="none"/>
      <path fill="none" d="M411 336 L456 336" clip-path="url(#clipPath2)"/>
      <path d="M403 336 L415 341 L412 336 L415 331 Z" clip-path="url(#clipPath2)" stroke="none"/>
      <path d="M464 336 L452 331 L455 336 L452 341 Z" clip-path="url(#clipPath2)" stroke="none"/>
      <path fill="none" d="M502 336 L547 336" clip-path="url(#clipPath2)"/>
      <path d="M494 336 L506 341 L503 336 L506 331 Z" clip-path="url(#clipPath2)" stroke="none"/>
      <path d="M555 336 L543 331 L546 336 L543 341 Z" clip-path="url(#clipPath2)" stroke="none"/>
      <path fill="none" d="M237 261.1971 L136.8201 322.6212" clip-path="url(#clipPath2)" stroke="red"/>
      <path fill="red" d="M130 326.8029 L142.8437 324.793 L137.6726 322.0985 L137.6166 316.2679 Z" clip-path="url(#clipPath2)" stroke="none"/>
      <path fill="none" d="M449 261.2647 L548.1936 322.5313" clip-path="url(#clipPath2)" stroke="red"/>
      <path fill="red" d="M555 326.7353 L547.4179 316.1754 L547.3428 322.0059 L542.163 324.6834 Z" clip-path="url(#clipPath2)" stroke="none"/>
    </g>
  </g>
</svg>
