<?xml version="1.0" encoding="UTF-8"?><svg xmlns="http://www.w3.org/2000/svg" xmlns:xlink="http://www.w3.org/1999/xlink" fill-opacity="1" color-rendering="auto" color-interpolation="auto" text-rendering="auto" stroke="black" stroke-linecap="square" width="572" stroke-miterlimit="10" shape-rendering="auto" stroke-opacity="1" fill="black" stroke-dasharray="none" font-weight="normal" stroke-width="1" height="150" font-family="'Dialog'" font-style="normal" stroke-linejoin="miter" font-size="12px" stroke-dashoffset="0" image-rendering="auto">
  <!--Generated by ySVG 2.5-->
  <defs id="genericDefs"/>
  <g>
    <defs id="defs1">
      <clipPath clipPathUnits="userSpaceOnUse" id="clipPath1">
        <path d="M0 0 L572 0 L572 150 L0 150 L0 0 Z"/>
      </clipPath>
      <clipPath clipPathUnits="userSpaceOnUse" id="clipPath2">
        <path d="M111 246 L683 246 L683 396 L111 396 L111 246 Z"/>
      </clipPath>
    </defs>
    <g fill="rgb(255,204,0)" text-rendering="geometricPrecision" shape-rendering="geometricPrecision" transform="matrix(1,0,0,1,-111,-246)" stroke="rgb(255,204,0)">
      <rect x="216" width="60" height="30" y="351" clip-path="url(#clipPath2)" stroke="none"/>
    </g>
    <g text-rendering="geometricPrecision" stroke-miterlimit="1.45" shape-rendering="geometricPrecision" transform="matrix(1,0,0,1,-111,-246)" stroke-linecap="butt">
      <rect fill="none" x="216" width="60" height="30" y="351" clip-path="url(#clipPath2)"/>
      <text x="242.1826" xml:space="preserve" y="370.1543" clip-path="url(#clipPath2)" font-family="sans-serif" stroke="none">0</text>
      <rect x="576" y="351" clip-path="url(#clipPath2)" fill="none" width="60" stroke-dasharray="6,2" height="30"/>
    </g>
    <g fill="rgb(255,204,0)" text-rendering="geometricPrecision" shape-rendering="geometricPrecision" transform="matrix(1,0,0,1,-111,-246)" stroke="rgb(255,204,0)">
      <rect x="336" width="60" height="30" y="351" clip-path="url(#clipPath2)" stroke="none"/>
    </g>
    <g text-rendering="geometricPrecision" stroke-miterlimit="1.45" shape-rendering="geometricPrecision" transform="matrix(1,0,0,1,-111,-246)" stroke-linecap="butt">
      <rect fill="none" x="336" width="60" height="30" y="351" clip-path="url(#clipPath2)"/>
      <text x="362.1826" xml:space="preserve" y="370.1543" clip-path="url(#clipPath2)" font-family="sans-serif" stroke="none">1</text>
    </g>
    <g fill="rgb(255,204,0)" text-rendering="geometricPrecision" shape-rendering="geometricPrecision" transform="matrix(1,0,0,1,-111,-246)" stroke="rgb(255,204,0)">
      <rect x="456" width="60" height="30" y="351" clip-path="url(#clipPath2)" stroke="none"/>
    </g>
    <g text-rendering="geometricPrecision" stroke-miterlimit="1.45" shape-rendering="geometricPrecision" transform="matrix(1,0,0,1,-111,-246)" stroke-linecap="butt">
      <rect fill="none" x="456" width="60" height="30" y="351" clip-path="url(#clipPath2)"/>
      <text x="482.1826" xml:space="preserve" y="370.1543" clip-path="url(#clipPath2)" font-family="sans-serif" stroke="none">2</text>
    </g>
    <g fill="rgb(255,204,0)" text-rendering="geometricPrecision" shape-rendering="geometricPrecision" transform="matrix(1,0,0,1,-111,-246)" stroke="rgb(255,204,0)">
      <rect x="126" width="60" height="30" y="291" clip-path="url(#clipPath2)" stroke="none"/>
    </g>
    <g text-rendering="geometricPrecision" stroke-miterlimit="1.45" shape-rendering="geometricPrecision" transform="matrix(1,0,0,1,-111,-246)" stroke-linecap="butt">
      <rect fill="none" x="126" width="60" height="30" y="291" clip-path="url(#clipPath2)"/>
      <path fill="none" d="M284 366 L328 366" clip-path="url(#clipPath2)"/>
      <path d="M276 366 L288 371 L285 366 L288 361 Z" clip-path="url(#clipPath2)" stroke="none"/>
      <path d="M336 366 L324 361 L327 366 L324 371 Z" clip-path="url(#clipPath2)" stroke="none"/>
      <path fill="none" d="M404 366 L448 366" clip-path="url(#clipPath2)"/>
      <path d="M396 366 L408 371 L405 366 L408 361 Z" clip-path="url(#clipPath2)" stroke="none"/>
      <path d="M456 366 L444 361 L447 366 L444 371 Z" clip-path="url(#clipPath2)" stroke="none"/>
      <path fill="none" d="M524 366 L568 366" clip-path="url(#clipPath2)"/>
      <path d="M516 366 L528 371 L525 366 L528 361 Z" clip-path="url(#clipPath2)" stroke="none"/>
      <path d="M576 366 L564 361 L567 366 L564 371 Z" clip-path="url(#clipPath2)" stroke="none"/>
      <path fill="none" d="M178.5 321 L216.8436 346.5624" clip-path="url(#clipPath2)"/>
      <path d="M223.5 351 L216.2889 340.1833 L216.0115 346.0077 L210.7419 348.5039 Z" clip-path="url(#clipPath2)" stroke="none"/>
      <path fill="none" d="M233.5 291 L242.1848 343.1089" clip-path="url(#clipPath2)" stroke="red"/>
      <path fill="red" d="M243.5 351 L246.4592 338.3413 L242.0204 342.1225 L236.5952 339.9853 Z" clip-path="url(#clipPath2)" stroke="none"/>
      <path fill="none" d="M645.1667 291 L617.5366 343.9087" clip-path="url(#clipPath2)" stroke="red"/>
      <path fill="red" d="M613.8333 351 L623.8202 342.6776 L617.9995 343.0223 L614.9561 338.0486 Z" clip-path="url(#clipPath2)" stroke="none"/>
    </g>
  </g>
</svg>
