<?xml version="1.0" encoding="UTF-8"?><svg xmlns="http://www.w3.org/2000/svg" xmlns:xlink="http://www.w3.org/1999/xlink" fill-opacity="1" color-rendering="auto" color-interpolation="auto" text-rendering="auto" stroke="black" stroke-linecap="square" width="527" stroke-miterlimit="10" shape-rendering="auto" stroke-opacity="1" fill="black" stroke-dasharray="none" font-weight="normal" stroke-width="1" height="260" font-family="'Dialog'" font-style="normal" stroke-linejoin="miter" font-size="12px" stroke-dashoffset="0" image-rendering="auto">
  <!--Generated by ySVG 2.5-->
  <defs id="genericDefs"/>
  <g>
    <defs id="defs1">
      <clipPath clipPathUnits="userSpaceOnUse" id="clipPath1">
        <path d="M0 0 L527 0 L527 260 L0 260 L0 0 Z"/>
      </clipPath>
      <clipPath clipPathUnits="userSpaceOnUse" id="clipPath2">
        <path d="M-123 -5 L404 -5 L404 255 L-123 255 L-123 -5 Z"/>
      </clipPath>
    </defs>
    <g fill="rgb(255,204,0)" text-rendering="geometricPrecision" shape-rendering="geometricPrecision" transform="matrix(1,0,0,1,123,5)" stroke="rgb(255,204,0)">
      <rect x="-28" width="60" height="30" y="140" clip-path="url(#clipPath2)" stroke="none"/>
    </g>
    <g text-rendering="geometricPrecision" stroke-miterlimit="1.45" shape-rendering="geometricPrecision" transform="matrix(1,0,0,1,123,5)" stroke-linecap="butt">
      <rect fill="none" x="-28" width="60" height="30" y="140" clip-path="url(#clipPath2)"/>
      <text x="-1.8174" xml:space="preserve" y="159.1543" clip-path="url(#clipPath2)" font-family="sans-serif" stroke="none">0</text>
    </g>
    <g fill="rgb(255,204,0)" text-rendering="geometricPrecision" shape-rendering="geometricPrecision" transform="matrix(1,0,0,1,123,5)" stroke="rgb(255,204,0)">
      <rect x="12" width="60" height="30" y="70" clip-path="url(#clipPath2)" stroke="none"/>
    </g>
    <g text-rendering="geometricPrecision" stroke-miterlimit="1.45" shape-rendering="geometricPrecision" transform="matrix(1,0,0,1,123,5)" stroke-linecap="butt">
      <rect fill="none" x="12" width="60" height="30" y="70" clip-path="url(#clipPath2)"/>
      <text x="38.1826" xml:space="preserve" y="89.1543" clip-path="url(#clipPath2)" font-family="sans-serif" stroke="none">2</text>
    </g>
    <g fill="rgb(255,204,0)" text-rendering="geometricPrecision" shape-rendering="geometricPrecision" transform="matrix(1,0,0,1,123,5)" stroke="rgb(255,204,0)">
      <rect x="228.1429" width="60" height="30" y="70" clip-path="url(#clipPath2)" stroke="none"/>
    </g>
    <g text-rendering="geometricPrecision" stroke-miterlimit="1.45" shape-rendering="geometricPrecision" transform="matrix(1,0,0,1,123,5)" stroke-linecap="butt">
      <rect fill="none" x="228.1429" width="60" height="30" y="70" clip-path="url(#clipPath2)"/>
      <text x="254.3255" xml:space="preserve" y="89.1543" clip-path="url(#clipPath2)" font-family="sans-serif" stroke="none">7</text>
    </g>
    <g fill="rgb(255,204,0)" text-rendering="geometricPrecision" shape-rendering="geometricPrecision" transform="matrix(1,0,0,1,123,5)" stroke="rgb(255,204,0)">
      <rect x="120.0714" width="60" height="30" y="23" clip-path="url(#clipPath2)" stroke="none"/>
    </g>
    <g text-rendering="geometricPrecision" stroke-miterlimit="1.45" shape-rendering="geometricPrecision" transform="matrix(1,0,0,1,123,5)" stroke-linecap="butt">
      <rect fill="none" x="120.0714" width="60" height="30" y="23" clip-path="url(#clipPath2)"/>
      <text x="146.254" xml:space="preserve" y="42.1543" clip-path="url(#clipPath2)" font-family="sans-serif" stroke="none">6</text>
    </g>
    <g fill="rgb(255,204,0)" text-rendering="geometricPrecision" shape-rendering="geometricPrecision" transform="matrix(1,0,0,1,123,5)" stroke="rgb(255,204,0)">
      <rect x="52" width="60" height="30" y="140" clip-path="url(#clipPath2)" stroke="none"/>
    </g>
    <g text-rendering="geometricPrecision" stroke-miterlimit="1.45" shape-rendering="geometricPrecision" transform="matrix(1,0,0,1,123,5)" stroke-linecap="butt">
      <rect fill="none" x="52" width="60" height="30" y="140" clip-path="url(#clipPath2)"/>
      <text x="78.1826" xml:space="preserve" y="159.1543" clip-path="url(#clipPath2)" font-family="sans-serif" stroke="none">1</text>
    </g>
    <g fill="rgb(255,204,0)" text-rendering="geometricPrecision" shape-rendering="geometricPrecision" transform="matrix(1,0,0,1,123,5)" stroke="rgb(255,204,0)">
      <rect x="187.4286" width="60" height="30" y="140" clip-path="url(#clipPath2)" stroke="none"/>
    </g>
    <g text-rendering="geometricPrecision" stroke-miterlimit="1.45" shape-rendering="geometricPrecision" transform="matrix(1,0,0,1,123,5)" stroke-linecap="butt">
      <rect fill="none" x="187.4286" width="60" height="30" y="140" clip-path="url(#clipPath2)"/>
      <text x="213.6112" xml:space="preserve" y="159.1543" clip-path="url(#clipPath2)" font-family="sans-serif" stroke="none">5</text>
      <rect x="268.8571" y="140" clip-path="url(#clipPath2)" fill="none" width="60" stroke-dasharray="6,2" height="30"/>
    </g>
    <g fill="rgb(255,204,0)" text-rendering="geometricPrecision" shape-rendering="geometricPrecision" transform="matrix(1,0,0,1,123,5)" stroke="rgb(255,204,0)">
      <rect x="147.4286" width="60" height="30" y="210" clip-path="url(#clipPath2)" stroke="none"/>
    </g>
    <g text-rendering="geometricPrecision" stroke-miterlimit="1.45" shape-rendering="geometricPrecision" transform="matrix(1,0,0,1,123,5)" stroke-linecap="butt">
      <rect fill="none" x="147.4286" width="60" height="30" y="210" clip-path="url(#clipPath2)"/>
      <text x="173.6112" xml:space="preserve" y="229.1543" clip-path="url(#clipPath2)" font-family="sans-serif" stroke="none">3</text>
    </g>
    <g fill="rgb(255,204,0)" text-rendering="geometricPrecision" shape-rendering="geometricPrecision" transform="matrix(1,0,0,1,123,5)" stroke="rgb(255,204,0)">
      <rect x="227.4286" width="60" height="30" y="210" clip-path="url(#clipPath2)" stroke="none"/>
    </g>
    <g text-rendering="geometricPrecision" stroke-miterlimit="1.45" shape-rendering="geometricPrecision" transform="matrix(1,0,0,1,123,5)" stroke-linecap="butt">
      <rect fill="none" x="227.4286" width="60" height="30" y="210" clip-path="url(#clipPath2)"/>
      <text x="253.6112" xml:space="preserve" y="229.1543" clip-path="url(#clipPath2)" font-family="sans-serif" stroke="none">4</text>
    </g>
    <g fill="rgb(255,204,0)" text-rendering="geometricPrecision" shape-rendering="geometricPrecision" transform="matrix(1,0,0,1,123,5)" stroke="rgb(255,204,0)">
      <rect x="-83" width="60" height="30" y="10" clip-path="url(#clipPath2)" stroke="none"/>
    </g>
    <g text-rendering="geometricPrecision" stroke-miterlimit="1.45" shape-rendering="geometricPrecision" transform="matrix(1,0,0,1,123,5)" stroke-linecap="butt">
      <rect fill="none" x="-83" width="60" height="30" y="10" clip-path="url(#clipPath2)"/>
      <path fill="none" d="M33.4286 100 L14.5405 133.0541" clip-path="url(#clipPath2)"/>
      <path d="M10.5714 140 L20.8663 132.0618 L15.0367 132.1858 L12.1839 127.1004 Z" clip-path="url(#clipPath2)" stroke="none"/>
      <path fill="none" d="M120.0714 51.0469 L79.3363 68.7626" clip-path="url(#clipPath2)"/>
      <path d="M72 71.9531 L84.9985 71.7525 L80.2533 68.3637 L81.0103 62.5821 Z" clip-path="url(#clipPath2)" stroke="none"/>
      <path fill="none" d="M180.0714 51.0469 L220.8066 68.7626" clip-path="url(#clipPath2)"/>
      <path d="M228.1429 71.9531 L219.1326 62.5821 L219.8896 68.3637 L215.1444 71.7525 Z" clip-path="url(#clipPath2)" stroke="none"/>
      <path fill="none" d="M50.5714 100 L69.4595 133.0541" clip-path="url(#clipPath2)"/>
      <path d="M73.4286 140 L71.8161 127.1004 L68.9633 132.1858 L63.1337 132.0618 Z" clip-path="url(#clipPath2)" stroke="none"/>
      <path fill="none" d="M249.4184 100 L230.1752 133.0847" clip-path="url(#clipPath2)"/>
      <path d="M226.1531 140 L236.5084 132.1409 L230.678 132.2202 L227.8643 127.1131 Z" clip-path="url(#clipPath2)" stroke="none"/>
      <path fill="none" d="M266.8673 100 L286.1105 133.0847" clip-path="url(#clipPath2)"/>
      <path d="M290.1327 140 L288.4215 127.1131 L285.6077 132.2202 L279.7773 132.1409 Z" clip-path="url(#clipPath2)" stroke="none"/>
      <path fill="none" d="M208.8571 170 L189.9691 203.0541" clip-path="url(#clipPath2)"/>
      <path d="M186 210 L196.2949 202.0618 L190.4653 202.1858 L187.6125 197.1004 Z" clip-path="url(#clipPath2)" stroke="none"/>
      <path fill="none" d="M226 170 L244.888 203.0541" clip-path="url(#clipPath2)"/>
      <path d="M248.8571 210 L247.2447 197.1004 L244.3919 202.1858 L238.5623 202.0618 Z" clip-path="url(#clipPath2)" stroke="none"/>
      <path fill="none" d="M-23 26.9205 L112.0878 35.5684" clip-path="url(#clipPath2)"/>
      <path d="M120.0714 36.0795 L108.4154 30.3231 L111.0898 35.5045 L107.7765 40.3026 Z" clip-path="url(#clipPath2)" stroke="none"/>
      <path fill="none" d="M-60.8571 100 L-21.1635 134.732" clip-path="url(#clipPath2)" stroke="red"/>
      <path fill="red" d="M-15.1429 140 L-20.8813 128.3351 L-21.916 134.0735 L-27.4663 135.8608 Z" clip-path="url(#clipPath2)" stroke="none"/>
      <path fill="none" d="M346 100 L316.9206 133.9259" clip-path="url(#clipPath2)" stroke="red"/>
      <path fill="red" d="M311.7143 140 L323.3201 134.1429 L317.5714 133.1667 L315.7275 127.635 Z" clip-path="url(#clipPath2)" stroke="none"/>
    </g>
  </g>
</svg>
