<?xml version="1.0" encoding="UTF-8"?><svg xmlns="http://www.w3.org/2000/svg" xmlns:xlink="http://www.w3.org/1999/xlink" fill-opacity="1" color-rendering="auto" color-interpolation="auto" text-rendering="auto" stroke="black" stroke-linecap="square" width="371" stroke-miterlimit="10" shape-rendering="auto" stroke-opacity="1" fill="black" stroke-dasharray="none" font-weight="normal" stroke-width="1" height="263" font-family="'Dialog'" font-style="normal" stroke-linejoin="miter" font-size="12px" stroke-dashoffset="0" image-rendering="auto">
  <!--Generated by ySVG 2.5-->
  <defs id="genericDefs"/>
  <g>
    <defs id="defs1">
      <clipPath clipPathUnits="userSpaceOnUse" id="clipPath1">
        <path d="M0 0 L371 0 L371 263 L0 263 L0 0 Z"/>
      </clipPath>
      <clipPath clipPathUnits="userSpaceOnUse" id="clipPath2">
        <path d="M-60 -8 L311 -8 L311 255 L-60 255 L-60 -8 Z"/>
      </clipPath>
    </defs>
    <g fill="white" text-rendering="geometricPrecision" shape-rendering="geometricPrecision" transform="matrix(1,0,0,1,60,8)" stroke="white">
      <circle r="15" clip-path="url(#clipPath2)" cx="150.8214" cy="31" stroke="none"/>
    </g>
    <g text-rendering="geometricPrecision" stroke-miterlimit="1.45" shape-rendering="geometricPrecision" transform="matrix(1,0,0,1,60,8)" stroke-linecap="butt">
      <circle fill="none" r="15" clip-path="url(#clipPath2)" cx="150.8214" cy="31"/>
      <text x="143.1867" xml:space="preserve" y="35.1543" clip-path="url(#clipPath2)" font-family="sans-serif" stroke="none">13</text>
    </g>
    <g fill="rgb(153,204,255)" text-rendering="geometricPrecision" shape-rendering="geometricPrecision" transform="matrix(1,0,0,1,60,8)" stroke="rgb(153,204,255)">
      <circle r="15" clip-path="url(#clipPath2)" cx="61.8214" cy="85" stroke="none"/>
    </g>
    <g text-rendering="geometricPrecision" stroke-miterlimit="1.45" shape-rendering="geometricPrecision" transform="matrix(1,0,0,1,60,8)" stroke-linecap="butt">
      <circle fill="none" r="15" clip-path="url(#clipPath2)" cx="61.8214" cy="85"/>
      <text x="54.1867" xml:space="preserve" y="89.1543" clip-path="url(#clipPath2)" font-family="sans-serif" stroke="none">21</text>
    </g>
    <g fill="rgb(153,204,255)" text-rendering="geometricPrecision" shape-rendering="geometricPrecision" transform="matrix(1,0,0,1,60,8)" stroke="rgb(153,204,255)">
      <circle r="15" clip-path="url(#clipPath2)" cx="239.8214" cy="85" stroke="none"/>
    </g>
    <g text-rendering="geometricPrecision" stroke-miterlimit="1.45" shape-rendering="geometricPrecision" transform="matrix(1,0,0,1,60,8)" stroke-linecap="butt">
      <circle fill="none" r="15" clip-path="url(#clipPath2)" cx="239.8214" cy="85"/>
      <text x="232.1867" xml:space="preserve" y="89.1543" clip-path="url(#clipPath2)" font-family="sans-serif" stroke="none">16</text>
    </g>
    <g fill="rgb(255,153,0)" text-rendering="geometricPrecision" shape-rendering="geometricPrecision" transform="matrix(1,0,0,1,60,8)" stroke="rgb(255,153,0)">
      <circle r="15" clip-path="url(#clipPath2)" cx="11.8214" cy="155" stroke="none"/>
    </g>
    <g text-rendering="geometricPrecision" stroke-miterlimit="1.45" shape-rendering="geometricPrecision" transform="matrix(1,0,0,1,60,8)" stroke-linecap="butt">
      <circle fill="none" r="15" clip-path="url(#clipPath2)" cx="11.8214" cy="155"/>
      <text x="4.1867" xml:space="preserve" y="159.1543" clip-path="url(#clipPath2)" font-family="sans-serif" stroke="none">24</text>
    </g>
    <g fill="rgb(255,153,0)" text-rendering="geometricPrecision" shape-rendering="geometricPrecision" transform="matrix(1,0,0,1,60,8)" stroke="rgb(255,153,0)">
      <circle r="15" clip-path="url(#clipPath2)" cx="111.8214" cy="155" stroke="none"/>
    </g>
    <g text-rendering="geometricPrecision" stroke-miterlimit="1.45" shape-rendering="geometricPrecision" transform="matrix(1,0,0,1,60,8)" stroke-linecap="butt">
      <circle fill="none" r="15" clip-path="url(#clipPath2)" cx="111.8214" cy="155"/>
      <text x="104.1867" xml:space="preserve" y="159.1543" clip-path="url(#clipPath2)" font-family="sans-serif" stroke="none">31</text>
    </g>
    <g fill="rgb(255,153,0)" text-rendering="geometricPrecision" shape-rendering="geometricPrecision" transform="matrix(1,0,0,1,60,8)" stroke="rgb(255,153,0)">
      <circle r="15" clip-path="url(#clipPath2)" cx="214.8214" cy="155" stroke="none"/>
    </g>
    <g text-rendering="geometricPrecision" stroke-miterlimit="1.45" shape-rendering="geometricPrecision" transform="matrix(1,0,0,1,60,8)" stroke-linecap="butt">
      <circle fill="none" r="15" clip-path="url(#clipPath2)" cx="214.8214" cy="155"/>
      <text x="207.1867" xml:space="preserve" y="159.1543" clip-path="url(#clipPath2)" font-family="sans-serif" stroke="none">19</text>
    </g>
    <g fill="rgb(255,153,0)" text-rendering="geometricPrecision" shape-rendering="geometricPrecision" transform="matrix(1,0,0,1,60,8)" stroke="rgb(255,153,0)">
      <circle r="15" clip-path="url(#clipPath2)" cx="264.8214" cy="155" stroke="none"/>
    </g>
    <g text-rendering="geometricPrecision" stroke-miterlimit="1.45" shape-rendering="geometricPrecision" transform="matrix(1,0,0,1,60,8)" stroke-linecap="butt">
      <circle fill="none" r="15" clip-path="url(#clipPath2)" cx="264.8214" cy="155"/>
      <text x="257.1867" xml:space="preserve" y="159.1543" clip-path="url(#clipPath2)" font-family="sans-serif" stroke="none">68</text>
    </g>
    <g fill="rgb(153,204,0)" text-rendering="geometricPrecision" shape-rendering="geometricPrecision" transform="matrix(1,0,0,1,60,8)" stroke="rgb(153,204,0)">
      <circle r="15" clip-path="url(#clipPath2)" cx="-13.1786" cy="225" stroke="none"/>
    </g>
    <g text-rendering="geometricPrecision" stroke-miterlimit="1.45" shape-rendering="geometricPrecision" transform="matrix(1,0,0,1,60,8)" stroke-linecap="butt">
      <circle fill="none" r="15" clip-path="url(#clipPath2)" cx="-13.1786" cy="225"/>
      <text x="-20.8133" xml:space="preserve" y="229.1543" clip-path="url(#clipPath2)" font-family="sans-serif" stroke="none">65</text>
    </g>
    <g fill="rgb(153,204,0)" text-rendering="geometricPrecision" shape-rendering="geometricPrecision" transform="matrix(1,0,0,1,60,8)" stroke="rgb(153,204,0)">
      <circle r="15" clip-path="url(#clipPath2)" cx="36.8214" cy="225" stroke="none"/>
    </g>
    <g text-rendering="geometricPrecision" stroke-miterlimit="1.45" shape-rendering="geometricPrecision" transform="matrix(1,0,0,1,60,8)" stroke-linecap="butt">
      <circle fill="none" r="15" clip-path="url(#clipPath2)" cx="36.8214" cy="225"/>
      <text x="29.1867" xml:space="preserve" y="229.1543" clip-path="url(#clipPath2)" font-family="sans-serif" stroke="none">26</text>
    </g>
    <g fill="rgb(153,204,0)" text-rendering="geometricPrecision" shape-rendering="geometricPrecision" transform="matrix(1,0,0,1,60,8)" stroke="rgb(153,204,0)">
      <circle r="15" clip-path="url(#clipPath2)" cx="86.8214" cy="225" stroke="none"/>
    </g>
    <g text-rendering="geometricPrecision" stroke-miterlimit="1.45" shape-rendering="geometricPrecision" transform="matrix(1,0,0,1,60,8)" stroke-linecap="butt">
      <circle fill="none" r="15" clip-path="url(#clipPath2)" cx="86.8214" cy="225"/>
      <text x="79.1867" xml:space="preserve" y="229.1543" clip-path="url(#clipPath2)" font-family="sans-serif" stroke="none">32</text>
    </g>
    <g fill="rgb(153,204,255)" text-rendering="geometricPrecision" shape-rendering="geometricPrecision" transform="matrix(1,0,0,1,60,8)" stroke="rgb(153,204,255)">
      <path d="M179.8214 27.5 L182.1175 23.0433 L186.8925 24.5711 L185.3647 19.7961 L189.8214 17.5 L185.3647 15.2039 L186.8925 10.4289 L182.1175 11.9567 L179.8214 7.5 L177.5253 11.9567 L172.7504 10.4289 L174.2782 15.2039 L169.8214 17.5 L174.2782 19.7961 L172.7504 24.5711 L177.5253 23.0433 Z" fill-rule="evenodd" clip-path="url(#clipPath2)" stroke="none"/>
    </g>
    <g text-rendering="geometricPrecision" stroke-miterlimit="1.45" shape-rendering="geometricPrecision" transform="matrix(1,0,0,1,60,8)" stroke-linecap="butt">
      <path fill="none" d="M179.8214 27.5 L182.1175 23.0433 L186.8925 24.5711 L185.3647 19.7961 L189.8214 17.5 L185.3647 15.2039 L186.8925 10.4289 L182.1175 11.9567 L179.8214 7.5 L177.5253 11.9567 L172.7504 10.4289 L174.2782 15.2039 L169.8214 17.5 L174.2782 19.7961 L172.7504 24.5711 L177.5253 23.0433 Z" fill-rule="evenodd" clip-path="url(#clipPath2)"/>
      <text x="176.004" xml:space="preserve" y="21.6543" clip-path="url(#clipPath2)" font-family="sans-serif" stroke="none">0</text>
    </g>
    <g fill="rgb(153,204,255)" text-rendering="geometricPrecision" shape-rendering="geometricPrecision" transform="matrix(1,0,0,1,60,8)" stroke="rgb(153,204,255)">
      <path d="M31.8214 84 L34.1175 79.5433 L38.8925 81.0711 L37.3647 76.2961 L41.8214 74 L37.3647 71.7039 L38.8925 66.9289 L34.1175 68.4567 L31.8214 64 L29.5253 68.4567 L24.7504 66.9289 L26.2782 71.7039 L21.8214 74 L26.2782 76.2961 L24.7504 81.0711 L29.5253 79.5433 Z" fill-rule="evenodd" clip-path="url(#clipPath2)" stroke="none"/>
    </g>
    <g text-rendering="geometricPrecision" stroke-miterlimit="1.45" shape-rendering="geometricPrecision" transform="matrix(1,0,0,1,60,8)" stroke-linecap="butt">
      <path fill="none" d="M31.8214 84 L34.1175 79.5433 L38.8925 81.0711 L37.3647 76.2961 L41.8214 74 L37.3647 71.7039 L38.8925 66.9289 L34.1175 68.4567 L31.8214 64 L29.5253 68.4567 L24.7504 66.9289 L26.2782 71.7039 L21.8214 74 L26.2782 76.2961 L24.7504 81.0711 L29.5253 79.5433 Z" fill-rule="evenodd" clip-path="url(#clipPath2)"/>
      <text x="28.004" xml:space="preserve" y="78.1543" clip-path="url(#clipPath2)" font-family="sans-serif" stroke="none">1</text>
    </g>
    <g fill="rgb(153,204,255)" text-rendering="geometricPrecision" shape-rendering="geometricPrecision" transform="matrix(1,0,0,1,60,8)" stroke="rgb(153,204,255)">
      <path d="M264.8214 76 L267.1175 71.5433 L271.8925 73.0711 L270.3647 68.2961 L274.8214 66 L270.3647 63.7039 L271.8925 58.9289 L267.1175 60.4567 L264.8214 56 L262.5253 60.4567 L257.7504 58.9289 L259.2781 63.7039 L254.8214 66 L259.2781 68.2961 L257.7504 73.0711 L262.5253 71.5433 Z" fill-rule="evenodd" clip-path="url(#clipPath2)" stroke="none"/>
    </g>
    <g text-rendering="geometricPrecision" stroke-miterlimit="1.45" shape-rendering="geometricPrecision" transform="matrix(1,0,0,1,60,8)" stroke-linecap="butt">
      <path fill="none" d="M264.8214 76 L267.1175 71.5433 L271.8925 73.0711 L270.3647 68.2961 L274.8214 66 L270.3647 63.7039 L271.8925 58.9289 L267.1175 60.4567 L264.8214 56 L262.5253 60.4567 L257.7504 58.9289 L259.2781 63.7039 L254.8214 66 L259.2781 68.2961 L257.7504 73.0711 L262.5253 71.5433 Z" fill-rule="evenodd" clip-path="url(#clipPath2)"/>
      <text x="261.0041" xml:space="preserve" y="70.1543" clip-path="url(#clipPath2)" font-family="sans-serif" stroke="none">2</text>
    </g>
    <g fill="rgb(153,204,255)" text-rendering="geometricPrecision" shape-rendering="geometricPrecision" transform="matrix(1,0,0,1,60,8)" stroke="rgb(153,204,255)">
      <path d="M-18.1786 150 L-15.8825 145.5433 L-11.1075 147.0711 L-12.6353 142.2961 L-8.1786 140 L-12.6353 137.7039 L-11.1075 132.9289 L-15.8825 134.4567 L-18.1786 130 L-20.4747 134.4567 L-25.2496 132.9289 L-23.7218 137.7039 L-28.1786 140 L-23.7218 142.2961 L-25.2496 147.0711 L-20.4747 145.5433 Z" fill-rule="evenodd" clip-path="url(#clipPath2)" stroke="none"/>
    </g>
    <g text-rendering="geometricPrecision" stroke-miterlimit="1.45" shape-rendering="geometricPrecision" transform="matrix(1,0,0,1,60,8)" stroke-linecap="butt">
      <path fill="none" d="M-18.1786 150 L-15.8825 145.5433 L-11.1075 147.0711 L-12.6353 142.2961 L-8.1786 140 L-12.6353 137.7039 L-11.1075 132.9289 L-15.8825 134.4567 L-18.1786 130 L-20.4747 134.4567 L-25.2496 132.9289 L-23.7218 137.7039 L-28.1786 140 L-23.7218 142.2961 L-25.2496 147.0711 L-20.4747 145.5433 Z" fill-rule="evenodd" clip-path="url(#clipPath2)"/>
      <text x="-21.996" xml:space="preserve" y="144.1543" clip-path="url(#clipPath2)" font-family="sans-serif" stroke="none">3</text>
    </g>
    <g fill="rgb(153,204,255)" text-rendering="geometricPrecision" shape-rendering="geometricPrecision" transform="matrix(1,0,0,1,60,8)" stroke="rgb(153,204,255)">
      <path d="M133.6429 142 L135.939 137.5433 L140.7139 139.0711 L139.1861 134.2961 L143.6429 132 L139.1861 129.7039 L140.7139 124.9289 L135.939 126.4567 L133.6429 122 L131.3468 126.4567 L126.5718 124.9289 L128.0996 129.7039 L123.6429 132 L128.0996 134.2961 L126.5718 139.0711 L131.3468 137.5433 Z" fill-rule="evenodd" clip-path="url(#clipPath2)" stroke="none"/>
    </g>
    <g text-rendering="geometricPrecision" stroke-miterlimit="1.45" shape-rendering="geometricPrecision" transform="matrix(1,0,0,1,60,8)" stroke-linecap="butt">
      <path fill="none" d="M133.6429 142 L135.939 137.5433 L140.7139 139.0711 L139.1861 134.2961 L143.6429 132 L139.1861 129.7039 L140.7139 124.9289 L135.939 126.4567 L133.6429 122 L131.3468 126.4567 L126.5718 124.9289 L128.0996 129.7039 L123.6429 132 L128.0996 134.2961 L126.5718 139.0711 L131.3468 137.5433 Z" fill-rule="evenodd" clip-path="url(#clipPath2)"/>
      <text x="129.8255" xml:space="preserve" y="136.1543" clip-path="url(#clipPath2)" font-family="sans-serif" stroke="none">4</text>
    </g>
    <g fill="rgb(153,204,255)" text-rendering="geometricPrecision" shape-rendering="geometricPrecision" transform="matrix(1,0,0,1,60,8)" stroke="rgb(153,204,255)">
      <path d="M193.6429 135 L195.939 130.5433 L200.7139 132.0711 L199.1861 127.2961 L203.6429 125 L199.1861 122.7039 L200.7139 117.9289 L195.939 119.4567 L193.6429 115 L191.3468 119.4567 L186.5718 117.9289 L188.0996 122.7039 L183.6429 125 L188.0996 127.2961 L186.5718 132.0711 L191.3468 130.5433 Z" fill-rule="evenodd" clip-path="url(#clipPath2)" stroke="none"/>
    </g>
    <g text-rendering="geometricPrecision" stroke-miterlimit="1.45" shape-rendering="geometricPrecision" transform="matrix(1,0,0,1,60,8)" stroke-linecap="butt">
      <path fill="none" d="M193.6429 135 L195.939 130.5433 L200.7139 132.0711 L199.1861 127.2961 L203.6429 125 L199.1861 122.7039 L200.7139 117.9289 L195.939 119.4567 L193.6429 115 L191.3468 119.4567 L186.5718 117.9289 L188.0996 122.7039 L183.6429 125 L188.0996 127.2961 L186.5718 132.0711 L191.3468 130.5433 Z" fill-rule="evenodd" clip-path="url(#clipPath2)"/>
      <text x="189.8255" xml:space="preserve" y="129.1543" clip-path="url(#clipPath2)" font-family="sans-serif" stroke="none">5</text>
    </g>
    <g fill="rgb(153,204,255)" text-rendering="geometricPrecision" shape-rendering="geometricPrecision" transform="matrix(1,0,0,1,60,8)" stroke="rgb(153,204,255)">
      <path d="M285.4643 136 L287.7604 131.5433 L292.5353 133.0711 L291.0076 128.2961 L295.4643 126 L291.0076 123.7039 L292.5353 118.9289 L287.7604 120.4567 L285.4643 116 L283.1682 120.4567 L278.3932 118.9289 L279.921 123.7039 L275.4643 126 L279.921 128.2961 L278.3932 133.0711 L283.1682 131.5433 Z" fill-rule="evenodd" clip-path="url(#clipPath2)" stroke="none"/>
    </g>
    <g text-rendering="geometricPrecision" stroke-miterlimit="1.45" shape-rendering="geometricPrecision" transform="matrix(1,0,0,1,60,8)" stroke-linecap="butt">
      <path fill="none" d="M285.4643 136 L287.7604 131.5433 L292.5353 133.0711 L291.0076 128.2961 L295.4643 126 L291.0076 123.7039 L292.5353 118.9289 L287.7604 120.4567 L285.4643 116 L283.1682 120.4567 L278.3932 118.9289 L279.921 123.7039 L275.4643 126 L279.921 128.2961 L278.3932 133.0711 L283.1682 131.5433 Z" fill-rule="evenodd" clip-path="url(#clipPath2)"/>
      <text x="281.6469" xml:space="preserve" y="130.1543" clip-path="url(#clipPath2)" font-family="sans-serif" stroke="none">6</text>
    </g>
    <g fill="rgb(153,204,255)" text-rendering="geometricPrecision" shape-rendering="geometricPrecision" transform="matrix(1,0,0,1,60,8)" stroke="rgb(153,204,255)">
      <path d="M-34.0714 210 L-31.7753 205.5433 L-27.0004 207.0711 L-28.5282 202.2961 L-24.0714 200 L-28.5282 197.7039 L-27.0004 192.9289 L-31.7753 194.4567 L-34.0714 190 L-36.3675 194.4567 L-41.1425 192.9289 L-39.6147 197.7039 L-44.0714 200 L-39.6147 202.2961 L-41.1425 207.0711 L-36.3675 205.5433 Z" fill-rule="evenodd" clip-path="url(#clipPath2)" stroke="none"/>
    </g>
    <g text-rendering="geometricPrecision" stroke-miterlimit="1.45" shape-rendering="geometricPrecision" transform="matrix(1,0,0,1,60,8)" stroke-linecap="butt">
      <path fill="none" d="M-34.0714 210 L-31.7753 205.5433 L-27.0004 207.0711 L-28.5282 202.2961 L-24.0714 200 L-28.5282 197.7039 L-27.0004 192.9289 L-31.7753 194.4567 L-34.0714 190 L-36.3675 194.4567 L-41.1425 192.9289 L-39.6147 197.7039 L-44.0714 200 L-39.6147 202.2961 L-41.1425 207.0711 L-36.3675 205.5433 Z" fill-rule="evenodd" clip-path="url(#clipPath2)"/>
      <text x="-37.8888" xml:space="preserve" y="204.1543" clip-path="url(#clipPath2)" font-family="sans-serif" stroke="none">7</text>
    </g>
    <g fill="rgb(153,204,255)" text-rendering="geometricPrecision" shape-rendering="geometricPrecision" transform="matrix(1,0,0,1,60,8)" stroke="rgb(153,204,255)">
      <path d="M46.8214 205 L49.1175 200.5433 L53.8925 202.0711 L52.3647 197.2961 L56.8214 195 L52.3647 192.7039 L53.8925 187.9289 L49.1175 189.4567 L46.8214 185 L44.5253 189.4567 L39.7504 187.9289 L41.2782 192.7039 L36.8214 195 L41.2782 197.2961 L39.7504 202.0711 L44.5253 200.5433 Z" fill-rule="evenodd" clip-path="url(#clipPath2)" stroke="none"/>
    </g>
    <g text-rendering="geometricPrecision" stroke-miterlimit="1.45" shape-rendering="geometricPrecision" transform="matrix(1,0,0,1,60,8)" stroke-linecap="butt">
      <path fill="none" d="M46.8214 205 L49.1175 200.5433 L53.8925 202.0711 L52.3647 197.2961 L56.8214 195 L52.3647 192.7039 L53.8925 187.9289 L49.1175 189.4567 L46.8214 185 L44.5253 189.4567 L39.7504 187.9289 L41.2782 192.7039 L36.8214 195 L41.2782 197.2961 L39.7504 202.0711 L44.5253 200.5433 Z" fill-rule="evenodd" clip-path="url(#clipPath2)"/>
      <text x="43.004" xml:space="preserve" y="199.1543" clip-path="url(#clipPath2)" font-family="sans-serif" stroke="none">8</text>
    </g>
    <g fill="rgb(153,204,255)" text-rendering="geometricPrecision" shape-rendering="geometricPrecision" transform="matrix(1,0,0,1,60,8)" stroke="rgb(153,204,255)">
      <path d="M111.8214 215 L114.1175 210.5433 L118.8925 212.0711 L117.3647 207.2961 L121.8214 205 L117.3647 202.7039 L118.8925 197.9289 L114.1175 199.4567 L111.8214 195 L109.5253 199.4567 L104.7504 197.9289 L106.2782 202.7039 L101.8214 205 L106.2782 207.2961 L104.7504 212.0711 L109.5253 210.5433 Z" fill-rule="evenodd" clip-path="url(#clipPath2)" stroke="none"/>
    </g>
    <g text-rendering="geometricPrecision" stroke-miterlimit="1.45" shape-rendering="geometricPrecision" transform="matrix(1,0,0,1,60,8)" stroke-linecap="butt">
      <path fill="none" d="M111.8214 215 L114.1175 210.5433 L118.8925 212.0711 L117.3647 207.2961 L121.8214 205 L117.3647 202.7039 L118.8925 197.9289 L114.1175 199.4567 L111.8214 195 L109.5253 199.4567 L104.7504 197.9289 L106.2782 202.7039 L101.8214 205 L106.2782 207.2961 L104.7504 212.0711 L109.5253 210.5433 Z" fill-rule="evenodd" clip-path="url(#clipPath2)"/>
      <text x="108.004" xml:space="preserve" y="209.1543" clip-path="url(#clipPath2)" font-family="sans-serif" stroke="none">9</text>
      <path fill="none" d="M137.9973 38.7809 L74.6455 77.2191" clip-path="url(#clipPath2)"/>
      <path fill="none" d="M163.6455 38.7809 L226.9973 77.2191" clip-path="url(#clipPath2)"/>
      <path fill="none" d="M53.1029 97.206 L20.54 142.794" clip-path="url(#clipPath2)"/>
      <path fill="none" d="M70.54 97.206 L103.1029 142.794" clip-path="url(#clipPath2)"/>
      <path fill="none" d="M234.7764 99.1261 L219.8665 140.8739" clip-path="url(#clipPath2)"/>
      <path fill="none" d="M244.8665 99.1261 L259.7764 140.8739" clip-path="url(#clipPath2)"/>
      <path fill="none" d="M6.7764 169.1261 L-8.1335 210.8739" clip-path="url(#clipPath2)"/>
      <path fill="none" d="M16.8665 169.1261 L31.7764 210.8739" clip-path="url(#clipPath2)"/>
      <path fill="none" d="M106.7764 169.1261 L91.8665 210.8739" clip-path="url(#clipPath2)"/>
    </g>
  </g>
</svg>
