<?xml version="1.0" encoding="UTF-8"?><svg xmlns="http://www.w3.org/2000/svg" xmlns:xlink="http://www.w3.org/1999/xlink" fill-opacity="1" color-rendering="auto" color-interpolation="auto" text-rendering="auto" stroke="black" stroke-linecap="square" width="330" stroke-miterlimit="10" shape-rendering="auto" stroke-opacity="1" fill="black" stroke-dasharray="none" font-weight="normal" stroke-width="1" height="91" font-family="'Dialog'" font-style="normal" stroke-linejoin="miter" font-size="12px" stroke-dashoffset="0" image-rendering="auto">
  <!--Generated by ySVG 2.5-->
  <defs id="genericDefs"/>
  <g>
    <defs id="defs1">
      <clipPath clipPathUnits="userSpaceOnUse" id="clipPath1">
        <path d="M0 0 L330 0 L330 91 L0 91 L0 0 Z"/>
      </clipPath>
      <clipPath clipPathUnits="userSpaceOnUse" id="clipPath2">
        <path d="M-149 46 L181 46 L181 137 L-149 137 L-149 46 Z"/>
      </clipPath>
    </defs>
    <g fill="white" text-rendering="geometricPrecision" shape-rendering="geometricPrecision" transform="matrix(1,0,0,1,149,-46)" stroke="white">
      <rect x="-134" width="30" height="30" y="91.5" clip-path="url(#clipPath2)" stroke="none"/>
    </g>
    <g text-rendering="geometricPrecision" stroke-miterlimit="1.45" shape-rendering="geometricPrecision" transform="matrix(1,0,0,1,149,-46)" stroke-linecap="butt">
      <rect fill="none" x="-134" width="30" height="30" y="91.5" clip-path="url(#clipPath2)"/>
      <text x="-126.6348" xml:space="preserve" y="110.6543" clip-path="url(#clipPath2)" font-family="sans-serif" stroke="none">13</text>
    </g>
    <g fill="rgb(153,204,255)" text-rendering="geometricPrecision" shape-rendering="geometricPrecision" transform="matrix(1,0,0,1,149,-46)" stroke="rgb(153,204,255)">
      <rect x="-104" width="30" height="30" y="91.5" clip-path="url(#clipPath2)" stroke="none"/>
    </g>
    <g text-rendering="geometricPrecision" stroke-miterlimit="1.45" shape-rendering="geometricPrecision" transform="matrix(1,0,0,1,149,-46)" stroke-linecap="butt">
      <rect fill="none" x="-104" width="30" height="30" y="91.5" clip-path="url(#clipPath2)"/>
      <text x="-96.6348" xml:space="preserve" y="110.6543" clip-path="url(#clipPath2)" font-family="sans-serif" stroke="none">21</text>
    </g>
    <g fill="rgb(153,204,255)" text-rendering="geometricPrecision" shape-rendering="geometricPrecision" transform="matrix(1,0,0,1,149,-46)" stroke="rgb(153,204,255)">
      <rect x="-74" width="30" height="30" y="91.5" clip-path="url(#clipPath2)" stroke="none"/>
    </g>
    <g text-rendering="geometricPrecision" stroke-miterlimit="1.45" shape-rendering="geometricPrecision" transform="matrix(1,0,0,1,149,-46)" stroke-linecap="butt">
      <rect fill="none" x="-74" width="30" height="30" y="91.5" clip-path="url(#clipPath2)"/>
      <text x="-66.6348" xml:space="preserve" y="110.6543" clip-path="url(#clipPath2)" font-family="sans-serif" stroke="none">16</text>
    </g>
    <g fill="rgb(255,153,0)" text-rendering="geometricPrecision" shape-rendering="geometricPrecision" transform="matrix(1,0,0,1,149,-46)" stroke="rgb(255,153,0)">
      <rect x="-44" width="30" height="30" y="91.5" clip-path="url(#clipPath2)" stroke="none"/>
    </g>
    <g text-rendering="geometricPrecision" stroke-miterlimit="1.45" shape-rendering="geometricPrecision" transform="matrix(1,0,0,1,149,-46)" stroke-linecap="butt">
      <rect fill="none" x="-44" width="30" height="30" y="91.5" clip-path="url(#clipPath2)"/>
      <text x="-36.6348" xml:space="preserve" y="110.6543" clip-path="url(#clipPath2)" font-family="sans-serif" stroke="none">24</text>
    </g>
    <g fill="rgb(255,153,0)" text-rendering="geometricPrecision" shape-rendering="geometricPrecision" transform="matrix(1,0,0,1,149,-46)" stroke="rgb(255,153,0)">
      <rect x="-14" width="30" height="30" y="91.5" clip-path="url(#clipPath2)" stroke="none"/>
    </g>
    <g text-rendering="geometricPrecision" stroke-miterlimit="1.45" shape-rendering="geometricPrecision" transform="matrix(1,0,0,1,149,-46)" stroke-linecap="butt">
      <rect fill="none" x="-14" width="30" height="30" y="91.5" clip-path="url(#clipPath2)"/>
      <text x="-6.6348" xml:space="preserve" y="110.6543" clip-path="url(#clipPath2)" font-family="sans-serif" stroke="none">31</text>
    </g>
    <g fill="rgb(255,153,0)" text-rendering="geometricPrecision" shape-rendering="geometricPrecision" transform="matrix(1,0,0,1,149,-46)" stroke="rgb(255,153,0)">
      <rect x="16" width="30" height="30" y="91.5" clip-path="url(#clipPath2)" stroke="none"/>
    </g>
    <g text-rendering="geometricPrecision" stroke-miterlimit="1.45" shape-rendering="geometricPrecision" transform="matrix(1,0,0,1,149,-46)" stroke-linecap="butt">
      <rect fill="none" x="16" width="30" height="30" y="91.5" clip-path="url(#clipPath2)"/>
      <text x="23.3652" xml:space="preserve" y="110.6543" clip-path="url(#clipPath2)" font-family="sans-serif" stroke="none">19</text>
    </g>
    <g fill="rgb(255,153,0)" text-rendering="geometricPrecision" shape-rendering="geometricPrecision" transform="matrix(1,0,0,1,149,-46)" stroke="rgb(255,153,0)">
      <rect x="46" width="30" height="30" y="91.5" clip-path="url(#clipPath2)" stroke="none"/>
    </g>
    <g text-rendering="geometricPrecision" stroke-miterlimit="1.45" shape-rendering="geometricPrecision" transform="matrix(1,0,0,1,149,-46)" stroke-linecap="butt">
      <rect fill="none" x="46" width="30" height="30" y="91.5" clip-path="url(#clipPath2)"/>
      <text x="53.3652" xml:space="preserve" y="110.6543" clip-path="url(#clipPath2)" font-family="sans-serif" stroke="none">68</text>
    </g>
    <g fill="rgb(153,204,0)" text-rendering="geometricPrecision" shape-rendering="geometricPrecision" transform="matrix(1,0,0,1,149,-46)" stroke="rgb(153,204,0)">
      <rect x="76" width="30" height="30" y="91.5" clip-path="url(#clipPath2)" stroke="none"/>
    </g>
    <g text-rendering="geometricPrecision" stroke-miterlimit="1.45" shape-rendering="geometricPrecision" transform="matrix(1,0,0,1,149,-46)" stroke-linecap="butt">
      <rect fill="none" x="76" width="30" height="30" y="91.5" clip-path="url(#clipPath2)"/>
      <text x="83.3652" xml:space="preserve" y="110.6543" clip-path="url(#clipPath2)" font-family="sans-serif" stroke="none">65</text>
    </g>
    <g fill="rgb(153,204,0)" text-rendering="geometricPrecision" shape-rendering="geometricPrecision" transform="matrix(1,0,0,1,149,-46)" stroke="rgb(153,204,0)">
      <rect x="106" width="30" height="30" y="91.5" clip-path="url(#clipPath2)" stroke="none"/>
    </g>
    <g text-rendering="geometricPrecision" stroke-miterlimit="1.45" shape-rendering="geometricPrecision" transform="matrix(1,0,0,1,149,-46)" stroke-linecap="butt">
      <rect fill="none" x="106" width="30" height="30" y="91.5" clip-path="url(#clipPath2)"/>
      <text x="113.3652" xml:space="preserve" y="110.6543" clip-path="url(#clipPath2)" font-family="sans-serif" stroke="none">26</text>
      <text x="-122.8174" xml:space="preserve" y="80.6543" clip-path="url(#clipPath2)" font-family="sans-serif" stroke="none">0</text>
      <text x="-92.8174" xml:space="preserve" y="80.6543" clip-path="url(#clipPath2)" font-family="sans-serif" stroke="none">1</text>
      <text x="-62.8174" xml:space="preserve" y="80.6543" clip-path="url(#clipPath2)" font-family="sans-serif" stroke="none">2</text>
      <text x="-32.8174" xml:space="preserve" y="80.6543" clip-path="url(#clipPath2)" font-family="sans-serif" stroke="none">3</text>
      <text x="-2.8174" xml:space="preserve" y="80.6543" clip-path="url(#clipPath2)" font-family="sans-serif" stroke="none">4</text>
      <text x="27.1826" xml:space="preserve" y="80.6543" clip-path="url(#clipPath2)" font-family="sans-serif" stroke="none">5</text>
      <text x="57.1826" xml:space="preserve" y="80.6543" clip-path="url(#clipPath2)" font-family="sans-serif" stroke="none">6</text>
      <text x="87.1826" xml:space="preserve" y="80.6543" clip-path="url(#clipPath2)" font-family="sans-serif" stroke="none">7</text>
      <text x="117.1826" xml:space="preserve" y="80.6543" clip-path="url(#clipPath2)" font-family="sans-serif" stroke="none">8</text>
    </g>
    <g fill="rgb(153,204,0)" text-rendering="geometricPrecision" shape-rendering="geometricPrecision" transform="matrix(1,0,0,1,149,-46)" stroke="rgb(153,204,0)">
      <rect x="136" width="30" height="30" y="91.5" clip-path="url(#clipPath2)" stroke="none"/>
    </g>
    <g text-rendering="geometricPrecision" stroke-miterlimit="1.45" shape-rendering="geometricPrecision" transform="matrix(1,0,0,1,149,-46)" stroke-linecap="butt">
      <rect fill="none" x="136" width="30" height="30" y="91.5" clip-path="url(#clipPath2)"/>
      <text x="143.3652" xml:space="preserve" y="110.6543" clip-path="url(#clipPath2)" font-family="sans-serif" stroke="none">32</text>
      <text x="147.1826" xml:space="preserve" y="80.6543" clip-path="url(#clipPath2)" font-family="sans-serif" stroke="none">9</text>
    </g>
  </g>
</svg>
