<?xml version="1.0" encoding="UTF-8"?><svg xmlns="http://www.w3.org/2000/svg" xmlns:xlink="http://www.w3.org/1999/xlink" fill-opacity="1" color-rendering="auto" color-interpolation="auto" text-rendering="auto" stroke="black" stroke-linecap="square" width="195" stroke-miterlimit="10" shape-rendering="auto" stroke-opacity="1" fill="black" stroke-dasharray="none" font-weight="normal" stroke-width="1" height="152" font-family="'Dialog'" font-style="normal" stroke-linejoin="miter" font-size="12px" stroke-dashoffset="0" image-rendering="auto">
  <!--Generated by ySVG 2.5-->
  <defs id="genericDefs"/>
  <g>
    <defs id="defs1">
      <clipPath clipPathUnits="userSpaceOnUse" id="clipPath1">
        <path d="M0 0 L195 0 L195 152 L0 152 L0 0 Z"/>
      </clipPath>
      <clipPath clipPathUnits="userSpaceOnUse" id="clipPath2">
        <path d="M245 132 L440 132 L440 284 L245 284 L245 132 Z"/>
      </clipPath>
    </defs>
    <g fill="rgb(255,204,0)" text-rendering="geometricPrecision" shape-rendering="geometricPrecision" transform="matrix(1,0,0,1,-245,-132)" stroke="rgb(255,204,0)">
      <circle r="20" clip-path="url(#clipPath2)" cx="346" cy="167" stroke="none"/>
    </g>
    <g text-rendering="geometricPrecision" stroke-miterlimit="1.45" shape-rendering="geometricPrecision" transform="matrix(1,0,0,1,-245,-132)" stroke-linecap="butt">
      <circle fill="none" r="20" clip-path="url(#clipPath2)" cx="346" cy="167"/>
      <text x="344.333" xml:space="preserve" y="171.1543" clip-path="url(#clipPath2)" font-family="sans-serif" stroke="none">i</text>
    </g>
    <g fill="rgb(255,204,0)" text-rendering="geometricPrecision" shape-rendering="geometricPrecision" transform="matrix(1,0,0,1,-245,-132)" stroke="rgb(255,204,0)">
      <circle r="20" clip-path="url(#clipPath2)" cx="280" cy="249" stroke="none"/>
    </g>
    <g text-rendering="geometricPrecision" stroke-miterlimit="1.45" shape-rendering="geometricPrecision" transform="matrix(1,0,0,1,-245,-132)" stroke-linecap="butt">
      <circle fill="none" r="20" clip-path="url(#clipPath2)" cx="280" cy="249"/>
      <text x="265.6709" xml:space="preserve" y="253.1543" clip-path="url(#clipPath2)" font-family="sans-serif" stroke="none">2i+1</text>
    </g>
    <g fill="rgb(255,204,0)" text-rendering="geometricPrecision" shape-rendering="geometricPrecision" transform="matrix(1,0,0,1,-245,-132)" stroke="rgb(255,204,0)">
      <circle r="20" clip-path="url(#clipPath2)" cx="405" cy="249" stroke="none"/>
    </g>
    <g text-rendering="geometricPrecision" stroke-miterlimit="1.45" shape-rendering="geometricPrecision" transform="matrix(1,0,0,1,-245,-132)" stroke-linecap="butt">
      <circle fill="none" r="20" clip-path="url(#clipPath2)" cx="405" cy="249"/>
      <text x="390.6709" xml:space="preserve" y="253.1543" clip-path="url(#clipPath2)" font-family="sans-serif" stroke="none">2i+2</text>
      <path fill="none" d="M333.4598 182.5802 L292.5402 233.4198" clip-path="url(#clipPath2)"/>
      <path fill="none" d="M357.6809 183.2344 L393.3191 232.7656" clip-path="url(#clipPath2)"/>
    </g>
  </g>
</svg>
