<?xml version="1.0" encoding="UTF-8"?><svg xmlns="http://www.w3.org/2000/svg" xmlns:xlink="http://www.w3.org/1999/xlink" fill-opacity="1" color-rendering="auto" color-interpolation="auto" text-rendering="auto" stroke="black" stroke-linecap="square" width="708" stroke-miterlimit="10" shape-rendering="auto" stroke-opacity="1" fill="black" stroke-dasharray="none" font-weight="normal" stroke-width="1" height="637" font-family="'Dialog'" font-style="normal" stroke-linejoin="miter" font-size="12px" stroke-dashoffset="0" image-rendering="auto">
  <!--Generated by ySVG 2.5-->
  <defs id="genericDefs"/>
  <g>
    <defs id="defs1">
      <clipPath clipPathUnits="userSpaceOnUse" id="clipPath1">
        <path d="M0 0 L708 0 L708 637 L0 637 L0 0 Z"/>
      </clipPath>
      <clipPath clipPathUnits="userSpaceOnUse" id="clipPath2">
        <path d="M1331 -457 L2039 -457 L2039 180 L1331 180 L1331 -457 Z"/>
      </clipPath>
    </defs>
    <g text-rendering="geometricPrecision" stroke-miterlimit="1.45" stroke-width="2" shape-rendering="geometricPrecision" transform="matrix(1,0,0,1,-1331,457)" stroke-linecap="butt">
      <rect fill="none" x="1346.6621" width="247.6875" height="58.2207" y="-346.0498" clip-path="url(#clipPath2)"/>
    </g>
    <g fill="rgb(255,204,0)" text-rendering="geometricPrecision" shape-rendering="geometricPrecision" transform="matrix(1,0,0,1,-1331,457)" stroke="rgb(255,204,0)">
      <rect x="1346.6621" width="247.6875" height="58.2207" y="-287.8291" clip-path="url(#clipPath2)" stroke="none"/>
    </g>
    <g text-rendering="geometricPrecision" stroke-miterlimit="1.45" stroke-width="2" shape-rendering="geometricPrecision" transform="matrix(1,0,0,1,-1331,457)" stroke-linecap="butt">
      <rect fill="none" x="1346.6621" width="247.6875" height="58.2207" y="-287.8291" clip-path="url(#clipPath2)"/>
      <text x="1463.4043" font-size="24px" y="-250.4102" clip-path="url(#clipPath2)" font-family="sans-serif" stroke="none" stroke-width="1" xml:space="preserve">v</text>
      <rect fill="none" x="1346.6621" width="247.6875" height="58.2207" y="-229.6084" clip-path="url(#clipPath2)"/>
      <text x="1437.2832" font-size="24px" y="-356.21" clip-path="url(#clipPath2)" font-family="sans-serif" stroke="none" stroke-width="1" xml:space="preserve">Stack</text>
      <rect fill="none" x="1745.8242" width="247.6875" height="58.2207" y="-404.2705" clip-path="url(#clipPath2)"/>
    </g>
    <g fill="rgb(255,204,0)" text-rendering="geometricPrecision" shape-rendering="geometricPrecision" transform="matrix(1,0,0,1,-1331,457)" stroke="rgb(255,204,0)">
      <rect x="1745.8242" width="247.6875" height="58.2207" y="-346.0498" clip-path="url(#clipPath2)" stroke="none"/>
    </g>
    <g text-rendering="geometricPrecision" stroke-miterlimit="1.45" stroke-width="2" shape-rendering="geometricPrecision" transform="matrix(1,0,0,1,-1331,457)" stroke-linecap="butt">
      <rect fill="none" x="1745.8242" width="247.6875" height="58.2207" y="-346.0498" clip-path="url(#clipPath2)"/>
      <text x="1841.0156" font-size="24px" y="-308.6309" clip-path="url(#clipPath2)" font-family="sans-serif" stroke="none" stroke-width="1" xml:space="preserve">Data</text>
      <rect fill="none" x="1745.8242" width="247.6875" height="97.3311" y="-287.8291" clip-path="url(#clipPath2)"/>
      <text x="1838.291" font-size="24px" y="-414.4307" clip-path="url(#clipPath2)" font-family="sans-serif" stroke="none" stroke-width="1" xml:space="preserve">Heap</text>
    </g>
    <g fill="rgb(255,204,0)" text-rendering="geometricPrecision" shape-rendering="geometricPrecision" transform="matrix(1,0,0,1,-1331,457)" stroke="rgb(255,204,0)">
      <rect x="1745.8242" width="247.6875" height="30" y="-190.498" clip-path="url(#clipPath2)" stroke="none"/>
    </g>
    <g text-rendering="geometricPrecision" stroke-miterlimit="1.45" stroke-width="2" shape-rendering="geometricPrecision" transform="matrix(1,0,0,1,-1331,457)" stroke-linecap="butt">
      <rect fill="none" x="1745.8242" width="247.6875" height="30" y="-190.498" clip-path="url(#clipPath2)"/>
      <text x="1835.0156" font-size="24px" y="-167.1895" clip-path="url(#clipPath2)" font-family="sans-serif" stroke="none" stroke-width="1" xml:space="preserve">Data*</text>
    </g>
    <g fill="rgb(255,204,0)" text-rendering="geometricPrecision" shape-rendering="geometricPrecision" transform="matrix(1,0,0,1,-1331,457)" stroke="rgb(255,204,0)">
      <rect x="1745.8242" width="247.6875" height="30" y="-160.498" clip-path="url(#clipPath2)" stroke="none"/>
    </g>
    <g text-rendering="geometricPrecision" stroke-miterlimit="1.45" stroke-width="2" shape-rendering="geometricPrecision" transform="matrix(1,0,0,1,-1331,457)" stroke-linecap="butt">
      <rect fill="none" x="1745.8242" width="247.6875" height="30" y="-160.498" clip-path="url(#clipPath2)"/>
      <text x="1835.0156" font-size="24px" y="-137.1895" clip-path="url(#clipPath2)" font-family="sans-serif" stroke="none" stroke-width="1" xml:space="preserve">Data*</text>
    </g>
    <g fill="rgb(255,204,0)" text-rendering="geometricPrecision" shape-rendering="geometricPrecision" transform="matrix(1,0,0,1,-1331,457)" stroke="rgb(255,204,0)">
      <rect x="1745.8242" width="247.6875" height="30" y="-130.498" clip-path="url(#clipPath2)" stroke="none"/>
    </g>
    <g text-rendering="geometricPrecision" stroke-miterlimit="1.45" stroke-width="2" shape-rendering="geometricPrecision" transform="matrix(1,0,0,1,-1331,457)" stroke-linecap="butt">
      <rect fill="none" x="1745.8242" width="247.6875" height="30" y="-130.498" clip-path="url(#clipPath2)"/>
      <text x="1858.2246" font-size="24px" y="-107.1895" clip-path="url(#clipPath2)" font-family="sans-serif" stroke="none" stroke-width="1" xml:space="preserve">...</text>
    </g>
    <g fill="rgb(255,204,0)" text-rendering="geometricPrecision" shape-rendering="geometricPrecision" transform="matrix(1,0,0,1,-1331,457)" stroke="rgb(255,204,0)">
      <rect x="1745.8242" width="247.6875" height="30" y="-100.498" clip-path="url(#clipPath2)" stroke="none"/>
    </g>
    <g text-rendering="geometricPrecision" stroke-miterlimit="1.45" stroke-width="2" shape-rendering="geometricPrecision" transform="matrix(1,0,0,1,-1331,457)" stroke-linecap="butt">
      <rect fill="none" x="1745.8242" width="247.6875" height="30" y="-100.498" clip-path="url(#clipPath2)"/>
      <text x="1835.0156" font-size="24px" y="-77.1895" clip-path="url(#clipPath2)" font-family="sans-serif" stroke="none" stroke-width="1" xml:space="preserve">Data*</text>
      <rect fill="none" x="1745.8242" width="247.6875" height="58.2207" y="-70.498" clip-path="url(#clipPath2)"/>
    </g>
    <g fill="rgb(255,204,0)" text-rendering="geometricPrecision" shape-rendering="geometricPrecision" transform="matrix(1,0,0,1,-1331,457)" stroke="rgb(255,204,0)">
      <rect x="1745.8242" width="247.6875" height="58.2207" y="-12.2773" clip-path="url(#clipPath2)" stroke="none"/>
    </g>
    <g text-rendering="geometricPrecision" stroke-miterlimit="1.45" stroke-width="2" shape-rendering="geometricPrecision" transform="matrix(1,0,0,1,-1331,457)" stroke-linecap="butt">
      <rect fill="none" x="1745.8242" width="247.6875" height="58.2207" y="-12.2773" clip-path="url(#clipPath2)"/>
      <text x="1841.0156" font-size="24px" y="25.1416" clip-path="url(#clipPath2)" font-family="sans-serif" stroke="none" stroke-width="1" xml:space="preserve">Data</text>
    </g>
    <g fill="rgb(255,204,0)" text-rendering="geometricPrecision" shape-rendering="geometricPrecision" transform="matrix(1,0,0,1,-1331,457)" stroke="rgb(255,204,0)">
      <rect x="1745.8242" width="247.6875" height="58.2207" y="75.9434" clip-path="url(#clipPath2)" stroke="none"/>
    </g>
    <g text-rendering="geometricPrecision" stroke-miterlimit="1.45" stroke-width="2" shape-rendering="geometricPrecision" transform="matrix(1,0,0,1,-1331,457)" stroke-linecap="butt">
      <rect fill="none" x="1745.8242" width="247.6875" height="58.2207" y="75.9434" clip-path="url(#clipPath2)"/>
      <text x="1841.0156" font-size="24px" y="113.3623" clip-path="url(#clipPath2)" font-family="sans-serif" stroke="none" stroke-width="1" xml:space="preserve">Data</text>
      <rect fill="none" x="1745.8242" width="247.6875" height="30" y="45.9434" clip-path="url(#clipPath2)"/>
      <rect fill="none" x="1745.8242" width="247.6875" height="30" y="134.1641" clip-path="url(#clipPath2)"/>
      <path fill="none" d="M1582.9084 -229.6084 L1738.056 -189.4279" stroke-width="1" clip-path="url(#clipPath2)"/>
      <path d="M1745.8005 -187.4222 L1735.4374 -195.271 L1737.088 -189.6786 L1732.9303 -185.5904 Z" stroke-width="1" clip-path="url(#clipPath2)" stroke="none"/>
      <path fill="none" d="M1745.8264 -149.5205 L1743.0024 -150.3198 L1736.1459 -153.0321 L1729.8855 -156.3471 L1724.2213 -160.2648 L1719.1533 -164.7852 L1714.6816 -169.9084 L1710.8062 -175.6342 L1707.5269 -181.9628 L1704.8438 -188.8941 L1702.757 -196.4282 L1701.2665 -204.565 L1700.3721 -213.3045 L1700.074 -222.6467 L1700.074 -239.7908 L1700.3721 -249.133 L1701.2665 -257.8725 L1702.757 -266.0093 L1704.8438 -273.5433 L1707.5269 -280.4747 L1710.8062 -286.8033 L1714.6816 -292.5291 L1719.1533 -297.6523 L1724.2213 -302.1727 L1729.8855 -306.0904 L1736.1459 -309.4054 L1737.3533 -309.883 L1737.4495 -309.9102" clip-path="url(#clipPath2)"/>
      <path d="M1745.9203 -312.9507 L1731.3137 -313.6842 L1736.3906 -309.5302 L1735.1143 -303.0957 Z" clip-path="url(#clipPath2)" stroke="none"/>
      <path fill="none" d="M1993.5031 -174.8208 L1996.7262 -172.8388 L2001.8748 -168.5756 L2006.4814 -163.5483 L2010.546 -157.757 L2014.0687 -151.2016 L2017.0496 -143.8821 L2019.4883 -135.7986 L2021.3851 -126.9511 L2022.7401 -117.3395 L2023.553 -106.9638 L2023.824 -95.8241 L2023.824 -75.341 L2023.553 -64.1793 L2022.7401 -53.7377 L2021.3851 -44.0162 L2019.4883 -35.0149 L2017.0496 -26.7336 L2014.0687 -19.1725 L2010.546 -12.3314 L2006.4814 -6.2105 L2001.8748 -0.8097 L2000.4937 0.4459 L2000.4116 0.503" clip-path="url(#clipPath2)"/>
      <path d="M1993.4257 6.1772 L2007.4509 2.0322 L2001.2849 -0.2062 L2000.3583 -6.7003 Z" clip-path="url(#clipPath2)" stroke="none"/>
      <path fill="none" d="M1745.8378 -87.0051 L1742.2488 -84.8538 L1737.0856 -80.6576 L1732.4658 -75.686 L1728.3896 -69.939 L1724.8569 -63.4167 L1721.8677 -56.119 L1719.4219 -48.0459 L1717.5197 -39.1974 L1716.161 -29.5736 L1715.3457 -19.1744 L1715.074 -7.9998 L1715.074 12.5554 L1715.3457 23.7564 L1716.161 34.2347 L1717.5197 43.9904 L1719.4219 53.0234 L1721.8677 61.3338 L1724.8569 68.9216 L1728.3896 75.7867 L1732.4658 81.9291 L1737.0856 87.349 L1738.8126 88.9201 L1738.8947 88.9773" clip-path="url(#clipPath2)"/>
      <path d="M1745.9155 94.6082 L1738.9034 81.7738 L1738.017 88.2734 L1731.8649 90.5499 Z" clip-path="url(#clipPath2)" stroke="none"/>
    </g>
  </g>
</svg>
