<?xml version="1.0" encoding="UTF-8"?><svg xmlns="http://www.w3.org/2000/svg" xmlns:xlink="http://www.w3.org/1999/xlink" fill-opacity="1" color-rendering="auto" color-interpolation="auto" text-rendering="auto" stroke="black" stroke-linecap="square" width="678" stroke-miterlimit="10" shape-rendering="auto" stroke-opacity="1" fill="black" stroke-dasharray="none" font-weight="normal" stroke-width="1" height="401" font-family="'Dialog'" font-style="normal" stroke-linejoin="miter" font-size="12px" stroke-dashoffset="0" image-rendering="auto">
  <!--Generated by ySVG 2.5-->
  <defs id="genericDefs"/>
  <g>
    <defs id="defs1">
      <clipPath clipPathUnits="userSpaceOnUse" id="clipPath1">
        <path d="M0 0 L678 0 L678 401 L0 401 L0 0 Z"/>
      </clipPath>
      <clipPath clipPathUnits="userSpaceOnUse" id="clipPath2">
        <path d="M1331 -398 L2009 -398 L2009 3 L1331 3 L1331 -398 Z"/>
      </clipPath>
    </defs>
    <g text-rendering="geometricPrecision" stroke-miterlimit="1.45" stroke-width="2" shape-rendering="geometricPrecision" transform="matrix(1,0,0,1,-1331,398)" stroke-linecap="butt">
      <rect fill="none" x="1346.6621" width="247.6875" height="58.2207" y="-346.0498" clip-path="url(#clipPath2)"/>
    </g>
    <g fill="rgb(255,204,0)" text-rendering="geometricPrecision" shape-rendering="geometricPrecision" transform="matrix(1,0,0,1,-1331,398)" stroke="rgb(255,204,0)">
      <rect x="1346.6621" width="247.6875" height="58.2207" y="-287.8291" clip-path="url(#clipPath2)" stroke="none"/>
    </g>
    <g text-rendering="geometricPrecision" stroke-miterlimit="1.45" stroke-width="2" shape-rendering="geometricPrecision" transform="matrix(1,0,0,1,-1331,398)" stroke-linecap="butt">
      <rect fill="none" x="1346.6621" width="247.6875" height="58.2207" y="-287.8291" clip-path="url(#clipPath2)"/>
      <text x="1463.4043" font-size="24px" y="-250.4102" clip-path="url(#clipPath2)" font-family="sans-serif" stroke="none" stroke-width="1" xml:space="preserve">v</text>
      <rect fill="none" x="1346.6621" width="247.6875" height="58.2207" y="-229.6084" clip-path="url(#clipPath2)"/>
      <text x="1437.2832" font-size="24px" y="-356.21" clip-path="url(#clipPath2)" font-family="sans-serif" stroke="none" stroke-width="1" xml:space="preserve">Stack</text>
      <rect fill="none" x="1745.8242" width="247.6875" height="97.3311" y="-287.8291" clip-path="url(#clipPath2)"/>
      <text x="1838.291" font-size="24px" y="-297.9893" clip-path="url(#clipPath2)" font-family="sans-serif" stroke="none" stroke-width="1" xml:space="preserve">Heap</text>
    </g>
    <g fill="rgb(255,204,0)" text-rendering="geometricPrecision" shape-rendering="geometricPrecision" transform="matrix(1,0,0,1,-1331,398)" stroke="rgb(255,204,0)">
      <rect x="1745.8242" width="247.6875" height="30" y="-190.498" clip-path="url(#clipPath2)" stroke="none"/>
    </g>
    <g text-rendering="geometricPrecision" stroke-miterlimit="1.45" stroke-width="2" shape-rendering="geometricPrecision" transform="matrix(1,0,0,1,-1331,398)" stroke-linecap="butt">
      <rect fill="none" x="1745.8242" width="247.6875" height="30" y="-190.498" clip-path="url(#clipPath2)"/>
      <text x="1841.0156" font-size="24px" y="-167.1895" clip-path="url(#clipPath2)" font-family="sans-serif" stroke="none" stroke-width="1" xml:space="preserve">Data</text>
    </g>
    <g fill="rgb(255,204,0)" text-rendering="geometricPrecision" shape-rendering="geometricPrecision" transform="matrix(1,0,0,1,-1331,398)" stroke="rgb(255,204,0)">
      <rect x="1745.8242" width="247.6875" height="30" y="-160.498" clip-path="url(#clipPath2)" stroke="none"/>
    </g>
    <g text-rendering="geometricPrecision" stroke-miterlimit="1.45" stroke-width="2" shape-rendering="geometricPrecision" transform="matrix(1,0,0,1,-1331,398)" stroke-linecap="butt">
      <rect fill="none" x="1745.8242" width="247.6875" height="30" y="-160.498" clip-path="url(#clipPath2)"/>
      <text x="1841.0156" font-size="24px" y="-137.1895" clip-path="url(#clipPath2)" font-family="sans-serif" stroke="none" stroke-width="1" xml:space="preserve">Data</text>
    </g>
    <g fill="rgb(255,204,0)" text-rendering="geometricPrecision" shape-rendering="geometricPrecision" transform="matrix(1,0,0,1,-1331,398)" stroke="rgb(255,204,0)">
      <rect x="1745.8242" width="247.6875" height="30" y="-130.498" clip-path="url(#clipPath2)" stroke="none"/>
    </g>
    <g text-rendering="geometricPrecision" stroke-miterlimit="1.45" stroke-width="2" shape-rendering="geometricPrecision" transform="matrix(1,0,0,1,-1331,398)" stroke-linecap="butt">
      <rect fill="none" x="1745.8242" width="247.6875" height="30" y="-130.498" clip-path="url(#clipPath2)"/>
      <text x="1858.2246" font-size="24px" y="-107.1895" clip-path="url(#clipPath2)" font-family="sans-serif" stroke="none" stroke-width="1" xml:space="preserve">...</text>
    </g>
    <g fill="rgb(255,204,0)" text-rendering="geometricPrecision" shape-rendering="geometricPrecision" transform="matrix(1,0,0,1,-1331,398)" stroke="rgb(255,204,0)">
      <rect x="1745.8242" width="247.6875" height="30" y="-100.498" clip-path="url(#clipPath2)" stroke="none"/>
    </g>
    <g text-rendering="geometricPrecision" stroke-miterlimit="1.45" stroke-width="2" shape-rendering="geometricPrecision" transform="matrix(1,0,0,1,-1331,398)" stroke-linecap="butt">
      <rect fill="none" x="1745.8242" width="247.6875" height="30" y="-100.498" clip-path="url(#clipPath2)"/>
      <text x="1841.0156" font-size="24px" y="-77.1895" clip-path="url(#clipPath2)" font-family="sans-serif" stroke="none" stroke-width="1" xml:space="preserve">Data</text>
      <rect fill="none" x="1745.8242" width="247.6875" height="58.2207" y="-70.498" clip-path="url(#clipPath2)"/>
      <path fill="none" d="M1580.4204 -229.6129 L1617.3933 -219.8224 L1673.6875 -205.5477 L1722.3894 -194.5479 L1736.9493 -191.8119" clip-path="url(#clipPath2)"/>
      <path d="M1745.7946 -190.1498 L1733.5656 -198.1712 L1735.8438 -192.0197 L1731.4879 -187.1147 Z" clip-path="url(#clipPath2)" stroke="none"/>
    </g>
  </g>
</svg>
