<?xml version="1.0" encoding="UTF-8"?><svg xmlns="http://www.w3.org/2000/svg" xmlns:xlink="http://www.w3.org/1999/xlink" fill-opacity="1" color-rendering="auto" color-interpolation="auto" text-rendering="auto" stroke="black" stroke-linecap="square" width="409" stroke-miterlimit="10" shape-rendering="auto" stroke-opacity="1" fill="black" stroke-dasharray="none" font-weight="normal" stroke-width="1" height="464" font-family="'Dialog'" font-style="normal" stroke-linejoin="miter" font-size="12px" stroke-dashoffset="0" image-rendering="auto">
  <!--Generated by ySVG 2.5-->
  <defs id="genericDefs"/>
  <g>
    <defs id="defs1">
      <clipPath clipPathUnits="userSpaceOnUse" id="clipPath1">
        <path d="M0 0 L409 0 L409 464 L0 464 L0 0 Z"/>
      </clipPath>
      <clipPath clipPathUnits="userSpaceOnUse" id="clipPath2">
        <path d="M184 102 L593 102 L593 566 L184 566 L184 102 Z"/>
      </clipPath>
    </defs>
    <g stroke-linecap="butt" transform="matrix(1,0,0,1,-184,-102)" text-rendering="geometricPrecision" shape-rendering="geometricPrecision" stroke-dasharray="12,4" stroke-width="2" stroke-miterlimit="1.45">
      <rect fill="none" x="199" width="378.9375" height="71.9375" y="117.0625" clip-path="url(#clipPath2)"/>
    </g>
    <g font-size="24px" stroke-linecap="butt" transform="matrix(1,0,0,1,-184,-102)" text-rendering="geometricPrecision" font-family="sans-serif" shape-rendering="geometricPrecision" stroke-miterlimit="1.45">
      <text x="246.8242" xml:space="preserve" y="161.3398" clip-path="url(#clipPath2)" stroke="none">Fonctions de démarage</text>
    </g>
    <g fill="rgb(255,204,0)" text-rendering="geometricPrecision" shape-rendering="geometricPrecision" transform="matrix(1,0,0,1,-184,-102)" stroke="rgb(255,204,0)">
      <rect x="199" width="378.9375" height="71.9375" y="189" clip-path="url(#clipPath2)" stroke="none"/>
    </g>
    <g text-rendering="geometricPrecision" stroke-miterlimit="1.45" stroke-width="2" shape-rendering="geometricPrecision" transform="matrix(1,0,0,1,-184,-102)" stroke-linecap="butt">
      <rect fill="none" x="199" width="378.9375" height="71.9375" y="189" clip-path="url(#clipPath2)"/>
      <text x="349.123" font-size="24px" y="233.2773" clip-path="url(#clipPath2)" font-family="sans-serif" stroke="none" stroke-width="1" xml:space="preserve">main()</text>
    </g>
    <g fill="rgb(255,204,0)" text-rendering="geometricPrecision" shape-rendering="geometricPrecision" transform="matrix(1,0,0,1,-184,-102)" stroke="rgb(255,204,0)">
      <rect x="199" width="378.9375" height="71.9375" y="260.9375" clip-path="url(#clipPath2)" stroke="none"/>
    </g>
    <g text-rendering="geometricPrecision" stroke-miterlimit="1.45" stroke-width="2" shape-rendering="geometricPrecision" transform="matrix(1,0,0,1,-184,-102)" stroke-linecap="butt">
      <rect fill="none" x="199" width="378.9375" height="71.9375" y="260.9375" clip-path="url(#clipPath2)"/>
      <text x="334.2637" font-size="24px" y="305.2148" clip-path="url(#clipPath2)" font-family="sans-serif" stroke="none" stroke-width="1" xml:space="preserve">do_calc()</text>
    </g>
    <g fill="rgb(255,204,0)" text-rendering="geometricPrecision" shape-rendering="geometricPrecision" transform="matrix(1,0,0,1,-184,-102)" stroke="rgb(255,204,0)">
      <rect x="199" width="378.9375" height="71.9375" y="332.875" clip-path="url(#clipPath2)" stroke="none"/>
    </g>
    <g text-rendering="geometricPrecision" stroke-miterlimit="1.45" stroke-width="2" shape-rendering="geometricPrecision" transform="matrix(1,0,0,1,-184,-102)" stroke-linecap="butt">
      <rect fill="none" x="199" width="378.9375" height="71.9375" y="332.875" clip-path="url(#clipPath2)"/>
      <text x="337.9609" font-size="24px" y="377.1523" clip-path="url(#clipPath2)" font-family="sans-serif" stroke="none" stroke-width="1" xml:space="preserve">square()</text>
      <path fill="none" d="M388.4688 404.8125 L388.4688 469.5" clip-path="url(#clipPath2)"/>
      <path d="M388.4688 478.5 L394.0938 465 L388.4688 468.375 L382.8438 465 Z" clip-path="url(#clipPath2)" stroke="none"/>
    </g>
  </g>
</svg>
