<?xml version="1.0" encoding="UTF-8"?><svg xmlns="http://www.w3.org/2000/svg" xmlns:xlink="http://www.w3.org/1999/xlink" fill-opacity="1" color-rendering="auto" color-interpolation="auto" text-rendering="auto" stroke="black" stroke-linecap="square" width="748" stroke-miterlimit="10" shape-rendering="auto" stroke-opacity="1" fill="black" stroke-dasharray="none" font-weight="normal" stroke-width="1" height="660" font-family="'Dialog'" font-style="normal" stroke-linejoin="miter" font-size="12px" stroke-dashoffset="0" image-rendering="auto">
  <!--Generated by ySVG 2.5-->
  <defs id="genericDefs"/>
  <g>
    <defs id="defs1">
      <clipPath clipPathUnits="userSpaceOnUse" id="clipPath1">
        <path d="M0 0 L748 0 L748 660 L0 660 L0 0 Z"/>
      </clipPath>
      <clipPath clipPathUnits="userSpaceOnUse" id="clipPath2">
        <path d="M1331 -470 L2079 -470 L2079 190 L1331 190 L1331 -470 Z"/>
      </clipPath>
    </defs>
    <g text-rendering="geometricPrecision" stroke-miterlimit="1.45" stroke-width="2" shape-rendering="geometricPrecision" transform="matrix(1,0,0,1,-1331,470)" stroke-linecap="butt">
      <rect fill="none" x="1346.6621" width="247.6875" height="58.2207" y="-346.0498" clip-path="url(#clipPath2)"/>
    </g>
    <g fill="rgb(255,204,0)" text-rendering="geometricPrecision" shape-rendering="geometricPrecision" transform="matrix(1,0,0,1,-1331,470)" stroke="rgb(255,204,0)">
      <rect x="1346.6621" width="247.6875" height="58.2207" y="-287.8291" clip-path="url(#clipPath2)" stroke="none"/>
    </g>
    <g text-rendering="geometricPrecision" stroke-miterlimit="1.45" stroke-width="2" shape-rendering="geometricPrecision" transform="matrix(1,0,0,1,-1331,470)" stroke-linecap="butt">
      <rect fill="none" x="1346.6621" width="247.6875" height="58.2207" y="-287.8291" clip-path="url(#clipPath2)"/>
      <text x="1452.8809" font-size="24px" y="-250.4102" clip-path="url(#clipPath2)" font-family="sans-serif" stroke="none" stroke-width="1" xml:space="preserve">list</text>
      <rect fill="none" x="1346.6621" width="247.6875" height="58.2207" y="-229.6084" clip-path="url(#clipPath2)"/>
      <text x="1437.2832" font-size="24px" y="-356.21" clip-path="url(#clipPath2)" font-family="sans-serif" stroke="none" stroke-width="1" xml:space="preserve">Stack</text>
      <rect fill="none" x="1745.8242" width="247.6875" height="71.2207" y="-417.2705" clip-path="url(#clipPath2)"/>
    </g>
    <g fill="rgb(153,204,255)" text-rendering="geometricPrecision" shape-rendering="geometricPrecision" transform="matrix(1,0,0,1,-1331,470)" stroke="rgb(153,204,255)">
      <rect x="1811.9576" width="115.4207" height="58.2207" y="-346.0498" clip-path="url(#clipPath2)" stroke="none"/>
    </g>
    <g text-rendering="geometricPrecision" stroke-miterlimit="1.45" stroke-width="2" shape-rendering="geometricPrecision" transform="matrix(1,0,0,1,-1331,470)" stroke-linecap="butt">
      <rect fill="none" x="1811.9576" width="115.4207" height="58.2207" y="-346.0498" clip-path="url(#clipPath2)"/>
      <text x="1841.0156" font-size="24px" y="-308.6309" clip-path="url(#clipPath2)" font-family="sans-serif" stroke="none" stroke-width="1" xml:space="preserve">Data</text>
      <rect fill="none" x="1745.8242" width="247.6875" height="139.5182" y="-287.8291" clip-path="url(#clipPath2)"/>
      <text x="1838.291" font-size="24px" y="-427.4307" clip-path="url(#clipPath2)" font-family="sans-serif" stroke="none" stroke-width="1" xml:space="preserve">Heap</text>
      <rect fill="none" x="1745.8242" width="247.6875" height="176.4414" y="-90.0902" clip-path="url(#clipPath2)"/>
      <rect fill="none" x="1745.8242" width="247.6875" height="30" y="144.5719" clip-path="url(#clipPath2)"/>
    </g>
    <g fill="silver" text-rendering="geometricPrecision" shape-rendering="geometricPrecision" transform="matrix(1,0,0,1,-1331,470)" stroke="silver">
      <rect x="1745.8242" width="66.1334" height="58.2207" y="-346.0498" clip-path="url(#clipPath2)" stroke="none"/>
    </g>
    <g text-rendering="geometricPrecision" stroke-miterlimit="1.45" stroke-width="2" shape-rendering="geometricPrecision" transform="matrix(1,0,0,1,-1331,470)" stroke-linecap="butt">
      <rect fill="none" x="1745.8242" width="66.1334" height="58.2207" y="-346.0498" clip-path="url(#clipPath2)"/>
      <text x="1757.012" font-size="24px" y="-308.6309" clip-path="url(#clipPath2)" font-family="sans-serif" stroke="none" stroke-width="1" xml:space="preserve">null</text>
    </g>
    <g fill="rgb(255,204,0)" text-rendering="geometricPrecision" shape-rendering="geometricPrecision" transform="matrix(1,0,0,1,-1331,470)" stroke="rgb(255,204,0)">
      <rect x="1927.3783" width="66.1334" height="58.2207" y="-346.0498" clip-path="url(#clipPath2)" stroke="none"/>
    </g>
    <g text-rendering="geometricPrecision" stroke-miterlimit="1.45" stroke-width="2" shape-rendering="geometricPrecision" transform="matrix(1,0,0,1,-1331,470)" stroke-linecap="butt">
      <rect fill="none" x="1927.3783" width="66.1334" height="58.2207" y="-346.0498" clip-path="url(#clipPath2)"/>
      <text x="1933.6501" font-size="24px" y="-308.6309" clip-path="url(#clipPath2)" font-family="sans-serif" stroke="none" stroke-width="1" xml:space="preserve">next</text>
    </g>
    <g fill="rgb(153,204,255)" text-rendering="geometricPrecision" shape-rendering="geometricPrecision" transform="matrix(1,0,0,1,-1331,470)" stroke="rgb(153,204,255)">
      <rect x="1811.9576" width="115.4207" height="58.2207" y="-148.3109" clip-path="url(#clipPath2)" stroke="none"/>
    </g>
    <g text-rendering="geometricPrecision" stroke-miterlimit="1.45" stroke-width="2" shape-rendering="geometricPrecision" transform="matrix(1,0,0,1,-1331,470)" stroke-linecap="butt">
      <rect fill="none" x="1811.9576" width="115.4207" height="58.2207" y="-148.3109" clip-path="url(#clipPath2)"/>
      <text x="1841.0156" font-size="24px" y="-110.892" clip-path="url(#clipPath2)" font-family="sans-serif" stroke="none" stroke-width="1" xml:space="preserve">Data</text>
    </g>
    <g fill="rgb(255,204,0)" text-rendering="geometricPrecision" shape-rendering="geometricPrecision" transform="matrix(1,0,0,1,-1331,470)" stroke="rgb(255,204,0)">
      <rect x="1745.8242" width="66.1334" height="58.2207" y="-148.3109" clip-path="url(#clipPath2)" stroke="none"/>
    </g>
    <g text-rendering="geometricPrecision" stroke-miterlimit="1.45" stroke-width="2" shape-rendering="geometricPrecision" transform="matrix(1,0,0,1,-1331,470)" stroke-linecap="butt">
      <rect fill="none" x="1745.8242" width="66.1334" height="58.2207" y="-148.3109" clip-path="url(#clipPath2)"/>
      <text x="1751.8557" font-size="24px" y="-110.892" clip-path="url(#clipPath2)" font-family="sans-serif" stroke="none" stroke-width="1" xml:space="preserve">prev</text>
    </g>
    <g fill="rgb(255,204,0)" text-rendering="geometricPrecision" shape-rendering="geometricPrecision" transform="matrix(1,0,0,1,-1331,470)" stroke="rgb(255,204,0)">
      <rect x="1927.3783" width="66.1334" height="58.2207" y="-148.3109" clip-path="url(#clipPath2)" stroke="none"/>
    </g>
    <g text-rendering="geometricPrecision" stroke-miterlimit="1.45" stroke-width="2" shape-rendering="geometricPrecision" transform="matrix(1,0,0,1,-1331,470)" stroke-linecap="butt">
      <rect fill="none" x="1927.3783" width="66.1334" height="58.2207" y="-148.3109" clip-path="url(#clipPath2)"/>
      <text x="1933.6501" font-size="24px" y="-110.892" clip-path="url(#clipPath2)" font-family="sans-serif" stroke="none" stroke-width="1" xml:space="preserve">next</text>
    </g>
    <g fill="rgb(153,204,255)" text-rendering="geometricPrecision" shape-rendering="geometricPrecision" transform="matrix(1,0,0,1,-1331,470)" stroke="rgb(153,204,255)">
      <rect x="1811.9576" width="115.4207" height="58.2207" y="86.3512" clip-path="url(#clipPath2)" stroke="none"/>
    </g>
    <g text-rendering="geometricPrecision" stroke-miterlimit="1.45" stroke-width="2" shape-rendering="geometricPrecision" transform="matrix(1,0,0,1,-1331,470)" stroke-linecap="butt">
      <rect fill="none" x="1811.9576" width="115.4207" height="58.2207" y="86.3512" clip-path="url(#clipPath2)"/>
      <text x="1841.0156" font-size="24px" y="123.7701" clip-path="url(#clipPath2)" font-family="sans-serif" stroke="none" stroke-width="1" xml:space="preserve">Data</text>
    </g>
    <g fill="rgb(255,204,0)" text-rendering="geometricPrecision" shape-rendering="geometricPrecision" transform="matrix(1,0,0,1,-1331,470)" stroke="rgb(255,204,0)">
      <rect x="1745.8242" width="66.1334" height="58.2207" y="86.3512" clip-path="url(#clipPath2)" stroke="none"/>
    </g>
    <g text-rendering="geometricPrecision" stroke-miterlimit="1.45" stroke-width="2" shape-rendering="geometricPrecision" transform="matrix(1,0,0,1,-1331,470)" stroke-linecap="butt">
      <rect fill="none" x="1745.8242" width="66.1334" height="58.2207" y="86.3512" clip-path="url(#clipPath2)"/>
      <text x="1751.8557" font-size="24px" y="123.7701" clip-path="url(#clipPath2)" font-family="sans-serif" stroke="none" stroke-width="1" xml:space="preserve">prev</text>
    </g>
    <g fill="silver" text-rendering="geometricPrecision" shape-rendering="geometricPrecision" transform="matrix(1,0,0,1,-1331,470)" stroke="silver">
      <rect x="1927.3783" width="66.1334" height="58.2207" y="86.3512" clip-path="url(#clipPath2)" stroke="none"/>
    </g>
    <g text-rendering="geometricPrecision" stroke-miterlimit="1.45" stroke-width="2" shape-rendering="geometricPrecision" transform="matrix(1,0,0,1,-1331,470)" stroke-linecap="butt">
      <rect fill="none" x="1927.3783" width="66.1334" height="58.2207" y="86.3512" clip-path="url(#clipPath2)"/>
      <text x="1938.5662" font-size="24px" y="123.7701" clip-path="url(#clipPath2)" font-family="sans-serif" stroke="none" stroke-width="1" xml:space="preserve">null</text>
      <path fill="none" d="M1594.3496 -282.0995 L1737.9631 -309.2126" stroke-width="1" clip-path="url(#clipPath2)"/>
      <path d="M1745.8242 -310.6967 L1733.105 -313.3837 L1736.9805 -309.0271 L1734.9601 -303.5573 Z" stroke-width="1" clip-path="url(#clipPath2)" stroke="none"/>
      <rect x="1640.2793" y="-310.0387" clip-path="url(#clipPath2)" fill="white" width="59.6152" height="27.2812" stroke="none" stroke-width="1"/>
    </g>
    <g font-size="20px" stroke-linecap="butt" transform="matrix(1,0,0,1,-1331,470)" text-rendering="geometricPrecision" font-family="sans-serif" shape-rendering="geometricPrecision" font-weight="bold" stroke-miterlimit="1.45">
      <text x="1642.2793" xml:space="preserve" y="-289.4743" clip-path="url(#clipPath2)" stroke="none">head</text>
      <path fill="none" d="M1993.5117 -316.9395 L2063.9717 -316.9395 L2063.9717 -186.3684 L1778.8909 -186.3684 L1778.8909 -156.3109" clip-path="url(#clipPath2)"/>
      <path d="M1778.8909 -148.3109 L1783.8909 -160.3109 L1778.8909 -157.3109 L1773.8909 -160.3109 Z" stroke="none" clip-path="url(#clipPath2)"/>
      <path fill="none" d="M1745.8242 -119.2006 L1712.6189 -119.2006 L1712.6189 -316.9395 L1737.8242 -316.9395" clip-path="url(#clipPath2)"/>
      <path d="M1745.8242 -316.9395 L1733.8242 -321.9395 L1736.8242 -316.9395 L1733.8242 -311.9395 Z" stroke="none" clip-path="url(#clipPath2)"/>
      <path fill="none" d="M1494.4974 -229.6084 L1749.8113 80.1777" clip-path="url(#clipPath2)"/>
      <path d="M1754.8993 86.3512 L1751.1257 73.9109 L1749.1753 79.406 L1743.4088 80.2709 Z" stroke="none" clip-path="url(#clipPath2)"/>
    </g>
    <g stroke-linecap="butt" transform="matrix(1,0,0,1,-1331,470)" fill="white" text-rendering="geometricPrecision" shape-rendering="geometricPrecision" stroke="white" stroke-miterlimit="1.45">
      <rect x="1604.3146" width="40.7676" height="27.2812" y="-85.2692" clip-path="url(#clipPath2)" stroke="none"/>
    </g>
    <g font-size="20px" stroke-linecap="butt" transform="matrix(1,0,0,1,-1331,470)" text-rendering="geometricPrecision" font-family="sans-serif" shape-rendering="geometricPrecision" font-weight="bold" stroke-miterlimit="1.45">
      <text x="1606.3146" xml:space="preserve" y="-64.7048" clip-path="url(#clipPath2)" stroke="none">tail</text>
      <path fill="none" d="M1993.5117 -119.2006 L2063.5 -119.2006 L2063.5 55.5 L1778.8909 55.5 L1778.8909 78.3512" clip-path="url(#clipPath2)"/>
      <path d="M1778.8909 86.3512 L1783.8909 74.3512 L1778.8909 77.3512 L1773.8909 74.3512 Z" stroke="none" clip-path="url(#clipPath2)"/>
    </g>
  </g>
</svg>
