<?xml version="1.0" encoding="UTF-8"?><svg xmlns="http://www.w3.org/2000/svg" xmlns:xlink="http://www.w3.org/1999/xlink" fill-opacity="1" color-rendering="auto" color-interpolation="auto" text-rendering="auto" stroke="black" stroke-linecap="square" width="280" stroke-miterlimit="10" shape-rendering="auto" stroke-opacity="1" fill="black" stroke-dasharray="none" font-weight="normal" stroke-width="1" height="428" font-family="'Dialog'" font-style="normal" stroke-linejoin="miter" font-size="12px" stroke-dashoffset="0" image-rendering="auto">
  <!--Generated by ySVG 2.5-->
  <defs id="genericDefs"/>
  <g>
    <defs id="defs1">
      <clipPath clipPathUnits="userSpaceOnUse" id="clipPath1">
        <path d="M0 0 L280 0 L280 428 L0 428 L0 0 Z"/>
      </clipPath>
      <clipPath clipPathUnits="userSpaceOnUse" id="clipPath2">
        <path d="M184 63 L464 63 L464 491 L184 491 L184 63 Z"/>
      </clipPath>
    </defs>
    <g fill="rgb(255,204,0)" text-rendering="geometricPrecision" shape-rendering="geometricPrecision" transform="matrix(1,0,0,1,-184,-63)" stroke="rgb(255,204,0)">
      <rect x="199" width="250" height="111" y="78" clip-path="url(#clipPath2)" stroke="none"/>
    </g>
    <g text-rendering="geometricPrecision" stroke-miterlimit="1.45" stroke-width="2" shape-rendering="geometricPrecision" transform="matrix(1,0,0,1,-184,-63)" stroke-linecap="butt">
      <rect fill="none" x="199" width="250" height="111" y="78" clip-path="url(#clipPath2)"/>
      <text x="290.7773" font-size="24px" y="141.8086" clip-path="url(#clipPath2)" font-family="sans-serif" stroke="none" stroke-width="1" xml:space="preserve">Stack</text>
      <rect fill="none" x="199" width="250" height="103" y="189" clip-path="url(#clipPath2)"/>
    </g>
    <g fill="rgb(255,204,0)" text-rendering="geometricPrecision" shape-rendering="geometricPrecision" transform="matrix(1,0,0,1,-184,-63)" stroke="rgb(255,204,0)">
      <rect x="199" width="250" height="79" y="292" clip-path="url(#clipPath2)" stroke="none"/>
    </g>
    <g text-rendering="geometricPrecision" stroke-miterlimit="1.45" stroke-width="2" shape-rendering="geometricPrecision" transform="matrix(1,0,0,1,-184,-63)" stroke-linecap="butt">
      <rect fill="none" x="199" width="250" height="79" y="292" clip-path="url(#clipPath2)"/>
      <text x="292.623" font-size="24px" y="339.8086" clip-path="url(#clipPath2)" font-family="sans-serif" stroke="none" stroke-width="1" xml:space="preserve">Heap</text>
    </g>
    <g fill="rgb(255,204,0)" text-rendering="geometricPrecision" shape-rendering="geometricPrecision" transform="matrix(1,0,0,1,-184,-63)" stroke="rgb(255,204,0)">
      <rect x="199" width="250" height="105" y="371" clip-path="url(#clipPath2)" stroke="none"/>
    </g>
    <g text-rendering="geometricPrecision" stroke-miterlimit="1.45" stroke-width="2" shape-rendering="geometricPrecision" transform="matrix(1,0,0,1,-184,-63)" stroke-linecap="butt">
      <rect fill="none" x="199" width="250" height="105" y="371" clip-path="url(#clipPath2)"/>
      <text x="293.2793" font-size="24px" y="431.8086" clip-path="url(#clipPath2)" font-family="sans-serif" stroke="none" stroke-width="1" xml:space="preserve">Code</text>
      <path fill="none" d="M324 189 L324 216.5" clip-path="url(#clipPath2)"/>
      <path d="M324 225.5 L329.625 212 L324 215.375 L318.375 212 Z" clip-path="url(#clipPath2)" stroke="none"/>
      <path fill="none" d="M324 292 L324 264.5" clip-path="url(#clipPath2)"/>
      <path d="M324 255.5 L318.375 269 L324 265.625 L329.625 269 Z" clip-path="url(#clipPath2)" stroke="none"/>
    </g>
  </g>
</svg>
