<?xml version="1.0" encoding="UTF-8"?><svg xmlns="http://www.w3.org/2000/svg" xmlns:xlink="http://www.w3.org/1999/xlink" fill-opacity="1" color-rendering="auto" color-interpolation="auto" text-rendering="auto" stroke="black" stroke-linecap="square" width="339" stroke-miterlimit="10" shape-rendering="auto" stroke-opacity="1" fill="black" stroke-dasharray="none" font-weight="normal" stroke-width="1" height="254" font-family="'Dialog'" font-style="normal" stroke-linejoin="miter" font-size="12px" stroke-dashoffset="0" image-rendering="auto">
  <!--Generated by ySVG 2.5-->
  <defs id="genericDefs"/>
  <g>
    <defs id="defs1">
      <clipPath clipPathUnits="userSpaceOnUse" id="clipPath1">
        <path d="M0 0 L339 0 L339 254 L0 254 L0 0 Z"/>
      </clipPath>
      <clipPath clipPathUnits="userSpaceOnUse" id="clipPath2">
        <path d="M-44 1 L295 1 L295 255 L-44 255 L-44 1 Z"/>
      </clipPath>
    </defs>
    <g fill="red" text-rendering="geometricPrecision" shape-rendering="geometricPrecision" transform="matrix(1,0,0,1,44,-1)" stroke="red">
      <circle r="15" clip-path="url(#clipPath2)" cx="150.8214" cy="31" stroke="none"/>
    </g>
    <g text-rendering="geometricPrecision" stroke-miterlimit="1.45" shape-rendering="geometricPrecision" transform="matrix(1,0,0,1,44,-1)" stroke-linecap="butt">
      <circle fill="none" r="15" clip-path="url(#clipPath2)" cx="150.8214" cy="31"/>
      <text x="143.1867" xml:space="preserve" y="35.1543" clip-path="url(#clipPath2)" font-family="sans-serif" stroke="none">13</text>
    </g>
    <g fill="rgb(255,204,0)" text-rendering="geometricPrecision" shape-rendering="geometricPrecision" transform="matrix(1,0,0,1,44,-1)" stroke="rgb(255,204,0)">
      <circle r="15" clip-path="url(#clipPath2)" cx="61.8214" cy="85" stroke="none"/>
    </g>
    <g text-rendering="geometricPrecision" stroke-miterlimit="1.45" shape-rendering="geometricPrecision" transform="matrix(1,0,0,1,44,-1)" stroke-linecap="butt">
      <circle fill="none" r="15" clip-path="url(#clipPath2)" cx="61.8214" cy="85"/>
      <text x="54.1867" xml:space="preserve" y="89.1543" clip-path="url(#clipPath2)" font-family="sans-serif" stroke="none">21</text>
    </g>
    <g fill="rgb(255,204,0)" text-rendering="geometricPrecision" shape-rendering="geometricPrecision" transform="matrix(1,0,0,1,44,-1)" stroke="rgb(255,204,0)">
      <circle r="15" clip-path="url(#clipPath2)" cx="239.8214" cy="85" stroke="none"/>
    </g>
    <g text-rendering="geometricPrecision" stroke-miterlimit="1.45" shape-rendering="geometricPrecision" transform="matrix(1,0,0,1,44,-1)" stroke-linecap="butt">
      <circle fill="none" r="15" clip-path="url(#clipPath2)" cx="239.8214" cy="85"/>
      <text x="232.1867" xml:space="preserve" y="89.1543" clip-path="url(#clipPath2)" font-family="sans-serif" stroke="none">16</text>
    </g>
    <g fill="rgb(255,204,0)" text-rendering="geometricPrecision" shape-rendering="geometricPrecision" transform="matrix(1,0,0,1,44,-1)" stroke="rgb(255,204,0)">
      <circle r="15" clip-path="url(#clipPath2)" cx="11.8214" cy="155" stroke="none"/>
    </g>
    <g text-rendering="geometricPrecision" stroke-miterlimit="1.45" shape-rendering="geometricPrecision" transform="matrix(1,0,0,1,44,-1)" stroke-linecap="butt">
      <circle fill="none" r="15" clip-path="url(#clipPath2)" cx="11.8214" cy="155"/>
      <text x="4.1867" xml:space="preserve" y="159.1543" clip-path="url(#clipPath2)" font-family="sans-serif" stroke="none">24</text>
    </g>
    <g fill="rgb(255,204,0)" text-rendering="geometricPrecision" shape-rendering="geometricPrecision" transform="matrix(1,0,0,1,44,-1)" stroke="rgb(255,204,0)">
      <circle r="15" clip-path="url(#clipPath2)" cx="111.8214" cy="155" stroke="none"/>
    </g>
    <g text-rendering="geometricPrecision" stroke-miterlimit="1.45" shape-rendering="geometricPrecision" transform="matrix(1,0,0,1,44,-1)" stroke-linecap="butt">
      <circle fill="none" r="15" clip-path="url(#clipPath2)" cx="111.8214" cy="155"/>
      <text x="104.1867" xml:space="preserve" y="159.1543" clip-path="url(#clipPath2)" font-family="sans-serif" stroke="none">31</text>
    </g>
    <g fill="rgb(255,204,0)" text-rendering="geometricPrecision" shape-rendering="geometricPrecision" transform="matrix(1,0,0,1,44,-1)" stroke="rgb(255,204,0)">
      <circle r="15" clip-path="url(#clipPath2)" cx="214.8214" cy="155" stroke="none"/>
    </g>
    <g text-rendering="geometricPrecision" stroke-miterlimit="1.45" shape-rendering="geometricPrecision" transform="matrix(1,0,0,1,44,-1)" stroke-linecap="butt">
      <circle fill="none" r="15" clip-path="url(#clipPath2)" cx="214.8214" cy="155"/>
      <text x="207.1867" xml:space="preserve" y="159.1543" clip-path="url(#clipPath2)" font-family="sans-serif" stroke="none">19</text>
    </g>
    <g fill="rgb(255,204,0)" text-rendering="geometricPrecision" shape-rendering="geometricPrecision" transform="matrix(1,0,0,1,44,-1)" stroke="rgb(255,204,0)">
      <circle r="15" clip-path="url(#clipPath2)" cx="264.8214" cy="155" stroke="none"/>
    </g>
    <g text-rendering="geometricPrecision" stroke-miterlimit="1.45" shape-rendering="geometricPrecision" transform="matrix(1,0,0,1,44,-1)" stroke-linecap="butt">
      <circle fill="none" r="15" clip-path="url(#clipPath2)" cx="264.8214" cy="155"/>
      <text x="257.1867" xml:space="preserve" y="159.1543" clip-path="url(#clipPath2)" font-family="sans-serif" stroke="none">68</text>
    </g>
    <g fill="rgb(255,204,0)" text-rendering="geometricPrecision" shape-rendering="geometricPrecision" transform="matrix(1,0,0,1,44,-1)" stroke="rgb(255,204,0)">
      <circle r="15" clip-path="url(#clipPath2)" cx="-13.1786" cy="225" stroke="none"/>
    </g>
    <g text-rendering="geometricPrecision" stroke-miterlimit="1.45" shape-rendering="geometricPrecision" transform="matrix(1,0,0,1,44,-1)" stroke-linecap="butt">
      <circle fill="none" r="15" clip-path="url(#clipPath2)" cx="-13.1786" cy="225"/>
      <text x="-20.8133" xml:space="preserve" y="229.1543" clip-path="url(#clipPath2)" font-family="sans-serif" stroke="none">65</text>
    </g>
    <g fill="rgb(255,204,0)" text-rendering="geometricPrecision" shape-rendering="geometricPrecision" transform="matrix(1,0,0,1,44,-1)" stroke="rgb(255,204,0)">
      <circle r="15" clip-path="url(#clipPath2)" cx="36.8214" cy="225" stroke="none"/>
    </g>
    <g text-rendering="geometricPrecision" stroke-miterlimit="1.45" shape-rendering="geometricPrecision" transform="matrix(1,0,0,1,44,-1)" stroke-linecap="butt">
      <circle fill="none" r="15" clip-path="url(#clipPath2)" cx="36.8214" cy="225"/>
      <text x="29.1867" xml:space="preserve" y="229.1543" clip-path="url(#clipPath2)" font-family="sans-serif" stroke="none">26</text>
    </g>
    <g fill="rgb(255,204,0)" text-rendering="geometricPrecision" shape-rendering="geometricPrecision" transform="matrix(1,0,0,1,44,-1)" stroke="rgb(255,204,0)">
      <circle r="15" clip-path="url(#clipPath2)" cx="86.8214" cy="225" stroke="none"/>
    </g>
    <g text-rendering="geometricPrecision" stroke-miterlimit="1.45" shape-rendering="geometricPrecision" transform="matrix(1,0,0,1,44,-1)" stroke-linecap="butt">
      <circle fill="none" r="15" clip-path="url(#clipPath2)" cx="86.8214" cy="225"/>
      <text x="79.1867" xml:space="preserve" y="229.1543" clip-path="url(#clipPath2)" font-family="sans-serif" stroke="none">32</text>
      <path fill="none" d="M137.9973 38.7809 L74.6455 77.2191" clip-path="url(#clipPath2)"/>
      <path fill="none" d="M163.6455 38.7809 L226.9973 77.2191" clip-path="url(#clipPath2)"/>
      <path fill="none" d="M53.1029 97.206 L20.54 142.794" clip-path="url(#clipPath2)"/>
      <path fill="none" d="M70.54 97.206 L103.1029 142.794" clip-path="url(#clipPath2)"/>
      <path fill="none" d="M234.7764 99.1261 L219.8665 140.8739" clip-path="url(#clipPath2)"/>
      <path fill="none" d="M244.8665 99.1261 L259.7764 140.8739" clip-path="url(#clipPath2)"/>
      <path fill="none" d="M6.7764 169.1261 L-8.1335 210.8739" clip-path="url(#clipPath2)"/>
      <path fill="none" d="M16.8665 169.1261 L31.7764 210.8739" clip-path="url(#clipPath2)"/>
      <path fill="none" d="M106.7764 169.1261 L91.8665 210.8739" clip-path="url(#clipPath2)"/>
      <path fill="none" d="M106.2988 212.9793 L106.3849 212.9284 L114.5799 207.2683 L126.3422 197.704 L136.6931 187.6742 L145.6327 177.1787 L153.161 166.2177 L159.278 154.7911 L163.9836 142.8989 L167.278 130.5411 L169.161 117.7177 L169.6327 104.4287 L168.6931 90.6742 L166.3422 76.454 L162.5799 61.7683 L159.3615 52.3429 L159.3227 52.2507" clip-path="url(#clipPath2)" stroke="red"/>
      <path fill="red" d="M99.6426 217.4171 L112.4006 214.9205 L107.1308 212.4246 L106.8533 206.6002 Z" clip-path="url(#clipPath2)" stroke="none"/>
      <path fill="red" d="M156.6137 44.7234 L155.9725 57.7075 L159.6613 53.1917 L165.3818 54.3213 Z" clip-path="url(#clipPath2)" stroke="none"/>
    </g>
  </g>
</svg>
