<?xml version="1.0" encoding="UTF-8"?><svg xmlns="http://www.w3.org/2000/svg" xmlns:xlink="http://www.w3.org/1999/xlink" fill-opacity="1" color-rendering="auto" color-interpolation="auto" text-rendering="auto" stroke="black" stroke-linecap="square" width="222" stroke-miterlimit="10" shape-rendering="auto" stroke-opacity="1" fill="black" stroke-dasharray="none" font-weight="normal" stroke-width="1" height="208" font-family="'Dialog'" font-style="normal" stroke-linejoin="miter" font-size="12px" stroke-dashoffset="0" image-rendering="auto">
  <!--Generated by ySVG 2.5-->
  <defs id="genericDefs"/>
  <g>
    <defs id="defs1">
      <clipPath clipPathUnits="userSpaceOnUse" id="clipPath1">
        <path d="M0 0 L222 0 L222 208 L0 208 L0 0 Z"/>
      </clipPath>
      <clipPath clipPathUnits="userSpaceOnUse" id="clipPath2">
        <path d="M253 142 L475 142 L475 350 L253 350 L253 142 Z"/>
      </clipPath>
    </defs>
    <g fill="rgb(255,204,0)" text-rendering="geometricPrecision" shape-rendering="geometricPrecision" transform="matrix(1,0,0,1,-253,-142)" stroke="rgb(255,204,0)">
      <circle r="15" clip-path="url(#clipPath2)" cx="364" cy="172" stroke="none"/>
    </g>
    <g text-rendering="geometricPrecision" stroke-miterlimit="1.45" shape-rendering="geometricPrecision" transform="matrix(1,0,0,1,-253,-142)" stroke-linecap="butt">
      <circle fill="none" r="15" clip-path="url(#clipPath2)" cx="364" cy="172"/>
      <text x="358.6738" font-size="18px" y="178.2314" clip-path="url(#clipPath2)" font-family="sans-serif" stroke="none" xml:space="preserve">x</text>
    </g>
    <g fill="rgb(255,204,0)" text-rendering="geometricPrecision" shape-rendering="geometricPrecision" transform="matrix(1,0,0,1,-253,-142)" stroke="rgb(255,204,0)">
      <circle r="15" clip-path="url(#clipPath2)" cx="283" cy="266" stroke="none"/>
    </g>
    <g text-rendering="geometricPrecision" stroke-miterlimit="1.45" shape-rendering="geometricPrecision" transform="matrix(1,0,0,1,-253,-142)" stroke-linecap="butt">
      <circle fill="none" r="15" clip-path="url(#clipPath2)" cx="283" cy="266"/>
      <text x="277.6738" font-size="18px" y="272.2314" clip-path="url(#clipPath2)" font-family="sans-serif" stroke="none" xml:space="preserve">y</text>
    </g>
    <g fill="rgb(255,204,0)" text-rendering="geometricPrecision" shape-rendering="geometricPrecision" transform="matrix(1,0,0,1,-253,-142)" stroke="rgb(255,204,0)">
      <circle r="15" clip-path="url(#clipPath2)" cx="445" cy="266" stroke="none"/>
    </g>
    <g text-rendering="geometricPrecision" stroke-miterlimit="1.45" shape-rendering="geometricPrecision" transform="matrix(1,0,0,1,-253,-142)" stroke-linecap="butt">
      <circle fill="none" r="15" clip-path="url(#clipPath2)" cx="445" cy="266"/>
      <text x="440.2759" font-size="18px" y="272.2314" clip-path="url(#clipPath2)" font-family="sans-serif" stroke="none" xml:space="preserve">z</text>
      <path fill="none" d="M354.2083 183.3632 L292.7917 254.6368" clip-path="url(#clipPath2)"/>
      <path fill="none" d="M373.7917 183.3632 L435.2083 254.6368" clip-path="url(#clipPath2)"/>
    </g>
    <g stroke-linecap="butt" transform="matrix(1,0,0,1,-253,-142)" fill="rgb(51,102,255)" text-rendering="geometricPrecision" shape-rendering="geometricPrecision" stroke-dasharray="12,4" stroke="rgb(51,102,255)" stroke-width="2" stroke-miterlimit="1.45">
      <path fill="none" d="M300.175 282.7235 L303.25 285.4688 L313.375 293.1172 L323.5 299.375 L333.625 304.2422 L343.75 307.7188 L353.875 309.8047 L364 310.5 L374.125 309.8047 L384.25 307.7188 L394.375 304.2422 L404.5 299.375 L414.625 293.1172 L424.75 285.4688 L427.825 282.7235" clip-path="url(#clipPath2)"/>
      <path d="M293.4612 276.7298 L299.7858 289.9165 L301.0142 283.4727 L307.278 281.5243 Z" clip-path="url(#clipPath2)" stroke="none"/>
      <path d="M434.5388 276.7298 L420.722 281.5243 L426.9858 283.4727 L428.2142 289.9165 Z" clip-path="url(#clipPath2)" stroke="none"/>
    </g>
    <g stroke-linecap="butt" transform="matrix(1,0,0,1,-253,-142)" text-rendering="geometricPrecision" font-family="sans-serif" shape-rendering="geometricPrecision" font-weight="bold" stroke-miterlimit="1.45">
      <text x="314.0908" xml:space="preserve" y="330.1543" clip-path="url(#clipPath2)" stroke="none">pas de relation</text>
    </g>
  </g>
</svg>
