<?xml version="1.0" encoding="UTF-8"?><svg xmlns="http://www.w3.org/2000/svg" xmlns:xlink="http://www.w3.org/1999/xlink" fill-opacity="1" color-rendering="auto" color-interpolation="auto" text-rendering="auto" stroke="black" stroke-linecap="square" width="230" stroke-miterlimit="10" shape-rendering="auto" stroke-opacity="1" fill="black" stroke-dasharray="none" font-weight="normal" stroke-width="1" height="242" font-family="'Dialog'" font-style="normal" stroke-linejoin="miter" font-size="12px" stroke-dashoffset="0" image-rendering="auto">
  <!--Generated by ySVG 2.5-->
  <defs id="genericDefs"/>
  <g>
    <defs id="defs1">
      <clipPath clipPathUnits="userSpaceOnUse" id="clipPath1">
        <path d="M0 0 L230 0 L230 242 L0 242 L0 0 Z"/>
      </clipPath>
      <clipPath clipPathUnits="userSpaceOnUse" id="clipPath2">
        <path d="M-64 -62 L166 -62 L166 180 L-64 180 L-64 -62 Z"/>
      </clipPath>
    </defs>
    <g fill="blue" text-rendering="geometricPrecision" shape-rendering="geometricPrecision" transform="matrix(1,0,0,1,64,62)" stroke="blue">
      <circle r="15" clip-path="url(#clipPath2)" cx="60" cy="13.9372" stroke="none"/>
    </g>
    <g text-rendering="geometricPrecision" stroke-miterlimit="1.45" shape-rendering="geometricPrecision" font-family="sans-serif" transform="matrix(1,0,0,1,64,62)" stroke-linecap="butt">
      <text x="56.1826" xml:space="preserve" y="18.0915" clip-path="url(#clipPath2)" stroke="none">1</text>
      <circle fill="none" r="15" clip-path="url(#clipPath2)" cx="60" cy="13.9372"/>
    </g>
    <g fill="silver" text-rendering="geometricPrecision" shape-rendering="geometricPrecision" transform="matrix(1,0,0,1,64,62)" stroke="silver">
      <circle r="15" clip-path="url(#clipPath2)" cx="136" cy="69.8142" stroke="none"/>
    </g>
    <g text-rendering="geometricPrecision" stroke-miterlimit="1.45" shape-rendering="geometricPrecision" font-family="sans-serif" transform="matrix(1,0,0,1,64,62)" stroke-linecap="butt">
      <text x="132.1826" xml:space="preserve" y="73.9685" clip-path="url(#clipPath2)" stroke="none">2</text>
      <circle fill="none" r="15" clip-path="url(#clipPath2)" cx="136" cy="69.8142"/>
    </g>
    <g fill="lime" text-rendering="geometricPrecision" shape-rendering="geometricPrecision" transform="matrix(1,0,0,1,64,62)" stroke="lime">
      <circle r="15" clip-path="url(#clipPath2)" cx="90" cy="150" stroke="none"/>
    </g>
    <g text-rendering="geometricPrecision" stroke-miterlimit="1.45" shape-rendering="geometricPrecision" font-family="sans-serif" transform="matrix(1,0,0,1,64,62)" stroke-linecap="butt">
      <text x="86.1826" xml:space="preserve" y="154.1543" clip-path="url(#clipPath2)" stroke="none">3</text>
      <circle fill="none" r="15" clip-path="url(#clipPath2)" cx="90" cy="150"/>
    </g>
    <g fill="yellow" text-rendering="geometricPrecision" shape-rendering="geometricPrecision" transform="matrix(1,0,0,1,64,62)" stroke="yellow">
      <circle r="15" clip-path="url(#clipPath2)" cx="-16" cy="-30" stroke="none"/>
    </g>
    <g text-rendering="geometricPrecision" stroke-miterlimit="1.45" shape-rendering="geometricPrecision" font-family="sans-serif" transform="matrix(1,0,0,1,64,62)" stroke-linecap="butt">
      <text x="-19.8174" xml:space="preserve" y="-25.8457" clip-path="url(#clipPath2)" stroke="none">4</text>
      <circle fill="none" r="15" clip-path="url(#clipPath2)" cx="-16" cy="-30"/>
    </g>
    <g fill="red" text-rendering="geometricPrecision" shape-rendering="geometricPrecision" transform="matrix(1,0,0,1,64,62)" stroke="red">
      <circle r="15" clip-path="url(#clipPath2)" cx="0" cy="69.8142" stroke="none"/>
    </g>
    <g text-rendering="geometricPrecision" stroke-miterlimit="1.45" shape-rendering="geometricPrecision" font-family="sans-serif" transform="matrix(1,0,0,1,64,62)" stroke-linecap="butt">
      <text x="-3.8174" xml:space="preserve" y="73.9685" clip-path="url(#clipPath2)" stroke="none">5</text>
      <circle fill="none" r="15" clip-path="url(#clipPath2)" cx="0" cy="69.8142"/>
      <path fill="none" d="M123.9148 60.9289 L72.0852 22.8225" clip-path="url(#clipPath2)"/>
      <path fill="none" d="M128.536 82.8253 L97.464 136.9889" clip-path="url(#clipPath2)"/>
      <path fill="none" d="M86.7703 135.3518 L63.2297 28.5853" clip-path="url(#clipPath2)"/>
      <path fill="none" d="M-3.014 -22.4925 L47.014 6.4297" clip-path="url(#clipPath2)"/>
      <path fill="none" d="M-1.9614 -35.2837 L2.0602 -36.7973 L18.979 -41.8565 L34.7565 -45.1777 L49.3926 -46.7607 L62.8874 -46.6056 L75.2408 -44.7125 L86.4528 -41.0812 L96.5235 -35.7119 L105.4528 -28.6044 L113.2408 -19.7589 L119.8874 -9.1753 L125.3926 3.1464 L129.7565 17.2062 L132.979 33.0042 L135.0602 50.5401 L135.2713 54.8693" clip-path="url(#clipPath2)"/>
      <path fill="none" d="M-22.8623 -16.6618 L-27.1835 -8.2627 L-35.9926 12.0762 L-42.4272 31.0169 L-46.4874 48.5592 L-48.173 64.7033 L-47.4842 79.449 L-44.4209 92.7965 L-38.9831 104.7456 L-31.1709 115.2965 L-20.9842 124.449 L-8.423 132.2033 L6.5127 138.5592 L23.8228 143.5169 L43.5074 147.0762 L65.5665 149.2373 L75.0073 149.532" clip-path="url(#clipPath2)"/>
      <path fill="none" d="M78.8003 140.0216 L11.1997 79.7926" clip-path="url(#clipPath2)"/>
      <path fill="none" d="M-13.6258 -15.1891 L-2.3742 55.0033" clip-path="url(#clipPath2)"/>
      <path fill="none" d="M10.977 59.5915 L49.023 24.1599" clip-path="url(#clipPath2)"/>
    </g>
  </g>
</svg>
