<?xml version="1.0" encoding="UTF-8"?><svg xmlns="http://www.w3.org/2000/svg" xmlns:xlink="http://www.w3.org/1999/xlink" fill-opacity="1" color-rendering="auto" color-interpolation="auto" text-rendering="auto" stroke="black" stroke-linecap="square" width="431" stroke-miterlimit="10" shape-rendering="auto" stroke-opacity="1" fill="black" stroke-dasharray="none" font-weight="normal" stroke-width="1" height="340" font-family="'Dialog'" font-style="normal" stroke-linejoin="miter" font-size="12px" stroke-dashoffset="0" image-rendering="auto">
  <!--Generated by ySVG 2.5-->
  <defs id="genericDefs"/>
  <g>
    <defs id="defs1">
      <clipPath clipPathUnits="userSpaceOnUse" id="clipPath1">
        <path d="M0 0 L431 0 L431 340 L0 340 L0 0 Z"/>
      </clipPath>
      <clipPath clipPathUnits="userSpaceOnUse" id="clipPath2">
        <path d="M83 -68 L514 -68 L514 272 L83 272 L83 -68 Z"/>
      </clipPath>
    </defs>
    <g fill="rgb(255,204,0)" text-rendering="geometricPrecision" shape-rendering="geometricPrecision" transform="matrix(1,0,0,1,-83,68)" stroke="rgb(255,204,0)">
      <circle r="15" clip-path="url(#clipPath2)" cx="190.6667" cy="-30.6667" stroke="none"/>
    </g>
    <g text-rendering="geometricPrecision" stroke-miterlimit="1.45" shape-rendering="geometricPrecision" font-family="sans-serif" transform="matrix(1,0,0,1,-83,68)" stroke-linecap="butt">
      <text x="186.8493" xml:space="preserve" y="-26.5124" clip-path="url(#clipPath2)" stroke="none">1</text>
      <circle fill="none" r="15" clip-path="url(#clipPath2)" cx="190.6667" cy="-30.6667"/>
    </g>
    <g fill="rgb(255,204,0)" text-rendering="geometricPrecision" shape-rendering="geometricPrecision" transform="matrix(1,0,0,1,-83,68)" stroke="rgb(255,204,0)">
      <circle r="15" clip-path="url(#clipPath2)" cx="113.6667" cy="102.3333" stroke="none"/>
    </g>
    <g text-rendering="geometricPrecision" stroke-miterlimit="1.45" shape-rendering="geometricPrecision" font-family="sans-serif" transform="matrix(1,0,0,1,-83,68)" stroke-linecap="butt">
      <text x="109.8493" xml:space="preserve" y="106.4876" clip-path="url(#clipPath2)" stroke="none">2</text>
      <circle fill="none" r="15" clip-path="url(#clipPath2)" cx="113.6667" cy="102.3333"/>
    </g>
    <g fill="rgb(255,204,0)" text-rendering="geometricPrecision" shape-rendering="geometricPrecision" transform="matrix(1,0,0,1,-83,68)" stroke="rgb(255,204,0)">
      <circle r="15" clip-path="url(#clipPath2)" cx="177.6667" cy="241.3333" stroke="none"/>
    </g>
    <g text-rendering="geometricPrecision" stroke-miterlimit="1.45" shape-rendering="geometricPrecision" font-family="sans-serif" transform="matrix(1,0,0,1,-83,68)" stroke-linecap="butt">
      <text x="173.8493" xml:space="preserve" y="245.4876" clip-path="url(#clipPath2)" stroke="none">3</text>
      <circle fill="none" r="15" clip-path="url(#clipPath2)" cx="177.6667" cy="241.3333"/>
    </g>
    <g fill="rgb(255,204,0)" text-rendering="geometricPrecision" shape-rendering="geometricPrecision" transform="matrix(1,0,0,1,-83,68)" stroke="rgb(255,204,0)">
      <circle r="15" clip-path="url(#clipPath2)" cx="440.6667" cy="-37.6667" stroke="none"/>
    </g>
    <g text-rendering="geometricPrecision" stroke-miterlimit="1.45" shape-rendering="geometricPrecision" font-family="sans-serif" transform="matrix(1,0,0,1,-83,68)" stroke-linecap="butt">
      <text x="436.8493" xml:space="preserve" y="-33.5124" clip-path="url(#clipPath2)" stroke="none">4</text>
      <circle fill="none" r="15" clip-path="url(#clipPath2)" cx="440.6667" cy="-37.6667"/>
    </g>
    <g fill="rgb(255,204,0)" text-rendering="geometricPrecision" shape-rendering="geometricPrecision" transform="matrix(1,0,0,1,-83,68)" stroke="rgb(255,204,0)">
      <circle r="15" clip-path="url(#clipPath2)" cx="483.6667" cy="82.3333" stroke="none"/>
    </g>
    <g text-rendering="geometricPrecision" stroke-miterlimit="1.45" shape-rendering="geometricPrecision" font-family="sans-serif" transform="matrix(1,0,0,1,-83,68)" stroke-linecap="butt">
      <text x="479.8493" xml:space="preserve" y="86.4876" clip-path="url(#clipPath2)" stroke="none">5</text>
      <circle fill="none" r="15" clip-path="url(#clipPath2)" cx="483.6667" cy="82.3333"/>
    </g>
    <g fill="rgb(255,204,0)" text-rendering="geometricPrecision" shape-rendering="geometricPrecision" transform="matrix(1,0,0,1,-83,68)" stroke="rgb(255,204,0)">
      <circle r="15" clip-path="url(#clipPath2)" cx="429.6667" cy="232.3333" stroke="none"/>
    </g>
    <g text-rendering="geometricPrecision" stroke-miterlimit="1.45" shape-rendering="geometricPrecision" font-family="sans-serif" transform="matrix(1,0,0,1,-83,68)" stroke-linecap="butt">
      <text x="425.8493" xml:space="preserve" y="236.4876" clip-path="url(#clipPath2)" stroke="none">6</text>
      <circle fill="none" r="15" clip-path="url(#clipPath2)" cx="429.6667" cy="232.3333"/>
    </g>
    <g fill="rgb(255,204,0)" text-rendering="geometricPrecision" shape-rendering="geometricPrecision" transform="matrix(1,0,0,1,-83,68)" stroke="rgb(255,204,0)">
      <circle r="15" clip-path="url(#clipPath2)" cx="447.6667" cy="146.3333" stroke="none"/>
    </g>
    <g text-rendering="geometricPrecision" stroke-miterlimit="1.45" shape-rendering="geometricPrecision" font-family="sans-serif" transform="matrix(1,0,0,1,-83,68)" stroke-linecap="butt">
      <text x="443.8493" xml:space="preserve" y="150.4876" clip-path="url(#clipPath2)" stroke="none">7</text>
      <circle fill="none" r="15" clip-path="url(#clipPath2)" cx="447.6667" cy="146.3333"/>
      <path fill="none" d="M187.9557 230.4184 L430.3777 -26.7517" clip-path="url(#clipPath2)"/>
      <path fill="none" d="M205.6608 -31.0865 L425.6725 -37.2468" clip-path="url(#clipPath2)"/>
      <path fill="none" d="M127.456 96.4296 L426.8773 -31.763" clip-path="url(#clipPath2)"/>
      <path fill="none" d="M190.9771 234.4171 L470.3563 89.2495" clip-path="url(#clipPath2)"/>
      <path fill="none" d="M204.6619 -25.2692 L469.6714 76.9358" clip-path="url(#clipPath2)"/>
      <path fill="none" d="M128.6448 101.5237 L468.6885 83.143" clip-path="url(#clipPath2)"/>
      <path fill="none" d="M192.6571 240.798 L414.6762 232.8687" clip-path="url(#clipPath2)"/>
      <path fill="none" d="M200.7547 -19.5657 L419.5787 221.2323" clip-path="url(#clipPath2)"/>
      <path fill="none" d="M127.5387 108.0402 L415.7947 226.6265" clip-path="url(#clipPath2)"/>
      <path fill="none" d="M191.8163 236.3547 L433.517 151.3119" clip-path="url(#clipPath2)"/>
      <path fill="none" d="M203.0203 -22.1585 L435.313 137.8252" clip-path="url(#clipPath2)"/>
      <path fill="none" d="M128.5382 104.2925 L432.7952 144.3742" clip-path="url(#clipPath2)"/>
    </g>
  </g>
</svg>
