<?xml version="1.0" encoding="UTF-8"?><svg xmlns="http://www.w3.org/2000/svg" xmlns:xlink="http://www.w3.org/1999/xlink" fill-opacity="1" color-rendering="auto" color-interpolation="auto" text-rendering="auto" stroke="black" stroke-linecap="square" width="278" stroke-miterlimit="10" shape-rendering="auto" stroke-opacity="1" fill="black" stroke-dasharray="none" font-weight="normal" stroke-width="1" height="248" font-family="'Dialog'" font-style="normal" stroke-linejoin="miter" font-size="12px" stroke-dashoffset="0" image-rendering="auto">
  <!--Generated by ySVG 2.5-->
  <defs id="genericDefs"/>
  <g>
    <defs id="defs1">
      <clipPath clipPathUnits="userSpaceOnUse" id="clipPath1">
        <path d="M0 0 L278 0 L278 248 L0 248 L0 0 Z"/>
      </clipPath>
      <clipPath clipPathUnits="userSpaceOnUse" id="clipPath2">
        <path d="M-139 -155 L139 -155 L139 93 L-139 93 L-139 -155 Z"/>
      </clipPath>
    </defs>
    <g fill="rgb(255,204,0)" text-rendering="geometricPrecision" shape-rendering="geometricPrecision" transform="matrix(1,0,0,1,139,155)" stroke="rgb(255,204,0)">
      <circle r="15" clip-path="url(#clipPath2)" cx="-0" cy="-125" stroke="none"/>
    </g>
    <g text-rendering="geometricPrecision" stroke-miterlimit="1.45" shape-rendering="geometricPrecision" font-family="sans-serif" transform="matrix(1,0,0,1,139,155)" stroke-linecap="butt">
      <text x="-3.8027" xml:space="preserve" y="-120.8457" clip-path="url(#clipPath2)" stroke="none">u</text>
      <circle fill="none" r="15" clip-path="url(#clipPath2)" cx="-0" cy="-125"/>
    </g>
    <g fill="rgb(255,204,0)" text-rendering="geometricPrecision" shape-rendering="geometricPrecision" transform="matrix(1,0,0,1,139,155)" stroke="rgb(255,204,0)">
      <circle r="15" clip-path="url(#clipPath2)" cx="-108.2532" cy="62.5" stroke="none"/>
    </g>
    <g text-rendering="geometricPrecision" stroke-miterlimit="1.45" shape-rendering="geometricPrecision" font-family="sans-serif" transform="matrix(1,0,0,1,139,155)" stroke-linecap="butt">
      <text x="-111.804" xml:space="preserve" y="66.6543" clip-path="url(#clipPath2)" stroke="none">x</text>
      <circle fill="none" r="15" clip-path="url(#clipPath2)" cx="-108.2532" cy="62.5"/>
    </g>
    <g fill="rgb(255,204,0)" text-rendering="geometricPrecision" shape-rendering="geometricPrecision" transform="matrix(1,0,0,1,139,155)" stroke="rgb(255,204,0)">
      <circle r="15" clip-path="url(#clipPath2)" cx="0" cy="0" stroke="none"/>
    </g>
    <g text-rendering="geometricPrecision" stroke-miterlimit="1.45" shape-rendering="geometricPrecision" font-family="sans-serif" transform="matrix(1,0,0,1,139,155)" stroke-linecap="butt">
      <text x="-4.9072" xml:space="preserve" y="4.1543" clip-path="url(#clipPath2)" stroke="none">w</text>
      <circle fill="none" r="15" clip-path="url(#clipPath2)" cx="0" cy="0"/>
    </g>
    <g fill="rgb(255,204,0)" text-rendering="geometricPrecision" shape-rendering="geometricPrecision" transform="matrix(1,0,0,1,139,155)" stroke="rgb(255,204,0)">
      <circle r="15" clip-path="url(#clipPath2)" cx="108.2532" cy="62.5" stroke="none"/>
    </g>
    <g text-rendering="geometricPrecision" stroke-miterlimit="1.45" shape-rendering="geometricPrecision" font-family="sans-serif" transform="matrix(1,0,0,1,139,155)" stroke-linecap="butt">
      <text x="104.7024" xml:space="preserve" y="66.6543" clip-path="url(#clipPath2)" stroke="none">v</text>
      <circle fill="none" r="15" clip-path="url(#clipPath2)" cx="108.2532" cy="62.5"/>
      <path fill="none" d="M-100.7532 49.5096 L-7.5 -112.0096" clip-path="url(#clipPath2)"/>
      <path fill="none" d="M-95.2628 55 L-12.9904 7.5" clip-path="url(#clipPath2)"/>
      <path fill="none" d="M-0 -15 L-0 -110" clip-path="url(#clipPath2)"/>
      <path fill="none" d="M12.9904 7.5 L95.2628 55" clip-path="url(#clipPath2)"/>
      <path fill="none" d="M7.5 -112.0096 L100.7532 49.5096" clip-path="url(#clipPath2)"/>
      <path fill="none" d="M93.2532 62.5 L-93.2532 62.5" clip-path="url(#clipPath2)"/>
    </g>
  </g>
</svg>
