<?xml version="1.0" encoding="UTF-8"?><svg xmlns="http://www.w3.org/2000/svg" xmlns:xlink="http://www.w3.org/1999/xlink" fill-opacity="1" color-rendering="auto" color-interpolation="auto" text-rendering="auto" stroke="black" stroke-linecap="square" width="325" stroke-miterlimit="10" shape-rendering="auto" stroke-opacity="1" fill="black" stroke-dasharray="none" font-weight="normal" stroke-width="1" height="393" font-family="'Dialog'" font-style="normal" stroke-linejoin="miter" font-size="12px" stroke-dashoffset="0" image-rendering="auto">
  <!--Generated by ySVG 2.5-->
  <defs id="genericDefs"/>
  <g>
    <defs id="defs1">
      <clipPath clipPathUnits="userSpaceOnUse" id="clipPath1">
        <path d="M0 0 L325 0 L325 393 L0 393 L0 0 Z"/>
      </clipPath>
      <clipPath clipPathUnits="userSpaceOnUse" id="clipPath2">
        <path d="M-95 -61 L230 -61 L230 332 L-95 332 L-95 -61 Z"/>
      </clipPath>
    </defs>
    <g fill="rgb(255,204,0)" text-rendering="geometricPrecision" shape-rendering="geometricPrecision" transform="matrix(1,0,0,1,95,61)" stroke="rgb(255,204,0)">
      <circle r="15" clip-path="url(#clipPath2)" cx="6" cy="-10" stroke="none"/>
    </g>
    <g text-rendering="geometricPrecision" stroke-miterlimit="1.45" shape-rendering="geometricPrecision" font-family="sans-serif" transform="matrix(1,0,0,1,95,61)" stroke-linecap="butt">
      <text x="2.1826" xml:space="preserve" y="-5.8457" clip-path="url(#clipPath2)" stroke="none">1</text>
      <circle fill="none" r="15" clip-path="url(#clipPath2)" cx="6" cy="-10"/>
    </g>
    <g fill="rgb(255,204,0)" text-rendering="geometricPrecision" shape-rendering="geometricPrecision" transform="matrix(1,0,0,1,95,61)" stroke="rgb(255,204,0)">
      <circle r="15" clip-path="url(#clipPath2)" cx="-65" cy="95" stroke="none"/>
    </g>
    <g text-rendering="geometricPrecision" stroke-miterlimit="1.45" shape-rendering="geometricPrecision" font-family="sans-serif" transform="matrix(1,0,0,1,95,61)" stroke-linecap="butt">
      <text x="-68.8174" xml:space="preserve" y="99.1543" clip-path="url(#clipPath2)" stroke="none">2</text>
      <circle fill="none" r="15" clip-path="url(#clipPath2)" cx="-65" cy="95"/>
    </g>
    <g fill="rgb(255,204,0)" text-rendering="geometricPrecision" shape-rendering="geometricPrecision" transform="matrix(1,0,0,1,95,61)" stroke="rgb(255,204,0)">
      <circle r="15" clip-path="url(#clipPath2)" cx="-38" cy="264" stroke="none"/>
    </g>
    <g text-rendering="geometricPrecision" stroke-miterlimit="1.45" shape-rendering="geometricPrecision" font-family="sans-serif" transform="matrix(1,0,0,1,95,61)" stroke-linecap="butt">
      <text x="-41.8174" xml:space="preserve" y="268.1543" clip-path="url(#clipPath2)" stroke="none">3</text>
      <circle fill="none" r="15" clip-path="url(#clipPath2)" cx="-38" cy="264"/>
    </g>
    <g fill="rgb(255,204,0)" text-rendering="geometricPrecision" shape-rendering="geometricPrecision" transform="matrix(1,0,0,1,95,61)" stroke="rgb(255,204,0)">
      <circle r="15" clip-path="url(#clipPath2)" cx="98" cy="302" stroke="none"/>
    </g>
    <g text-rendering="geometricPrecision" stroke-miterlimit="1.45" shape-rendering="geometricPrecision" font-family="sans-serif" transform="matrix(1,0,0,1,95,61)" stroke-linecap="butt">
      <text x="94.1826" xml:space="preserve" y="306.1543" clip-path="url(#clipPath2)" stroke="none">4</text>
      <circle fill="none" r="15" clip-path="url(#clipPath2)" cx="98" cy="302"/>
    </g>
    <g fill="rgb(255,204,0)" text-rendering="geometricPrecision" shape-rendering="geometricPrecision" transform="matrix(1,0,0,1,95,61)" stroke="rgb(255,204,0)">
      <circle r="15" clip-path="url(#clipPath2)" cx="178" cy="190" stroke="none"/>
    </g>
    <g text-rendering="geometricPrecision" stroke-miterlimit="1.45" shape-rendering="geometricPrecision" font-family="sans-serif" transform="matrix(1,0,0,1,95,61)" stroke-linecap="butt">
      <text x="174.1826" xml:space="preserve" y="194.1543" clip-path="url(#clipPath2)" stroke="none">5</text>
      <circle fill="none" r="15" clip-path="url(#clipPath2)" cx="178" cy="190"/>
    </g>
    <g fill="rgb(255,204,0)" text-rendering="geometricPrecision" shape-rendering="geometricPrecision" transform="matrix(1,0,0,1,95,61)" stroke="rgb(255,204,0)">
      <circle r="15" clip-path="url(#clipPath2)" cx="200" cy="68" stroke="none"/>
    </g>
    <g text-rendering="geometricPrecision" stroke-miterlimit="1.45" shape-rendering="geometricPrecision" font-family="sans-serif" transform="matrix(1,0,0,1,95,61)" stroke-linecap="butt">
      <text x="196.1826" xml:space="preserve" y="72.1543" clip-path="url(#clipPath2)" stroke="none">6</text>
      <circle fill="none" r="15" clip-path="url(#clipPath2)" cx="200" cy="68"/>
    </g>
    <g fill="rgb(255,204,0)" text-rendering="geometricPrecision" shape-rendering="geometricPrecision" transform="matrix(1,0,0,1,95,61)" stroke="rgb(255,204,0)">
      <circle r="15" clip-path="url(#clipPath2)" cx="104" cy="57" stroke="none"/>
    </g>
    <g text-rendering="geometricPrecision" stroke-miterlimit="1.45" shape-rendering="geometricPrecision" font-family="sans-serif" transform="matrix(1,0,0,1,95,61)" stroke-linecap="butt">
      <text x="100.1826" xml:space="preserve" y="61.1543" clip-path="url(#clipPath2)" stroke="none">7</text>
      <circle fill="none" r="15" clip-path="url(#clipPath2)" cx="104" cy="57"/>
    </g>
    <g fill="rgb(255,204,0)" text-rendering="geometricPrecision" shape-rendering="geometricPrecision" transform="matrix(1,0,0,1,95,61)" stroke="rgb(255,204,0)">
      <circle r="15" clip-path="url(#clipPath2)" cx="37" cy="93" stroke="none"/>
    </g>
    <g text-rendering="geometricPrecision" stroke-miterlimit="1.45" shape-rendering="geometricPrecision" font-family="sans-serif" transform="matrix(1,0,0,1,95,61)" stroke-linecap="butt">
      <text x="33.1826" xml:space="preserve" y="97.1543" clip-path="url(#clipPath2)" stroke="none">8</text>
      <circle fill="none" r="15" clip-path="url(#clipPath2)" cx="37" cy="93"/>
    </g>
    <g fill="rgb(255,204,0)" text-rendering="geometricPrecision" shape-rendering="geometricPrecision" transform="matrix(1,0,0,1,95,61)" stroke="rgb(255,204,0)">
      <circle r="15" clip-path="url(#clipPath2)" cx="38" cy="156" stroke="none"/>
    </g>
    <g text-rendering="geometricPrecision" stroke-miterlimit="1.45" shape-rendering="geometricPrecision" font-family="sans-serif" transform="matrix(1,0,0,1,95,61)" stroke-linecap="butt">
      <text x="34.1826" xml:space="preserve" y="160.1543" clip-path="url(#clipPath2)" stroke="none">9</text>
      <circle fill="none" r="15" clip-path="url(#clipPath2)" cx="38" cy="156"/>
    </g>
    <g fill="rgb(255,204,0)" text-rendering="geometricPrecision" shape-rendering="geometricPrecision" transform="matrix(1,0,0,1,95,61)" stroke="rgb(255,204,0)">
      <circle r="15" clip-path="url(#clipPath2)" cx="53" cy="230" stroke="none"/>
    </g>
    <g text-rendering="geometricPrecision" stroke-miterlimit="1.45" shape-rendering="geometricPrecision" font-family="sans-serif" transform="matrix(1,0,0,1,95,61)" stroke-linecap="butt">
      <text x="45.3652" xml:space="preserve" y="234.1543" clip-path="url(#clipPath2)" stroke="none">10</text>
      <circle fill="none" r="15" clip-path="url(#clipPath2)" cx="53" cy="230"/>
    </g>
    <g fill="rgb(255,204,0)" text-rendering="geometricPrecision" shape-rendering="geometricPrecision" transform="matrix(1,0,0,1,95,61)" stroke="rgb(255,204,0)">
      <circle r="15" clip-path="url(#clipPath2)" cx="139" cy="-31" stroke="none"/>
    </g>
    <g text-rendering="geometricPrecision" stroke-miterlimit="1.45" shape-rendering="geometricPrecision" font-family="sans-serif" transform="matrix(1,0,0,1,95,61)" stroke-linecap="butt">
      <text x="131.3652" xml:space="preserve" y="-26.8457" clip-path="url(#clipPath2)" stroke="none">11</text>
      <circle fill="none" r="15" clip-path="url(#clipPath2)" cx="139" cy="-31"/>
      <path fill="none" d="M-62.6336 109.8122 L-40.3664 249.1879" clip-path="url(#clipPath2)"/>
      <path fill="none" d="M169.2814 202.206 L106.7186 289.794" clip-path="url(#clipPath2)"/>
      <path fill="none" d="M118.9025 58.7076 L185.0975 66.2924" clip-path="url(#clipPath2)"/>
      <path fill="none" d="M50.2134 85.9003 L90.7866 64.0997" clip-path="url(#clipPath2)"/>
      <path fill="none" d="M32.677 78.6365 L10.323 4.3636" clip-path="url(#clipPath2)"/>
      <path fill="none" d="M37.2381 107.9981 L37.7619 141.0019" clip-path="url(#clipPath2)"/>
      <path fill="none" d="M52.5763 159.54 L163.4237 186.46" clip-path="url(#clipPath2)"/>
      <path fill="none" d="M25.0936 148.3564 L-52.0936 102.6436" clip-path="url(#clipPath2)"/>
      <path fill="none" d="M-23.9487 258.7501 L38.9487 235.2499" clip-path="url(#clipPath2)"/>
      <path fill="none" d="M90.05 289.28 L60.95 242.72" clip-path="url(#clipPath2)"/>
      <path fill="none" d="M50.0201 215.299 L40.9799 170.701" clip-path="url(#clipPath2)"/>
      <path fill="none" d="M133.4565 -17.062 L109.5435 43.062" clip-path="url(#clipPath2)"/>
      <path fill="none" d="M146.8687 -18.2296 L192.1313 55.2296" clip-path="url(#clipPath2)"/>
    </g>
  </g>
</svg>
