<?xml version="1.0" encoding="UTF-8"?><svg xmlns="http://www.w3.org/2000/svg" xmlns:xlink="http://www.w3.org/1999/xlink" fill-opacity="1" color-rendering="auto" color-interpolation="auto" text-rendering="auto" stroke="black" stroke-linecap="square" width="413" stroke-miterlimit="10" shape-rendering="auto" stroke-opacity="1" fill="black" stroke-dasharray="none" font-weight="normal" stroke-width="1" height="309" font-family="'Dialog'" font-style="normal" stroke-linejoin="miter" font-size="12px" stroke-dashoffset="0" image-rendering="auto">
  <!--Generated by ySVG 2.5-->
  <defs id="genericDefs"/>
  <g>
    <defs id="defs1">
      <clipPath clipPathUnits="userSpaceOnUse" id="clipPath1">
        <path d="M0 0 L413 0 L413 309 L0 309 L0 0 Z"/>
      </clipPath>
      <clipPath clipPathUnits="userSpaceOnUse" id="clipPath2">
        <path d="M101 133 L514 133 L514 442 L101 442 L101 133 Z"/>
      </clipPath>
    </defs>
    <g fill="rgb(255,204,0)" text-rendering="geometricPrecision" shape-rendering="geometricPrecision" transform="matrix(1,0,0,1,-101,-133)" stroke="rgb(255,204,0)">
      <circle r="15" clip-path="url(#clipPath2)" cx="227" cy="163" stroke="none"/>
    </g>
    <g text-rendering="geometricPrecision" stroke-miterlimit="1.45" shape-rendering="geometricPrecision" font-family="sans-serif" transform="matrix(1,0,0,1,-101,-133)" stroke-linecap="butt">
      <text x="223.1826" xml:space="preserve" y="167.1543" clip-path="url(#clipPath2)" stroke="none">1</text>
      <circle fill="none" r="15" clip-path="url(#clipPath2)" cx="227" cy="163"/>
    </g>
    <g fill="rgb(255,204,0)" text-rendering="geometricPrecision" shape-rendering="geometricPrecision" transform="matrix(1,0,0,1,-101,-133)" stroke="rgb(255,204,0)">
      <circle r="15" clip-path="url(#clipPath2)" cx="131" cy="281" stroke="none"/>
    </g>
    <g text-rendering="geometricPrecision" stroke-miterlimit="1.45" shape-rendering="geometricPrecision" font-family="sans-serif" transform="matrix(1,0,0,1,-101,-133)" stroke-linecap="butt">
      <text x="127.1826" xml:space="preserve" y="285.1543" clip-path="url(#clipPath2)" stroke="none">2</text>
      <circle fill="none" r="15" clip-path="url(#clipPath2)" cx="131" cy="281"/>
    </g>
    <g fill="rgb(255,204,0)" text-rendering="geometricPrecision" shape-rendering="geometricPrecision" transform="matrix(1,0,0,1,-101,-133)" stroke="rgb(255,204,0)">
      <circle r="15" clip-path="url(#clipPath2)" cx="294" cy="406" stroke="none"/>
    </g>
    <g text-rendering="geometricPrecision" stroke-miterlimit="1.45" shape-rendering="geometricPrecision" font-family="sans-serif" transform="matrix(1,0,0,1,-101,-133)" stroke-linecap="butt">
      <text x="290.4492" xml:space="preserve" y="410.1543" clip-path="url(#clipPath2)" stroke="none">y</text>
      <circle fill="none" r="15" clip-path="url(#clipPath2)" cx="294" cy="406"/>
    </g>
    <g fill="rgb(255,204,0)" text-rendering="geometricPrecision" shape-rendering="geometricPrecision" transform="matrix(1,0,0,1,-101,-133)" stroke="rgb(255,204,0)">
      <circle r="15" clip-path="url(#clipPath2)" cx="275" cy="263" stroke="none"/>
    </g>
    <g text-rendering="geometricPrecision" stroke-miterlimit="1.45" shape-rendering="geometricPrecision" font-family="sans-serif" transform="matrix(1,0,0,1,-101,-133)" stroke-linecap="butt">
      <text x="271.4492" xml:space="preserve" y="267.1543" clip-path="url(#clipPath2)" stroke="none">x</text>
      <circle fill="none" r="15" clip-path="url(#clipPath2)" cx="275" cy="263"/>
    </g>
    <g fill="rgb(255,204,0)" text-rendering="geometricPrecision" shape-rendering="geometricPrecision" transform="matrix(1,0,0,1,-101,-133)" stroke="rgb(255,204,0)">
      <circle r="15" clip-path="url(#clipPath2)" cx="402" cy="187" stroke="none"/>
    </g>
    <g text-rendering="geometricPrecision" stroke-miterlimit="1.45" shape-rendering="geometricPrecision" font-family="sans-serif" transform="matrix(1,0,0,1,-101,-133)" stroke-linecap="butt">
      <text x="398.1826" xml:space="preserve" y="191.1543" clip-path="url(#clipPath2)" stroke="none">3</text>
      <circle fill="none" r="15" clip-path="url(#clipPath2)" cx="402" cy="187"/>
    </g>
    <g fill="rgb(255,204,0)" text-rendering="geometricPrecision" shape-rendering="geometricPrecision" transform="matrix(1,0,0,1,-101,-133)" stroke="rgb(255,204,0)">
      <circle r="15" clip-path="url(#clipPath2)" cx="484" cy="305" stroke="none"/>
    </g>
    <g text-rendering="geometricPrecision" stroke-miterlimit="1.45" shape-rendering="geometricPrecision" font-family="sans-serif" transform="matrix(1,0,0,1,-101,-133)" stroke-linecap="butt">
      <text x="480.1826" xml:space="preserve" y="309.1543" clip-path="url(#clipPath2)" stroke="none">4</text>
      <circle fill="none" r="15" clip-path="url(#clipPath2)" cx="484" cy="305"/>
    </g>
    <g fill="rgb(255,204,0)" text-rendering="geometricPrecision" shape-rendering="geometricPrecision" transform="matrix(1,0,0,1,-101,-133)" stroke="rgb(255,204,0)">
      <circle r="15" clip-path="url(#clipPath2)" cx="430" cy="412" stroke="none"/>
    </g>
    <g text-rendering="geometricPrecision" stroke-miterlimit="1.45" shape-rendering="geometricPrecision" font-family="sans-serif" transform="matrix(1,0,0,1,-101,-133)" stroke-linecap="butt">
      <text x="426.1826" xml:space="preserve" y="416.1543" clip-path="url(#clipPath2)" stroke="none">5</text>
      <circle fill="none" r="15" clip-path="url(#clipPath2)" cx="430" cy="412"/>
      <path fill="none" d="M140.4663 269.3643 L217.5337 174.6357" clip-path="url(#clipPath2)"/>
      <path fill="none" d="M142.9029 290.128 L282.0971 396.872" clip-path="url(#clipPath2)"/>
      <path fill="none" d="M233.491 176.5228 L268.509 249.4772" clip-path="url(#clipPath2)"/>
      <path fill="none" d="M292.0244 391.1307 L276.9756 277.8693" clip-path="url(#clipPath2)"/>
      <text x="268.3086" xml:space="preserve" y="329.1543" clip-path="url(#clipPath2)" stroke="none">e</text>
      <path fill="none" d="M260.1158 264.8605 L145.8842 279.1395" clip-path="url(#clipPath2)"/>
      <path fill="none" d="M241.8609 165.0381 L387.1391 184.9619" clip-path="url(#clipPath2)"/>
      <path fill="none" d="M287.8713 255.2975 L389.1287 194.7025" clip-path="url(#clipPath2)"/>
      <path fill="none" d="M300.6344 392.5469 L395.3656 200.4531" clip-path="url(#clipPath2)"/>
      <path fill="none" d="M410.5598 199.3178 L475.4402 292.6822" clip-path="url(#clipPath2)"/>
      <path fill="none" d="M477.2418 318.3913 L436.7582 398.6087" clip-path="url(#clipPath2)"/>
      <path fill="none" d="M415.0146 411.3389 L308.9854 406.6611" clip-path="url(#clipPath2)"/>
    </g>
  </g>
</svg>
