<?xml version="1.0" encoding="UTF-8"?><svg xmlns="http://www.w3.org/2000/svg" xmlns:xlink="http://www.w3.org/1999/xlink" fill-opacity="1" color-rendering="auto" color-interpolation="auto" text-rendering="auto" stroke="black" stroke-linecap="square" width="294" stroke-miterlimit="10" shape-rendering="auto" stroke-opacity="1" fill="black" stroke-dasharray="none" font-weight="normal" stroke-width="1" height="306" font-family="'Dialog'" font-style="normal" stroke-linejoin="miter" font-size="12px" stroke-dashoffset="0" image-rendering="auto">
  <!--Generated by ySVG 2.5-->
  <defs id="genericDefs"/>
  <g>
    <defs id="defs1">
      <clipPath clipPathUnits="userSpaceOnUse" id="clipPath1">
        <path d="M0 0 L294 0 L294 306 L0 306 L0 0 Z"/>
      </clipPath>
      <clipPath clipPathUnits="userSpaceOnUse" id="clipPath2">
        <path d="M-15 -15 L279 -15 L279 291 L-15 291 L-15 -15 Z"/>
      </clipPath>
    </defs>
    <g fill="rgb(255,204,0)" text-rendering="geometricPrecision" shape-rendering="geometricPrecision" transform="matrix(1,0,0,1,15,15)" stroke="rgb(255,204,0)">
      <circle r="15" clip-path="url(#clipPath2)" cx="159.5113" cy="260.8573" stroke="none"/>
    </g>
    <g text-rendering="geometricPrecision" stroke-miterlimit="1.45" shape-rendering="geometricPrecision" font-family="sans-serif" transform="matrix(1,0,0,1,15,15)" stroke-linecap="butt">
      <text x="155.7086" xml:space="preserve" y="265.0116" clip-path="url(#clipPath2)" stroke="none">u</text>
      <circle fill="none" r="15" clip-path="url(#clipPath2)" cx="159.5113" cy="260.8573"/>
    </g>
    <g fill="rgb(255,204,0)" text-rendering="geometricPrecision" shape-rendering="geometricPrecision" transform="matrix(1,0,0,1,15,15)" stroke="rgb(255,204,0)">
      <circle r="15" clip-path="url(#clipPath2)" cx="159.5113" cy="15" stroke="none"/>
    </g>
    <g text-rendering="geometricPrecision" stroke-miterlimit="1.45" shape-rendering="geometricPrecision" font-family="sans-serif" transform="matrix(1,0,0,1,15,15)" stroke-linecap="butt">
      <text x="155.9605" xml:space="preserve" y="19.1543" clip-path="url(#clipPath2)" stroke="none">v</text>
      <circle fill="none" r="15" clip-path="url(#clipPath2)" cx="159.5113" cy="15"/>
    </g>
    <g fill="rgb(255,204,0)" text-rendering="geometricPrecision" shape-rendering="geometricPrecision" transform="matrix(1,0,0,1,15,15)" stroke="rgb(255,204,0)">
      <circle r="15" clip-path="url(#clipPath2)" cx="15" cy="61.9546" stroke="none"/>
    </g>
    <g text-rendering="geometricPrecision" stroke-miterlimit="1.45" shape-rendering="geometricPrecision" font-family="sans-serif" transform="matrix(1,0,0,1,15,15)" stroke-linecap="butt">
      <text x="10.0928" xml:space="preserve" y="66.1089" clip-path="url(#clipPath2)" stroke="none">w</text>
      <circle fill="none" r="15" clip-path="url(#clipPath2)" cx="15" cy="61.9546"/>
    </g>
    <g fill="rgb(255,204,0)" text-rendering="geometricPrecision" shape-rendering="geometricPrecision" transform="matrix(1,0,0,1,15,15)" stroke="rgb(255,204,0)">
      <circle r="15" clip-path="url(#clipPath2)" cx="248.8242" cy="137.9286" stroke="none"/>
    </g>
    <g text-rendering="geometricPrecision" stroke-miterlimit="1.45" shape-rendering="geometricPrecision" font-family="sans-serif" transform="matrix(1,0,0,1,15,15)" stroke-linecap="butt">
      <text x="245.2734" xml:space="preserve" y="142.0829" clip-path="url(#clipPath2)" stroke="none">x</text>
      <circle fill="none" r="15" clip-path="url(#clipPath2)" cx="248.8242" cy="137.9286"/>
    </g>
    <g fill="rgb(255,204,0)" text-rendering="geometricPrecision" shape-rendering="geometricPrecision" transform="matrix(1,0,0,1,15,15)" stroke="rgb(255,204,0)">
      <circle r="15" clip-path="url(#clipPath2)" cx="15" cy="213.9027" stroke="none"/>
    </g>
    <g text-rendering="geometricPrecision" stroke-miterlimit="1.45" shape-rendering="geometricPrecision" font-family="sans-serif" transform="matrix(1,0,0,1,15,15)" stroke-linecap="butt">
      <text x="11.4492" xml:space="preserve" y="218.057" clip-path="url(#clipPath2)" stroke="none">y</text>
      <circle fill="none" r="15" clip-path="url(#clipPath2)" cx="15" cy="213.9027"/>
      <path fill="none" d="M159.5113 245.8573 L159.5113 30" clip-path="url(#clipPath2)"/>
      <path fill="none" d="M150.6945 248.722 L23.8168 74.0898" clip-path="url(#clipPath2)"/>
      <path fill="none" d="M29.2658 57.3193 L145.2454 19.6353" clip-path="url(#clipPath2)"/>
      <path fill="none" d="M29.2658 66.5898 L234.5583 133.2934" clip-path="url(#clipPath2)"/>
      <path fill="none" d="M168.3281 27.1353 L240.0074 125.7934" clip-path="url(#clipPath2)"/>
      <path fill="none" d="M168.3281 248.722 L240.0074 150.0639" clip-path="url(#clipPath2)"/>
      <path fill="none" d="M145.2454 256.222 L29.2658 218.538" clip-path="url(#clipPath2)"/>
      <path fill="none" d="M23.8168 201.7675 L150.6945 27.1353" clip-path="url(#clipPath2)"/>
      <path fill="none" d="M29.2658 209.2675 L234.5583 142.5639" clip-path="url(#clipPath2)"/>
      <path fill="none" d="M15 198.9027 L15 76.9546" clip-path="url(#clipPath2)"/>
    </g>
  </g>
</svg>
