<?xml version="1.0" encoding="UTF-8"?><svg xmlns="http://www.w3.org/2000/svg" xmlns:xlink="http://www.w3.org/1999/xlink" fill-opacity="1" color-rendering="auto" color-interpolation="auto" text-rendering="auto" stroke="black" stroke-linecap="square" width="480" stroke-miterlimit="10" shape-rendering="auto" stroke-opacity="1" fill="black" stroke-dasharray="none" font-weight="normal" stroke-width="1" height="350" font-family="'Dialog'" font-style="normal" stroke-linejoin="miter" font-size="12px" stroke-dashoffset="0" image-rendering="auto">
  <!--Generated by ySVG 2.5-->
  <defs id="genericDefs"/>
  <g>
    <defs id="defs1">
      <clipPath clipPathUnits="userSpaceOnUse" id="clipPath1">
        <path d="M0 0 L480 0 L480 350 L0 350 L0 0 Z"/>
      </clipPath>
      <clipPath clipPathUnits="userSpaceOnUse" id="clipPath2">
        <path d="M-210 -110 L270 -110 L270 240 L-210 240 L-210 -110 Z"/>
      </clipPath>
    </defs>
    <g fill="rgb(255,204,0)" text-rendering="geometricPrecision" shape-rendering="geometricPrecision" transform="matrix(1,0,0,1,210,110)" stroke="rgb(255,204,0)">
      <circle r="15" clip-path="url(#clipPath2)" cx="-60" cy="60" stroke="none"/>
    </g>
    <g text-rendering="geometricPrecision" stroke-miterlimit="1.45" shape-rendering="geometricPrecision" font-family="sans-serif" transform="matrix(1,0,0,1,210,110)" stroke-linecap="butt">
      <text x="-63.2988" xml:space="preserve" y="64.1543" clip-path="url(#clipPath2)" stroke="none">c</text>
      <circle fill="none" r="15" clip-path="url(#clipPath2)" cx="-60" cy="60"/>
    </g>
    <g fill="rgb(255,204,0)" text-rendering="geometricPrecision" shape-rendering="geometricPrecision" transform="matrix(1,0,0,1,210,110)" stroke="rgb(255,204,0)">
      <circle r="15" clip-path="url(#clipPath2)" cx="-60" cy="-60" stroke="none"/>
    </g>
    <g text-rendering="geometricPrecision" stroke-miterlimit="1.45" shape-rendering="geometricPrecision" font-family="sans-serif" transform="matrix(1,0,0,1,210,110)" stroke-linecap="butt">
      <text x="-63.8086" xml:space="preserve" y="-55.8457" clip-path="url(#clipPath2)" stroke="none">b</text>
      <circle fill="none" r="15" clip-path="url(#clipPath2)" cx="-60" cy="-60"/>
    </g>
    <g fill="rgb(255,204,0)" text-rendering="geometricPrecision" shape-rendering="geometricPrecision" transform="matrix(1,0,0,1,210,110)" stroke="rgb(255,204,0)">
      <circle r="15" clip-path="url(#clipPath2)" cx="-180" cy="-12" stroke="none"/>
    </g>
    <g text-rendering="geometricPrecision" stroke-miterlimit="1.45" shape-rendering="geometricPrecision" font-family="sans-serif" transform="matrix(1,0,0,1,210,110)" stroke-linecap="butt">
      <text x="-183.6768" xml:space="preserve" y="-7.8457" clip-path="url(#clipPath2)" stroke="none">a</text>
      <circle fill="none" r="15" clip-path="url(#clipPath2)" cx="-180" cy="-12"/>
    </g>
    <g fill="rgb(255,204,0)" text-rendering="geometricPrecision" shape-rendering="geometricPrecision" transform="matrix(1,0,0,1,210,110)" stroke="rgb(255,204,0)">
      <circle r="15" clip-path="url(#clipPath2)" cx="-150" cy="135" stroke="none"/>
    </g>
    <g text-rendering="geometricPrecision" stroke-miterlimit="1.45" shape-rendering="geometricPrecision" transform="matrix(1,0,0,1,210,110)" stroke-linecap="butt">
      <circle fill="none" r="15" clip-path="url(#clipPath2)" cx="-150" cy="135"/>
    </g>
    <g fill="rgb(255,204,0)" text-rendering="geometricPrecision" shape-rendering="geometricPrecision" transform="matrix(1,0,0,1,210,110)" stroke="rgb(255,204,0)">
      <circle r="15" clip-path="url(#clipPath2)" cx="60" cy="120" stroke="none"/>
    </g>
    <g text-rendering="geometricPrecision" stroke-miterlimit="1.45" shape-rendering="geometricPrecision" font-family="sans-serif" transform="matrix(1,0,0,1,210,110)" stroke-linecap="butt">
      <text x="57.8877" xml:space="preserve" y="124.1543" clip-path="url(#clipPath2)" stroke="none">f</text>
      <circle fill="none" r="15" clip-path="url(#clipPath2)" cx="60" cy="120"/>
    </g>
    <g fill="rgb(255,204,0)" text-rendering="geometricPrecision" shape-rendering="geometricPrecision" transform="matrix(1,0,0,1,210,110)" stroke="rgb(255,204,0)">
      <circle r="15" clip-path="url(#clipPath2)" cx="240" cy="-12" stroke="none"/>
    </g>
    <g text-rendering="geometricPrecision" stroke-miterlimit="1.45" shape-rendering="geometricPrecision" transform="matrix(1,0,0,1,210,110)" stroke-linecap="butt">
      <circle fill="none" r="15" clip-path="url(#clipPath2)" cx="240" cy="-12"/>
    </g>
    <g fill="rgb(255,204,0)" text-rendering="geometricPrecision" shape-rendering="geometricPrecision" transform="matrix(1,0,0,1,210,110)" stroke="rgb(255,204,0)">
      <circle r="15" clip-path="url(#clipPath2)" cx="109" cy="30" stroke="none"/>
    </g>
    <g text-rendering="geometricPrecision" stroke-miterlimit="1.45" shape-rendering="geometricPrecision" font-family="sans-serif" transform="matrix(1,0,0,1,210,110)" stroke-linecap="butt">
      <text x="105.1914" xml:space="preserve" y="34.1543" clip-path="url(#clipPath2)" stroke="none">d</text>
      <circle fill="none" r="15" clip-path="url(#clipPath2)" cx="109" cy="30"/>
    </g>
    <g fill="rgb(255,204,0)" text-rendering="geometricPrecision" shape-rendering="geometricPrecision" transform="matrix(1,0,0,1,210,110)" stroke="rgb(255,204,0)">
      <circle r="15" clip-path="url(#clipPath2)" cx="210" cy="103" stroke="none"/>
    </g>
    <g text-rendering="geometricPrecision" stroke-miterlimit="1.45" shape-rendering="geometricPrecision" transform="matrix(1,0,0,1,210,110)" stroke-linecap="butt">
      <circle fill="none" r="15" clip-path="url(#clipPath2)" cx="210" cy="103"/>
    </g>
    <g fill="rgb(255,204,0)" text-rendering="geometricPrecision" shape-rendering="geometricPrecision" transform="matrix(1,0,0,1,210,110)" stroke="rgb(255,204,0)">
      <circle r="15" clip-path="url(#clipPath2)" cx="-45" cy="180" stroke="none"/>
    </g>
    <g text-rendering="geometricPrecision" stroke-miterlimit="1.45" shape-rendering="geometricPrecision" transform="matrix(1,0,0,1,210,110)" stroke-linecap="butt">
      <circle fill="none" r="15" clip-path="url(#clipPath2)" cx="-45" cy="180"/>
    </g>
    <g fill="rgb(255,204,0)" text-rendering="geometricPrecision" shape-rendering="geometricPrecision" transform="matrix(1,0,0,1,210,110)" stroke="rgb(255,204,0)">
      <circle r="15" clip-path="url(#clipPath2)" cx="120" cy="210" stroke="none"/>
    </g>
    <g text-rendering="geometricPrecision" stroke-miterlimit="1.45" shape-rendering="geometricPrecision" font-family="sans-serif" transform="matrix(1,0,0,1,210,110)" stroke-linecap="butt">
      <text x="116.3086" xml:space="preserve" y="214.1543" clip-path="url(#clipPath2)" stroke="none">e</text>
      <circle fill="none" r="15" clip-path="url(#clipPath2)" cx="120" cy="210"/>
    </g>
    <g fill="rgb(255,204,0)" text-rendering="geometricPrecision" shape-rendering="geometricPrecision" transform="matrix(1,0,0,1,210,110)" stroke="rgb(255,204,0)">
      <circle r="15" clip-path="url(#clipPath2)" cx="120" cy="-80" stroke="none"/>
    </g>
    <g text-rendering="geometricPrecision" stroke-miterlimit="1.45" shape-rendering="geometricPrecision" transform="matrix(1,0,0,1,210,110)" stroke-linecap="butt">
      <circle fill="none" r="15" clip-path="url(#clipPath2)" cx="120" cy="-80"/>
      <path fill="none" d="M-60 45 L-60 -45" stroke-width="3" clip-path="url(#clipPath2)"/>
      <path fill="none" d="M-166.0728 -17.5709 L-73.9271 -54.4291" clip-path="url(#clipPath2)"/>
      <path fill="none" d="M-177.0006 2.6971 L-152.9994 120.3029" clip-path="url(#clipPath2)"/>
      <path fill="none" d="M-138.4767 125.3972 L-71.5233 69.6028" clip-path="url(#clipPath2)"/>
      <path fill="none" d="M-46.7604 -52.9493 L95.7604 22.9493" stroke-width="3" clip-path="url(#clipPath2)"/>
      <path fill="none" d="M-45.2309 57.3783 L94.2309 32.6217" stroke-width="3" clip-path="url(#clipPath2)"/>
      <path fill="none" d="M123.2838 25.4205 L225.7162 -7.4205" clip-path="url(#clipPath2)"/>
      <path fill="none" d="M121.157 38.7868 L197.843 94.2132" clip-path="url(#clipPath2)"/>
      <path fill="none" d="M-58.1395 74.8842 L-46.8605 165.1158" clip-path="url(#clipPath2)"/>
      <path fill="none" d="M-31.9764 172.5579 L46.9764 127.4421" clip-path="url(#clipPath2)"/>
      <path fill="none" d="M68.3205 132.4808 L111.6795 197.5192" clip-path="url(#clipPath2)"/>
      <path fill="none" d="M119.085 195.0279 L109.915 44.9721" clip-path="url(#clipPath2)"/>
      <path fill="none" d="M129.6554 198.5208 L200.3446 114.4792" clip-path="url(#clipPath2)"/>
      <path fill="none" d="M-45.0917 -61.6565 L105.0917 -78.3435" clip-path="url(#clipPath2)"/>
    </g>
  </g>
</svg>
