<?xml version="1.0" encoding="UTF-8"?><svg xmlns="http://www.w3.org/2000/svg" xmlns:xlink="http://www.w3.org/1999/xlink" fill-opacity="1" color-rendering="auto" color-interpolation="auto" text-rendering="auto" stroke="black" stroke-linecap="square" width="270" stroke-miterlimit="10" shape-rendering="auto" stroke-opacity="1" fill="black" stroke-dasharray="none" font-weight="normal" stroke-width="1" height="210" font-family="'Dialog'" font-style="normal" stroke-linejoin="miter" font-size="12px" stroke-dashoffset="0" image-rendering="auto">
  <!--Generated by ySVG 2.5-->
  <defs id="genericDefs"/>
  <g>
    <defs id="defs1">
      <clipPath clipPathUnits="userSpaceOnUse" id="clipPath1">
        <path d="M0 0 L270 0 L270 210 L0 210 L0 0 Z"/>
      </clipPath>
      <clipPath clipPathUnits="userSpaceOnUse" id="clipPath2">
        <path d="M180 180 L450 180 L450 390 L180 390 L180 180 Z"/>
      </clipPath>
    </defs>
    <g fill="rgb(255,204,0)" text-rendering="geometricPrecision" shape-rendering="geometricPrecision" transform="matrix(1,0,0,1,-180,-180)" stroke="rgb(255,204,0)">
      <circle r="15" clip-path="url(#clipPath2)" cx="210" cy="210" stroke="none"/>
    </g>
    <g text-rendering="geometricPrecision" stroke-miterlimit="1.45" shape-rendering="geometricPrecision" font-family="sans-serif" transform="matrix(1,0,0,1,-180,-180)" stroke-linecap="butt">
      <text x="206.1973" xml:space="preserve" y="214.1543" clip-path="url(#clipPath2)" stroke="none">u</text>
      <circle fill="none" r="15" clip-path="url(#clipPath2)" cx="210" cy="210"/>
    </g>
    <g fill="rgb(255,204,0)" text-rendering="geometricPrecision" shape-rendering="geometricPrecision" transform="matrix(1,0,0,1,-180,-180)" stroke="rgb(255,204,0)">
      <circle r="15" clip-path="url(#clipPath2)" cx="420" cy="270" stroke="none"/>
    </g>
    <g text-rendering="geometricPrecision" stroke-miterlimit="1.45" shape-rendering="geometricPrecision" font-family="sans-serif" transform="matrix(1,0,0,1,-180,-180)" stroke-linecap="butt">
      <text x="416.4492" xml:space="preserve" y="274.1543" clip-path="url(#clipPath2)" stroke="none">v</text>
      <circle fill="none" r="15" clip-path="url(#clipPath2)" cx="420" cy="270"/>
    </g>
    <g fill="rgb(255,204,0)" text-rendering="geometricPrecision" shape-rendering="geometricPrecision" transform="matrix(1,0,0,1,-180,-180)" stroke="rgb(255,204,0)">
      <circle r="15" clip-path="url(#clipPath2)" cx="254" cy="330" stroke="none"/>
    </g>
    <g text-rendering="geometricPrecision" stroke-miterlimit="1.45" shape-rendering="geometricPrecision" font-family="sans-serif" transform="matrix(1,0,0,1,-180,-180)" stroke-linecap="butt">
      <text x="249.0928" xml:space="preserve" y="334.1543" clip-path="url(#clipPath2)" stroke="none">w</text>
      <circle fill="none" r="15" clip-path="url(#clipPath2)" cx="254" cy="330"/>
    </g>
    <g fill="rgb(255,204,0)" text-rendering="geometricPrecision" shape-rendering="geometricPrecision" transform="matrix(1,0,0,1,-180,-180)" stroke="rgb(255,204,0)">
      <circle r="15" clip-path="url(#clipPath2)" cx="360" cy="360" stroke="none"/>
    </g>
    <g text-rendering="geometricPrecision" stroke-miterlimit="1.45" shape-rendering="geometricPrecision" font-family="sans-serif" transform="matrix(1,0,0,1,-180,-180)" stroke-linecap="butt">
      <text x="356.4492" xml:space="preserve" y="364.1543" clip-path="url(#clipPath2)" stroke="none">x</text>
      <circle fill="none" r="15" clip-path="url(#clipPath2)" cx="360" cy="360"/>
      <path fill="none" d="M224.4229 214.1208 L397.8849 263.6814" clip-path="url(#clipPath2)"/>
      <path d="M405.5771 265.8792 L395.4124 257.7749 L396.9234 263.4067 L392.6653 267.3902 Z" clip-path="url(#clipPath2)" stroke="none"/>
      <path fill="none" d="M215.1638 224.0831 L246.0821 308.4059" clip-path="url(#clipPath2)"/>
      <path d="M248.8362 315.9169 L249.3995 302.9291 L245.7379 307.467 L240.0107 306.3716 Z" clip-path="url(#clipPath2)" stroke="none"/>
      <path fill="none" d="M421.9568 284.8718 L422.3438 287.8125 L421.875 303.75 L418.5938 317.8125 L412.5 330 L403.5938 340.3125 L391.875 348.75 L381.9534 353.2307 L381.8569 353.2568" clip-path="url(#clipPath2)"/>
      <path d="M374.3875 356.122 L387.3823 356.4925 L382.7905 352.8987 L383.8008 347.1559 Z" clip-path="url(#clipPath2)" stroke="none"/>
      <path fill="none" d="M268.4331 334.0848 L337.8693 353.7366" clip-path="url(#clipPath2)"/>
      <path d="M345.5669 355.9152 L335.382 347.8362 L336.907 353.4642 L332.6588 357.4583 Z" clip-path="url(#clipPath2)" stroke="none"/>
      <path fill="none" d="M358.0432 345.1282 L357.6562 342.1875 L358.125 326.25 L361.4062 312.1875 L367.5 300 L376.4062 289.6875 L388.125 281.25 L398.0466 276.7693 L398.1431 276.7432" clip-path="url(#clipPath2)"/>
      <path d="M405.6125 273.878 L392.6177 273.5075 L397.2095 277.1013 L396.1992 282.8441 Z" clip-path="url(#clipPath2)" stroke="none"/>
    </g>
  </g>
</svg>
