<?xml version="1.0" encoding="UTF-8"?><svg xmlns="http://www.w3.org/2000/svg" xmlns:xlink="http://www.w3.org/1999/xlink" fill-opacity="1" color-rendering="auto" color-interpolation="auto" text-rendering="auto" stroke="black" stroke-linecap="square" width="270" stroke-miterlimit="10" shape-rendering="auto" stroke-opacity="1" fill="black" stroke-dasharray="none" font-weight="normal" stroke-width="1" height="210" font-family="'Dialog'" font-style="normal" stroke-linejoin="miter" font-size="12px" stroke-dashoffset="0" image-rendering="auto">
  <!--Generated by ySVG 2.5-->
  <defs id="genericDefs"/>
  <g>
    <defs id="defs1">
      <clipPath clipPathUnits="userSpaceOnUse" id="clipPath1">
        <path d="M0 0 L270 0 L270 210 L0 210 L0 0 Z"/>
      </clipPath>
      <clipPath clipPathUnits="userSpaceOnUse" id="clipPath2">
        <path d="M180 180 L450 180 L450 390 L180 390 L180 180 Z"/>
      </clipPath>
    </defs>
    <g fill="rgb(255,204,0)" text-rendering="geometricPrecision" shape-rendering="geometricPrecision" transform="matrix(1,0,0,1,-180,-180)" stroke="rgb(255,204,0)">
      <circle r="15" clip-path="url(#clipPath2)" cx="210" cy="210" stroke="none"/>
    </g>
    <g text-rendering="geometricPrecision" stroke-miterlimit="1.45" shape-rendering="geometricPrecision" font-family="sans-serif" transform="matrix(1,0,0,1,-180,-180)" stroke-linecap="butt">
      <text x="206.1973" xml:space="preserve" y="214.1543" clip-path="url(#clipPath2)" stroke="none">u</text>
      <circle fill="none" r="15" clip-path="url(#clipPath2)" cx="210" cy="210"/>
    </g>
    <g fill="rgb(255,204,0)" text-rendering="geometricPrecision" shape-rendering="geometricPrecision" transform="matrix(1,0,0,1,-180,-180)" stroke="rgb(255,204,0)">
      <circle r="15" clip-path="url(#clipPath2)" cx="420" cy="270" stroke="none"/>
    </g>
    <g text-rendering="geometricPrecision" stroke-miterlimit="1.45" shape-rendering="geometricPrecision" font-family="sans-serif" transform="matrix(1,0,0,1,-180,-180)" stroke-linecap="butt">
      <text x="416.4492" xml:space="preserve" y="274.1543" clip-path="url(#clipPath2)" stroke="none">v</text>
      <circle fill="none" r="15" clip-path="url(#clipPath2)" cx="420" cy="270"/>
    </g>
    <g fill="rgb(255,204,0)" text-rendering="geometricPrecision" shape-rendering="geometricPrecision" transform="matrix(1,0,0,1,-180,-180)" stroke="rgb(255,204,0)">
      <circle r="15" clip-path="url(#clipPath2)" cx="254" cy="330" stroke="none"/>
    </g>
    <g text-rendering="geometricPrecision" stroke-miterlimit="1.45" shape-rendering="geometricPrecision" font-family="sans-serif" transform="matrix(1,0,0,1,-180,-180)" stroke-linecap="butt">
      <text x="249.0928" xml:space="preserve" y="334.1543" clip-path="url(#clipPath2)" stroke="none">w</text>
      <circle fill="none" r="15" clip-path="url(#clipPath2)" cx="254" cy="330"/>
    </g>
    <g fill="rgb(255,204,0)" text-rendering="geometricPrecision" shape-rendering="geometricPrecision" transform="matrix(1,0,0,1,-180,-180)" stroke="rgb(255,204,0)">
      <circle r="15" clip-path="url(#clipPath2)" cx="360" cy="360" stroke="none"/>
    </g>
    <g text-rendering="geometricPrecision" stroke-miterlimit="1.45" shape-rendering="geometricPrecision" font-family="sans-serif" transform="matrix(1,0,0,1,-180,-180)" stroke-linecap="butt">
      <text x="356.4492" xml:space="preserve" y="364.1543" clip-path="url(#clipPath2)" stroke="none">x</text>
      <circle fill="none" r="15" clip-path="url(#clipPath2)" cx="360" cy="360"/>
      <path fill="none" d="M224.4229 214.1208 L397.8849 263.6814" clip-path="url(#clipPath2)"/>
      <path d="M405.5771 265.8792 L395.4124 257.7749 L396.9234 263.4067 L392.6653 267.3902 Z" clip-path="url(#clipPath2)" stroke="none"/>
      <path fill="none" d="M215.1638 224.0831 L246.0821 308.4059" clip-path="url(#clipPath2)"/>
      <path d="M248.8362 315.9169 L249.3995 302.9291 L245.7379 307.467 L240.0107 306.3716 Z" clip-path="url(#clipPath2)" stroke="none"/>
      <path fill="none" d="M267.5519 323.5699 L270.5312 322.1562 L286.125 317.625 L300.7812 316.4062 L314.5 318.5 L327.2812 323.9062 L339.125 332.625 L346.8564 341.1539 L346.9109 341.2378" clip-path="url(#clipPath2)"/>
      <path d="M351.8898 347.4995 L348.335 334.995 L346.2885 340.455 L340.5078 341.2188 Z" clip-path="url(#clipPath2)" stroke="none"/>
      <path fill="none" d="M346.4481 366.4301 L343.4688 367.8438 L327.875 372.375 L313.2188 373.5938 L299.5 371.5 L286.7188 366.0938 L274.875 357.375 L267.1436 348.8461 L267.0891 348.7622" clip-path="url(#clipPath2)"/>
      <path d="M262.1102 342.5005 L265.665 355.005 L267.7115 349.545 L273.4922 348.7812 Z" clip-path="url(#clipPath2)" stroke="none"/>
    </g>
  </g>
</svg>
