<?xml version="1.0" encoding="UTF-8"?><svg xmlns="http://www.w3.org/2000/svg" xmlns:xlink="http://www.w3.org/1999/xlink" fill-opacity="1" color-rendering="auto" color-interpolation="auto" text-rendering="auto" stroke="black" stroke-linecap="square" width="359" stroke-miterlimit="10" shape-rendering="auto" stroke-opacity="1" fill="black" stroke-dasharray="none" font-weight="normal" stroke-width="1" height="290" font-family="'Dialog'" font-style="normal" stroke-linejoin="miter" font-size="12px" stroke-dashoffset="0" image-rendering="auto">
  <!--Generated by ySVG 2.5-->
  <defs id="genericDefs"/>
  <g>
    <defs id="defs1">
      <clipPath clipPathUnits="userSpaceOnUse" id="clipPath1">
        <path d="M0 0 L359 0 L359 290 L0 290 L0 0 Z"/>
      </clipPath>
      <clipPath clipPathUnits="userSpaceOnUse" id="clipPath2">
        <path d="M-104 -156 L255 -156 L255 134 L-104 134 L-104 -156 Z"/>
      </clipPath>
    </defs>
    <g fill="rgb(255,204,0)" text-rendering="geometricPrecision" shape-rendering="geometricPrecision" transform="matrix(1,0,0,1,104,156)" stroke="rgb(255,204,0)">
      <circle r="15" clip-path="url(#clipPath2)" cx="77" cy="-126" stroke="none"/>
    </g>
    <g text-rendering="geometricPrecision" stroke-miterlimit="1.45" shape-rendering="geometricPrecision" font-family="sans-serif" transform="matrix(1,0,0,1,104,156)" stroke-linecap="butt">
      <text x="73.1826" xml:space="preserve" y="-121.8457" clip-path="url(#clipPath2)" stroke="none">1</text>
      <circle fill="none" r="15" clip-path="url(#clipPath2)" cx="77" cy="-126"/>
    </g>
    <g fill="rgb(255,204,0)" text-rendering="geometricPrecision" shape-rendering="geometricPrecision" transform="matrix(1,0,0,1,104,156)" stroke="rgb(255,204,0)">
      <circle r="15" clip-path="url(#clipPath2)" cx="28" cy="-2" stroke="none"/>
    </g>
    <g text-rendering="geometricPrecision" stroke-miterlimit="1.45" shape-rendering="geometricPrecision" font-family="sans-serif" transform="matrix(1,0,0,1,104,156)" stroke-linecap="butt">
      <text x="24.1826" xml:space="preserve" y="2.1543" clip-path="url(#clipPath2)" stroke="none">2</text>
      <circle fill="none" r="15" clip-path="url(#clipPath2)" cx="28" cy="-2"/>
    </g>
    <g fill="rgb(255,204,0)" text-rendering="geometricPrecision" shape-rendering="geometricPrecision" transform="matrix(1,0,0,1,104,156)" stroke="rgb(255,204,0)">
      <circle r="15" clip-path="url(#clipPath2)" cx="131" cy="-2" stroke="none"/>
    </g>
    <g text-rendering="geometricPrecision" stroke-miterlimit="1.45" shape-rendering="geometricPrecision" font-family="sans-serif" transform="matrix(1,0,0,1,104,156)" stroke-linecap="butt">
      <text x="127.1826" xml:space="preserve" y="2.1543" clip-path="url(#clipPath2)" stroke="none">3</text>
      <circle fill="none" r="15" clip-path="url(#clipPath2)" cx="131" cy="-2"/>
    </g>
    <g fill="rgb(255,204,0)" text-rendering="geometricPrecision" shape-rendering="geometricPrecision" transform="matrix(1,0,0,1,104,156)" stroke="rgb(255,204,0)">
      <circle r="15" clip-path="url(#clipPath2)" cx="77" cy="78" stroke="none"/>
    </g>
    <g text-rendering="geometricPrecision" stroke-miterlimit="1.45" shape-rendering="geometricPrecision" font-family="sans-serif" transform="matrix(1,0,0,1,104,156)" stroke-linecap="butt">
      <text x="73.1826" xml:space="preserve" y="82.1543" clip-path="url(#clipPath2)" stroke="none">4</text>
      <circle fill="none" r="15" clip-path="url(#clipPath2)" cx="77" cy="78"/>
    </g>
    <g fill="rgb(255,204,0)" text-rendering="geometricPrecision" shape-rendering="geometricPrecision" transform="matrix(1,0,0,1,104,156)" stroke="rgb(255,204,0)">
      <circle r="15" clip-path="url(#clipPath2)" cx="-74" cy="104" stroke="none"/>
    </g>
    <g text-rendering="geometricPrecision" stroke-miterlimit="1.45" shape-rendering="geometricPrecision" font-family="sans-serif" transform="matrix(1,0,0,1,104,156)" stroke-linecap="butt">
      <text x="-77.8174" xml:space="preserve" y="108.1543" clip-path="url(#clipPath2)" stroke="none">5</text>
      <circle fill="none" r="15" clip-path="url(#clipPath2)" cx="-74" cy="104"/>
    </g>
    <g fill="rgb(255,204,0)" text-rendering="geometricPrecision" shape-rendering="geometricPrecision" transform="matrix(1,0,0,1,104,156)" stroke="rgb(255,204,0)">
      <circle r="15" clip-path="url(#clipPath2)" cx="225" cy="104" stroke="none"/>
    </g>
    <g text-rendering="geometricPrecision" stroke-miterlimit="1.45" shape-rendering="geometricPrecision" font-family="sans-serif" transform="matrix(1,0,0,1,104,156)" stroke-linecap="butt">
      <text x="221.1826" xml:space="preserve" y="108.1543" clip-path="url(#clipPath2)" stroke="none">6</text>
      <circle fill="none" r="15" clip-path="url(#clipPath2)" cx="225" cy="104"/>
      <path fill="none" d="M33.5126 -15.9503 L68.5473 -104.6095" clip-path="url(#clipPath2)"/>
      <path d="M71.4874 -112.0497 L62.4272 -102.727 L68.1798 -103.6795 L71.7274 -99.0519 Z" clip-path="url(#clipPath2)" stroke="none"/>
      <rect x="46.6826" y="-72.9844" clip-path="url(#clipPath2)" fill="white" width="11.6348" height="17.9688" stroke="none"/>
      <text x="48.6826" xml:space="preserve" y="-59.8457" clip-path="url(#clipPath2)" stroke="none">3</text>
      <path fill="none" d="M82.989 -112.2475 L121.8169 -23.0872" clip-path="url(#clipPath2)"/>
      <path d="M125.011 -15.7525 L124.804 -28.7509 L121.4176 -24.004 L115.6356 -24.7582 Z" clip-path="url(#clipPath2)" stroke="none"/>
      <rect x="98.1826" y="-72.9844" clip-path="url(#clipPath2)" fill="white" width="11.6348" height="17.9688" stroke="none"/>
      <text x="100.1826" xml:space="preserve" y="-59.8457" clip-path="url(#clipPath2)" stroke="none">7</text>
      <path fill="none" d="M43 -2 L108 -2" clip-path="url(#clipPath2)"/>
      <path d="M116 -2 L104 -7 L107 -2 L104 3 Z" clip-path="url(#clipPath2)" stroke="none"/>
      <rect x="69.8652" y="-10.9844" clip-path="url(#clipPath2)" fill="white" width="19.2695" height="17.9688" stroke="none"/>
      <text x="71.8652" xml:space="preserve" y="2.1543" clip-path="url(#clipPath2)" stroke="none">12</text>
      <path fill="none" d="M122.6079 10.4327 L89.8679 58.9365" clip-path="url(#clipPath2)"/>
      <path d="M85.3921 65.5673 L96.25 58.4185 L90.4273 58.1076 L87.9615 52.8237 Z" clip-path="url(#clipPath2)" stroke="none"/>
      <rect x="98.1826" y="29.0156" clip-path="url(#clipPath2)" fill="white" width="11.6348" height="17.9688" stroke="none"/>
      <text x="100.1826" xml:space="preserve" y="42.1543" clip-path="url(#clipPath2)" stroke="none">1</text>
      <path fill="none" d="M69.1653 65.2087 L40.0132 17.6134" clip-path="url(#clipPath2)"/>
      <path d="M35.8347 10.7913 L37.8386 23.6359 L40.5355 18.4661 L46.3662 18.4128 Z" clip-path="url(#clipPath2)" stroke="none"/>
      <rect x="46.6826" y="29.0156" clip-path="url(#clipPath2)" fill="white" width="11.6348" height="17.9688" stroke="none"/>
      <text x="48.6826" xml:space="preserve" y="42.1543" clip-path="url(#clipPath2)" stroke="none">2</text>
      <path fill="none" d="M68.7678 -113.4608 L-61.3773 84.7733" clip-path="url(#clipPath2)"/>
      <path d="M-65.7678 91.4608 L-55.0023 84.1736 L-60.8284 83.9373 L-63.3617 78.6854 Z" clip-path="url(#clipPath2)" stroke="none"/>
      <rect x="-4.3174" y="-19.9844" clip-path="url(#clipPath2)" fill="white" width="11.6348" height="17.9688" stroke="none"/>
      <text x="-2.3174" xml:space="preserve" y="-6.8457" clip-path="url(#clipPath2)" stroke="none">4</text>
      <path fill="none" d="M62.2175 80.5453 L-51.3335 100.0972" clip-path="url(#clipPath2)"/>
      <path d="M-59.2175 101.4547 L-46.5431 104.3459 L-50.3481 99.9275 L-48.24 94.4909 Z" clip-path="url(#clipPath2)" stroke="none"/>
      <rect x="-8.1348" y="82.0156" clip-path="url(#clipPath2)" fill="white" width="19.2695" height="17.9688" stroke="none"/>
      <text x="-6.1348" xml:space="preserve" y="95.1543" clip-path="url(#clipPath2)" stroke="none">10</text>
      <path fill="none" d="M-63.5993 93.1914 L12.0523 14.5732" clip-path="url(#clipPath2)"/>
      <path d="M17.5993 8.8086 L5.6759 13.9885 L11.3589 15.2937 L12.8816 20.9223 Z" clip-path="url(#clipPath2)" stroke="none"/>
      <rect x="-32.6348" y="42.0156" clip-path="url(#clipPath2)" fill="white" width="19.2695" height="17.9688" stroke="none"/>
      <text x="-30.6348" xml:space="preserve" y="55.1543" clip-path="url(#clipPath2)" stroke="none">11</text>
      <path fill="none" d="M-59 104 L202 104" clip-path="url(#clipPath2)"/>
      <path d="M210 104 L198 99 L201 104 L198 109 Z" clip-path="url(#clipPath2)" stroke="none"/>
      <rect x="69.6826" y="95.0156" clip-path="url(#clipPath2)" fill="white" width="11.6348" height="17.9688" stroke="none"/>
      <text x="71.6826" xml:space="preserve" y="108.1543" clip-path="url(#clipPath2)" stroke="none">5</text>
      <path fill="none" d="M140.9523 9.2228 L209.7398 86.7917" clip-path="url(#clipPath2)"/>
      <path d="M215.0477 92.7772 L210.8268 80.4815 L209.0763 86.0435 L203.3449 87.1164 Z" clip-path="url(#clipPath2)" stroke="none"/>
      <rect x="172.1826" y="42.0156" clip-path="url(#clipPath2)" fill="white" width="11.6348" height="17.9688" stroke="none"/>
      <text x="174.1826" xml:space="preserve" y="55.1543" clip-path="url(#clipPath2)" stroke="none">8</text>
      <path fill="none" d="M216.8831 91.3859 L89.4459 -106.6584" clip-path="url(#clipPath2)"/>
      <path d="M85.1169 -113.3859 L87.4057 -100.589 L89.9871 -105.8174 L95.8151 -106.0002 Z" clip-path="url(#clipPath2)" stroke="none"/>
      <rect x="145.1826" y="-19.9844" clip-path="url(#clipPath2)" fill="white" width="11.6348" height="17.9688" stroke="none"/>
      <text x="147.1826" xml:space="preserve" y="-6.8457" clip-path="url(#clipPath2)" stroke="none">6</text>
      <path fill="none" d="M210.2262 101.4046 L99.6531 81.9796" clip-path="url(#clipPath2)"/>
      <path d="M91.7738 80.5954 L102.7276 87.5963 L100.638 82.1526 L104.4579 77.7471 Z" clip-path="url(#clipPath2)" stroke="none"/>
      <rect x="145.1826" y="82.0156" clip-path="url(#clipPath2)" fill="white" width="11.6348" height="17.9688" stroke="none"/>
      <text x="147.1826" xml:space="preserve" y="95.1543" clip-path="url(#clipPath2)" stroke="none">9</text>
    </g>
  </g>
</svg>
