<?xml version="1.0" encoding="UTF-8"?><svg xmlns="http://www.w3.org/2000/svg" xmlns:xlink="http://www.w3.org/1999/xlink" fill-opacity="1" color-rendering="auto" color-interpolation="auto" text-rendering="auto" stroke="black" stroke-linecap="square" width="359" stroke-miterlimit="10" shape-rendering="auto" stroke-opacity="1" fill="black" stroke-dasharray="none" font-weight="normal" stroke-width="1" height="290" font-family="'Dialog'" font-style="normal" stroke-linejoin="miter" font-size="12px" stroke-dashoffset="0" image-rendering="auto">
  <!--Generated by ySVG 2.5-->
  <defs id="genericDefs"/>
  <g>
    <defs id="defs1">
      <clipPath clipPathUnits="userSpaceOnUse" id="clipPath1">
        <path d="M0 0 L359 0 L359 290 L0 290 L0 0 Z"/>
      </clipPath>
      <clipPath clipPathUnits="userSpaceOnUse" id="clipPath2">
        <path d="M-104 -156 L255 -156 L255 134 L-104 134 L-104 -156 Z"/>
      </clipPath>
    </defs>
    <g fill="rgb(255,204,0)" text-rendering="geometricPrecision" shape-rendering="geometricPrecision" transform="matrix(1,0,0,1,104,156)" stroke="rgb(255,204,0)">
      <circle r="15" clip-path="url(#clipPath2)" cx="77" cy="-126" stroke="none"/>
    </g>
    <g text-rendering="geometricPrecision" stroke-miterlimit="1.45" shape-rendering="geometricPrecision" font-family="sans-serif" transform="matrix(1,0,0,1,104,156)" stroke-linecap="butt">
      <text x="73.1826" xml:space="preserve" y="-121.8457" clip-path="url(#clipPath2)" stroke="none">1</text>
      <circle fill="none" r="15" clip-path="url(#clipPath2)" cx="77" cy="-126"/>
    </g>
    <g fill="rgb(255,204,0)" text-rendering="geometricPrecision" shape-rendering="geometricPrecision" transform="matrix(1,0,0,1,104,156)" stroke="rgb(255,204,0)">
      <circle r="15" clip-path="url(#clipPath2)" cx="28" cy="-2" stroke="none"/>
    </g>
    <g text-rendering="geometricPrecision" stroke-miterlimit="1.45" shape-rendering="geometricPrecision" font-family="sans-serif" transform="matrix(1,0,0,1,104,156)" stroke-linecap="butt">
      <text x="24.1826" xml:space="preserve" y="2.1543" clip-path="url(#clipPath2)" stroke="none">2</text>
      <circle fill="none" r="15" clip-path="url(#clipPath2)" cx="28" cy="-2"/>
    </g>
    <g fill="rgb(255,204,0)" text-rendering="geometricPrecision" shape-rendering="geometricPrecision" transform="matrix(1,0,0,1,104,156)" stroke="rgb(255,204,0)">
      <circle r="15" clip-path="url(#clipPath2)" cx="131" cy="-2" stroke="none"/>
    </g>
    <g text-rendering="geometricPrecision" stroke-miterlimit="1.45" shape-rendering="geometricPrecision" font-family="sans-serif" transform="matrix(1,0,0,1,104,156)" stroke-linecap="butt">
      <text x="127.1826" xml:space="preserve" y="2.1543" clip-path="url(#clipPath2)" stroke="none">3</text>
      <circle fill="none" r="15" clip-path="url(#clipPath2)" cx="131" cy="-2"/>
    </g>
    <g fill="rgb(255,204,0)" text-rendering="geometricPrecision" shape-rendering="geometricPrecision" transform="matrix(1,0,0,1,104,156)" stroke="rgb(255,204,0)">
      <circle r="15" clip-path="url(#clipPath2)" cx="77" cy="78" stroke="none"/>
    </g>
    <g text-rendering="geometricPrecision" stroke-miterlimit="1.45" shape-rendering="geometricPrecision" font-family="sans-serif" transform="matrix(1,0,0,1,104,156)" stroke-linecap="butt">
      <text x="73.1826" xml:space="preserve" y="82.1543" clip-path="url(#clipPath2)" stroke="none">4</text>
      <circle fill="none" r="15" clip-path="url(#clipPath2)" cx="77" cy="78"/>
    </g>
    <g fill="rgb(255,204,0)" text-rendering="geometricPrecision" shape-rendering="geometricPrecision" transform="matrix(1,0,0,1,104,156)" stroke="rgb(255,204,0)">
      <circle r="15" clip-path="url(#clipPath2)" cx="-74" cy="104" stroke="none"/>
    </g>
    <g text-rendering="geometricPrecision" stroke-miterlimit="1.45" shape-rendering="geometricPrecision" font-family="sans-serif" transform="matrix(1,0,0,1,104,156)" stroke-linecap="butt">
      <text x="-77.8174" xml:space="preserve" y="108.1543" clip-path="url(#clipPath2)" stroke="none">5</text>
      <circle fill="none" r="15" clip-path="url(#clipPath2)" cx="-74" cy="104"/>
    </g>
    <g fill="rgb(255,204,0)" text-rendering="geometricPrecision" shape-rendering="geometricPrecision" transform="matrix(1,0,0,1,104,156)" stroke="rgb(255,204,0)">
      <circle r="15" clip-path="url(#clipPath2)" cx="225" cy="104" stroke="none"/>
    </g>
    <g text-rendering="geometricPrecision" stroke-miterlimit="1.45" shape-rendering="geometricPrecision" font-family="sans-serif" transform="matrix(1,0,0,1,104,156)" stroke-linecap="butt">
      <text x="221.1826" xml:space="preserve" y="108.1543" clip-path="url(#clipPath2)" stroke="none">6</text>
      <circle fill="none" r="15" clip-path="url(#clipPath2)" cx="225" cy="104"/>
      <path fill="none" d="M71.4874 -112.0497 L33.5126 -15.9503" clip-path="url(#clipPath2)"/>
      <path fill="none" d="M82.989 -112.2475 L125.011 -15.7525" clip-path="url(#clipPath2)"/>
      <path fill="none" d="M116 -2 L43 -2" clip-path="url(#clipPath2)"/>
      <path fill="none" d="M35.8347 10.7913 L69.1653 65.2087" clip-path="url(#clipPath2)"/>
      <path fill="none" d="M85.3921 65.5673 L122.6079 10.4327" clip-path="url(#clipPath2)"/>
      <path fill="none" d="M68.7678 -113.4608 L-65.7678 91.4608" clip-path="url(#clipPath2)"/>
      <path fill="none" d="M62.2175 80.5453 L-59.2175 101.4547" clip-path="url(#clipPath2)"/>
      <path fill="none" d="M17.5993 8.8086 L-63.5993 93.1914" clip-path="url(#clipPath2)"/>
      <path fill="none" d="M91.7738 80.5954 L210.2262 101.4046" clip-path="url(#clipPath2)"/>
      <path fill="none" d="M85.1169 -113.3859 L216.8831 91.3859" clip-path="url(#clipPath2)"/>
      <path fill="none" d="M-59 104 L210 104" clip-path="url(#clipPath2)"/>
      <path fill="none" d="M215.0477 92.7772 L140.9523 9.2228" clip-path="url(#clipPath2)"/>
    </g>
  </g>
</svg>
