<?xml version="1.0" encoding="UTF-8"?><svg xmlns="http://www.w3.org/2000/svg" xmlns:xlink="http://www.w3.org/1999/xlink" fill-opacity="1" color-rendering="auto" color-interpolation="auto" text-rendering="auto" stroke="black" stroke-linecap="square" width="270" stroke-miterlimit="10" shape-rendering="auto" stroke-opacity="1" fill="black" stroke-dasharray="none" font-weight="normal" stroke-width="1" height="210" font-family="'Dialog'" font-style="normal" stroke-linejoin="miter" font-size="12px" stroke-dashoffset="0" image-rendering="auto">
  <!--Generated by ySVG 2.5-->
  <defs id="genericDefs"/>
  <g>
    <defs id="defs1">
      <clipPath clipPathUnits="userSpaceOnUse" id="clipPath1">
        <path d="M0 0 L270 0 L270 210 L0 210 L0 0 Z"/>
      </clipPath>
      <clipPath clipPathUnits="userSpaceOnUse" id="clipPath2">
        <path d="M180 180 L450 180 L450 390 L180 390 L180 180 Z"/>
      </clipPath>
    </defs>
    <g fill="rgb(255,204,0)" text-rendering="geometricPrecision" shape-rendering="geometricPrecision" transform="matrix(1,0,0,1,-180,-180)" stroke="rgb(255,204,0)">
      <circle r="15" clip-path="url(#clipPath2)" cx="210" cy="210" stroke="none"/>
    </g>
    <g text-rendering="geometricPrecision" stroke-miterlimit="1.45" shape-rendering="geometricPrecision" font-family="sans-serif" transform="matrix(1,0,0,1,-180,-180)" stroke-linecap="butt">
      <text x="206.1973" xml:space="preserve" y="214.1543" clip-path="url(#clipPath2)" stroke="none">u</text>
      <circle fill="none" r="15" clip-path="url(#clipPath2)" cx="210" cy="210"/>
    </g>
    <g fill="rgb(255,204,0)" text-rendering="geometricPrecision" shape-rendering="geometricPrecision" transform="matrix(1,0,0,1,-180,-180)" stroke="rgb(255,204,0)">
      <circle r="15" clip-path="url(#clipPath2)" cx="420" cy="270" stroke="none"/>
    </g>
    <g text-rendering="geometricPrecision" stroke-miterlimit="1.45" shape-rendering="geometricPrecision" font-family="sans-serif" transform="matrix(1,0,0,1,-180,-180)" stroke-linecap="butt">
      <text x="416.4492" xml:space="preserve" y="274.1543" clip-path="url(#clipPath2)" stroke="none">v</text>
      <circle fill="none" r="15" clip-path="url(#clipPath2)" cx="420" cy="270"/>
    </g>
    <g fill="rgb(255,204,0)" text-rendering="geometricPrecision" shape-rendering="geometricPrecision" transform="matrix(1,0,0,1,-180,-180)" stroke="rgb(255,204,0)">
      <circle r="15" clip-path="url(#clipPath2)" cx="254" cy="330" stroke="none"/>
    </g>
    <g text-rendering="geometricPrecision" stroke-miterlimit="1.45" shape-rendering="geometricPrecision" font-family="sans-serif" transform="matrix(1,0,0,1,-180,-180)" stroke-linecap="butt">
      <text x="249.0928" xml:space="preserve" y="334.1543" clip-path="url(#clipPath2)" stroke="none">w</text>
      <circle fill="none" r="15" clip-path="url(#clipPath2)" cx="254" cy="330"/>
    </g>
    <g fill="rgb(255,204,0)" text-rendering="geometricPrecision" shape-rendering="geometricPrecision" transform="matrix(1,0,0,1,-180,-180)" stroke="rgb(255,204,0)">
      <circle r="15" clip-path="url(#clipPath2)" cx="360" cy="360" stroke="none"/>
    </g>
    <g text-rendering="geometricPrecision" stroke-miterlimit="1.45" shape-rendering="geometricPrecision" font-family="sans-serif" transform="matrix(1,0,0,1,-180,-180)" stroke-linecap="butt">
      <text x="356.4492" xml:space="preserve" y="364.1543" clip-path="url(#clipPath2)" stroke="none">x</text>
      <circle fill="none" r="15" clip-path="url(#clipPath2)" cx="360" cy="360"/>
      <path fill="none" d="M224.4229 214.1208 L405.5771 265.8792" clip-path="url(#clipPath2)"/>
      <path fill="none" d="M215.1638 224.0831 L248.8362 315.9169" clip-path="url(#clipPath2)"/>
    </g>
  </g>
</svg>
