<?xml version="1.0" encoding="UTF-8"?><svg xmlns="http://www.w3.org/2000/svg" xmlns:xlink="http://www.w3.org/1999/xlink" fill-opacity="1" color-rendering="auto" color-interpolation="auto" text-rendering="auto" stroke="black" stroke-linecap="square" width="318" stroke-miterlimit="10" shape-rendering="auto" stroke-opacity="1" fill="black" stroke-dasharray="none" font-weight="normal" stroke-width="1" height="295" font-family="'Dialog'" font-style="normal" stroke-linejoin="miter" font-size="12px" stroke-dashoffset="0" image-rendering="auto">
  <!--Generated by ySVG 2.5-->
  <defs id="genericDefs"/>
  <g>
    <defs id="defs1">
      <clipPath clipPathUnits="userSpaceOnUse" id="clipPath1">
        <path d="M0 0 L318 0 L318 295 L0 295 L0 0 Z"/>
      </clipPath>
      <clipPath clipPathUnits="userSpaceOnUse" id="clipPath2">
        <path d="M-2 -50 L316 -50 L316 245 L-2 245 L-2 -50 Z"/>
      </clipPath>
    </defs>
    <g fill="rgb(255,204,0)" text-rendering="geometricPrecision" shape-rendering="geometricPrecision" transform="matrix(1,0,0,1,2,50)" stroke="rgb(255,204,0)">
      <circle r="15" clip-path="url(#clipPath2)" cx="28" cy="214.9235" stroke="none"/>
    </g>
    <g text-rendering="geometricPrecision" stroke-miterlimit="1.45" shape-rendering="geometricPrecision" font-family="sans-serif" transform="matrix(1,0,0,1,2,50)" stroke-linecap="butt">
      <text x="24.1826" xml:space="preserve" y="219.0778" clip-path="url(#clipPath2)" stroke="none">1</text>
      <circle fill="none" r="15" clip-path="url(#clipPath2)" cx="28" cy="214.9235"/>
    </g>
    <g fill="rgb(255,204,0)" text-rendering="geometricPrecision" shape-rendering="geometricPrecision" transform="matrix(1,0,0,1,2,50)" stroke="rgb(255,204,0)">
      <circle r="15" clip-path="url(#clipPath2)" cx="88" cy="154.9235" stroke="none"/>
    </g>
    <g text-rendering="geometricPrecision" stroke-miterlimit="1.45" shape-rendering="geometricPrecision" font-family="sans-serif" transform="matrix(1,0,0,1,2,50)" stroke-linecap="butt">
      <text x="84.1826" xml:space="preserve" y="159.0778" clip-path="url(#clipPath2)" stroke="none">2</text>
      <circle fill="none" r="15" clip-path="url(#clipPath2)" cx="88" cy="154.9235"/>
    </g>
    <g fill="rgb(255,204,0)" text-rendering="geometricPrecision" shape-rendering="geometricPrecision" transform="matrix(1,0,0,1,2,50)" stroke="rgb(255,204,0)">
      <circle r="15" clip-path="url(#clipPath2)" cx="285.2073" cy="214.9235" stroke="none"/>
    </g>
    <g text-rendering="geometricPrecision" stroke-miterlimit="1.45" shape-rendering="geometricPrecision" font-family="sans-serif" transform="matrix(1,0,0,1,2,50)" stroke-linecap="butt">
      <text x="281.3899" xml:space="preserve" y="219.0778" clip-path="url(#clipPath2)" stroke="none">4</text>
      <circle fill="none" r="15" clip-path="url(#clipPath2)" cx="285.2073" cy="214.9235"/>
    </g>
    <g fill="rgb(255,204,0)" text-rendering="geometricPrecision" shape-rendering="geometricPrecision" transform="matrix(1,0,0,1,2,50)" stroke="rgb(255,204,0)">
      <circle r="15" clip-path="url(#clipPath2)" cx="225.2073" cy="154.9235" stroke="none"/>
    </g>
    <g text-rendering="geometricPrecision" stroke-miterlimit="1.45" shape-rendering="geometricPrecision" font-family="sans-serif" transform="matrix(1,0,0,1,2,50)" stroke-linecap="butt">
      <text x="221.3899" xml:space="preserve" y="159.0778" clip-path="url(#clipPath2)" stroke="none">3</text>
      <circle fill="none" r="15" clip-path="url(#clipPath2)" cx="225.2073" cy="154.9235"/>
    </g>
    <g fill="rgb(255,204,0)" text-rendering="geometricPrecision" shape-rendering="geometricPrecision" transform="matrix(1,0,0,1,2,50)" stroke="rgb(255,204,0)">
      <circle r="15" clip-path="url(#clipPath2)" cx="28" cy="-20" stroke="none"/>
    </g>
    <g text-rendering="geometricPrecision" stroke-miterlimit="1.45" shape-rendering="geometricPrecision" font-family="sans-serif" transform="matrix(1,0,0,1,2,50)" stroke-linecap="butt">
      <text x="24.1826" xml:space="preserve" y="-15.8457" clip-path="url(#clipPath2)" stroke="none">5</text>
      <circle fill="none" r="15" clip-path="url(#clipPath2)" cx="28" cy="-20"/>
    </g>
    <g fill="rgb(255,204,0)" text-rendering="geometricPrecision" shape-rendering="geometricPrecision" transform="matrix(1,0,0,1,2,50)" stroke="rgb(255,204,0)">
      <circle r="15" clip-path="url(#clipPath2)" cx="285.2073" cy="-20" stroke="none"/>
    </g>
    <g text-rendering="geometricPrecision" stroke-miterlimit="1.45" shape-rendering="geometricPrecision" font-family="sans-serif" transform="matrix(1,0,0,1,2,50)" stroke-linecap="butt">
      <text x="281.3899" xml:space="preserve" y="-15.8457" clip-path="url(#clipPath2)" stroke="none">7</text>
      <circle fill="none" r="15" clip-path="url(#clipPath2)" cx="285.2073" cy="-20"/>
    </g>
    <g fill="rgb(255,204,0)" text-rendering="geometricPrecision" shape-rendering="geometricPrecision" transform="matrix(1,0,0,1,2,50)" stroke="rgb(255,204,0)">
      <circle r="15" clip-path="url(#clipPath2)" cx="225.2073" cy="40" stroke="none"/>
    </g>
    <g text-rendering="geometricPrecision" stroke-miterlimit="1.45" shape-rendering="geometricPrecision" font-family="sans-serif" transform="matrix(1,0,0,1,2,50)" stroke-linecap="butt">
      <text x="221.3899" xml:space="preserve" y="44.1543" clip-path="url(#clipPath2)" stroke="none">8</text>
      <circle fill="none" r="15" clip-path="url(#clipPath2)" cx="225.2073" cy="40"/>
    </g>
    <g fill="rgb(255,204,0)" text-rendering="geometricPrecision" shape-rendering="geometricPrecision" transform="matrix(1,0,0,1,2,50)" stroke="rgb(255,204,0)">
      <circle r="15" clip-path="url(#clipPath2)" cx="88" cy="40" stroke="none"/>
    </g>
    <g text-rendering="geometricPrecision" stroke-miterlimit="1.45" shape-rendering="geometricPrecision" font-family="sans-serif" transform="matrix(1,0,0,1,2,50)" stroke-linecap="butt">
      <text x="84.1826" xml:space="preserve" y="44.1543" clip-path="url(#clipPath2)" stroke="none">6</text>
      <circle fill="none" r="15" clip-path="url(#clipPath2)" cx="88" cy="40"/>
      <path fill="none" d="M38.6066 204.3169 L77.3934 165.5301" clip-path="url(#clipPath2)"/>
    </g>
    <g stroke-linecap="butt" transform="matrix(1,0,0,1,2,50)" fill="red" text-rendering="geometricPrecision" shape-rendering="geometricPrecision" stroke="red" stroke-width="3" stroke-miterlimit="1.45">
      <path fill="none" d="M270.2073 214.9235 L43 214.9235" clip-path="url(#clipPath2)"/>
      <path fill="none" d="M103 154.9235 L210.2073 154.9235" clip-path="url(#clipPath2)"/>
      <path fill="none" d="M235.8139 165.5301 L274.6007 204.3169" stroke-width="1" clip-path="url(#clipPath2)" stroke="black"/>
      <path fill="none" d="M28 199.9235 L28 -5" clip-path="url(#clipPath2)"/>
      <path fill="none" d="M43 -20 L270.2073 -20" stroke-width="1" clip-path="url(#clipPath2)" stroke="black"/>
      <path fill="none" d="M285.2073 -5 L285.2073 199.9235" clip-path="url(#clipPath2)"/>
      <path fill="none" d="M274.6007 -9.3934 L235.8139 29.3934" clip-path="url(#clipPath2)"/>
      <path fill="none" d="M225.2073 55 L225.2073 139.9235" clip-path="url(#clipPath2)"/>
      <path fill="none" d="M210.2073 40 L103 40" stroke-width="1" clip-path="url(#clipPath2)" stroke="black"/>
      <path fill="none" d="M88 55 L88 139.9235" clip-path="url(#clipPath2)"/>
      <path fill="none" d="M77.3934 29.3934 L38.6066 -9.3934" clip-path="url(#clipPath2)"/>
    </g>
  </g>
</svg>
