<?xml version="1.0" encoding="UTF-8"?><svg xmlns="http://www.w3.org/2000/svg" xmlns:xlink="http://www.w3.org/1999/xlink" fill-opacity="1" color-rendering="auto" color-interpolation="auto" text-rendering="auto" stroke="black" stroke-linecap="square" width="268" stroke-miterlimit="10" shape-rendering="auto" stroke-opacity="1" fill="black" stroke-dasharray="none" font-weight="normal" stroke-width="1" height="287" font-family="'Dialog'" font-style="normal" stroke-linejoin="miter" font-size="12px" stroke-dashoffset="0" image-rendering="auto">
  <!--Generated by ySVG 2.5-->
  <defs id="genericDefs"/>
  <g>
    <defs id="defs1">
      <clipPath clipPathUnits="userSpaceOnUse" id="clipPath1">
        <path d="M0 0 L268 0 L268 287 L0 287 L0 0 Z"/>
      </clipPath>
      <clipPath clipPathUnits="userSpaceOnUse" id="clipPath2">
        <path d="M203 -61 L471 -61 L471 226 L203 226 L203 -61 Z"/>
      </clipPath>
    </defs>
    <g fill="rgb(255,204,0)" text-rendering="geometricPrecision" shape-rendering="geometricPrecision" transform="matrix(1,0,0,1,-203,61)" stroke="rgb(255,204,0)">
      <circle r="15" clip-path="url(#clipPath2)" cx="233.6667" cy="-30.6667" stroke="none"/>
    </g>
    <g text-rendering="geometricPrecision" stroke-miterlimit="1.45" shape-rendering="geometricPrecision" font-family="sans-serif" transform="matrix(1,0,0,1,-203,61)" stroke-linecap="butt">
      <text x="229.8493" xml:space="preserve" y="-26.5124" clip-path="url(#clipPath2)" stroke="none">1</text>
      <circle fill="none" r="15" clip-path="url(#clipPath2)" cx="233.6667" cy="-30.6667"/>
    </g>
    <g fill="rgb(255,204,0)" text-rendering="geometricPrecision" shape-rendering="geometricPrecision" transform="matrix(1,0,0,1,-203,61)" stroke="rgb(255,204,0)">
      <circle r="15" clip-path="url(#clipPath2)" cx="233.6667" cy="82.3333" stroke="none"/>
    </g>
    <g text-rendering="geometricPrecision" stroke-miterlimit="1.45" shape-rendering="geometricPrecision" font-family="sans-serif" transform="matrix(1,0,0,1,-203,61)" stroke-linecap="butt">
      <text x="229.8493" xml:space="preserve" y="86.4876" clip-path="url(#clipPath2)" stroke="none">2</text>
      <circle fill="none" r="15" clip-path="url(#clipPath2)" cx="233.6667" cy="82.3333"/>
    </g>
    <g fill="rgb(255,204,0)" text-rendering="geometricPrecision" shape-rendering="geometricPrecision" transform="matrix(1,0,0,1,-203,61)" stroke="rgb(255,204,0)">
      <circle r="15" clip-path="url(#clipPath2)" cx="233.6667" cy="195.3333" stroke="none"/>
    </g>
    <g text-rendering="geometricPrecision" stroke-miterlimit="1.45" shape-rendering="geometricPrecision" font-family="sans-serif" transform="matrix(1,0,0,1,-203,61)" stroke-linecap="butt">
      <text x="229.8493" xml:space="preserve" y="199.4876" clip-path="url(#clipPath2)" stroke="none">3</text>
      <circle fill="none" r="15" clip-path="url(#clipPath2)" cx="233.6667" cy="195.3333"/>
    </g>
    <g fill="rgb(255,204,0)" text-rendering="geometricPrecision" shape-rendering="geometricPrecision" transform="matrix(1,0,0,1,-203,61)" stroke="rgb(255,204,0)">
      <circle r="15" clip-path="url(#clipPath2)" cx="440.6667" cy="-30.6667" stroke="none"/>
    </g>
    <g text-rendering="geometricPrecision" stroke-miterlimit="1.45" shape-rendering="geometricPrecision" font-family="sans-serif" transform="matrix(1,0,0,1,-203,61)" stroke-linecap="butt">
      <text x="436.8493" xml:space="preserve" y="-26.5124" clip-path="url(#clipPath2)" stroke="none">4</text>
      <circle fill="none" r="15" clip-path="url(#clipPath2)" cx="440.6667" cy="-30.6667"/>
    </g>
    <g fill="rgb(255,204,0)" text-rendering="geometricPrecision" shape-rendering="geometricPrecision" transform="matrix(1,0,0,1,-203,61)" stroke="rgb(255,204,0)">
      <circle r="15" clip-path="url(#clipPath2)" cx="440.6667" cy="82.3333" stroke="none"/>
    </g>
    <g text-rendering="geometricPrecision" stroke-miterlimit="1.45" shape-rendering="geometricPrecision" font-family="sans-serif" transform="matrix(1,0,0,1,-203,61)" stroke-linecap="butt">
      <text x="436.8493" xml:space="preserve" y="86.4876" clip-path="url(#clipPath2)" stroke="none">5</text>
      <circle fill="none" r="15" clip-path="url(#clipPath2)" cx="440.6667" cy="82.3333"/>
    </g>
    <g fill="rgb(255,204,0)" text-rendering="geometricPrecision" shape-rendering="geometricPrecision" transform="matrix(1,0,0,1,-203,61)" stroke="rgb(255,204,0)">
      <circle r="15" clip-path="url(#clipPath2)" cx="440.6667" cy="195.3333" stroke="none"/>
    </g>
    <g text-rendering="geometricPrecision" stroke-miterlimit="1.45" shape-rendering="geometricPrecision" font-family="sans-serif" transform="matrix(1,0,0,1,-203,61)" stroke-linecap="butt">
      <text x="436.8493" xml:space="preserve" y="199.4876" clip-path="url(#clipPath2)" stroke="none">7</text>
      <circle fill="none" r="15" clip-path="url(#clipPath2)" cx="440.6667" cy="195.3333"/>
      <path fill="none" d="M243.7981 184.272 L430.5352 -19.6053" clip-path="url(#clipPath2)"/>
      <path fill="none" d="M248.6667 -30.6667 L425.6667 -30.6667" clip-path="url(#clipPath2)"/>
      <path fill="none" d="M246.8327 75.1461 L427.5007 -23.4794" clip-path="url(#clipPath2)"/>
      <path fill="none" d="M246.8327 188.1461 L427.5007 89.5206" clip-path="url(#clipPath2)"/>
      <path fill="none" d="M246.8327 -23.4794 L427.5007 75.1461" clip-path="url(#clipPath2)"/>
      <path fill="none" d="M248.6667 82.3333 L425.6667 82.3333" clip-path="url(#clipPath2)"/>
      <path fill="none" d="M248.6667 195.3333 L425.6667 195.3333" clip-path="url(#clipPath2)"/>
      <path fill="none" d="M243.7981 -19.6053 L430.5352 184.272" clip-path="url(#clipPath2)"/>
      <path fill="none" d="M246.8327 89.5206 L427.5007 188.1461" clip-path="url(#clipPath2)"/>
    </g>
  </g>
</svg>
