<?xml version="1.0" encoding="UTF-8"?><svg xmlns="http://www.w3.org/2000/svg" xmlns:xlink="http://www.w3.org/1999/xlink" fill-opacity="1" color-rendering="auto" color-interpolation="auto" text-rendering="auto" stroke="black" stroke-linecap="square" width="518" stroke-miterlimit="10" shape-rendering="auto" stroke-opacity="1" fill="black" stroke-dasharray="none" font-weight="normal" stroke-width="1" height="448" font-family="'Dialog'" font-style="normal" stroke-linejoin="miter" font-size="12px" stroke-dashoffset="0" image-rendering="auto">
  <!--Generated by ySVG 2.5-->
  <defs id="genericDefs"/>
  <g>
    <defs id="defs1">
      <clipPath clipPathUnits="userSpaceOnUse" id="clipPath1">
        <path d="M0 0 L518 0 L518 448 L0 448 L0 0 Z"/>
      </clipPath>
      <clipPath clipPathUnits="userSpaceOnUse" id="clipPath2">
        <path d="M47 22 L565 22 L565 470 L47 470 L47 22 Z"/>
      </clipPath>
    </defs>
    <g fill="rgb(255,204,0)" text-rendering="geometricPrecision" shape-rendering="geometricPrecision" transform="matrix(1,0,0,1,-47,-22)" stroke="rgb(255,204,0)">
      <circle r="15" clip-path="url(#clipPath2)" cx="77" cy="87" stroke="none"/>
    </g>
    <g text-rendering="geometricPrecision" stroke-miterlimit="1.45" shape-rendering="geometricPrecision" font-family="sans-serif" transform="matrix(1,0,0,1,-47,-22)" stroke-linecap="butt">
      <text x="73.1826" xml:space="preserve" y="91.1543" clip-path="url(#clipPath2)" stroke="none">1</text>
      <circle fill="none" r="15" clip-path="url(#clipPath2)" cx="77" cy="87"/>
    </g>
    <g fill="rgb(255,204,0)" text-rendering="geometricPrecision" shape-rendering="geometricPrecision" transform="matrix(1,0,0,1,-47,-22)" stroke="rgb(255,204,0)">
      <circle r="15" clip-path="url(#clipPath2)" cx="257" cy="84" stroke="none"/>
    </g>
    <g text-rendering="geometricPrecision" stroke-miterlimit="1.45" shape-rendering="geometricPrecision" font-family="sans-serif" transform="matrix(1,0,0,1,-47,-22)" stroke-linecap="butt">
      <text x="253.1826" xml:space="preserve" y="88.1543" clip-path="url(#clipPath2)" stroke="none">2</text>
      <circle fill="none" r="15" clip-path="url(#clipPath2)" cx="257" cy="84"/>
    </g>
    <g fill="rgb(255,204,0)" text-rendering="geometricPrecision" shape-rendering="geometricPrecision" transform="matrix(1,0,0,1,-47,-22)" stroke="rgb(255,204,0)">
      <circle r="15" clip-path="url(#clipPath2)" cx="465" cy="81" stroke="none"/>
    </g>
    <g text-rendering="geometricPrecision" stroke-miterlimit="1.45" shape-rendering="geometricPrecision" font-family="sans-serif" transform="matrix(1,0,0,1,-47,-22)" stroke-linecap="butt">
      <text x="461.1826" xml:space="preserve" y="85.1543" clip-path="url(#clipPath2)" stroke="none">3</text>
      <circle fill="none" r="15" clip-path="url(#clipPath2)" cx="465" cy="81"/>
    </g>
    <g fill="rgb(255,204,0)" text-rendering="geometricPrecision" shape-rendering="geometricPrecision" transform="matrix(1,0,0,1,-47,-22)" stroke="rgb(255,204,0)">
      <circle r="15" clip-path="url(#clipPath2)" cx="250" cy="162" stroke="none"/>
    </g>
    <g text-rendering="geometricPrecision" stroke-miterlimit="1.45" shape-rendering="geometricPrecision" font-family="sans-serif" transform="matrix(1,0,0,1,-47,-22)" stroke-linecap="butt">
      <text x="246.1826" xml:space="preserve" y="166.1543" clip-path="url(#clipPath2)" stroke="none">4</text>
      <circle fill="none" r="15" clip-path="url(#clipPath2)" cx="250" cy="162"/>
    </g>
    <g fill="rgb(255,204,0)" text-rendering="geometricPrecision" shape-rendering="geometricPrecision" transform="matrix(1,0,0,1,-47,-22)" stroke="rgb(255,204,0)">
      <circle r="15" clip-path="url(#clipPath2)" cx="109" cy="309" stroke="none"/>
    </g>
    <g text-rendering="geometricPrecision" stroke-miterlimit="1.45" shape-rendering="geometricPrecision" font-family="sans-serif" transform="matrix(1,0,0,1,-47,-22)" stroke-linecap="butt">
      <text x="105.1826" xml:space="preserve" y="313.1543" clip-path="url(#clipPath2)" stroke="none">5</text>
      <circle fill="none" r="15" clip-path="url(#clipPath2)" cx="109" cy="309"/>
    </g>
    <g fill="rgb(255,204,0)" text-rendering="geometricPrecision" shape-rendering="geometricPrecision" transform="matrix(1,0,0,1,-47,-22)" stroke="rgb(255,204,0)">
      <circle r="15" clip-path="url(#clipPath2)" cx="255" cy="310" stroke="none"/>
    </g>
    <g text-rendering="geometricPrecision" stroke-miterlimit="1.45" shape-rendering="geometricPrecision" font-family="sans-serif" transform="matrix(1,0,0,1,-47,-22)" stroke-linecap="butt">
      <text x="251.1826" xml:space="preserve" y="314.1543" clip-path="url(#clipPath2)" stroke="none">6</text>
      <circle fill="none" r="15" clip-path="url(#clipPath2)" cx="255" cy="310"/>
    </g>
    <g fill="rgb(255,204,0)" text-rendering="geometricPrecision" shape-rendering="geometricPrecision" transform="matrix(1,0,0,1,-47,-22)" stroke="rgb(255,204,0)">
      <circle r="15" clip-path="url(#clipPath2)" cx="257" cy="414" stroke="none"/>
    </g>
    <g text-rendering="geometricPrecision" stroke-miterlimit="1.45" shape-rendering="geometricPrecision" font-family="sans-serif" transform="matrix(1,0,0,1,-47,-22)" stroke-linecap="butt">
      <text x="253.1826" xml:space="preserve" y="418.1543" clip-path="url(#clipPath2)" stroke="none">7</text>
      <circle fill="none" r="15" clip-path="url(#clipPath2)" cx="257" cy="414"/>
    </g>
    <g fill="rgb(255,204,0)" text-rendering="geometricPrecision" shape-rendering="geometricPrecision" transform="matrix(1,0,0,1,-47,-22)" stroke="rgb(255,204,0)">
      <circle r="15" clip-path="url(#clipPath2)" cx="490" cy="314" stroke="none"/>
    </g>
    <g text-rendering="geometricPrecision" stroke-miterlimit="1.45" shape-rendering="geometricPrecision" font-family="sans-serif" transform="matrix(1,0,0,1,-47,-22)" stroke-linecap="butt">
      <text x="486.1826" xml:space="preserve" y="318.1543" clip-path="url(#clipPath2)" stroke="none">8</text>
      <circle fill="none" r="15" clip-path="url(#clipPath2)" cx="490" cy="314"/>
    </g>
    <g fill="rgb(255,204,0)" text-rendering="geometricPrecision" shape-rendering="geometricPrecision" transform="matrix(1,0,0,1,-47,-22)" stroke="rgb(255,204,0)">
      <circle r="15" clip-path="url(#clipPath2)" cx="408" cy="246" stroke="none"/>
    </g>
    <g text-rendering="geometricPrecision" stroke-miterlimit="1.45" shape-rendering="geometricPrecision" font-family="sans-serif" transform="matrix(1,0,0,1,-47,-22)" stroke-linecap="butt">
      <text x="404.1826" xml:space="preserve" y="250.1543" clip-path="url(#clipPath2)" stroke="none">9</text>
      <circle fill="none" r="15" clip-path="url(#clipPath2)" cx="408" cy="246"/>
      <path fill="none" d="M91.9979 86.75 L242.0021 84.25" clip-path="url(#clipPath2)"/>
      <path fill="none" d="M271.9984 83.7837 L450.0016 81.2163" clip-path="url(#clipPath2)"/>
      <path fill="none" d="M450.9631 86.2883 L264.0369 156.7117" clip-path="url(#clipPath2)"/>
      <path fill="none" d="M251.3408 147.06 L255.6592 98.94" clip-path="url(#clipPath2)"/>
      <path fill="none" d="M119.3834 298.1748 L239.6166 172.8252" clip-path="url(#clipPath2)"/>
      <path fill="none" d="M106.86 294.1534 L79.14 101.8466" clip-path="url(#clipPath2)"/>
      <path fill="none" d="M123.9996 309.1027 L240.0004 309.8973" clip-path="url(#clipPath2)"/>
      <path fill="none" d="M250.5065 176.9914 L254.4935 295.0085" clip-path="url(#clipPath2)"/>
      <path fill="none" d="M265.1381 298.9447 L454.8619 92.0553" clip-path="url(#clipPath2)"/>
      <path fill="none" d="M256.7116 399.0028 L255.2884 324.9972" clip-path="url(#clipPath2)"/>
      <path fill="none" d="M269.9978 310.2553 L475.0022 313.7447" clip-path="url(#clipPath2)"/>
      <path fill="none" d="M466.6003 95.9144 L488.3997 299.0856" clip-path="url(#clipPath2)"/>
      <path fill="none" d="M117.5224 321.3438 L132.3723 342.8522 L155.8034 372.2324 L179.2931 397.1407 L202.8415 417.577 L226.4486 433.5414 L238.2742 439.8465 L250.1144 445.0338 L261.9693 449.103 L273.8389 452.0542 L285.7231 453.8874 L297.622 454.6027 L309.5356 454.1999 L321.4639 452.6792 L333.4068 450.0405 L345.3644 446.2838 L357.3367 441.409 L369.3236 435.4164 L393.3415 420.077 L417.4181 400.2657 L441.5534 375.9824 L465.7473 347.2272 L481.1566 326.1158" clip-path="url(#clipPath2)"/>
      <path fill="none" d="M91.4631 83.0227 L187 56.75 L210.2359 51.0617 L234.9438 46.3719 L261.1234 42.6805 L288.775 39.9875 L317.8984 38.293 L348.4937 37.5969 L380.5609 37.8992 L414.1 39.2 L444.5667 40.8 L461.0075 42.1395 L476.055 44.3578 L489.7091 47.4551 L501.9698 51.4313 L512.8372 56.2863 L522.3112 62.0203 L530.3919 68.6332 L537.0792 76.125 L542.3731 84.4957 L546.2737 93.7453 L548.7809 103.8738 L549.8948 114.8813 L549.6153 126.7676 L547.9424 139.5328 L544.8763 153.177 L540.4167 167.7 L494.8871 299.8185" clip-path="url(#clipPath2)"/>
      <path fill="none" d="M476.2159 319.9159 L270.7841 408.0841" clip-path="url(#clipPath2)"/>
      <path fill="none" d="M267.2275 94.9726 L397.7725 235.0274" clip-path="url(#clipPath2)"/>
      <path fill="none" d="M478.4536 304.425 L419.5464 255.575" clip-path="url(#clipPath2)"/>
      <path fill="none" d="M397.9729 257.156 L267.0271 402.844" clip-path="url(#clipPath2)"/>
    </g>
  </g>
</svg>
