<?xml version="1.0" encoding="UTF-8"?><svg xmlns="http://www.w3.org/2000/svg" xmlns:xlink="http://www.w3.org/1999/xlink" fill-opacity="1" color-rendering="auto" color-interpolation="auto" text-rendering="auto" stroke="black" stroke-linecap="square" width="404" stroke-miterlimit="10" shape-rendering="auto" stroke-opacity="1" fill="black" stroke-dasharray="none" font-weight="normal" stroke-width="1" height="325" font-family="'Dialog'" font-style="normal" stroke-linejoin="miter" font-size="12px" stroke-dashoffset="0" image-rendering="auto">
  <!--Generated by ySVG 2.5-->
  <defs id="genericDefs"/>
  <g>
    <defs id="defs1">
      <clipPath clipPathUnits="userSpaceOnUse" id="clipPath1">
        <path d="M0 0 L404 0 L404 325 L0 325 L0 0 Z"/>
      </clipPath>
      <clipPath clipPathUnits="userSpaceOnUse" id="clipPath2">
        <path d="M82 -111 L486 -111 L486 214 L82 214 L82 -111 Z"/>
      </clipPath>
    </defs>
    <g fill="rgb(255,204,0)" text-rendering="geometricPrecision" shape-rendering="geometricPrecision" transform="matrix(1,0,0,1,-82,111)" stroke="rgb(255,204,0)">
      <circle r="15" clip-path="url(#clipPath2)" cx="215" cy="184" stroke="none"/>
    </g>
    <g text-rendering="geometricPrecision" stroke-miterlimit="1.45" shape-rendering="geometricPrecision" transform="matrix(1,0,0,1,-82,111)" stroke-linecap="butt">
      <circle fill="none" r="15" clip-path="url(#clipPath2)" cx="215" cy="184"/>
    </g>
    <g fill="rgb(255,204,0)" text-rendering="geometricPrecision" shape-rendering="geometricPrecision" transform="matrix(1,0,0,1,-82,111)" stroke="rgb(255,204,0)">
      <circle r="15" clip-path="url(#clipPath2)" cx="408" cy="175" stroke="none"/>
    </g>
    <g text-rendering="geometricPrecision" stroke-miterlimit="1.45" shape-rendering="geometricPrecision" transform="matrix(1,0,0,1,-82,111)" stroke-linecap="butt">
      <circle fill="none" r="15" clip-path="url(#clipPath2)" cx="408" cy="175"/>
    </g>
    <g fill="rgb(255,204,0)" text-rendering="geometricPrecision" shape-rendering="geometricPrecision" transform="matrix(1,0,0,1,-82,111)" stroke="rgb(255,204,0)">
      <circle r="15" clip-path="url(#clipPath2)" cx="456" cy="47" stroke="none"/>
    </g>
    <g text-rendering="geometricPrecision" stroke-miterlimit="1.45" shape-rendering="geometricPrecision" transform="matrix(1,0,0,1,-82,111)" stroke-linecap="butt">
      <circle fill="none" r="15" clip-path="url(#clipPath2)" cx="456" cy="47"/>
    </g>
    <g fill="rgb(255,204,0)" text-rendering="geometricPrecision" shape-rendering="geometricPrecision" transform="matrix(1,0,0,1,-82,111)" stroke="rgb(255,204,0)">
      <circle r="15" clip-path="url(#clipPath2)" cx="434" cy="-24" stroke="none"/>
    </g>
    <g text-rendering="geometricPrecision" stroke-miterlimit="1.45" shape-rendering="geometricPrecision" transform="matrix(1,0,0,1,-82,111)" stroke-linecap="butt">
      <circle fill="none" r="15" clip-path="url(#clipPath2)" cx="434" cy="-24"/>
    </g>
    <g fill="rgb(255,204,0)" text-rendering="geometricPrecision" shape-rendering="geometricPrecision" transform="matrix(1,0,0,1,-82,111)" stroke="rgb(255,204,0)">
      <circle r="15" clip-path="url(#clipPath2)" cx="300" cy="-81" stroke="none"/>
    </g>
    <g text-rendering="geometricPrecision" stroke-miterlimit="1.45" shape-rendering="geometricPrecision" transform="matrix(1,0,0,1,-82,111)" stroke-linecap="butt">
      <circle fill="none" r="15" clip-path="url(#clipPath2)" cx="300" cy="-81"/>
    </g>
    <g fill="rgb(255,204,0)" text-rendering="geometricPrecision" shape-rendering="geometricPrecision" transform="matrix(1,0,0,1,-82,111)" stroke="rgb(255,204,0)">
      <circle r="15" clip-path="url(#clipPath2)" cx="191" cy="-48" stroke="none"/>
    </g>
    <g text-rendering="geometricPrecision" stroke-miterlimit="1.45" shape-rendering="geometricPrecision" transform="matrix(1,0,0,1,-82,111)" stroke-linecap="butt">
      <circle fill="none" r="15" clip-path="url(#clipPath2)" cx="191" cy="-48"/>
    </g>
    <g fill="rgb(255,204,0)" text-rendering="geometricPrecision" shape-rendering="geometricPrecision" transform="matrix(1,0,0,1,-82,111)" stroke="rgb(255,204,0)">
      <circle r="15" clip-path="url(#clipPath2)" cx="112" cy="86" stroke="none"/>
    </g>
    <g text-rendering="geometricPrecision" stroke-miterlimit="1.45" shape-rendering="geometricPrecision" transform="matrix(1,0,0,1,-82,111)" stroke-linecap="butt">
      <circle fill="none" r="15" clip-path="url(#clipPath2)" cx="112" cy="86"/>
      <path fill="none" d="M229.9837 183.3013 L393.0163 175.6987" clip-path="url(#clipPath2)"/>
      <path fill="none" d="M228.0403 176.5871 L442.9597 54.4129" clip-path="url(#clipPath2)"/>
      <path fill="none" d="M450.7332 61.0449 L413.2668 160.9551" clip-path="url(#clipPath2)"/>
      <path fill="none" d="M438.4396 -9.6721 L451.5604 32.6721" clip-path="url(#clipPath2)"/>
      <path fill="none" d="M420.1969 -29.8715 L313.8031 -75.1285" clip-path="url(#clipPath2)"/>
      <path fill="none" d="M205.3565 -52.3465 L285.6435 -76.6535" clip-path="url(#clipPath2)"/>
      <path fill="none" d="M205.9274 -46.5257 L419.0726 -25.4743" clip-path="url(#clipPath2)"/>
      <path fill="none" d="M183.3821 -35.0784 L119.6179 73.0784" clip-path="url(#clipPath2)"/>
      <path fill="none" d="M122.8671 96.3396 L204.1329 173.6604" clip-path="url(#clipPath2)"/>
      <path fill="none" d="M126.9045 84.3102 L441.0955 48.6898" clip-path="url(#clipPath2)"/>
    </g>
  </g>
</svg>
