<?xml version="1.0" encoding="UTF-8"?><svg xmlns="http://www.w3.org/2000/svg" xmlns:xlink="http://www.w3.org/1999/xlink" fill-opacity="1" color-rendering="auto" color-interpolation="auto" text-rendering="auto" stroke="black" stroke-linecap="square" width="404" stroke-miterlimit="10" shape-rendering="auto" stroke-opacity="1" fill="black" stroke-dasharray="none" font-weight="normal" stroke-width="1" height="368" font-family="'Dialog'" font-style="normal" stroke-linejoin="miter" font-size="12px" stroke-dashoffset="0" image-rendering="auto">
  <!--Generated by ySVG 2.5-->
  <defs id="genericDefs"/>
  <g>
    <defs id="defs1">
      <clipPath clipPathUnits="userSpaceOnUse" id="clipPath1">
        <path d="M0 0 L404 0 L404 368 L0 368 L0 0 Z"/>
      </clipPath>
      <clipPath clipPathUnits="userSpaceOnUse" id="clipPath2">
        <path d="M82 -154 L486 -154 L486 214 L82 214 L82 -154 Z"/>
      </clipPath>
    </defs>
    <g fill="rgb(255,204,0)" text-rendering="geometricPrecision" shape-rendering="geometricPrecision" transform="matrix(1,0,0,1,-82,154)" stroke="rgb(255,204,0)">
      <circle r="15" clip-path="url(#clipPath2)" cx="268" cy="40" stroke="none"/>
    </g>
    <g text-rendering="geometricPrecision" stroke-miterlimit="1.45" shape-rendering="geometricPrecision" transform="matrix(1,0,0,1,-82,154)" stroke-linecap="butt">
      <circle fill="none" r="15" clip-path="url(#clipPath2)" cx="268" cy="40"/>
    </g>
    <g fill="rgb(255,204,0)" text-rendering="geometricPrecision" shape-rendering="geometricPrecision" transform="matrix(1,0,0,1,-82,154)" stroke="rgb(255,204,0)">
      <circle r="15" clip-path="url(#clipPath2)" cx="215" cy="184" stroke="none"/>
    </g>
    <g text-rendering="geometricPrecision" stroke-miterlimit="1.45" shape-rendering="geometricPrecision" transform="matrix(1,0,0,1,-82,154)" stroke-linecap="butt">
      <circle fill="none" r="15" clip-path="url(#clipPath2)" cx="215" cy="184"/>
    </g>
    <g fill="rgb(255,204,0)" text-rendering="geometricPrecision" shape-rendering="geometricPrecision" transform="matrix(1,0,0,1,-82,154)" stroke="rgb(255,204,0)">
      <circle r="15" clip-path="url(#clipPath2)" cx="328" cy="107" stroke="none"/>
    </g>
    <g text-rendering="geometricPrecision" stroke-miterlimit="1.45" shape-rendering="geometricPrecision" transform="matrix(1,0,0,1,-82,154)" stroke-linecap="butt">
      <circle fill="none" r="15" clip-path="url(#clipPath2)" cx="328" cy="107"/>
    </g>
    <g fill="rgb(255,204,0)" text-rendering="geometricPrecision" shape-rendering="geometricPrecision" transform="matrix(1,0,0,1,-82,154)" stroke="rgb(255,204,0)">
      <circle r="15" clip-path="url(#clipPath2)" cx="408" cy="175" stroke="none"/>
    </g>
    <g text-rendering="geometricPrecision" stroke-miterlimit="1.45" shape-rendering="geometricPrecision" transform="matrix(1,0,0,1,-82,154)" stroke-linecap="butt">
      <circle fill="none" r="15" clip-path="url(#clipPath2)" cx="408" cy="175"/>
    </g>
    <g fill="rgb(255,204,0)" text-rendering="geometricPrecision" shape-rendering="geometricPrecision" transform="matrix(1,0,0,1,-82,154)" stroke="rgb(255,204,0)">
      <circle r="15" clip-path="url(#clipPath2)" cx="456" cy="47" stroke="none"/>
    </g>
    <g text-rendering="geometricPrecision" stroke-miterlimit="1.45" shape-rendering="geometricPrecision" transform="matrix(1,0,0,1,-82,154)" stroke-linecap="butt">
      <circle fill="none" r="15" clip-path="url(#clipPath2)" cx="456" cy="47"/>
    </g>
    <g fill="rgb(255,204,0)" text-rendering="geometricPrecision" shape-rendering="geometricPrecision" transform="matrix(1,0,0,1,-82,154)" stroke="rgb(255,204,0)">
      <circle r="15" clip-path="url(#clipPath2)" cx="434" cy="-24" stroke="none"/>
    </g>
    <g text-rendering="geometricPrecision" stroke-miterlimit="1.45" shape-rendering="geometricPrecision" transform="matrix(1,0,0,1,-82,154)" stroke-linecap="butt">
      <circle fill="none" r="15" clip-path="url(#clipPath2)" cx="434" cy="-24"/>
    </g>
    <g fill="rgb(255,204,0)" text-rendering="geometricPrecision" shape-rendering="geometricPrecision" transform="matrix(1,0,0,1,-82,154)" stroke="rgb(255,204,0)">
      <circle r="15" clip-path="url(#clipPath2)" cx="300" cy="-81" stroke="none"/>
    </g>
    <g text-rendering="geometricPrecision" stroke-miterlimit="1.45" shape-rendering="geometricPrecision" transform="matrix(1,0,0,1,-82,154)" stroke-linecap="butt">
      <circle fill="none" r="15" clip-path="url(#clipPath2)" cx="300" cy="-81"/>
    </g>
    <g fill="rgb(255,204,0)" text-rendering="geometricPrecision" shape-rendering="geometricPrecision" transform="matrix(1,0,0,1,-82,154)" stroke="rgb(255,204,0)">
      <circle r="15" clip-path="url(#clipPath2)" cx="191" cy="-48" stroke="none"/>
    </g>
    <g text-rendering="geometricPrecision" stroke-miterlimit="1.45" shape-rendering="geometricPrecision" transform="matrix(1,0,0,1,-82,154)" stroke-linecap="butt">
      <circle fill="none" r="15" clip-path="url(#clipPath2)" cx="191" cy="-48"/>
    </g>
    <g fill="rgb(255,204,0)" text-rendering="geometricPrecision" shape-rendering="geometricPrecision" transform="matrix(1,0,0,1,-82,154)" stroke="rgb(255,204,0)">
      <circle r="15" clip-path="url(#clipPath2)" cx="120" cy="-124" stroke="none"/>
    </g>
    <g text-rendering="geometricPrecision" stroke-miterlimit="1.45" shape-rendering="geometricPrecision" transform="matrix(1,0,0,1,-82,154)" stroke-linecap="butt">
      <circle fill="none" r="15" clip-path="url(#clipPath2)" cx="120" cy="-124"/>
    </g>
    <g fill="rgb(255,204,0)" text-rendering="geometricPrecision" shape-rendering="geometricPrecision" transform="matrix(1,0,0,1,-82,154)" stroke="rgb(255,204,0)">
      <circle r="15" clip-path="url(#clipPath2)" cx="131" cy="-13" stroke="none"/>
    </g>
    <g text-rendering="geometricPrecision" stroke-miterlimit="1.45" shape-rendering="geometricPrecision" transform="matrix(1,0,0,1,-82,154)" stroke-linecap="butt">
      <circle fill="none" r="15" clip-path="url(#clipPath2)" cx="131" cy="-13"/>
    </g>
    <g fill="rgb(255,204,0)" text-rendering="geometricPrecision" shape-rendering="geometricPrecision" transform="matrix(1,0,0,1,-82,154)" stroke="rgb(255,204,0)">
      <circle r="15" clip-path="url(#clipPath2)" cx="112" cy="86" stroke="none"/>
    </g>
    <g text-rendering="geometricPrecision" stroke-miterlimit="1.45" shape-rendering="geometricPrecision" transform="matrix(1,0,0,1,-82,154)" stroke-linecap="butt">
      <circle fill="none" r="15" clip-path="url(#clipPath2)" cx="112" cy="86"/>
      <path fill="none" d="M262.8189 54.0768 L220.181 169.9232" clip-path="url(#clipPath2)"/>
      <path fill="none" d="M278.0068 51.1743 L317.9932 95.8257" clip-path="url(#clipPath2)"/>
      <path fill="none" d="M315.6043 115.4466 L227.3957 175.5533" clip-path="url(#clipPath2)"/>
      <path fill="none" d="M229.9837 183.3013 L393.0163 175.6987" clip-path="url(#clipPath2)"/>
      <path fill="none" d="M396.5709 165.2853 L339.4291 116.7147" clip-path="url(#clipPath2)"/>
      <path fill="none" d="M341.5819 100.6335 L442.4181 53.3665" clip-path="url(#clipPath2)"/>
      <path fill="none" d="M450.7332 61.0449 L413.2668 160.9551" clip-path="url(#clipPath2)"/>
      <path fill="none" d="M441.0104 46.4419 L282.9896 40.5581" clip-path="url(#clipPath2)"/>
      <path fill="none" d="M438.4396 -9.6721 L451.5604 32.6721" clip-path="url(#clipPath2)"/>
      <path fill="none" d="M420.1969 -29.8715 L313.8031 -75.1285" clip-path="url(#clipPath2)"/>
      <path fill="none" d="M213.4565 169.0796 L192.5435 -33.0796" clip-path="url(#clipPath2)"/>
      <path fill="none" d="M258.1224 28.7113 L200.8776 -36.7113" clip-path="url(#clipPath2)"/>
      <path fill="none" d="M205.3565 -52.3465 L285.6435 -76.6535" clip-path="url(#clipPath2)"/>
      <path fill="none" d="M205.9274 -46.5257 L419.0726 -25.4743" clip-path="url(#clipPath2)"/>
      <path fill="none" d="M180.7601 -58.961 L130.2399 -113.039" clip-path="url(#clipPath2)"/>
      <path fill="none" d="M178.0433 -40.4419 L143.9567 -20.5581" clip-path="url(#clipPath2)"/>
      <path fill="none" d="M253.6125 44.2425 L126.3875 81.7575" clip-path="url(#clipPath2)"/>
      <path fill="none" d="M183.3821 -35.0784 L119.6179 73.0784" clip-path="url(#clipPath2)"/>
      <path fill="none" d="M122.8671 96.3396 L204.1329 173.6604" clip-path="url(#clipPath2)"/>
    </g>
  </g>
</svg>
