<?xml version="1.0" encoding="UTF-8"?><svg xmlns="http://www.w3.org/2000/svg" xmlns:xlink="http://www.w3.org/1999/xlink" fill-opacity="1" color-rendering="auto" color-interpolation="auto" text-rendering="auto" stroke="black" stroke-linecap="square" width="294" stroke-miterlimit="10" shape-rendering="auto" stroke-opacity="1" fill="black" stroke-dasharray="none" font-weight="normal" stroke-width="1" height="213" font-family="'Dialog'" font-style="normal" stroke-linejoin="miter" font-size="12px" stroke-dashoffset="0" image-rendering="auto">
  <!--Generated by ySVG 2.5-->
  <defs id="genericDefs"/>
  <g>
    <defs id="defs1">
      <clipPath clipPathUnits="userSpaceOnUse" id="clipPath1">
        <path d="M0 0 L294 0 L294 213 L0 213 L0 0 Z"/>
      </clipPath>
      <clipPath clipPathUnits="userSpaceOnUse" id="clipPath2">
        <path d="M-15 31 L279 31 L279 244 L-15 244 L-15 31 Z"/>
      </clipPath>
    </defs>
    <g fill="rgb(255,204,0)" text-rendering="geometricPrecision" shape-rendering="geometricPrecision" transform="matrix(1,0,0,1,15,-31)" stroke="rgb(255,204,0)">
      <circle r="15" clip-path="url(#clipPath2)" cx="15" cy="213.9027" stroke="none"/>
    </g>
    <g text-rendering="geometricPrecision" stroke-miterlimit="1.45" shape-rendering="geometricPrecision" font-family="sans-serif" transform="matrix(1,0,0,1,15,-31)" stroke-linecap="butt">
      <text x="11.4492" xml:space="preserve" y="218.057" clip-path="url(#clipPath2)" stroke="none">y</text>
      <circle fill="none" r="15" clip-path="url(#clipPath2)" cx="15" cy="213.9027"/>
    </g>
    <g fill="rgb(255,204,0)" text-rendering="geometricPrecision" shape-rendering="geometricPrecision" transform="matrix(1,0,0,1,15,-31)" stroke="rgb(255,204,0)">
      <circle r="15" clip-path="url(#clipPath2)" cx="248.8242" cy="137.9286" stroke="none"/>
    </g>
    <g text-rendering="geometricPrecision" stroke-miterlimit="1.45" shape-rendering="geometricPrecision" font-family="sans-serif" transform="matrix(1,0,0,1,15,-31)" stroke-linecap="butt">
      <text x="245.2734" xml:space="preserve" y="142.0829" clip-path="url(#clipPath2)" stroke="none">x</text>
      <circle fill="none" r="15" clip-path="url(#clipPath2)" cx="248.8242" cy="137.9286"/>
    </g>
    <g fill="rgb(255,204,0)" text-rendering="geometricPrecision" shape-rendering="geometricPrecision" transform="matrix(1,0,0,1,15,-31)" stroke="rgb(255,204,0)">
      <circle r="15" clip-path="url(#clipPath2)" cx="15" cy="61.9546" stroke="none"/>
    </g>
    <g text-rendering="geometricPrecision" stroke-miterlimit="1.45" shape-rendering="geometricPrecision" font-family="sans-serif" transform="matrix(1,0,0,1,15,-31)" stroke-linecap="butt">
      <text x="10.0928" xml:space="preserve" y="66.1089" clip-path="url(#clipPath2)" stroke="none">w</text>
      <circle fill="none" r="15" clip-path="url(#clipPath2)" cx="15" cy="61.9546"/>
    </g>
    <g fill="rgb(255,204,0)" text-rendering="geometricPrecision" shape-rendering="geometricPrecision" transform="matrix(1,0,0,1,15,-31)" stroke="rgb(255,204,0)">
      <circle r="15" clip-path="url(#clipPath2)" cx="93.5113" cy="108" stroke="none"/>
    </g>
    <g text-rendering="geometricPrecision" stroke-miterlimit="1.45" shape-rendering="geometricPrecision" font-family="sans-serif" transform="matrix(1,0,0,1,15,-31)" stroke-linecap="butt">
      <text x="89.9605" xml:space="preserve" y="112.1543" clip-path="url(#clipPath2)" stroke="none">v</text>
      <circle fill="none" r="15" clip-path="url(#clipPath2)" cx="93.5113" cy="108"/>
    </g>
    <g fill="rgb(255,204,0)" text-rendering="geometricPrecision" shape-rendering="geometricPrecision" transform="matrix(1,0,0,1,15,-31)" stroke="rgb(255,204,0)">
      <circle r="15" clip-path="url(#clipPath2)" cx="103.5113" cy="161.8573" stroke="none"/>
    </g>
    <g text-rendering="geometricPrecision" stroke-miterlimit="1.45" shape-rendering="geometricPrecision" font-family="sans-serif" transform="matrix(1,0,0,1,15,-31)" stroke-linecap="butt">
      <text x="99.7086" xml:space="preserve" y="166.0116" clip-path="url(#clipPath2)" stroke="none">u</text>
      <circle fill="none" r="15" clip-path="url(#clipPath2)" cx="103.5113" cy="161.8573"/>
      <path fill="none" d="M29.2658 209.2675 L234.5583 142.5639" clip-path="url(#clipPath2)"/>
      <path fill="none" d="M15 198.9027 L15 76.9546" clip-path="url(#clipPath2)"/>
      <path fill="none" d="M29.2658 66.5898 L234.5583 133.2934" clip-path="url(#clipPath2)"/>
      <path fill="none" d="M27.9389 69.543 L80.5724 100.4116" clip-path="url(#clipPath2)"/>
      <path fill="none" d="M108.2403 110.8383 L234.0952 135.0904" clip-path="url(#clipPath2)"/>
      <path fill="none" d="M100.773 147.1094 L96.2496 122.7479" clip-path="url(#clipPath2)"/>
      <path fill="none" d="M93.5641 150.6299 L24.9472 73.1819" clip-path="url(#clipPath2)"/>
      <path fill="none" d="M90.581 169.4604 L27.9303 206.2996" clip-path="url(#clipPath2)"/>
      <path fill="none" d="M118.312 159.4201 L234.0235 140.3659" clip-path="url(#clipPath2)"/>
    </g>
  </g>
</svg>
