<?xml version="1.0" encoding="UTF-8"?><svg xmlns="http://www.w3.org/2000/svg" xmlns:xlink="http://www.w3.org/1999/xlink" fill-opacity="1" color-rendering="auto" color-interpolation="auto" text-rendering="auto" stroke="black" stroke-linecap="square" width="229" stroke-miterlimit="10" shape-rendering="auto" stroke-opacity="1" fill="black" stroke-dasharray="none" font-weight="normal" stroke-width="1" height="271" font-family="'Dialog'" font-style="normal" stroke-linejoin="miter" font-size="12px" stroke-dashoffset="0" image-rendering="auto">
  <!--Generated by ySVG 2.5-->
  <defs id="genericDefs"/>
  <g>
    <defs id="defs1">
      <clipPath clipPathUnits="userSpaceOnUse" id="clipPath1">
        <path d="M0 0 L229 0 L229 271 L0 271 L0 0 Z"/>
      </clipPath>
      <clipPath clipPathUnits="userSpaceOnUse" id="clipPath2">
        <path d="M-90 -90 L139 -90 L139 181 L-90 181 L-90 -90 Z"/>
      </clipPath>
    </defs>
    <g fill="rgb(255,204,0)" text-rendering="geometricPrecision" shape-rendering="geometricPrecision" transform="matrix(1,0,0,1,90,90)" stroke="rgb(255,204,0)">
      <circle r="15" clip-path="url(#clipPath2)" cx="-60" cy="60" stroke="none"/>
    </g>
    <g text-rendering="geometricPrecision" stroke-miterlimit="1.45" shape-rendering="geometricPrecision" font-family="sans-serif" transform="matrix(1,0,0,1,90,90)" stroke-linecap="butt">
      <text x="-63.2988" xml:space="preserve" y="64.1543" clip-path="url(#clipPath2)" stroke="none">c</text>
      <circle fill="none" r="15" clip-path="url(#clipPath2)" cx="-60" cy="60"/>
    </g>
    <g fill="rgb(255,204,0)" text-rendering="geometricPrecision" shape-rendering="geometricPrecision" transform="matrix(1,0,0,1,90,90)" stroke="rgb(255,204,0)">
      <circle r="15" clip-path="url(#clipPath2)" cx="-60" cy="-60" stroke="none"/>
    </g>
    <g text-rendering="geometricPrecision" stroke-miterlimit="1.45" shape-rendering="geometricPrecision" font-family="sans-serif" transform="matrix(1,0,0,1,90,90)" stroke-linecap="butt">
      <text x="-63.8086" xml:space="preserve" y="-55.8457" clip-path="url(#clipPath2)" stroke="none">b</text>
      <circle fill="none" r="15" clip-path="url(#clipPath2)" cx="-60" cy="-60"/>
    </g>
    <g fill="rgb(255,204,0)" text-rendering="geometricPrecision" shape-rendering="geometricPrecision" transform="matrix(1,0,0,1,90,90)" stroke="rgb(255,204,0)">
      <circle r="15" clip-path="url(#clipPath2)" cx="109" cy="30" stroke="none"/>
    </g>
    <g text-rendering="geometricPrecision" stroke-miterlimit="1.45" shape-rendering="geometricPrecision" font-family="sans-serif" transform="matrix(1,0,0,1,90,90)" stroke-linecap="butt">
      <text x="105.1914" xml:space="preserve" y="34.1543" clip-path="url(#clipPath2)" stroke="none">d</text>
      <circle fill="none" r="15" clip-path="url(#clipPath2)" cx="109" cy="30"/>
    </g>
    <g fill="rgb(255,204,0)" text-rendering="geometricPrecision" shape-rendering="geometricPrecision" transform="matrix(1,0,0,1,90,90)" stroke="rgb(255,204,0)">
      <circle r="15" clip-path="url(#clipPath2)" cx="-2.3834" cy="150.7772" stroke="none"/>
    </g>
    <g text-rendering="geometricPrecision" stroke-miterlimit="1.45" shape-rendering="geometricPrecision" font-family="sans-serif" transform="matrix(1,0,0,1,90,90)" stroke-linecap="butt">
      <text x="-6.1862" xml:space="preserve" y="154.9315" clip-path="url(#clipPath2)" stroke="none">h</text>
      <circle fill="none" r="15" clip-path="url(#clipPath2)" cx="-2.3834" cy="150.7772"/>
      <path fill="none" d="M-60 45 L-60 -45" clip-path="url(#clipPath2)"/>
      <path fill="none" d="M-46.7604 -52.9493 L95.7604 22.9493" clip-path="url(#clipPath2)"/>
      <path fill="none" d="M-45.2309 57.3783 L94.2309 32.6217" clip-path="url(#clipPath2)"/>
      <path fill="none" d="M-51.9618 72.6644 L-10.4216 138.1128" clip-path="url(#clipPath2)"/>
    </g>
  </g>
</svg>
