<?xml version="1.0" encoding="UTF-8"?><svg xmlns="http://www.w3.org/2000/svg" xmlns:xlink="http://www.w3.org/1999/xlink" fill-opacity="1" color-rendering="auto" color-interpolation="auto" text-rendering="auto" stroke="black" stroke-linecap="square" width="887" stroke-miterlimit="10" shape-rendering="auto" stroke-opacity="1" fill="black" stroke-dasharray="none" font-weight="normal" stroke-width="1" height="496" font-family="'Dialog'" font-style="normal" stroke-linejoin="miter" font-size="12px" stroke-dashoffset="0" image-rendering="auto">
  <!--Generated by ySVG 2.5-->
  <defs id="genericDefs"/>
  <g>
    <defs id="defs1">
      <clipPath clipPathUnits="userSpaceOnUse" id="clipPath1">
        <path d="M0 0 L887 0 L887 496 L0 496 L0 0 Z"/>
      </clipPath>
      <clipPath clipPathUnits="userSpaceOnUse" id="clipPath2">
        <path d="M210 16 L1097 16 L1097 512 L210 512 L210 16 Z"/>
      </clipPath>
    </defs>
    <g fill="rgb(255,204,0)" text-rendering="geometricPrecision" shape-rendering="geometricPrecision" transform="matrix(1,0,0,1,-210,-16)" stroke="rgb(255,204,0)">
      <circle r="15" clip-path="url(#clipPath2)" cx="1010.4264" cy="163.9759" stroke="none"/>
    </g>
    <g text-rendering="geometricPrecision" stroke-miterlimit="1.45" shape-rendering="geometricPrecision" transform="matrix(1,0,0,1,-210,-16)" stroke-linecap="butt">
      <circle fill="none" r="15" clip-path="url(#clipPath2)" cx="1010.4264" cy="163.9759"/>
      <text x="1006.6091" xml:space="preserve" y="168.1302" clip-path="url(#clipPath2)" font-family="sans-serif" stroke="none">1</text>
    </g>
    <g fill="rgb(255,204,0)" text-rendering="geometricPrecision" shape-rendering="geometricPrecision" transform="matrix(1,0,0,1,-210,-16)" stroke="rgb(255,204,0)">
      <circle r="15" clip-path="url(#clipPath2)" cx="1066.9074" cy="46.9151" stroke="none"/>
    </g>
    <g text-rendering="geometricPrecision" stroke-miterlimit="1.45" shape-rendering="geometricPrecision" transform="matrix(1,0,0,1,-210,-16)" stroke-linecap="butt">
      <circle fill="none" r="15" clip-path="url(#clipPath2)" cx="1066.9074" cy="46.9151"/>
      <text x="1063.09" xml:space="preserve" y="51.0694" clip-path="url(#clipPath2)" font-family="sans-serif" stroke="none">2</text>
    </g>
    <g fill="rgb(255,204,0)" text-rendering="geometricPrecision" shape-rendering="geometricPrecision" transform="matrix(1,0,0,1,-210,-16)" stroke="rgb(255,204,0)">
      <circle r="15" clip-path="url(#clipPath2)" cx="762.3703" cy="115.1709" stroke="none"/>
    </g>
    <g text-rendering="geometricPrecision" stroke-miterlimit="1.45" shape-rendering="geometricPrecision" transform="matrix(1,0,0,1,-210,-16)" stroke-linecap="butt">
      <circle fill="none" r="15" clip-path="url(#clipPath2)" cx="762.3703" cy="115.1709"/>
      <text x="758.5529" xml:space="preserve" y="119.3251" clip-path="url(#clipPath2)" font-family="sans-serif" stroke="none">3</text>
    </g>
    <g fill="rgb(255,204,0)" text-rendering="geometricPrecision" shape-rendering="geometricPrecision" transform="matrix(1,0,0,1,-210,-16)" stroke="rgb(255,204,0)">
      <circle r="15" clip-path="url(#clipPath2)" cx="722.3703" cy="186.1709" stroke="none"/>
    </g>
    <g text-rendering="geometricPrecision" stroke-miterlimit="1.45" shape-rendering="geometricPrecision" transform="matrix(1,0,0,1,-210,-16)" stroke-linecap="butt">
      <circle fill="none" r="15" clip-path="url(#clipPath2)" cx="722.3703" cy="186.1709"/>
      <text x="718.5529" xml:space="preserve" y="190.3251" clip-path="url(#clipPath2)" font-family="sans-serif" stroke="none">4</text>
    </g>
    <g fill="rgb(255,204,0)" text-rendering="geometricPrecision" shape-rendering="geometricPrecision" transform="matrix(1,0,0,1,-210,-16)" stroke="rgb(255,204,0)">
      <circle r="15" clip-path="url(#clipPath2)" cx="617.1701" cy="69.7858" stroke="none"/>
    </g>
    <g text-rendering="geometricPrecision" stroke-miterlimit="1.45" shape-rendering="geometricPrecision" transform="matrix(1,0,0,1,-210,-16)" stroke-linecap="butt">
      <circle fill="none" r="15" clip-path="url(#clipPath2)" cx="617.1701" cy="69.7858"/>
      <text x="613.3527" xml:space="preserve" y="73.9401" clip-path="url(#clipPath2)" font-family="sans-serif" stroke="none">5</text>
    </g>
    <g fill="rgb(255,204,0)" text-rendering="geometricPrecision" shape-rendering="geometricPrecision" transform="matrix(1,0,0,1,-210,-16)" stroke="rgb(255,204,0)">
      <circle r="15" clip-path="url(#clipPath2)" cx="242.6167" cy="125.1709" stroke="none"/>
    </g>
    <g text-rendering="geometricPrecision" stroke-miterlimit="1.45" shape-rendering="geometricPrecision" transform="matrix(1,0,0,1,-210,-16)" stroke-linecap="butt">
      <circle fill="none" r="15" clip-path="url(#clipPath2)" cx="242.6167" cy="125.1709"/>
      <text x="238.7994" xml:space="preserve" y="129.3251" clip-path="url(#clipPath2)" font-family="sans-serif" stroke="none">6</text>
    </g>
    <g fill="rgb(255,204,0)" text-rendering="geometricPrecision" shape-rendering="geometricPrecision" transform="matrix(1,0,0,1,-210,-16)" stroke="rgb(255,204,0)">
      <circle r="15" clip-path="url(#clipPath2)" cx="240.5985" cy="327.3509" stroke="none"/>
    </g>
    <g text-rendering="geometricPrecision" stroke-miterlimit="1.45" shape-rendering="geometricPrecision" transform="matrix(1,0,0,1,-210,-16)" stroke-linecap="butt">
      <circle fill="none" r="15" clip-path="url(#clipPath2)" cx="240.5985" cy="327.3509"/>
      <text x="236.7811" xml:space="preserve" y="331.5052" clip-path="url(#clipPath2)" font-family="sans-serif" stroke="none">7</text>
    </g>
    <g fill="rgb(255,204,0)" text-rendering="geometricPrecision" shape-rendering="geometricPrecision" transform="matrix(1,0,0,1,-210,-16)" stroke="rgb(255,204,0)">
      <circle r="15" clip-path="url(#clipPath2)" cx="369.7988" cy="247.7306" stroke="none"/>
    </g>
    <g text-rendering="geometricPrecision" stroke-miterlimit="1.45" shape-rendering="geometricPrecision" transform="matrix(1,0,0,1,-210,-16)" stroke-linecap="butt">
      <circle fill="none" r="15" clip-path="url(#clipPath2)" cx="369.7988" cy="247.7306"/>
      <text x="365.9814" xml:space="preserve" y="251.8849" clip-path="url(#clipPath2)" font-family="sans-serif" stroke="none">8</text>
    </g>
    <g fill="rgb(255,204,0)" text-rendering="geometricPrecision" shape-rendering="geometricPrecision" transform="matrix(1,0,0,1,-210,-16)" stroke="rgb(255,204,0)">
      <circle r="15" clip-path="url(#clipPath2)" cx="293.7216" cy="444.1559" stroke="none"/>
    </g>
    <g text-rendering="geometricPrecision" stroke-miterlimit="1.45" shape-rendering="geometricPrecision" transform="matrix(1,0,0,1,-210,-16)" stroke-linecap="butt">
      <circle fill="none" r="15" clip-path="url(#clipPath2)" cx="293.7216" cy="444.1559"/>
      <text x="286.0868" xml:space="preserve" y="448.3102" clip-path="url(#clipPath2)" font-family="sans-serif" stroke="none">10</text>
    </g>
    <g fill="rgb(255,204,0)" text-rendering="geometricPrecision" shape-rendering="geometricPrecision" transform="matrix(1,0,0,1,-210,-16)" stroke="rgb(255,204,0)">
      <circle r="15" clip-path="url(#clipPath2)" cx="441.0638" cy="481.2521" stroke="none"/>
    </g>
    <g text-rendering="geometricPrecision" stroke-miterlimit="1.45" shape-rendering="geometricPrecision" transform="matrix(1,0,0,1,-210,-16)" stroke-linecap="butt">
      <circle fill="none" r="15" clip-path="url(#clipPath2)" cx="441.0638" cy="481.2521"/>
      <text x="433.429" xml:space="preserve" y="485.4064" clip-path="url(#clipPath2)" font-family="sans-serif" stroke="none">11</text>
    </g>
    <g fill="rgb(255,204,0)" text-rendering="geometricPrecision" shape-rendering="geometricPrecision" transform="matrix(1,0,0,1,-210,-16)" stroke="rgb(255,204,0)">
      <circle r="15" clip-path="url(#clipPath2)" cx="698.1203" cy="414.4732" stroke="none"/>
    </g>
    <g text-rendering="geometricPrecision" stroke-miterlimit="1.45" shape-rendering="geometricPrecision" transform="matrix(1,0,0,1,-210,-16)" stroke-linecap="butt">
      <circle fill="none" r="15" clip-path="url(#clipPath2)" cx="698.1203" cy="414.4732"/>
      <text x="690.4855" xml:space="preserve" y="418.6275" clip-path="url(#clipPath2)" font-family="sans-serif" stroke="none">12</text>
    </g>
    <g fill="rgb(255,204,0)" text-rendering="geometricPrecision" shape-rendering="geometricPrecision" transform="matrix(1,0,0,1,-210,-16)" stroke="rgb(255,204,0)">
      <circle r="15" clip-path="url(#clipPath2)" cx="738.2406" cy="474.4732" stroke="none"/>
    </g>
    <g text-rendering="geometricPrecision" stroke-miterlimit="1.45" shape-rendering="geometricPrecision" transform="matrix(1,0,0,1,-210,-16)" stroke-linecap="butt">
      <circle fill="none" r="15" clip-path="url(#clipPath2)" cx="738.2406" cy="474.4732"/>
      <text x="730.6058" xml:space="preserve" y="478.6275" clip-path="url(#clipPath2)" font-family="sans-serif" stroke="none">13</text>
    </g>
    <g fill="rgb(255,204,0)" text-rendering="geometricPrecision" shape-rendering="geometricPrecision" transform="matrix(1,0,0,1,-210,-16)" stroke="rgb(255,204,0)">
      <circle r="15" clip-path="url(#clipPath2)" cx="811.8045" cy="347.4059" stroke="none"/>
    </g>
    <g text-rendering="geometricPrecision" stroke-miterlimit="1.45" shape-rendering="geometricPrecision" transform="matrix(1,0,0,1,-210,-16)" stroke-linecap="butt">
      <circle fill="none" r="15" clip-path="url(#clipPath2)" cx="811.8045" cy="347.4059"/>
      <text x="807.9871" xml:space="preserve" y="351.5602" clip-path="url(#clipPath2)" font-family="sans-serif" stroke="none">0</text>
    </g>
    <g fill="rgb(255,204,0)" text-rendering="geometricPrecision" shape-rendering="geometricPrecision" transform="matrix(1,0,0,1,-210,-16)" stroke="rgb(255,204,0)">
      <circle r="15" clip-path="url(#clipPath2)" cx="495.9992" cy="258.7306" stroke="none"/>
    </g>
    <g text-rendering="geometricPrecision" stroke-miterlimit="1.45" shape-rendering="geometricPrecision" transform="matrix(1,0,0,1,-210,-16)" stroke-linecap="butt">
      <circle fill="none" r="15" clip-path="url(#clipPath2)" cx="495.9992" cy="258.7306"/>
      <text x="492.1818" xml:space="preserve" y="262.8849" clip-path="url(#clipPath2)" font-family="sans-serif" stroke="none">9</text>
      <path fill="none" d="M1016.9448 150.4662 L1060.389 60.4248" clip-path="url(#clipPath2)"/>
      <path fill="none" d="M995.7086 161.0802 L777.0881 118.0666" clip-path="url(#clipPath2)"/>
      <path fill="none" d="M1052.2705 50.1957 L777.0071 111.8903" clip-path="url(#clipPath2)"/>
      <path fill="none" d="M995.4708 165.1282 L737.326 185.0185" clip-path="url(#clipPath2)"/>
      <path fill="none" d="M1053.0004 52.5361 L736.2773 180.5499" clip-path="url(#clipPath2)"/>
      <path fill="none" d="M729.733 173.1021 L755.0076 128.2396" clip-path="url(#clipPath2)"/>
      <path fill="none" d="M631.7575 73.2797 L995.8391 160.482" clip-path="url(#clipPath2)"/>
      <path fill="none" d="M627.2285 80.9136 L712.3119 175.043" clip-path="url(#clipPath2)"/>
      <path fill="none" d="M632.1507 69.024 L1051.9268 47.6769" clip-path="url(#clipPath2)"/>
      <path fill="none" d="M631.487 74.2608 L748.0533 110.6958" clip-path="url(#clipPath2)"/>
      <path fill="none" d="M995.4456 163.2188 L257.5976 125.928" clip-path="url(#clipPath2)"/>
      <path fill="none" d="M602.3314 71.98 L257.4554 122.9767" clip-path="url(#clipPath2)"/>
      <path fill="none" d="M747.373 115.4594 L257.614 124.8823" clip-path="url(#clipPath2)"/>
      <path fill="none" d="M257.4969 127.0629 L707.4901 184.2789" clip-path="url(#clipPath2)"/>
      <path fill="none" d="M257.5496 123.7532 L1051.9745 48.3328" clip-path="url(#clipPath2)"/>
      <path fill="none" d="M604.7891 78.254 L252.9794 318.8826" clip-path="url(#clipPath2)"/>
      <path fill="none" d="M748.4752 120.8213 L254.4935 321.7004" clip-path="url(#clipPath2)"/>
      <path fill="none" d="M255.2717 324.2369 L995.7532 167.0899" clip-path="url(#clipPath2)"/>
      <path fill="none" d="M254.9931 323.1326 L707.9756 190.3891" clip-path="url(#clipPath2)"/>
      <path fill="none" d="M254.8027 322.5302 L1052.7031 51.7358" clip-path="url(#clipPath2)"/>
      <path fill="none" d="M240.7482 312.3516 L242.467 140.1701" clip-path="url(#clipPath2)"/>
      <path fill="none" d="M995.553 165.9204 L384.6723 245.7861" clip-path="url(#clipPath2)"/>
      <path fill="none" d="M604.9933 78.5451 L381.9756 238.9713" clip-path="url(#clipPath2)"/>
      <path fill="none" d="M707.5938 188.7509 L384.5753 245.1506" clip-path="url(#clipPath2)"/>
      <path fill="none" d="M1052.4935 51.0673 L384.2127 243.5784" clip-path="url(#clipPath2)"/>
      <path fill="none" d="M357.0289 255.6002 L253.3684 319.4814" clip-path="url(#clipPath2)"/>
      <path fill="none" d="M358.9978 237.3221 L253.4178 135.5794" clip-path="url(#clipPath2)"/>
      <path fill="none" d="M384.0105 242.9318 L748.1586 119.9697" clip-path="url(#clipPath2)"/>
      <path fill="none" d="M996.456 169.4373 L307.692 438.6945" clip-path="url(#clipPath2)"/>
      <path fill="none" d="M246.8084 341.0051 L287.5116 430.5017" clip-path="url(#clipPath2)"/>
      <path fill="none" d="M244.9896 139.982 L291.3487 429.3448" clip-path="url(#clipPath2)"/>
      <path fill="none" d="M750.0933 123.7891 L305.9986 435.5376" clip-path="url(#clipPath2)"/>
      <path fill="none" d="M303.5281 432.8055 L607.3635 81.1362" clip-path="url(#clipPath2)"/>
      <path fill="none" d="M306.5734 436.4209 L709.5184 193.9058" clip-path="url(#clipPath2)"/>
      <path fill="none" d="M299.139 430.1684 L364.3813 261.7182" clip-path="url(#clipPath2)"/>
      <path fill="none" d="M307.0637 437.3011 L1053.5653 53.7699" clip-path="url(#clipPath2)"/>
      <path fill="none" d="M997.3235 171.2775 L454.1667 473.9505" clip-path="url(#clipPath2)"/>
      <path fill="none" d="M712.0201 197.0278 L451.4139 470.3951" clip-path="url(#clipPath2)"/>
      <path fill="none" d="M374.1771 262.0775 L436.6855 466.9053" clip-path="url(#clipPath2)"/>
      <path fill="none" d="M1054.5842 55.4674 L453.3869 472.6999" clip-path="url(#clipPath2)"/>
      <path fill="none" d="M249.9189 138.2735 L433.7616 468.1495" clip-path="url(#clipPath2)"/>
      <path fill="none" d="M752.4755 126.4445 L450.9585 469.9785" clip-path="url(#clipPath2)"/>
      <path fill="none" d="M446.9659 467.4621 L611.2679 83.5758" clip-path="url(#clipPath2)"/>
      <path fill="none" d="M429.1657 472.1177 L252.4965 336.4853" clip-path="url(#clipPath2)"/>
      <path fill="none" d="M426.5177 477.5899 L308.2676 447.8181" clip-path="url(#clipPath2)"/>
      <path fill="none" d="M998.7253 173.3612 L709.8214 405.0879" clip-path="url(#clipPath2)"/>
      <path fill="none" d="M620.5995 84.3885 L694.6909 399.8705" clip-path="url(#clipPath2)"/>
      <path fill="none" d="M720.7859 201.0869 L699.7047 399.5571" clip-path="url(#clipPath2)"/>
      <path fill="none" d="M383.1729 254.5228 L684.7462 407.681" clip-path="url(#clipPath2)"/>
      <path fill="none" d="M255.3337 330.1568 L683.3851 411.6673" clip-path="url(#clipPath2)"/>
      <path fill="none" d="M1056.2831 57.504 L708.7446 403.8843" clip-path="url(#clipPath2)"/>
      <path fill="none" d="M255.2788 133.2128 L685.4583 406.4312" clip-path="url(#clipPath2)"/>
      <path fill="none" d="M308.6813 443.0579 L683.1605 415.5712" clip-path="url(#clipPath2)"/>
      <path fill="none" d="M683.6022 418.2447 L455.5819 477.4806" clip-path="url(#clipPath2)"/>
      <path fill="none" d="M701.2686 399.8073 L759.222 129.8367" clip-path="url(#clipPath2)"/>
      <path fill="none" d="M723.2445 474.8152 L456.0599 480.91" clip-path="url(#clipPath2)"/>
      <path fill="none" d="M729.9028 462.004 L706.4581 426.9424" clip-path="url(#clipPath2)"/>
      <path fill="none" d="M723.2753 473.4525 L308.6868 445.1765" clip-path="url(#clipPath2)"/>
      <path fill="none" d="M723.856 470.2206 L254.983 331.6035" clip-path="url(#clipPath2)"/>
      <path fill="none" d="M725.4658 466.6115 L382.5736 255.5923" clip-path="url(#clipPath2)"/>
      <path fill="none" d="M725.9797 465.832 L254.8777 133.812" clip-path="url(#clipPath2)"/>
      <path fill="none" d="M733.9413 460.1025 L621.4694 84.1564" clip-path="url(#clipPath2)"/>
      <path fill="none" d="M737.4161 459.4958 L723.1948 201.1482" clip-path="url(#clipPath2)"/>
      <path fill="none" d="M739.2457 459.5069 L761.3652 130.1371" clip-path="url(#clipPath2)"/>
      <path fill="none" d="M748.1284 463.1935 L1000.5386 175.2555" clip-path="url(#clipPath2)"/>
      <path fill="none" d="M747.3823 462.5808 L1057.7656 58.8075" clip-path="url(#clipPath2)"/>
      <path fill="none" d="M455.1725 476.1585 L797.6958 352.4995" clip-path="url(#clipPath2)"/>
      <path fill="none" d="M729.6462 199.2881 L804.5286 334.2887" clip-path="url(#clipPath2)"/>
      <path fill="none" d="M255.5892 327.8772 L796.8137 346.8796" clip-path="url(#clipPath2)"/>
      <path fill="none" d="M1057.1996 58.3501 L821.5123 335.9709" clip-path="url(#clipPath2)"/>
      <path fill="none" d="M765.4933 129.8421 L808.6815 332.7346" clip-path="url(#clipPath2)"/>
      <path fill="none" d="M745.756 461.4917 L804.2891 360.3873" clip-path="url(#clipPath2)"/>
      <path fill="none" d="M822.8242 337.2291 L999.4068 174.1527" clip-path="url(#clipPath2)"/>
      <path fill="none" d="M803.1937 335.1237 L625.7809 82.068" clip-path="url(#clipPath2)"/>
      <path fill="none" d="M797.1719 344.1061 L384.4314 251.0304" clip-path="url(#clipPath2)"/>
      <path fill="none" d="M797.8318 341.9503 L256.5895 130.6264" clip-path="url(#clipPath2)"/>
      <path fill="none" d="M797.0594 350.1595 L308.4666 441.4023" clip-path="url(#clipPath2)"/>
      <path fill="none" d="M798.8851 355.0276 L711.0397 406.8515" clip-path="url(#clipPath2)"/>
      <path fill="none" d="M727.039 464.4969 L507.2008 268.7068" clip-path="url(#clipPath2)"/>
      <path fill="none" d="M686.2385 405.3177 L507.881 267.8861" clip-path="url(#clipPath2)"/>
      <path fill="none" d="M749.1659 122.2873 L509.2036 251.6142" clip-path="url(#clipPath2)"/>
      <path fill="none" d="M255.8862 132.1653 L482.7298 251.7362" clip-path="url(#clipPath2)"/>
      <path fill="none" d="M384.7422 249.0331 L481.0559 257.4281" clip-path="url(#clipPath2)"/>
      <path fill="none" d="M708.0861 190.7494 L510.2834 254.1521" clip-path="url(#clipPath2)"/>
      <path fill="none" d="M609.0726 82.4124 L504.0967 246.104" clip-path="url(#clipPath2)"/>
      <path fill="none" d="M484.942 268.8666 L304.7787 434.0199" clip-path="url(#clipPath2)"/>
      <path fill="none" d="M510.4407 262.7857 L797.363 343.3509" clip-path="url(#clipPath2)"/>
      <path fill="none" d="M510.0625 253.513 L1052.8441 52.1328" clip-path="url(#clipPath2)"/>
      <path fill="none" d="M481.513 262.6228 L255.0847 323.4588" clip-path="url(#clipPath2)"/>
      <path fill="none" d="M492.404 273.2934 L444.659 466.6893" clip-path="url(#clipPath2)"/>
      <path fill="none" d="M510.751 256.0134 L995.6746 166.6931" clip-path="url(#clipPath2)"/>
    </g>
  </g>
</svg>
