<?xml version="1.0" encoding="UTF-8"?><svg xmlns="http://www.w3.org/2000/svg" xmlns:xlink="http://www.w3.org/1999/xlink" fill-opacity="1" color-rendering="auto" color-interpolation="auto" text-rendering="auto" stroke="black" stroke-linecap="square" width="890" stroke-miterlimit="10" shape-rendering="auto" stroke-opacity="1" fill="black" stroke-dasharray="none" font-weight="normal" stroke-width="1" height="437" font-family="'Dialog'" font-style="normal" stroke-linejoin="miter" font-size="12px" stroke-dashoffset="0" image-rendering="auto">
  <!--Generated by ySVG 2.5-->
  <defs id="genericDefs"/>
  <g>
    <defs id="defs1">
      <clipPath clipPathUnits="userSpaceOnUse" id="clipPath1">
        <path d="M0 0 L890 0 L890 437 L0 437 L0 0 Z"/>
      </clipPath>
      <clipPath clipPathUnits="userSpaceOnUse" id="clipPath2">
        <path d="M-73 -167 L817 -167 L817 270 L-73 270 L-73 -167 Z"/>
      </clipPath>
    </defs>
    <g fill="rgb(255,204,0)" text-rendering="geometricPrecision" shape-rendering="geometricPrecision" transform="matrix(1,0,0,1,73,167)" stroke="rgb(255,204,0)">
      <circle r="15" clip-path="url(#clipPath2)" cx="365.2492" cy="179.4806" stroke="none"/>
    </g>
    <g text-rendering="geometricPrecision" stroke-miterlimit="1.45" shape-rendering="geometricPrecision" font-family="sans-serif" transform="matrix(1,0,0,1,73,167)" stroke-linecap="butt">
      <text x="361.4318" xml:space="preserve" y="183.6349" clip-path="url(#clipPath2)" stroke="none">9</text>
      <circle fill="none" r="15" clip-path="url(#clipPath2)" cx="365.2492" cy="179.4806"/>
    </g>
    <g fill="rgb(255,204,0)" text-rendering="geometricPrecision" shape-rendering="geometricPrecision" transform="matrix(1,0,0,1,73,167)" stroke="rgb(255,204,0)">
      <circle r="15" clip-path="url(#clipPath2)" cx="124.5985" cy="169.4059" stroke="none"/>
    </g>
    <g text-rendering="geometricPrecision" stroke-miterlimit="1.45" shape-rendering="geometricPrecision" font-family="sans-serif" transform="matrix(1,0,0,1,73,167)" stroke-linecap="butt">
      <text x="120.7811" xml:space="preserve" y="173.5602" clip-path="url(#clipPath2)" stroke="none">0</text>
      <circle fill="none" r="15" clip-path="url(#clipPath2)" cx="124.5985" cy="169.4059"/>
    </g>
    <g fill="rgb(255,204,0)" text-rendering="geometricPrecision" shape-rendering="geometricPrecision" transform="matrix(1,0,0,1,73,167)" stroke="rgb(255,204,0)">
      <circle r="15" clip-path="url(#clipPath2)" cx="395.2492" cy="239.4806" stroke="none"/>
    </g>
    <g text-rendering="geometricPrecision" stroke-miterlimit="1.45" shape-rendering="geometricPrecision" font-family="sans-serif" transform="matrix(1,0,0,1,73,167)" stroke-linecap="butt">
      <text x="387.6144" xml:space="preserve" y="243.6349" clip-path="url(#clipPath2)" stroke="none">12</text>
      <circle fill="none" r="15" clip-path="url(#clipPath2)" cx="395.2492" cy="239.4806"/>
    </g>
    <g fill="rgb(255,204,0)" text-rendering="geometricPrecision" shape-rendering="geometricPrecision" transform="matrix(1,0,0,1,73,167)" stroke="rgb(255,204,0)">
      <circle r="15" clip-path="url(#clipPath2)" cx="20.5638" cy="158.4059" stroke="none"/>
    </g>
    <g text-rendering="geometricPrecision" stroke-miterlimit="1.45" shape-rendering="geometricPrecision" font-family="sans-serif" transform="matrix(1,0,0,1,73,167)" stroke-linecap="butt">
      <text x="12.929" xml:space="preserve" y="162.5602" clip-path="url(#clipPath2)" stroke="none">11</text>
      <circle fill="none" r="15" clip-path="url(#clipPath2)" cx="20.5638" cy="158.4059"/>
    </g>
    <g fill="rgb(255,204,0)" text-rendering="geometricPrecision" shape-rendering="geometricPrecision" transform="matrix(1,0,0,1,73,167)" stroke="rgb(255,204,0)">
      <circle r="15" clip-path="url(#clipPath2)" cx="-42.4362" cy="84.9059" stroke="none"/>
    </g>
    <g text-rendering="geometricPrecision" stroke-miterlimit="1.45" shape-rendering="geometricPrecision" font-family="sans-serif" transform="matrix(1,0,0,1,73,167)" stroke-linecap="butt">
      <text x="-50.071" xml:space="preserve" y="89.0602" clip-path="url(#clipPath2)" stroke="none">10</text>
      <circle fill="none" r="15" clip-path="url(#clipPath2)" cx="-42.4362" cy="84.9059"/>
    </g>
    <g fill="rgb(255,204,0)" text-rendering="geometricPrecision" shape-rendering="geometricPrecision" transform="matrix(1,0,0,1,73,167)" stroke="rgb(255,204,0)">
      <circle r="15" clip-path="url(#clipPath2)" cx="-42.4362" cy="-136.2694" stroke="none"/>
    </g>
    <g text-rendering="geometricPrecision" stroke-miterlimit="1.45" shape-rendering="geometricPrecision" font-family="sans-serif" transform="matrix(1,0,0,1,73,167)" stroke-linecap="butt">
      <text x="-46.2536" xml:space="preserve" y="-132.1151" clip-path="url(#clipPath2)" stroke="none">8</text>
      <circle fill="none" r="15" clip-path="url(#clipPath2)" cx="-42.4362" cy="-136.2694"/>
    </g>
    <g fill="rgb(255,204,0)" text-rendering="geometricPrecision" shape-rendering="geometricPrecision" transform="matrix(1,0,0,1,73,167)" stroke="rgb(255,204,0)">
      <circle r="15" clip-path="url(#clipPath2)" cx="124.5985" cy="20.7259" stroke="none"/>
    </g>
    <g text-rendering="geometricPrecision" stroke-miterlimit="1.45" shape-rendering="geometricPrecision" font-family="sans-serif" transform="matrix(1,0,0,1,73,167)" stroke-linecap="butt">
      <text x="120.7811" xml:space="preserve" y="24.8802" clip-path="url(#clipPath2)" stroke="none">7</text>
      <circle fill="none" r="15" clip-path="url(#clipPath2)" cx="124.5985" cy="20.7259"/>
    </g>
    <g fill="rgb(255,204,0)" text-rendering="geometricPrecision" shape-rendering="geometricPrecision" transform="matrix(1,0,0,1,73,167)" stroke="rgb(255,204,0)">
      <circle r="15" clip-path="url(#clipPath2)" cx="232.6167" cy="39.4209" stroke="none"/>
    </g>
    <g text-rendering="geometricPrecision" stroke-miterlimit="1.45" shape-rendering="geometricPrecision" font-family="sans-serif" transform="matrix(1,0,0,1,73,167)" stroke-linecap="butt">
      <text x="228.7994" xml:space="preserve" y="43.5751" clip-path="url(#clipPath2)" stroke="none">6</text>
      <circle fill="none" r="15" clip-path="url(#clipPath2)" cx="232.6167" cy="39.4209"/>
    </g>
    <g fill="rgb(255,204,0)" text-rendering="geometricPrecision" shape-rendering="geometricPrecision" transform="matrix(1,0,0,1,73,167)" stroke="rgb(255,204,0)">
      <circle r="15" clip-path="url(#clipPath2)" cx="473.4201" cy="61.7858" stroke="none"/>
    </g>
    <g text-rendering="geometricPrecision" stroke-miterlimit="1.45" shape-rendering="geometricPrecision" font-family="sans-serif" transform="matrix(1,0,0,1,73,167)" stroke-linecap="butt">
      <text x="469.6027" xml:space="preserve" y="65.9401" clip-path="url(#clipPath2)" stroke="none">5</text>
      <circle fill="none" r="15" clip-path="url(#clipPath2)" cx="473.4201" cy="61.7858"/>
    </g>
    <g fill="rgb(255,204,0)" text-rendering="geometricPrecision" shape-rendering="geometricPrecision" transform="matrix(1,0,0,1,73,167)" stroke="rgb(255,204,0)">
      <circle r="15" clip-path="url(#clipPath2)" cx="425.3703" cy="-75.8291" stroke="none"/>
    </g>
    <g text-rendering="geometricPrecision" stroke-miterlimit="1.45" shape-rendering="geometricPrecision" font-family="sans-serif" transform="matrix(1,0,0,1,73,167)" stroke-linecap="butt">
      <text x="421.5529" xml:space="preserve" y="-71.6749" clip-path="url(#clipPath2)" stroke="none">4</text>
      <circle fill="none" r="15" clip-path="url(#clipPath2)" cx="425.3703" cy="-75.8291"/>
    </g>
    <g fill="rgb(255,204,0)" text-rendering="geometricPrecision" shape-rendering="geometricPrecision" transform="matrix(1,0,0,1,73,167)" stroke="rgb(255,204,0)">
      <circle r="15" clip-path="url(#clipPath2)" cx="512.3703" cy="-7.8291" stroke="none"/>
    </g>
    <g text-rendering="geometricPrecision" stroke-miterlimit="1.45" shape-rendering="geometricPrecision" font-family="sans-serif" transform="matrix(1,0,0,1,73,167)" stroke-linecap="butt">
      <text x="508.5529" xml:space="preserve" y="-3.6749" clip-path="url(#clipPath2)" stroke="none">3</text>
      <circle fill="none" r="15" clip-path="url(#clipPath2)" cx="512.3703" cy="-7.8291"/>
    </g>
    <g fill="rgb(255,204,0)" text-rendering="geometricPrecision" shape-rendering="geometricPrecision" transform="matrix(1,0,0,1,73,167)" stroke="rgb(255,204,0)">
      <circle r="15" clip-path="url(#clipPath2)" cx="786.6574" cy="-16.5849" stroke="none"/>
    </g>
    <g text-rendering="geometricPrecision" stroke-miterlimit="1.45" shape-rendering="geometricPrecision" font-family="sans-serif" transform="matrix(1,0,0,1,73,167)" stroke-linecap="butt">
      <text x="782.84" xml:space="preserve" y="-12.4306" clip-path="url(#clipPath2)" stroke="none">2</text>
      <circle fill="none" r="15" clip-path="url(#clipPath2)" cx="786.6574" cy="-16.5849"/>
    </g>
    <g fill="rgb(255,204,0)" text-rendering="geometricPrecision" shape-rendering="geometricPrecision" transform="matrix(1,0,0,1,73,167)" stroke="rgb(255,204,0)">
      <circle r="15" clip-path="url(#clipPath2)" cx="742.6764" cy="20.7259" stroke="none"/>
    </g>
    <g text-rendering="geometricPrecision" stroke-miterlimit="1.45" shape-rendering="geometricPrecision" font-family="sans-serif" transform="matrix(1,0,0,1,73,167)" stroke-linecap="butt">
      <text x="738.8591" xml:space="preserve" y="24.8802" clip-path="url(#clipPath2)" stroke="none">1</text>
      <circle fill="none" r="15" clip-path="url(#clipPath2)" cx="742.6764" cy="20.7259"/>
      <path fill="none" d="M350.2623 178.8532 L139.5853 170.0333" clip-path="url(#clipPath2)"/>
      <path fill="none" d="M139.1196 173.1656 L380.728 235.7209" clip-path="url(#clipPath2)"/>
      <path fill="none" d="M388.541 226.0642 L371.9574 192.897" clip-path="url(#clipPath2)"/>
      <path fill="none" d="M380.4944 236.7799 L149.0705 194.4197 L35.0073 162.4537" clip-path="url(#clipPath2)"/>
      <path fill="none" d="M350.3475 177.766 L130.0705 152.4197 L35.5414 157.5871" clip-path="url(#clipPath2)"/>
      <path fill="none" d="M35.4806 159.9831 L109.6816 167.8287" clip-path="url(#clipPath2)"/>
      <path fill="none" d="M10.8019 147.017 L-32.6744 96.2947" clip-path="url(#clipPath2)"/>
      <path fill="none" d="M111.2137 162.6348 L-29.0515 91.677" clip-path="url(#clipPath2)"/>
      <path fill="none" d="M350.6372 176.091 L-27.8243 88.2956" clip-path="url(#clipPath2)"/>
      <path fill="none" d="M-28.2924 89.901 L381.1053 234.4855" clip-path="url(#clipPath2)"/>
      <path fill="none" d="M117.4056 156.2429 L-35.2434 -123.1064" clip-path="url(#clipPath2)"/>
      <path fill="none" d="M-42.4362 69.9059 L-42.4362 -121.2694" clip-path="url(#clipPath2)"/>
      <path fill="none" d="M-39.3002 -121.6008 L17.4277 143.7374" clip-path="url(#clipPath2)"/>
      <path fill="none" d="M-30.7261 -126.8953 L122.0705 -4.5803 L384.0632 229.487" clip-path="url(#clipPath2)"/>
      <path fill="none" d="M-30.5771 -127.0845 L353.3901 170.2958" clip-path="url(#clipPath2)"/>
      <path fill="none" d="M29.6068 146.4383 L115.5554 32.6935" clip-path="url(#clipPath2)"/>
      <path fill="none" d="M-31.5063 -125.9963 L113.6685 10.4528" clip-path="url(#clipPath2)"/>
      <path fill="none" d="M352.7283 171.2207 L137.1194 28.9858" clip-path="url(#clipPath2)"/>
      <path fill="none" d="M124.5985 35.7259 L124.5985 154.4059" clip-path="url(#clipPath2)"/>
      <path fill="none" d="M110.5965 26.1059 L-28.4343 79.5259" clip-path="url(#clipPath2)"/>
      <path fill="none" d="M136.2644 30.1549 L383.5833 230.0516" clip-path="url(#clipPath2)"/>
      <path fill="none" d="M-29.795 -128.1948 L219.9755 31.3463" clip-path="url(#clipPath2)"/>
      <path fill="none" d="M139.3787 23.2839 L217.8365 36.8628" clip-path="url(#clipPath2)"/>
      <path fill="none" d="M134.1854 157.8694 L223.0298 50.9574" clip-path="url(#clipPath2)"/>
      <path fill="none" d="M219.5354 46.761 L33.6452 151.0658" clip-path="url(#clipPath2)"/>
      <path fill="none" d="M217.8177 41.8681 L-27.6372 82.4586" clip-path="url(#clipPath2)"/>
      <path fill="none" d="M242.0786 51.0602 L385.7874 227.8413" clip-path="url(#clipPath2)"/>
      <path fill="none" d="M242.9306 50.3123 L354.9353 168.5892" clip-path="url(#clipPath2)"/>
      <path fill="none" d="M35.2336 155.276 L458.7502 64.9157" clip-path="url(#clipPath2)"/>
      <path fill="none" d="M138.9318 164.9837 L459.0867 66.208" clip-path="url(#clipPath2)"/>
      <path fill="none" d="M-27.4513 84.2343 L458.4351 62.4574" clip-path="url(#clipPath2)"/>
      <path fill="none" d="M459.4167 56.4094 L-28.4329 -130.893" clip-path="url(#clipPath2)"/>
      <path fill="none" d="M458.9346 57.8909 L260.0705 4.4197 L139.491 18.9333" clip-path="url(#clipPath2)"/>
      <path fill="none" d="M458.4843 60.3986 L247.5525 40.808" clip-path="url(#clipPath2)"/>
      <path fill="none" d="M467.3799 75.5159 L401.2893 225.7505" clip-path="url(#clipPath2)"/>
      <path fill="none" d="M463.2697 72.8298 L375.3995 168.4366" clip-path="url(#clipPath2)"/>
      <path fill="none" d="M468.4754 47.6242 L430.315 -61.6676" clip-path="url(#clipPath2)"/>
      <path fill="none" d="M138.8806 16.141 L411.0882 -71.2442" clip-path="url(#clipPath2)"/>
      <path fill="none" d="M245.491 31.7232 L412.4961 -68.1315" clip-path="url(#clipPath2)"/>
      <path fill="none" d="M-27.8629 81.3536 L140.0705 40.4197 L411.4792 -70.169" clip-path="url(#clipPath2)"/>
      <path fill="none" d="M411.8213 -69.3929 L229.0705 17.4197 L32.9897 150.0038" clip-path="url(#clipPath2)"/>
      <path fill="none" d="M410.4939 -77.7512 L-27.5599 -134.3474" clip-path="url(#clipPath2)"/>
      <path fill="none" d="M413.7448 -66.3503 L136.2239 159.927" clip-path="url(#clipPath2)"/>
      <path fill="none" d="M423.9438 -60.8971 L396.6757 224.5486" clip-path="url(#clipPath2)"/>
      <path fill="none" d="M421.9321 -61.2285 L368.6874 164.88" clip-path="url(#clipPath2)"/>
      <path fill="none" d="M480.7442 48.6954 L505.0461 5.2612" clip-path="url(#clipPath2)"/>
      <path fill="none" d="M437.1886 -66.5919 L500.552 -17.0664" clip-path="url(#clipPath2)"/>
      <path fill="none" d="M-27.8227 -132.8863 L497.7568 -11.2122" clip-path="url(#clipPath2)"/>
      <path fill="none" d="M402.553 226.379 L495.0705 60.4197 L508.6846 6.711" clip-path="url(#clipPath2)"/>
      <path fill="none" d="M498.1601 -3.026 L34.774 153.6027" clip-path="url(#clipPath2)"/>
      <path fill="none" d="M497.4108 -6.7276 L139.558 19.6243" clip-path="url(#clipPath2)"/>
      <path fill="none" d="M497.5798 -5.331 L247.4073 36.9228" clip-path="url(#clipPath2)"/>
      <path fill="none" d="M498.7278 -1.5937 L138.241 163.1704" clip-path="url(#clipPath2)"/>
      <path fill="none" d="M497.9137 -3.8284 L244.0705 66.4197 L-27.4674 83.9401" clip-path="url(#clipPath2)"/>
      <path fill="none" d="M502.1354 3.1366 L457.0705 51.4197 L373.9898 167.2904" clip-path="url(#clipPath2)"/>
      <path fill="none" d="M487.9715 58.1451 L772.1059 -12.9442" clip-path="url(#clipPath2)"/>
      <path fill="none" d="M139.5971 20.521 L513.0706 15.4197 L771.759 -14.842" clip-path="url(#clipPath2)"/>
      <path fill="none" d="M247.5407 37.9123 L771.7334 -15.0763" clip-path="url(#clipPath2)"/>
      <path fill="none" d="M-27.4885 83.6546 L250.0705 60.4197 L771.8095 -14.4541" clip-path="url(#clipPath2)"/>
      <path fill="none" d="M378.8493 173.153 L773.0573 -10.2573" clip-path="url(#clipPath2)"/>
      <path fill="none" d="M771.8992 -13.9021 L462.0705 42.4197 L35.0715 154.5946" clip-path="url(#clipPath2)"/>
      <path fill="none" d="M771.855 -19.0122 L440.1726 -73.4018" clip-path="url(#clipPath2)"/>
      <path fill="none" d="M771.742 -18.1758 L421.0705 -55.5803 L-27.6585 -133.6968" clip-path="url(#clipPath2)"/>
      <path fill="none" d="M772.3695 -12.018 L505.0705 73.4197 L139.1427 165.7366" clip-path="url(#clipPath2)"/>
      <path fill="none" d="M771.665 -16.1063 L527.3627 -8.3077" clip-path="url(#clipPath2)"/>
      <path fill="none" d="M772.664 -11.1825 L727.0706 6.4197 L407.524 230.8592" clip-path="url(#clipPath2)"/>
      <path fill="none" d="M488.2487 59.5245 L727.8478 22.9871" clip-path="url(#clipPath2)"/>
      <path fill="none" d="M139.5984 20.7259 L727.6765 20.7259" clip-path="url(#clipPath2)"/>
      <path fill="none" d="M139.1824 165.8977 L728.0925 24.2341" clip-path="url(#clipPath2)"/>
      <path fill="none" d="M379.0759 173.6648 L728.8498 26.5417" clip-path="url(#clipPath2)"/>
      <path fill="none" d="M727.9991 23.8205 L450.0705 82.4197 L35.3344 155.7927" clip-path="url(#clipPath2)"/>
      <path fill="none" d="M728.2838 16.501 L452.0705 -64.5803 L439.1936 -70.0054" clip-path="url(#clipPath2)"/>
      <path fill="none" d="M727.9677 17.7846 L-27.7274 -133.3281" clip-path="url(#clipPath2)"/>
      <path fill="none" d="M754.1149 11.0222 L775.2189 -6.8812" clip-path="url(#clipPath2)"/>
      <path fill="none" d="M727.6865 21.2753 L247.6067 38.8714" clip-path="url(#clipPath2)"/>
      <path fill="none" d="M727.7904 18.8802 L527.2563 -5.9835" clip-path="url(#clipPath2)"/>
      <path fill="none" d="M727.7263 21.948 L-27.4861 83.6838" clip-path="url(#clipPath2)"/>
      <path fill="none" d="M729.983 28.7182 L407.9426 231.4883" clip-path="url(#clipPath2)"/>
    </g>
  </g>
</svg>
