<?xml version="1.0" encoding="UTF-8"?><svg xmlns="http://www.w3.org/2000/svg" xmlns:xlink="http://www.w3.org/1999/xlink" fill-opacity="1" color-rendering="auto" color-interpolation="auto" text-rendering="auto" stroke="black" stroke-linecap="square" width="373" stroke-miterlimit="10" shape-rendering="auto" stroke-opacity="1" fill="black" stroke-dasharray="none" font-weight="normal" stroke-width="1" height="246" font-family="'Dialog'" font-style="normal" stroke-linejoin="miter" font-size="12px" stroke-dashoffset="0" image-rendering="auto">
  <!--Generated by ySVG 2.5-->
  <defs id="genericDefs"/>
  <g>
    <defs id="defs1">
      <clipPath clipPathUnits="userSpaceOnUse" id="clipPath1">
        <path d="M0 0 L373 0 L373 246 L0 246 L0 0 Z"/>
      </clipPath>
      <clipPath clipPathUnits="userSpaceOnUse" id="clipPath2">
        <path d="M70 114 L443 114 L443 360 L70 360 L70 114 Z"/>
      </clipPath>
    </defs>
    <g fill="rgb(255,204,0)" text-rendering="geometricPrecision" shape-rendering="geometricPrecision" transform="matrix(1,0,0,1,-70,-114)" stroke="rgb(255,204,0)">
      <circle r="15" clip-path="url(#clipPath2)" cx="235" cy="194" stroke="none"/>
    </g>
    <g text-rendering="geometricPrecision" stroke-miterlimit="1.45" shape-rendering="geometricPrecision" font-family="sans-serif" transform="matrix(1,0,0,1,-70,-114)" stroke-linecap="butt">
      <text x="231.1973" xml:space="preserve" y="198.1543" clip-path="url(#clipPath2)" stroke="none">u</text>
      <circle fill="none" r="15" clip-path="url(#clipPath2)" cx="235" cy="194"/>
    </g>
    <g fill="rgb(255,204,0)" text-rendering="geometricPrecision" shape-rendering="geometricPrecision" transform="matrix(1,0,0,1,-70,-114)" stroke="rgb(255,204,0)">
      <circle r="15" clip-path="url(#clipPath2)" cx="368" cy="222" stroke="none"/>
    </g>
    <g text-rendering="geometricPrecision" stroke-miterlimit="1.45" shape-rendering="geometricPrecision" font-family="sans-serif" transform="matrix(1,0,0,1,-70,-114)" stroke-linecap="butt">
      <text x="364.4492" xml:space="preserve" y="226.1543" clip-path="url(#clipPath2)" stroke="none">v</text>
      <circle fill="none" r="15" clip-path="url(#clipPath2)" cx="368" cy="222"/>
    </g>
    <g fill="rgb(255,204,0)" text-rendering="geometricPrecision" shape-rendering="geometricPrecision" transform="matrix(1,0,0,1,-70,-114)" stroke="rgb(255,204,0)">
      <circle r="15" clip-path="url(#clipPath2)" cx="254" cy="330" stroke="none"/>
    </g>
    <g text-rendering="geometricPrecision" stroke-miterlimit="1.45" shape-rendering="geometricPrecision" font-family="sans-serif" transform="matrix(1,0,0,1,-70,-114)" stroke-linecap="butt">
      <text x="249.0928" xml:space="preserve" y="334.1543" clip-path="url(#clipPath2)" stroke="none">w</text>
      <circle fill="none" r="15" clip-path="url(#clipPath2)" cx="254" cy="330"/>
    </g>
    <g fill="rgb(255,204,0)" text-rendering="geometricPrecision" shape-rendering="geometricPrecision" transform="matrix(1,0,0,1,-70,-114)" stroke="rgb(255,204,0)">
      <circle r="15" clip-path="url(#clipPath2)" cx="413" cy="317" stroke="none"/>
    </g>
    <g text-rendering="geometricPrecision" stroke-miterlimit="1.45" shape-rendering="geometricPrecision" font-family="sans-serif" transform="matrix(1,0,0,1,-70,-114)" stroke-linecap="butt">
      <text x="410.6475" xml:space="preserve" y="321.1543" clip-path="url(#clipPath2)" stroke="none">t</text>
      <circle fill="none" r="15" clip-path="url(#clipPath2)" cx="413" cy="317"/>
    </g>
    <g fill="rgb(255,204,0)" text-rendering="geometricPrecision" shape-rendering="geometricPrecision" transform="matrix(1,0,0,1,-70,-114)" stroke="rgb(255,204,0)">
      <circle r="15" clip-path="url(#clipPath2)" cx="322" cy="144" stroke="none"/>
    </g>
    <g text-rendering="geometricPrecision" stroke-miterlimit="1.45" shape-rendering="geometricPrecision" font-family="sans-serif" transform="matrix(1,0,0,1,-70,-114)" stroke-linecap="butt">
      <text x="318.4492" xml:space="preserve" y="148.1543" clip-path="url(#clipPath2)" stroke="none">x</text>
      <circle fill="none" r="15" clip-path="url(#clipPath2)" cx="322" cy="144"/>
    </g>
    <g fill="rgb(255,204,0)" text-rendering="geometricPrecision" shape-rendering="geometricPrecision" transform="matrix(1,0,0,1,-70,-114)" stroke="rgb(255,204,0)">
      <circle r="15" clip-path="url(#clipPath2)" cx="100" cy="217" stroke="none"/>
    </g>
    <g text-rendering="geometricPrecision" stroke-miterlimit="1.45" shape-rendering="geometricPrecision" font-family="sans-serif" transform="matrix(1,0,0,1,-70,-114)" stroke-linecap="butt">
      <text x="96.874" xml:space="preserve" y="221.1543" clip-path="url(#clipPath2)" stroke="none">s</text>
      <circle fill="none" r="15" clip-path="url(#clipPath2)" cx="100" cy="217"/>
      <path fill="none" d="M249.6783 197.0902 L353.3217 218.9098" clip-path="url(#clipPath2)"/>
      <rect x="295.6826" y="199.0156" clip-path="url(#clipPath2)" fill="white" width="11.6348" height="17.9688" stroke="none"/>
      <text x="297.6826" xml:space="preserve" y="212.1543" clip-path="url(#clipPath2)" stroke="none">2</text>
      <path fill="none" d="M237.0754 208.8557 L251.9246 315.1443" clip-path="url(#clipPath2)"/>
      <rect x="238.6826" y="253.0156" clip-path="url(#clipPath2)" fill="white" width="11.6348" height="17.9688" stroke="none"/>
      <text x="240.6826" xml:space="preserve" y="266.1543" clip-path="url(#clipPath2)" stroke="none">1</text>
      <path fill="none" d="M264.8893 319.6838 L357.1107 232.3162" clip-path="url(#clipPath2)"/>
      <rect x="305.1826" y="267.0156" clip-path="url(#clipPath2)" fill="white" width="11.6348" height="17.9688" stroke="none"/>
      <text x="307.1826" xml:space="preserve" y="280.1543" clip-path="url(#clipPath2)" stroke="none">4</text>
      <path fill="none" d="M268.9501 328.7776 L398.0499 318.2224" clip-path="url(#clipPath2)"/>
      <rect x="327.6826" y="314.5156" clip-path="url(#clipPath2)" fill="white" width="11.6348" height="17.9688" stroke="none"/>
      <text x="329.6826" xml:space="preserve" y="327.6543" clip-path="url(#clipPath2)" stroke="none">2</text>
      <path fill="none" d="M248.0052 186.5257 L308.9948 151.4743" clip-path="url(#clipPath2)"/>
      <rect x="272.6826" y="160.0156" clip-path="url(#clipPath2)" fill="white" width="11.6348" height="17.9688" stroke="none"/>
      <text x="274.6826" xml:space="preserve" y="173.1543" clip-path="url(#clipPath2)" stroke="none">3</text>
      <path fill="none" d="M114.7869 214.4807 L220.2131 196.5193" clip-path="url(#clipPath2)"/>
      <rect x="161.6826" y="196.5156" clip-path="url(#clipPath2)" fill="white" width="11.6348" height="17.9688" stroke="none"/>
      <text x="163.6826" xml:space="preserve" y="209.6543" clip-path="url(#clipPath2)" stroke="none">4</text>
      <path fill="none" d="M112.0936 225.8739 L241.9064 321.1261" clip-path="url(#clipPath2)"/>
      <rect x="171.1826" y="264.5156" clip-path="url(#clipPath2)" fill="white" width="11.6348" height="17.9688" stroke="none"/>
      <text x="173.1826" xml:space="preserve" y="277.6543" clip-path="url(#clipPath2)" stroke="none">3</text>
    </g>
  </g>
</svg>
