<?xml version="1.0" encoding="UTF-8"?><svg xmlns="http://www.w3.org/2000/svg" xmlns:xlink="http://www.w3.org/1999/xlink" fill-opacity="1" color-rendering="auto" color-interpolation="auto" text-rendering="auto" stroke="black" stroke-linecap="square" width="263" stroke-miterlimit="10" shape-rendering="auto" stroke-opacity="1" fill="black" stroke-dasharray="none" font-weight="normal" stroke-width="1" height="330" font-family="'Dialog'" font-style="normal" stroke-linejoin="miter" font-size="12px" stroke-dashoffset="0" image-rendering="auto">
  <!--Generated by ySVG 2.5-->
  <defs id="genericDefs"/>
  <g>
    <defs id="defs1">
      <clipPath clipPathUnits="userSpaceOnUse" id="clipPath1">
        <path d="M0 0 L263 0 L263 330 L0 330 L0 0 Z"/>
      </clipPath>
      <clipPath clipPathUnits="userSpaceOnUse" id="clipPath2">
        <path d="M-15 -75 L248 -75 L248 255 L-15 255 L-15 -75 Z"/>
      </clipPath>
    </defs>
    <g fill="rgb(255,204,0)" text-rendering="geometricPrecision" shape-rendering="geometricPrecision" transform="matrix(1,0,0,1,15,75)" stroke="rgb(255,204,0)">
      <circle r="15" clip-path="url(#clipPath2)" cx="140" cy="-45" stroke="none"/>
    </g>
    <g text-rendering="geometricPrecision" stroke-miterlimit="1.45" shape-rendering="geometricPrecision" transform="matrix(1,0,0,1,15,75)" stroke-linecap="butt">
      <circle fill="none" r="15" clip-path="url(#clipPath2)" cx="140" cy="-45"/>
      <text x="136.1826" xml:space="preserve" y="-40.8457" clip-path="url(#clipPath2)" font-family="sans-serif" stroke="none">1</text>
    </g>
    <g fill="rgb(255,204,0)" text-rendering="geometricPrecision" shape-rendering="geometricPrecision" transform="matrix(1,0,0,1,15,75)" stroke="rgb(255,204,0)">
      <circle r="15" clip-path="url(#clipPath2)" cx="90" cy="15" stroke="none"/>
    </g>
    <g text-rendering="geometricPrecision" stroke-miterlimit="1.45" shape-rendering="geometricPrecision" transform="matrix(1,0,0,1,15,75)" stroke-linecap="butt">
      <circle fill="none" r="15" clip-path="url(#clipPath2)" cx="90" cy="15"/>
      <text x="86.1826" xml:space="preserve" y="19.1543" clip-path="url(#clipPath2)" font-family="sans-serif" stroke="none">2</text>
    </g>
    <g fill="rgb(255,204,0)" text-rendering="geometricPrecision" shape-rendering="geometricPrecision" transform="matrix(1,0,0,1,15,75)" stroke="rgb(255,204,0)">
      <circle r="15" clip-path="url(#clipPath2)" cx="193" cy="15" stroke="none"/>
    </g>
    <g text-rendering="geometricPrecision" stroke-miterlimit="1.45" shape-rendering="geometricPrecision" transform="matrix(1,0,0,1,15,75)" stroke-linecap="butt">
      <circle fill="none" r="15" clip-path="url(#clipPath2)" cx="193" cy="15"/>
      <text x="189.1826" xml:space="preserve" y="19.1543" clip-path="url(#clipPath2)" font-family="sans-serif" stroke="none">3</text>
    </g>
    <g fill="rgb(255,204,0)" text-rendering="geometricPrecision" shape-rendering="geometricPrecision" transform="matrix(1,0,0,1,15,75)" stroke="rgb(255,204,0)">
      <circle r="15" clip-path="url(#clipPath2)" cx="40" cy="85" stroke="none"/>
    </g>
    <g text-rendering="geometricPrecision" stroke-miterlimit="1.45" shape-rendering="geometricPrecision" transform="matrix(1,0,0,1,15,75)" stroke-linecap="butt">
      <circle fill="none" r="15" clip-path="url(#clipPath2)" cx="40" cy="85"/>
      <text x="36.1826" xml:space="preserve" y="89.1543" clip-path="url(#clipPath2)" font-family="sans-serif" stroke="none">4</text>
    </g>
    <g fill="rgb(255,204,0)" text-rendering="geometricPrecision" shape-rendering="geometricPrecision" transform="matrix(1,0,0,1,15,75)" stroke="rgb(255,204,0)">
      <circle r="15" clip-path="url(#clipPath2)" cx="90" cy="85" stroke="none"/>
    </g>
    <g text-rendering="geometricPrecision" stroke-miterlimit="1.45" shape-rendering="geometricPrecision" transform="matrix(1,0,0,1,15,75)" stroke-linecap="butt">
      <circle fill="none" r="15" clip-path="url(#clipPath2)" cx="90" cy="85"/>
      <text x="86.1826" xml:space="preserve" y="89.1543" clip-path="url(#clipPath2)" font-family="sans-serif" stroke="none">5</text>
    </g>
    <g fill="rgb(255,204,0)" text-rendering="geometricPrecision" shape-rendering="geometricPrecision" transform="matrix(1,0,0,1,15,75)" stroke="rgb(255,204,0)">
      <circle r="15" clip-path="url(#clipPath2)" cx="40" cy="155" stroke="none"/>
    </g>
    <g text-rendering="geometricPrecision" stroke-miterlimit="1.45" shape-rendering="geometricPrecision" transform="matrix(1,0,0,1,15,75)" stroke-linecap="butt">
      <circle fill="none" r="15" clip-path="url(#clipPath2)" cx="40" cy="155"/>
      <text x="36.1826" xml:space="preserve" y="159.1543" clip-path="url(#clipPath2)" font-family="sans-serif" stroke="none">6</text>
    </g>
    <g fill="rgb(255,204,0)" text-rendering="geometricPrecision" shape-rendering="geometricPrecision" transform="matrix(1,0,0,1,15,75)" stroke="rgb(255,204,0)">
      <circle r="15" clip-path="url(#clipPath2)" cx="65" cy="225" stroke="none"/>
    </g>
    <g text-rendering="geometricPrecision" stroke-miterlimit="1.45" shape-rendering="geometricPrecision" transform="matrix(1,0,0,1,15,75)" stroke-linecap="butt">
      <circle fill="none" r="15" clip-path="url(#clipPath2)" cx="65" cy="225"/>
      <text x="61.1826" xml:space="preserve" y="229.1543" clip-path="url(#clipPath2)" font-family="sans-serif" stroke="none">7</text>
    </g>
    <g fill="rgb(255,204,0)" text-rendering="geometricPrecision" shape-rendering="geometricPrecision" transform="matrix(1,0,0,1,15,75)" stroke="rgb(255,204,0)">
      <circle r="15" clip-path="url(#clipPath2)" cx="15" cy="225" stroke="none"/>
    </g>
    <g text-rendering="geometricPrecision" stroke-miterlimit="1.45" shape-rendering="geometricPrecision" transform="matrix(1,0,0,1,15,75)" stroke-linecap="butt">
      <circle fill="none" r="15" clip-path="url(#clipPath2)" cx="15" cy="225"/>
      <text x="11.1826" xml:space="preserve" y="229.1543" clip-path="url(#clipPath2)" font-family="sans-serif" stroke="none">8</text>
    </g>
    <g fill="rgb(255,204,0)" text-rendering="geometricPrecision" shape-rendering="geometricPrecision" transform="matrix(1,0,0,1,15,75)" stroke="rgb(255,204,0)">
      <circle r="15" clip-path="url(#clipPath2)" cx="218" cy="85" stroke="none"/>
    </g>
    <g text-rendering="geometricPrecision" stroke-miterlimit="1.45" shape-rendering="geometricPrecision" transform="matrix(1,0,0,1,15,75)" stroke-linecap="butt">
      <circle fill="none" r="15" clip-path="url(#clipPath2)" cx="218" cy="85"/>
      <text x="214.1826" xml:space="preserve" y="89.1543" clip-path="url(#clipPath2)" font-family="sans-serif" stroke="none">9</text>
    </g>
    <g fill="rgb(255,204,0)" text-rendering="geometricPrecision" shape-rendering="geometricPrecision" transform="matrix(1,0,0,1,15,75)" stroke="rgb(255,204,0)">
      <circle r="15" clip-path="url(#clipPath2)" cx="168" cy="85" stroke="none"/>
    </g>
    <g text-rendering="geometricPrecision" stroke-miterlimit="1.45" shape-rendering="geometricPrecision" transform="matrix(1,0,0,1,15,75)" stroke-linecap="butt">
      <circle fill="none" r="15" clip-path="url(#clipPath2)" cx="168" cy="85"/>
      <text x="160.3652" xml:space="preserve" y="89.1543" clip-path="url(#clipPath2)" font-family="sans-serif" stroke="none">10</text>
      <path fill="none" d="M130.3972 -33.4767 L104.7242 -2.6691" clip-path="url(#clipPath2)"/>
      <path d="M99.6028 3.4767 L111.1261 -2.5411 L105.3644 -3.4373 L103.4439 -8.9429 Z" clip-path="url(#clipPath2)" stroke="none"/>
      <path fill="none" d="M149.9305 -33.7579 L177.7732 -2.2379" clip-path="url(#clipPath2)"/>
      <path d="M183.0695 3.7579 L178.8724 -8.5459 L177.1112 -2.9874 L171.3777 -1.9256 Z" clip-path="url(#clipPath2)" stroke="none"/>
      <path fill="none" d="M81.2814 27.206 L53.3685 66.2841" clip-path="url(#clipPath2)"/>
      <path d="M48.7186 72.794 L59.7621 65.9354 L53.9497 65.4704 L51.6248 60.123 Z" clip-path="url(#clipPath2)" stroke="none"/>
      <path fill="none" d="M90 30 L90 62" clip-path="url(#clipPath2)"/>
      <path d="M90 70 L95 58 L90 61 L85 58 Z" clip-path="url(#clipPath2)" stroke="none"/>
      <path fill="none" d="M75 85 L63 85" clip-path="url(#clipPath2)"/>
      <path d="M55 85 L67 90 L64 85 L67 80 Z" clip-path="url(#clipPath2)" stroke="none"/>
      <path fill="none" d="M40 100 L40 132" clip-path="url(#clipPath2)"/>
      <path d="M40 140 L45 128 L40 131 L35 128 Z" clip-path="url(#clipPath2)" stroke="none"/>
      <path fill="none" d="M45.045 169.1261 L57.2643 203.3399" clip-path="url(#clipPath2)"/>
      <path d="M59.955 210.8739 L60.6276 197.8913 L56.9279 202.3982 L51.2102 201.2547 Z" clip-path="url(#clipPath2)" stroke="none"/>
      <path fill="none" d="M34.955 169.1261 L22.7357 203.3399" clip-path="url(#clipPath2)"/>
      <path d="M20.045 210.8739 L28.7898 201.2547 L23.0721 202.3982 L19.3724 197.8913 Z" clip-path="url(#clipPath2)" stroke="none"/>
      <path fill="none" d="M198.045 29.1261 L210.2643 63.3399" clip-path="url(#clipPath2)"/>
      <path d="M212.955 70.8739 L213.6276 57.8913 L209.9279 62.3982 L204.2102 61.2546 Z" clip-path="url(#clipPath2)" stroke="none"/>
      <path fill="none" d="M203 85 L191 85" clip-path="url(#clipPath2)"/>
      <path d="M183 85 L195 90 L192 85 L195 80 Z" clip-path="url(#clipPath2)" stroke="none"/>
      <path fill="none" d="M173.045 70.8739 L185.2643 36.6601" clip-path="url(#clipPath2)"/>
      <path d="M187.955 29.1261 L179.2102 38.7454 L184.9279 37.6018 L188.6276 42.1087 Z" clip-path="url(#clipPath2)" stroke="none"/>
    </g>
  </g>
</svg>
