<?xml version="1.0" encoding="UTF-8"?><svg xmlns="http://www.w3.org/2000/svg" xmlns:xlink="http://www.w3.org/1999/xlink" fill-opacity="1" color-rendering="auto" color-interpolation="auto" text-rendering="auto" stroke="black" stroke-linecap="square" width="472" stroke-miterlimit="10" shape-rendering="auto" stroke-opacity="1" fill="black" stroke-dasharray="none" font-weight="normal" stroke-width="1" height="188" font-family="'Dialog'" font-style="normal" stroke-linejoin="miter" font-size="12px" stroke-dashoffset="0" image-rendering="auto">
  <!--Generated by ySVG 2.5-->
  <defs id="genericDefs"/>
  <g>
    <defs id="defs1">
      <clipPath clipPathUnits="userSpaceOnUse" id="clipPath1">
        <path d="M0 0 L472 0 L472 188 L0 188 L0 0 Z"/>
      </clipPath>
      <clipPath clipPathUnits="userSpaceOnUse" id="clipPath2">
        <path d="M-10 94 L462 94 L462 282 L-10 282 L-10 94 Z"/>
      </clipPath>
    </defs>
    <g fill="rgb(255,204,0)" text-rendering="geometricPrecision" shape-rendering="geometricPrecision" transform="matrix(1,0,0,1,10,-94)" stroke="rgb(255,204,0)">
      <circle r="15" clip-path="url(#clipPath2)" cx="20.5" cy="124" stroke="none"/>
    </g>
    <g text-rendering="geometricPrecision" stroke-miterlimit="1.45" shape-rendering="geometricPrecision" font-family="sans-serif" transform="matrix(1,0,0,1,10,-94)" stroke-linecap="butt">
      <text x="18.0332" xml:space="preserve" y="128.1543" clip-path="url(#clipPath2)" stroke="none">r</text>
      <circle fill="none" r="15" clip-path="url(#clipPath2)" cx="20.5" cy="124"/>
    </g>
    <g fill="rgb(255,204,0)" text-rendering="geometricPrecision" shape-rendering="geometricPrecision" transform="matrix(1,0,0,1,10,-94)" stroke="rgb(255,204,0)">
      <circle r="15" clip-path="url(#clipPath2)" cx="20.5" cy="252" stroke="none"/>
    </g>
    <g text-rendering="geometricPrecision" stroke-miterlimit="1.45" shape-rendering="geometricPrecision" font-family="sans-serif" transform="matrix(1,0,0,1,10,-94)" stroke-linecap="butt">
      <text x="16.9492" xml:space="preserve" y="256.1543" clip-path="url(#clipPath2)" stroke="none">v</text>
      <circle fill="none" r="15" clip-path="url(#clipPath2)" cx="20.5" cy="252"/>
    </g>
    <g fill="rgb(255,204,0)" text-rendering="geometricPrecision" shape-rendering="geometricPrecision" transform="matrix(1,0,0,1,10,-94)" stroke="rgb(255,204,0)">
      <circle r="15" clip-path="url(#clipPath2)" cx="157.5" cy="124" stroke="none"/>
    </g>
    <g text-rendering="geometricPrecision" stroke-miterlimit="1.45" shape-rendering="geometricPrecision" font-family="sans-serif" transform="matrix(1,0,0,1,10,-94)" stroke-linecap="butt">
      <text x="154.374" xml:space="preserve" y="128.1543" clip-path="url(#clipPath2)" stroke="none">s</text>
      <circle fill="none" r="15" clip-path="url(#clipPath2)" cx="157.5" cy="124"/>
    </g>
    <g fill="rgb(255,204,0)" text-rendering="geometricPrecision" shape-rendering="geometricPrecision" transform="matrix(1,0,0,1,10,-94)" stroke="rgb(255,204,0)">
      <circle r="15" clip-path="url(#clipPath2)" cx="157.5" cy="252" stroke="none"/>
    </g>
    <g text-rendering="geometricPrecision" stroke-miterlimit="1.45" shape-rendering="geometricPrecision" font-family="sans-serif" transform="matrix(1,0,0,1,10,-94)" stroke-linecap="butt">
      <text x="152.5928" xml:space="preserve" y="256.1543" clip-path="url(#clipPath2)" stroke="none">w</text>
      <circle fill="none" r="15" clip-path="url(#clipPath2)" cx="157.5" cy="252"/>
    </g>
    <g fill="rgb(255,204,0)" text-rendering="geometricPrecision" shape-rendering="geometricPrecision" transform="matrix(1,0,0,1,10,-94)" stroke="rgb(255,204,0)">
      <circle r="15" clip-path="url(#clipPath2)" cx="294.5" cy="252" stroke="none"/>
    </g>
    <g text-rendering="geometricPrecision" stroke-miterlimit="1.45" shape-rendering="geometricPrecision" font-family="sans-serif" transform="matrix(1,0,0,1,10,-94)" stroke-linecap="butt">
      <text x="290.9492" xml:space="preserve" y="256.1543" clip-path="url(#clipPath2)" stroke="none">x</text>
      <circle fill="none" r="15" clip-path="url(#clipPath2)" cx="294.5" cy="252"/>
    </g>
    <g fill="rgb(255,204,0)" text-rendering="geometricPrecision" shape-rendering="geometricPrecision" transform="matrix(1,0,0,1,10,-94)" stroke="rgb(255,204,0)">
      <circle r="15" clip-path="url(#clipPath2)" cx="294.5" cy="124" stroke="none"/>
    </g>
    <g text-rendering="geometricPrecision" stroke-miterlimit="1.45" shape-rendering="geometricPrecision" font-family="sans-serif" transform="matrix(1,0,0,1,10,-94)" stroke-linecap="butt">
      <text x="292.1475" xml:space="preserve" y="128.1543" clip-path="url(#clipPath2)" stroke="none">t</text>
      <circle fill="none" r="15" clip-path="url(#clipPath2)" cx="294.5" cy="124"/>
    </g>
    <g fill="rgb(255,204,0)" text-rendering="geometricPrecision" shape-rendering="geometricPrecision" transform="matrix(1,0,0,1,10,-94)" stroke="rgb(255,204,0)">
      <circle r="15" clip-path="url(#clipPath2)" cx="431.5" cy="124" stroke="none"/>
    </g>
    <g text-rendering="geometricPrecision" stroke-miterlimit="1.45" shape-rendering="geometricPrecision" font-family="sans-serif" transform="matrix(1,0,0,1,10,-94)" stroke-linecap="butt">
      <text x="427.6973" xml:space="preserve" y="128.1543" clip-path="url(#clipPath2)" stroke="none">u</text>
      <circle fill="none" r="15" clip-path="url(#clipPath2)" cx="431.5" cy="124"/>
    </g>
    <g fill="rgb(255,204,0)" text-rendering="geometricPrecision" shape-rendering="geometricPrecision" transform="matrix(1,0,0,1,10,-94)" stroke="rgb(255,204,0)">
      <circle r="15" clip-path="url(#clipPath2)" cx="431.5" cy="252" stroke="none"/>
    </g>
    <g text-rendering="geometricPrecision" stroke-miterlimit="1.45" shape-rendering="geometricPrecision" font-family="sans-serif" transform="matrix(1,0,0,1,10,-94)" stroke-linecap="butt">
      <text x="427.9492" xml:space="preserve" y="256.1543" clip-path="url(#clipPath2)" stroke="none">y</text>
      <circle fill="none" r="15" clip-path="url(#clipPath2)" cx="431.5" cy="252"/>
      <path fill="none" d="M20.5 139 L20.5 237" clip-path="url(#clipPath2)"/>
      <path fill="none" d="M35.5 124 L142.5 124" clip-path="url(#clipPath2)"/>
      <path fill="none" d="M157.5 139 L157.5 237" clip-path="url(#clipPath2)"/>
      <path fill="none" d="M279.5 252 L172.5 252" clip-path="url(#clipPath2)"/>
      <path fill="none" d="M168.4605 241.7595 L283.5395 134.2405" clip-path="url(#clipPath2)"/>
      <path fill="none" d="M294.5 139 L294.5 237" clip-path="url(#clipPath2)"/>
      <path fill="none" d="M309.5 124 L416.5 124" clip-path="url(#clipPath2)"/>
      <path fill="none" d="M305.4605 241.7595 L420.5395 134.2405" clip-path="url(#clipPath2)"/>
      <path fill="none" d="M431.5 139 L431.5 237" clip-path="url(#clipPath2)"/>
      <path fill="none" d="M416.5 252 L309.5 252" clip-path="url(#clipPath2)"/>
    </g>
  </g>
</svg>
