<?xml version="1.0" encoding="UTF-8"?><svg xmlns="http://www.w3.org/2000/svg" xmlns:xlink="http://www.w3.org/1999/xlink" fill-opacity="1" color-rendering="auto" color-interpolation="auto" text-rendering="auto" stroke="black" stroke-linecap="square" width="348" stroke-miterlimit="10" shape-rendering="auto" stroke-opacity="1" fill="black" stroke-dasharray="none" font-weight="normal" stroke-width="1" height="204" font-family="'Dialog'" font-style="normal" stroke-linejoin="miter" font-size="12px" stroke-dashoffset="0" image-rendering="auto">
  <!--Generated by ySVG 2.5-->
  <defs id="genericDefs"/>
  <g>
    <defs id="defs1">
      <clipPath clipPathUnits="userSpaceOnUse" id="clipPath1">
        <path d="M0 0 L348 0 L348 204 L0 204 L0 0 Z"/>
      </clipPath>
      <clipPath clipPathUnits="userSpaceOnUse" id="clipPath2">
        <path d="M129 168 L477 168 L477 372 L129 372 L129 168 Z"/>
      </clipPath>
    </defs>
    <g fill="rgb(255,204,0)" text-rendering="geometricPrecision" shape-rendering="geometricPrecision" transform="matrix(1,0,0,1,-129,-168)" stroke="rgb(255,204,0)">
      <circle r="15" clip-path="url(#clipPath2)" cx="159" cy="198" stroke="none"/>
    </g>
    <g text-rendering="geometricPrecision" stroke-miterlimit="1.45" shape-rendering="geometricPrecision" font-family="sans-serif" transform="matrix(1,0,0,1,-129,-168)" stroke-linecap="butt">
      <text x="155.1826" xml:space="preserve" y="202.1543" clip-path="url(#clipPath2)" stroke="none">1</text>
      <circle fill="none" r="15" clip-path="url(#clipPath2)" cx="159" cy="198"/>
    </g>
    <g fill="rgb(255,204,0)" text-rendering="geometricPrecision" shape-rendering="geometricPrecision" transform="matrix(1,0,0,1,-129,-168)" stroke="rgb(255,204,0)">
      <circle r="15" clip-path="url(#clipPath2)" cx="284.5" cy="198" stroke="none"/>
    </g>
    <g text-rendering="geometricPrecision" stroke-miterlimit="1.45" shape-rendering="geometricPrecision" font-family="sans-serif" transform="matrix(1,0,0,1,-129,-168)" stroke-linecap="butt">
      <text x="280.6826" xml:space="preserve" y="202.1543" clip-path="url(#clipPath2)" stroke="none">2</text>
      <circle fill="none" r="15" clip-path="url(#clipPath2)" cx="284.5" cy="198"/>
    </g>
    <g fill="rgb(255,204,0)" text-rendering="geometricPrecision" shape-rendering="geometricPrecision" transform="matrix(1,0,0,1,-129,-168)" stroke="rgb(255,204,0)">
      <circle r="15" clip-path="url(#clipPath2)" cx="416" cy="198" stroke="none"/>
    </g>
    <g text-rendering="geometricPrecision" stroke-miterlimit="1.45" shape-rendering="geometricPrecision" font-family="sans-serif" transform="matrix(1,0,0,1,-129,-168)" stroke-linecap="butt">
      <text x="412.1826" xml:space="preserve" y="202.1543" clip-path="url(#clipPath2)" stroke="none">3</text>
      <circle fill="none" r="15" clip-path="url(#clipPath2)" cx="416" cy="198"/>
    </g>
    <g fill="rgb(255,204,0)" text-rendering="geometricPrecision" shape-rendering="geometricPrecision" transform="matrix(1,0,0,1,-129,-168)" stroke="rgb(255,204,0)">
      <circle r="15" clip-path="url(#clipPath2)" cx="159" cy="319" stroke="none"/>
    </g>
    <g text-rendering="geometricPrecision" stroke-miterlimit="1.45" shape-rendering="geometricPrecision" font-family="sans-serif" transform="matrix(1,0,0,1,-129,-168)" stroke-linecap="butt">
      <text x="155.1826" xml:space="preserve" y="323.1543" clip-path="url(#clipPath2)" stroke="none">4</text>
      <circle fill="none" r="15" clip-path="url(#clipPath2)" cx="159" cy="319"/>
    </g>
    <g fill="rgb(255,204,0)" text-rendering="geometricPrecision" shape-rendering="geometricPrecision" transform="matrix(1,0,0,1,-129,-168)" stroke="rgb(255,204,0)">
      <circle r="15" clip-path="url(#clipPath2)" cx="284" cy="318" stroke="none"/>
    </g>
    <g text-rendering="geometricPrecision" stroke-miterlimit="1.45" shape-rendering="geometricPrecision" font-family="sans-serif" transform="matrix(1,0,0,1,-129,-168)" stroke-linecap="butt">
      <text x="280.1826" xml:space="preserve" y="322.1543" clip-path="url(#clipPath2)" stroke="none">5</text>
      <circle fill="none" r="15" clip-path="url(#clipPath2)" cx="284" cy="318"/>
    </g>
    <g fill="rgb(255,204,0)" text-rendering="geometricPrecision" shape-rendering="geometricPrecision" transform="matrix(1,0,0,1,-129,-168)" stroke="rgb(255,204,0)">
      <circle r="15" clip-path="url(#clipPath2)" cx="416" cy="318" stroke="none"/>
    </g>
    <g text-rendering="geometricPrecision" stroke-miterlimit="1.45" shape-rendering="geometricPrecision" font-family="sans-serif" transform="matrix(1,0,0,1,-129,-168)" stroke-linecap="butt">
      <text x="412.1826" xml:space="preserve" y="322.1543" clip-path="url(#clipPath2)" stroke="none">6</text>
      <circle fill="none" r="15" clip-path="url(#clipPath2)" cx="416" cy="318"/>
      <path fill="none" d="M174 198 L261.5 198" clip-path="url(#clipPath2)"/>
      <path d="M269.5 198 L257.5 193 L260.5 198 L257.5 203 Z" clip-path="url(#clipPath2)" stroke="none"/>
      <path fill="none" d="M159 213 L159 296" clip-path="url(#clipPath2)"/>
      <path d="M159 304 L164 292 L159 295 L154 292 Z" clip-path="url(#clipPath2)" stroke="none"/>
      <path fill="none" d="M169.7984 308.5888 L267.9424 213.9639" clip-path="url(#clipPath2)"/>
      <path d="M273.7016 208.4112 L261.5924 213.1408 L267.2225 214.658 L268.5332 220.3397 Z" clip-path="url(#clipPath2)" stroke="none"/>
      <path fill="none" d="M284.4375 212.9999 L284.0958 295.0002" clip-path="url(#clipPath2)"/>
      <path d="M284.0625 303.0002 L289.1125 291.0211 L284.1 294.0002 L279.1125 290.9794 Z" clip-path="url(#clipPath2)" stroke="none"/>
      <path fill="none" d="M404.9009 208.0901 L301.0186 302.5285" clip-path="url(#clipPath2)"/>
      <path d="M295.0991 307.9099 L307.3417 303.5375 L301.7585 301.8559 L300.615 296.1382 Z" clip-path="url(#clipPath2)" stroke="none"/>
      <path fill="none" d="M269.0005 318.12 L181.9993 318.816" clip-path="url(#clipPath2)"/>
      <path d="M173.9995 318.88 L186.0391 323.7838 L182.9992 318.808 L185.9592 313.7842 Z" clip-path="url(#clipPath2)" stroke="none"/>
      <path fill="none" d="M416 213 L416 295" clip-path="url(#clipPath2)"/>
      <path d="M416 303 L421 291 L416 294 L411 291 Z" clip-path="url(#clipPath2)" stroke="none"/>
      <path fill="none" d="M416.0585 333.0101 L416.1704 335.5259 L416.5203 339.4803 L417.075 343.15 L417.8756 346.478 L418.963 349.4074 L420.3781 351.8813 L422.162 353.8426 L424.3557 355.2345 L427 356 L430.1089 356.1044 L433.588 355.6018 L437.3156 354.5688 L441.1704 353.0815 L445.0307 351.2164 L448.775 349.05 L452.2818 346.6586 L455.4296 344.1185 L458.0969 341.5063 L460.162 338.8982 L461.5036 336.3706 L462 334 L461.5634 331.8468 L460.2408 329.9074 L458.1125 328.1625 L455.2592 326.5926 L451.7616 325.1783 L447.7 323.9 L443.1551 322.7384 L438.6957 321.7791 L438.5973 321.7612" clip-path="url(#clipPath2)"/>
      <path d="M430.7293 320.3141 L441.6268 327.4023 L439.5808 321.9421 L443.4358 317.5673 Z" clip-path="url(#clipPath2)" stroke="none"/>
    </g>
  </g>
</svg>
