<?xml version="1.0" encoding="UTF-8"?><svg xmlns="http://www.w3.org/2000/svg" xmlns:xlink="http://www.w3.org/1999/xlink" fill-opacity="1" color-rendering="auto" color-interpolation="auto" text-rendering="auto" stroke="black" stroke-linecap="square" width="301" stroke-miterlimit="10" shape-rendering="auto" stroke-opacity="1" fill="black" stroke-dasharray="none" font-weight="normal" stroke-width="1" height="420" font-family="'Dialog'" font-style="normal" stroke-linejoin="miter" font-size="12px" stroke-dashoffset="0" image-rendering="auto">
  <!--Generated by ySVG 2.5-->
  <defs id="genericDefs"/>
  <g>
    <defs id="defs1">
      <clipPath clipPathUnits="userSpaceOnUse" id="clipPath1">
        <path d="M0 0 L301 0 L301 420 L0 420 L0 0 Z"/>
      </clipPath>
      <clipPath clipPathUnits="userSpaceOnUse" id="clipPath2">
        <path d="M86 127 L387 127 L387 547 L86 547 L86 127 Z"/>
      </clipPath>
    </defs>
    <g fill="rgb(255,204,0)" text-rendering="geometricPrecision" shape-rendering="geometricPrecision" transform="matrix(1,0,0,1,-86,-127)" stroke="rgb(255,204,0)">
      <circle r="15" clip-path="url(#clipPath2)" cx="296.5" cy="157" stroke="none"/>
    </g>
    <g text-rendering="geometricPrecision" stroke-miterlimit="1.45" shape-rendering="geometricPrecision" font-family="sans-serif" transform="matrix(1,0,0,1,-86,-127)" stroke-linecap="butt">
      <text x="292.6826" xml:space="preserve" y="161.1543" clip-path="url(#clipPath2)" stroke="none">1</text>
      <circle fill="none" r="15" clip-path="url(#clipPath2)" cx="296.5" cy="157"/>
    </g>
    <g fill="rgb(255,204,0)" text-rendering="geometricPrecision" shape-rendering="geometricPrecision" transform="matrix(1,0,0,1,-86,-127)" stroke="rgb(255,204,0)">
      <circle r="15" clip-path="url(#clipPath2)" cx="236.5" cy="217" stroke="none"/>
    </g>
    <g text-rendering="geometricPrecision" stroke-miterlimit="1.45" shape-rendering="geometricPrecision" font-family="sans-serif" transform="matrix(1,0,0,1,-86,-127)" stroke-linecap="butt">
      <text x="232.6826" xml:space="preserve" y="221.1543" clip-path="url(#clipPath2)" stroke="none">2</text>
      <circle fill="none" r="15" clip-path="url(#clipPath2)" cx="236.5" cy="217"/>
    </g>
    <g fill="rgb(255,204,0)" text-rendering="geometricPrecision" shape-rendering="geometricPrecision" transform="matrix(1,0,0,1,-86,-127)" stroke="rgb(255,204,0)">
      <circle r="15" clip-path="url(#clipPath2)" cx="356.5" cy="217" stroke="none"/>
    </g>
    <g text-rendering="geometricPrecision" stroke-miterlimit="1.45" shape-rendering="geometricPrecision" font-family="sans-serif" transform="matrix(1,0,0,1,-86,-127)" stroke-linecap="butt">
      <text x="352.6826" xml:space="preserve" y="221.1543" clip-path="url(#clipPath2)" stroke="none">3</text>
      <circle fill="none" r="15" clip-path="url(#clipPath2)" cx="356.5" cy="217"/>
    </g>
    <g fill="rgb(255,204,0)" text-rendering="geometricPrecision" shape-rendering="geometricPrecision" transform="matrix(1,0,0,1,-86,-127)" stroke="rgb(255,204,0)">
      <circle r="15" clip-path="url(#clipPath2)" cx="176.5" cy="517" stroke="none"/>
    </g>
    <g text-rendering="geometricPrecision" stroke-miterlimit="1.45" shape-rendering="geometricPrecision" font-family="sans-serif" transform="matrix(1,0,0,1,-86,-127)" stroke-linecap="butt">
      <text x="172.6826" xml:space="preserve" y="521.1543" clip-path="url(#clipPath2)" stroke="none">9</text>
      <circle fill="none" r="15" clip-path="url(#clipPath2)" cx="176.5" cy="517"/>
    </g>
    <g fill="rgb(255,204,0)" text-rendering="geometricPrecision" shape-rendering="geometricPrecision" transform="matrix(1,0,0,1,-86,-127)" stroke="rgb(255,204,0)">
      <circle r="15" clip-path="url(#clipPath2)" cx="176.5" cy="277" stroke="none"/>
    </g>
    <g text-rendering="geometricPrecision" stroke-miterlimit="1.45" shape-rendering="geometricPrecision" font-family="sans-serif" transform="matrix(1,0,0,1,-86,-127)" stroke-linecap="butt">
      <text x="172.6826" xml:space="preserve" y="281.1543" clip-path="url(#clipPath2)" stroke="none">4</text>
      <circle fill="none" r="15" clip-path="url(#clipPath2)" cx="176.5" cy="277"/>
    </g>
    <g fill="rgb(255,204,0)" text-rendering="geometricPrecision" shape-rendering="geometricPrecision" transform="matrix(1,0,0,1,-86,-127)" stroke="rgb(255,204,0)">
      <circle r="15" clip-path="url(#clipPath2)" cx="116.5" cy="337" stroke="none"/>
    </g>
    <g text-rendering="geometricPrecision" stroke-miterlimit="1.45" shape-rendering="geometricPrecision" font-family="sans-serif" transform="matrix(1,0,0,1,-86,-127)" stroke-linecap="butt">
      <text x="112.6826" xml:space="preserve" y="341.1543" clip-path="url(#clipPath2)" stroke="none">5</text>
      <circle fill="none" r="15" clip-path="url(#clipPath2)" cx="116.5" cy="337"/>
    </g>
    <g fill="rgb(255,204,0)" text-rendering="geometricPrecision" shape-rendering="geometricPrecision" transform="matrix(1,0,0,1,-86,-127)" stroke="rgb(255,204,0)">
      <circle r="15" clip-path="url(#clipPath2)" cx="236.5" cy="337" stroke="none"/>
    </g>
    <g text-rendering="geometricPrecision" stroke-miterlimit="1.45" shape-rendering="geometricPrecision" font-family="sans-serif" transform="matrix(1,0,0,1,-86,-127)" stroke-linecap="butt">
      <text x="232.6826" xml:space="preserve" y="341.1543" clip-path="url(#clipPath2)" stroke="none">6</text>
      <circle fill="none" r="15" clip-path="url(#clipPath2)" cx="236.5" cy="337"/>
    </g>
    <g fill="rgb(255,204,0)" text-rendering="geometricPrecision" shape-rendering="geometricPrecision" transform="matrix(1,0,0,1,-86,-127)" stroke="rgb(255,204,0)">
      <circle r="15" clip-path="url(#clipPath2)" cx="296.5" cy="397" stroke="none"/>
    </g>
    <g text-rendering="geometricPrecision" stroke-miterlimit="1.45" shape-rendering="geometricPrecision" font-family="sans-serif" transform="matrix(1,0,0,1,-86,-127)" stroke-linecap="butt">
      <text x="292.6826" xml:space="preserve" y="403.1699" clip-path="url(#clipPath2)" stroke="none">7</text>
      <circle fill="none" r="15" clip-path="url(#clipPath2)" cx="296.5" cy="397"/>
    </g>
    <g fill="rgb(255,204,0)" text-rendering="geometricPrecision" shape-rendering="geometricPrecision" transform="matrix(1,0,0,1,-86,-127)" stroke="rgb(255,204,0)">
      <circle r="15" clip-path="url(#clipPath2)" cx="236.5" cy="457" stroke="none"/>
    </g>
    <g text-rendering="geometricPrecision" stroke-miterlimit="1.45" shape-rendering="geometricPrecision" font-family="sans-serif" transform="matrix(1,0,0,1,-86,-127)" stroke-linecap="butt">
      <text x="232.6826" xml:space="preserve" y="461.1543" clip-path="url(#clipPath2)" stroke="none">8</text>
      <circle fill="none" r="15" clip-path="url(#clipPath2)" cx="236.5" cy="457"/>
    </g>
    <g fill="rgb(255,204,0)" text-rendering="geometricPrecision" shape-rendering="geometricPrecision" transform="matrix(1,0,0,1,-86,-127)" stroke="rgb(255,204,0)">
      <circle r="15" clip-path="url(#clipPath2)" cx="356.5" cy="457" stroke="none"/>
    </g>
    <g text-rendering="geometricPrecision" stroke-miterlimit="1.45" shape-rendering="geometricPrecision" font-family="sans-serif" transform="matrix(1,0,0,1,-86,-127)" stroke-linecap="butt">
      <text x="348.8652" xml:space="preserve" y="461.1543" clip-path="url(#clipPath2)" stroke="none">10</text>
      <circle fill="none" r="15" clip-path="url(#clipPath2)" cx="356.5" cy="457"/>
      <path fill="none" d="M285.8934 167.6066 L252.7635 200.7365" clip-path="url(#clipPath2)"/>
      <path d="M247.1066 206.3934 L259.1274 201.4436 L253.4706 200.0294 L252.0564 194.3726 Z" clip-path="url(#clipPath2)" stroke="none"/>
      <path fill="none" d="M307.1066 167.6066 L340.2365 200.7365" clip-path="url(#clipPath2)"/>
      <path d="M345.8934 206.3934 L340.9437 194.3726 L339.5294 200.0294 L333.8726 201.4436 Z" clip-path="url(#clipPath2)" stroke="none"/>
      <path fill="none" d="M225.8934 227.6066 L192.7635 260.7365" clip-path="url(#clipPath2)"/>
      <path d="M187.1066 266.3934 L199.1274 261.4437 L193.4706 260.0294 L192.0564 254.3726 Z" clip-path="url(#clipPath2)" stroke="none"/>
      <path fill="none" d="M177.8764 262.0633 L179.0312 249.5312 L181.6328 237.1328 L185.125 225.625 L189.5078 215.0078 L194.7812 205.2812 L200.9453 196.4453 L208 188.5 L215.9453 181.4453 L224.7812 175.2812 L234.5078 170.0078 L245.125 165.625 L256.6328 162.1328 L269.0312 159.5312 L273.597 159.1105" clip-path="url(#clipPath2)"/>
      <path d="M281.5633 158.3764 L269.1551 154.4986 L272.6013 159.2023 L270.0727 164.4565 Z" clip-path="url(#clipPath2)" stroke="none"/>
      <path fill="none" d="M165.8934 287.6066 L132.7635 320.7365" clip-path="url(#clipPath2)"/>
      <path d="M127.1066 326.3934 L139.1274 321.4436 L133.4706 320.0294 L132.0564 314.3726 Z" clip-path="url(#clipPath2)" stroke="none"/>
      <path fill="none" d="M121.2434 351.2303 L169.2268 495.1803" clip-path="url(#clipPath2)"/>
      <path d="M171.7566 502.7698 L172.7053 489.8044 L168.9105 494.2316 L163.2184 492.9667 Z" clip-path="url(#clipPath2)" stroke="none"/>
      <path fill="none" d="M187.1066 287.6066 L220.2365 320.7365" clip-path="url(#clipPath2)"/>
      <path d="M225.8934 326.3934 L220.9436 314.3726 L219.5294 320.0294 L213.8726 321.4437 Z" clip-path="url(#clipPath2)" stroke="none"/>
      <path fill="none" d="M247.1066 347.6066 L280.2365 380.7365" clip-path="url(#clipPath2)"/>
      <path d="M285.8934 386.3934 L280.9437 374.3726 L279.5294 380.0294 L273.8726 381.4437 Z" clip-path="url(#clipPath2)" stroke="none"/>
      <path fill="none" d="M351.7566 231.2303 L303.7732 375.1803" clip-path="url(#clipPath2)"/>
      <path d="M301.2434 382.7698 L309.7816 372.9667 L304.0894 374.2316 L300.2947 369.8044 Z" clip-path="url(#clipPath2)" stroke="none"/>
      <path fill="none" d="M285.8934 407.6066 L252.7635 440.7365" clip-path="url(#clipPath2)"/>
      <path d="M247.1066 446.3934 L259.1274 441.4437 L253.4706 440.0294 L252.0564 434.3726 Z" clip-path="url(#clipPath2)" stroke="none"/>
      <path fill="none" d="M225.8934 467.6066 L192.7635 500.7365" clip-path="url(#clipPath2)"/>
      <path d="M187.1066 506.3934 L199.1274 501.4437 L193.4706 500.0294 L192.0564 494.3726 Z" clip-path="url(#clipPath2)" stroke="none"/>
      <path fill="none" d="M307.1066 407.6066 L340.2365 440.7365" clip-path="url(#clipPath2)"/>
      <path d="M345.8934 446.3934 L340.9437 434.3726 L339.5294 440.0294 L333.8726 441.4437 Z" clip-path="url(#clipPath2)" stroke="none"/>
    </g>
  </g>
</svg>
