<?xml version="1.0" encoding="UTF-8"?><svg xmlns="http://www.w3.org/2000/svg" xmlns:xlink="http://www.w3.org/1999/xlink" fill-opacity="1" color-rendering="auto" color-interpolation="auto" text-rendering="auto" stroke="black" stroke-linecap="square" width="314" stroke-miterlimit="10" shape-rendering="auto" stroke-opacity="1" fill="black" stroke-dasharray="none" font-weight="normal" stroke-width="1" height="233" font-family="'Dialog'" font-style="normal" stroke-linejoin="miter" font-size="12px" stroke-dashoffset="0" image-rendering="auto">
  <!--Generated by ySVG 2.5-->
  <defs id="genericDefs"/>
  <g>
    <defs id="defs1">
      <clipPath clipPathUnits="userSpaceOnUse" id="clipPath1">
        <path d="M0 0 L314 0 L314 233 L0 233 L0 0 Z"/>
      </clipPath>
      <clipPath clipPathUnits="userSpaceOnUse" id="clipPath2">
        <path d="M156 176 L470 176 L470 409 L156 409 L156 176 Z"/>
      </clipPath>
    </defs>
    <g fill="rgb(255,204,0)" text-rendering="geometricPrecision" shape-rendering="geometricPrecision" transform="matrix(1,0,0,1,-156,-176)" stroke="rgb(255,204,0)">
      <circle r="15" clip-path="url(#clipPath2)" cx="186" cy="206" stroke="none"/>
    </g>
    <g text-rendering="geometricPrecision" stroke-miterlimit="1.45" shape-rendering="geometricPrecision" font-family="sans-serif" transform="matrix(1,0,0,1,-156,-176)" stroke-linecap="butt">
      <text x="182.1826" xml:space="preserve" y="210.1543" clip-path="url(#clipPath2)" stroke="none">1</text>
      <circle fill="none" r="15" clip-path="url(#clipPath2)" cx="186" cy="206"/>
    </g>
    <g fill="rgb(255,204,0)" text-rendering="geometricPrecision" shape-rendering="geometricPrecision" transform="matrix(1,0,0,1,-156,-176)" stroke="rgb(255,204,0)">
      <circle r="15" clip-path="url(#clipPath2)" cx="313" cy="206" stroke="none"/>
    </g>
    <g text-rendering="geometricPrecision" stroke-miterlimit="1.45" shape-rendering="geometricPrecision" font-family="sans-serif" transform="matrix(1,0,0,1,-156,-176)" stroke-linecap="butt">
      <text x="309.1826" xml:space="preserve" y="210.1543" clip-path="url(#clipPath2)" stroke="none">2</text>
      <circle fill="none" r="15" clip-path="url(#clipPath2)" cx="313" cy="206"/>
    </g>
    <g fill="rgb(255,204,0)" text-rendering="geometricPrecision" shape-rendering="geometricPrecision" transform="matrix(1,0,0,1,-156,-176)" stroke="rgb(255,204,0)">
      <circle r="15" clip-path="url(#clipPath2)" cx="440" cy="206" stroke="none"/>
    </g>
    <g text-rendering="geometricPrecision" stroke-miterlimit="1.45" shape-rendering="geometricPrecision" font-family="sans-serif" transform="matrix(1,0,0,1,-156,-176)" stroke-linecap="butt">
      <text x="436.1826" xml:space="preserve" y="210.1543" clip-path="url(#clipPath2)" stroke="none">3</text>
      <circle fill="none" r="15" clip-path="url(#clipPath2)" cx="440" cy="206"/>
    </g>
    <g fill="rgb(255,204,0)" text-rendering="geometricPrecision" shape-rendering="geometricPrecision" transform="matrix(1,0,0,1,-156,-176)" stroke="rgb(255,204,0)">
      <circle r="15" clip-path="url(#clipPath2)" cx="313" cy="379" stroke="none"/>
    </g>
    <g text-rendering="geometricPrecision" stroke-miterlimit="1.45" shape-rendering="geometricPrecision" font-family="sans-serif" transform="matrix(1,0,0,1,-156,-176)" stroke-linecap="butt">
      <text x="309.1826" xml:space="preserve" y="383.1543" clip-path="url(#clipPath2)" stroke="none">4</text>
      <circle fill="none" r="15" clip-path="url(#clipPath2)" cx="313" cy="379"/>
    </g>
    <g fill="rgb(255,204,0)" text-rendering="geometricPrecision" shape-rendering="geometricPrecision" transform="matrix(1,0,0,1,-156,-176)" stroke="rgb(255,204,0)">
      <circle r="15" clip-path="url(#clipPath2)" cx="186" cy="379" stroke="none"/>
    </g>
    <g text-rendering="geometricPrecision" stroke-miterlimit="1.45" shape-rendering="geometricPrecision" font-family="sans-serif" transform="matrix(1,0,0,1,-156,-176)" stroke-linecap="butt">
      <text x="182.1826" xml:space="preserve" y="383.1543" clip-path="url(#clipPath2)" stroke="none">5</text>
      <circle fill="none" r="15" clip-path="url(#clipPath2)" cx="186" cy="379"/>
      <path fill="none" d="M201 206 L298 206" clip-path="url(#clipPath2)"/>
      <path fill="none" d="M328 206 L425 206" clip-path="url(#clipPath2)"/>
      <path fill="none" d="M321.8765 366.9084 L431.1235 218.0916" clip-path="url(#clipPath2)"/>
      <path fill="none" d="M313 364 L313 221" clip-path="url(#clipPath2)"/>
      <path fill="none" d="M194.8765 366.9084 L304.1235 218.0916" clip-path="url(#clipPath2)"/>
      <path fill="none" d="M201 379 L298 379" clip-path="url(#clipPath2)"/>
      <path fill="none" d="M186 364 L186 221" clip-path="url(#clipPath2)"/>
    </g>
  </g>
</svg>
