<?xml version="1.0" encoding="UTF-8"?><svg xmlns="http://www.w3.org/2000/svg" xmlns:xlink="http://www.w3.org/1999/xlink" fill-opacity="1" color-rendering="auto" color-interpolation="auto" text-rendering="auto" stroke="black" stroke-linecap="square" width="357" stroke-miterlimit="10" shape-rendering="auto" stroke-opacity="1" fill="black" stroke-dasharray="none" font-weight="normal" stroke-width="1" height="267" font-family="'Dialog'" font-style="normal" stroke-linejoin="miter" font-size="12px" stroke-dashoffset="0" image-rendering="auto">
  <!--Generated by ySVG 2.5-->
  <defs id="genericDefs"/>
  <g>
    <defs id="defs1">
      <clipPath clipPathUnits="userSpaceOnUse" id="clipPath1">
        <path d="M0 0 L357 0 L357 267 L0 267 L0 0 Z"/>
      </clipPath>
      <clipPath clipPathUnits="userSpaceOnUse" id="clipPath2">
        <path d="M156 176 L513 176 L513 443 L156 443 L156 176 Z"/>
      </clipPath>
    </defs>
    <g fill="rgb(255,204,0)" text-rendering="geometricPrecision" shape-rendering="geometricPrecision" transform="matrix(1,0,0,1,-156,-176)" stroke="rgb(255,204,0)">
      <circle r="15" clip-path="url(#clipPath2)" cx="186" cy="206" stroke="none"/>
    </g>
    <g text-rendering="geometricPrecision" stroke-miterlimit="1.45" shape-rendering="geometricPrecision" font-family="sans-serif" transform="matrix(1,0,0,1,-156,-176)" stroke-linecap="butt">
      <text x="182.1826" xml:space="preserve" y="210.1543" clip-path="url(#clipPath2)" stroke="none">1</text>
      <circle fill="none" r="15" clip-path="url(#clipPath2)" cx="186" cy="206"/>
    </g>
    <g fill="rgb(255,204,0)" text-rendering="geometricPrecision" shape-rendering="geometricPrecision" transform="matrix(1,0,0,1,-156,-176)" stroke="rgb(255,204,0)">
      <circle r="15" clip-path="url(#clipPath2)" cx="313" cy="206" stroke="none"/>
    </g>
    <g text-rendering="geometricPrecision" stroke-miterlimit="1.45" shape-rendering="geometricPrecision" font-family="sans-serif" transform="matrix(1,0,0,1,-156,-176)" stroke-linecap="butt">
      <text x="309.1826" xml:space="preserve" y="210.1543" clip-path="url(#clipPath2)" stroke="none">2</text>
      <circle fill="none" r="15" clip-path="url(#clipPath2)" cx="313" cy="206"/>
    </g>
    <g fill="rgb(255,204,0)" text-rendering="geometricPrecision" shape-rendering="geometricPrecision" transform="matrix(1,0,0,1,-156,-176)" stroke="rgb(255,204,0)">
      <circle r="15" clip-path="url(#clipPath2)" cx="440" cy="206" stroke="none"/>
    </g>
    <g text-rendering="geometricPrecision" stroke-miterlimit="1.45" shape-rendering="geometricPrecision" font-family="sans-serif" transform="matrix(1,0,0,1,-156,-176)" stroke-linecap="butt">
      <text x="436.1826" xml:space="preserve" y="210.1543" clip-path="url(#clipPath2)" stroke="none">3</text>
      <circle fill="none" r="15" clip-path="url(#clipPath2)" cx="440" cy="206"/>
    </g>
    <g fill="rgb(255,204,0)" text-rendering="geometricPrecision" shape-rendering="geometricPrecision" transform="matrix(1,0,0,1,-156,-176)" stroke="rgb(255,204,0)">
      <circle r="15" clip-path="url(#clipPath2)" cx="313" cy="379" stroke="none"/>
    </g>
    <g text-rendering="geometricPrecision" stroke-miterlimit="1.45" shape-rendering="geometricPrecision" font-family="sans-serif" transform="matrix(1,0,0,1,-156,-176)" stroke-linecap="butt">
      <text x="309.1826" xml:space="preserve" y="383.1543" clip-path="url(#clipPath2)" stroke="none">4</text>
      <circle fill="none" r="15" clip-path="url(#clipPath2)" cx="313" cy="379"/>
    </g>
    <g fill="rgb(255,204,0)" text-rendering="geometricPrecision" shape-rendering="geometricPrecision" transform="matrix(1,0,0,1,-156,-176)" stroke="rgb(255,204,0)">
      <circle r="15" clip-path="url(#clipPath2)" cx="186" cy="379" stroke="none"/>
    </g>
    <g text-rendering="geometricPrecision" stroke-miterlimit="1.45" shape-rendering="geometricPrecision" font-family="sans-serif" transform="matrix(1,0,0,1,-156,-176)" stroke-linecap="butt">
      <text x="182.1826" xml:space="preserve" y="383.1543" clip-path="url(#clipPath2)" stroke="none">5</text>
      <circle fill="none" r="15" clip-path="url(#clipPath2)" cx="186" cy="379"/>
    </g>
    <g fill="rgb(255,204,0)" text-rendering="geometricPrecision" shape-rendering="geometricPrecision" transform="matrix(1,0,0,1,-156,-176)" stroke="rgb(255,204,0)">
      <circle r="15" clip-path="url(#clipPath2)" cx="440" cy="379" stroke="none"/>
    </g>
    <g text-rendering="geometricPrecision" stroke-miterlimit="1.45" shape-rendering="geometricPrecision" font-family="sans-serif" transform="matrix(1,0,0,1,-156,-176)" stroke-linecap="butt">
      <text x="436.1826" xml:space="preserve" y="383.1543" clip-path="url(#clipPath2)" stroke="none">6</text>
      <circle fill="none" r="15" clip-path="url(#clipPath2)" cx="440" cy="379"/>
      <path fill="none" d="M201 206 L290 206" clip-path="url(#clipPath2)"/>
      <path d="M298 206 L286 201 L289 206 L286 211 Z" clip-path="url(#clipPath2)" stroke="none"/>
      <path fill="none" d="M313 221 L313 356" clip-path="url(#clipPath2)"/>
      <path d="M313 364 L318 352 L313 355 L308 352 Z" clip-path="url(#clipPath2)" stroke="none"/>
      <path fill="none" d="M431.1235 218.0916 L326.6107 360.4595" clip-path="url(#clipPath2)"/>
      <path d="M321.8765 366.9084 L333.0083 360.1939 L327.2024 359.6534 L324.9472 354.2762 Z" clip-path="url(#clipPath2)" stroke="none"/>
      <path fill="none" d="M186 221 L186 356" clip-path="url(#clipPath2)"/>
      <path d="M186 364 L191 352 L186 355 L181 352 Z" clip-path="url(#clipPath2)" stroke="none"/>
      <path fill="none" d="M298 379 L209 379" clip-path="url(#clipPath2)"/>
      <path d="M201 379 L213 384 L210 379 L213 374 Z" clip-path="url(#clipPath2)" stroke="none"/>
      <path fill="none" d="M194.8765 366.9084 L299.3893 224.5405" clip-path="url(#clipPath2)"/>
      <path d="M304.1235 218.0916 L292.9917 224.8061 L298.7976 225.3466 L301.0528 230.7238 Z" clip-path="url(#clipPath2)" stroke="none"/>
      <path fill="none" d="M440 221 L440 356" clip-path="url(#clipPath2)"/>
      <path d="M440 364 L445 352 L440 355 L435 352 Z" clip-path="url(#clipPath2)" stroke="none"/>
      <path fill="none" d="M443.7482 393.5242 L448.8 413.1 L450.8812 419.2523 L453.525 423.7594 L456.7313 426.6211 L460.5 427.8375 L464.8312 427.4086 L469.725 425.3344 L475.1813 421.6148 L481.2 416.25 L486.8 410.75 L492.2 404.9 L495.8 399.725 L497.6 395.225 L497.6 391.4 L495.8 388.25 L492.2 385.775 L486.8 383.975 L479.6 382.85 L462.8921 381.2256" clip-path="url(#clipPath2)"/>
      <path d="M454.9296 380.4515 L466.3894 386.5892 L463.8874 381.3224 L467.3571 376.6361 Z" clip-path="url(#clipPath2)" stroke="none"/>
    </g>
  </g>
</svg>
