<?xml version="1.0" encoding="UTF-8"?><svg xmlns="http://www.w3.org/2000/svg" xmlns:xlink="http://www.w3.org/1999/xlink" fill-opacity="1" color-rendering="auto" color-interpolation="auto" text-rendering="auto" stroke="black" stroke-linecap="square" width="251" stroke-miterlimit="10" shape-rendering="auto" stroke-opacity="1" fill="black" stroke-dasharray="none" font-weight="normal" stroke-width="1" height="265" font-family="'Dialog'" font-style="normal" stroke-linejoin="miter" font-size="12px" stroke-dashoffset="0" image-rendering="auto">
  <!--Generated by ySVG 2.5-->
  <defs id="genericDefs"/>
  <g>
    <defs id="defs1">
      <clipPath clipPathUnits="userSpaceOnUse" id="clipPath1">
        <path d="M0 0 L251 0 L251 265 L0 265 L0 0 Z"/>
      </clipPath>
      <clipPath clipPathUnits="userSpaceOnUse" id="clipPath2">
        <path d="M-37 276 L214 276 L214 541 L-37 541 L-37 276 Z"/>
      </clipPath>
    </defs>
    <g fill="rgb(255,204,0)" text-rendering="geometricPrecision" shape-rendering="geometricPrecision" transform="matrix(1,0,0,1,37,-276)" stroke="rgb(255,204,0)">
      <circle r="15" clip-path="url(#clipPath2)" cx="19" cy="306" stroke="none"/>
    </g>
    <g text-rendering="geometricPrecision" stroke-miterlimit="1.45" shape-rendering="geometricPrecision" font-family="sans-serif" transform="matrix(1,0,0,1,37,-276)" stroke-linecap="butt">
      <text x="15.1826" xml:space="preserve" y="310.1543" clip-path="url(#clipPath2)" stroke="none">1</text>
      <circle fill="none" r="15" clip-path="url(#clipPath2)" cx="19" cy="306"/>
    </g>
    <g fill="rgb(255,204,0)" text-rendering="geometricPrecision" shape-rendering="geometricPrecision" transform="matrix(1,0,0,1,37,-276)" stroke="rgb(255,204,0)">
      <circle r="15" clip-path="url(#clipPath2)" cx="151" cy="322" stroke="none"/>
    </g>
    <g text-rendering="geometricPrecision" stroke-miterlimit="1.45" shape-rendering="geometricPrecision" font-family="sans-serif" transform="matrix(1,0,0,1,37,-276)" stroke-linecap="butt">
      <text x="147.1826" xml:space="preserve" y="326.1543" clip-path="url(#clipPath2)" stroke="none">2</text>
      <circle fill="none" r="15" clip-path="url(#clipPath2)" cx="151" cy="322"/>
    </g>
    <g fill="rgb(255,204,0)" text-rendering="geometricPrecision" shape-rendering="geometricPrecision" transform="matrix(1,0,0,1,37,-276)" stroke="rgb(255,204,0)">
      <circle r="15" clip-path="url(#clipPath2)" cx="184" cy="426" stroke="none"/>
    </g>
    <g text-rendering="geometricPrecision" stroke-miterlimit="1.45" shape-rendering="geometricPrecision" font-family="sans-serif" transform="matrix(1,0,0,1,37,-276)" stroke-linecap="butt">
      <text x="180.1826" xml:space="preserve" y="430.1543" clip-path="url(#clipPath2)" stroke="none">3</text>
      <circle fill="none" r="15" clip-path="url(#clipPath2)" cx="184" cy="426"/>
    </g>
    <g fill="rgb(255,204,0)" text-rendering="geometricPrecision" shape-rendering="geometricPrecision" transform="matrix(1,0,0,1,37,-276)" stroke="rgb(255,204,0)">
      <circle r="15" clip-path="url(#clipPath2)" cx="95" cy="511" stroke="none"/>
    </g>
    <g text-rendering="geometricPrecision" stroke-miterlimit="1.45" shape-rendering="geometricPrecision" font-family="sans-serif" transform="matrix(1,0,0,1,37,-276)" stroke-linecap="butt">
      <text x="91.1826" xml:space="preserve" y="515.1543" clip-path="url(#clipPath2)" stroke="none">4</text>
      <circle fill="none" r="15" clip-path="url(#clipPath2)" cx="95" cy="511"/>
    </g>
    <g fill="rgb(255,204,0)" text-rendering="geometricPrecision" shape-rendering="geometricPrecision" transform="matrix(1,0,0,1,37,-276)" stroke="rgb(255,204,0)">
      <circle r="15" clip-path="url(#clipPath2)" cx="-6" cy="462" stroke="none"/>
    </g>
    <g text-rendering="geometricPrecision" stroke-miterlimit="1.45" shape-rendering="geometricPrecision" font-family="sans-serif" transform="matrix(1,0,0,1,37,-276)" stroke-linecap="butt">
      <text x="-9.8174" xml:space="preserve" y="466.1543" clip-path="url(#clipPath2)" stroke="none">5</text>
      <circle fill="none" r="15" clip-path="url(#clipPath2)" cx="-6" cy="462"/>
      <path fill="none" d="M33.891 307.805 L128.1671 319.2324" clip-path="url(#clipPath2)"/>
      <path d="M136.109 320.195 L124.7978 313.7874 L127.1744 319.1121 L123.5945 323.7147 Z" clip-path="url(#clipPath2)" stroke="none"/>
      <path fill="none" d="M24.2142 320.0646 L87.0049 489.4343" clip-path="url(#clipPath2)"/>
      <path d="M89.7858 496.9354 L90.3027 483.9457 L86.6573 488.4967 L80.9263 487.4218 Z" clip-path="url(#clipPath2)" stroke="none"/>
      <path fill="none" d="M146.7387 336.382 L101.534 488.9476" clip-path="url(#clipPath2)"/>
      <path d="M99.2613 496.618 L107.4644 486.5329 L101.8181 487.9888 L97.8764 483.692 Z" clip-path="url(#clipPath2)" stroke="none"/>
      <path fill="none" d="M16.6264 320.811 L-2.3605 439.2898" clip-path="url(#clipPath2)"/>
      <path d="M-3.6264 447.189 L3.2094 436.1313 L-2.2023 438.3024 L-6.6646 434.549 Z" clip-path="url(#clipPath2)" stroke="none"/>
      <path fill="none" d="M169.2622 428.7924 L16.5979 457.7183" clip-path="url(#clipPath2)"/>
      <path d="M8.7378 459.2076 L21.4588 461.8862 L17.5805 457.5321 L19.5972 452.0611 Z" clip-path="url(#clipPath2)" stroke="none"/>
      <path fill="none" d="M5.1954 452.0168 L133.8337 337.3075" clip-path="url(#clipPath2)"/>
      <path d="M139.8046 331.9832 L127.5206 336.2379 L133.0874 337.9731 L134.176 343.7015 Z" clip-path="url(#clipPath2)" stroke="none"/>
    </g>
  </g>
</svg>
