<?xml version="1.0" encoding="UTF-8"?><svg xmlns="http://www.w3.org/2000/svg" xmlns:xlink="http://www.w3.org/1999/xlink" fill-opacity="1" color-rendering="auto" color-interpolation="auto" text-rendering="auto" stroke="black" stroke-linecap="square" width="176" stroke-miterlimit="10" shape-rendering="auto" stroke-opacity="1" fill="black" stroke-dasharray="none" font-weight="normal" stroke-width="1" height="374" font-family="'Dialog'" font-style="normal" stroke-linejoin="miter" font-size="12px" stroke-dashoffset="0" image-rendering="auto">
  <!--Generated by ySVG 2.5-->
  <defs id="genericDefs"/>
  <g>
    <defs id="defs1">
      <clipPath clipPathUnits="userSpaceOnUse" id="clipPath1">
        <path d="M0 0 L176 0 L176 374 L0 374 L0 0 Z"/>
      </clipPath>
      <clipPath clipPathUnits="userSpaceOnUse" id="clipPath2">
        <path d="M-2 155 L174 155 L174 529 L-2 529 L-2 155 Z"/>
      </clipPath>
    </defs>
    <g fill="rgb(255,204,0)" text-rendering="geometricPrecision" shape-rendering="geometricPrecision" transform="matrix(1,0,0,1,2,-155)" stroke="rgb(255,204,0)">
      <circle r="15" clip-path="url(#clipPath2)" cx="88" cy="228" stroke="none"/>
    </g>
    <g text-rendering="geometricPrecision" stroke-miterlimit="1.45" shape-rendering="geometricPrecision" font-family="sans-serif" transform="matrix(1,0,0,1,2,-155)" stroke-linecap="butt">
      <text x="84.1826" xml:space="preserve" y="232.1543" clip-path="url(#clipPath2)" stroke="none">1</text>
      <circle fill="none" r="15" clip-path="url(#clipPath2)" cx="88" cy="228"/>
    </g>
    <g fill="rgb(255,204,0)" text-rendering="geometricPrecision" shape-rendering="geometricPrecision" transform="matrix(1,0,0,1,2,-155)" stroke="rgb(255,204,0)">
      <circle r="15" clip-path="url(#clipPath2)" cx="34.1136" cy="300" stroke="none"/>
    </g>
    <g text-rendering="geometricPrecision" stroke-miterlimit="1.45" shape-rendering="geometricPrecision" font-family="sans-serif" transform="matrix(1,0,0,1,2,-155)" stroke-linecap="butt">
      <text x="30.2962" xml:space="preserve" y="304.1543" clip-path="url(#clipPath2)" stroke="none">2</text>
      <circle fill="none" r="15" clip-path="url(#clipPath2)" cx="34.1136" cy="300"/>
    </g>
    <g fill="rgb(255,204,0)" text-rendering="geometricPrecision" shape-rendering="geometricPrecision" transform="matrix(1,0,0,1,2,-155)" stroke="rgb(255,204,0)">
      <circle r="15" clip-path="url(#clipPath2)" cx="144" cy="299" stroke="none"/>
    </g>
    <g text-rendering="geometricPrecision" stroke-miterlimit="1.45" shape-rendering="geometricPrecision" font-family="sans-serif" transform="matrix(1,0,0,1,2,-155)" stroke-linecap="butt">
      <text x="140.1826" xml:space="preserve" y="303.1543" clip-path="url(#clipPath2)" stroke="none">3</text>
      <circle fill="none" r="15" clip-path="url(#clipPath2)" cx="144" cy="299"/>
    </g>
    <g fill="rgb(255,204,0)" text-rendering="geometricPrecision" shape-rendering="geometricPrecision" transform="matrix(1,0,0,1,2,-155)" stroke="rgb(255,204,0)">
      <circle r="15" clip-path="url(#clipPath2)" cx="34.1136" cy="426" stroke="none"/>
    </g>
    <g text-rendering="geometricPrecision" stroke-miterlimit="1.45" shape-rendering="geometricPrecision" font-family="sans-serif" transform="matrix(1,0,0,1,2,-155)" stroke-linecap="butt">
      <text x="30.2962" xml:space="preserve" y="430.1543" clip-path="url(#clipPath2)" stroke="none">4</text>
      <circle fill="none" r="15" clip-path="url(#clipPath2)" cx="34.1136" cy="426"/>
    </g>
    <g fill="rgb(255,204,0)" text-rendering="geometricPrecision" shape-rendering="geometricPrecision" transform="matrix(1,0,0,1,2,-155)" stroke="rgb(255,204,0)">
      <circle r="15" clip-path="url(#clipPath2)" cx="144" cy="426" stroke="none"/>
    </g>
    <g text-rendering="geometricPrecision" stroke-miterlimit="1.45" shape-rendering="geometricPrecision" font-family="sans-serif" transform="matrix(1,0,0,1,2,-155)" stroke-linecap="butt">
      <text x="140.1826" xml:space="preserve" y="430.1543" clip-path="url(#clipPath2)" stroke="none">5</text>
      <circle fill="none" r="15" clip-path="url(#clipPath2)" cx="144" cy="426"/>
    </g>
    <g fill="rgb(255,204,0)" text-rendering="geometricPrecision" shape-rendering="geometricPrecision" transform="matrix(1,0,0,1,2,-155)" stroke="rgb(255,204,0)">
      <circle r="15" clip-path="url(#clipPath2)" cx="88" cy="499" stroke="none"/>
    </g>
    <g text-rendering="geometricPrecision" stroke-miterlimit="1.45" shape-rendering="geometricPrecision" font-family="sans-serif" transform="matrix(1,0,0,1,2,-155)" stroke-linecap="butt">
      <text x="84.1826" xml:space="preserve" y="503.1543" clip-path="url(#clipPath2)" stroke="none">6</text>
      <circle fill="none" r="15" clip-path="url(#clipPath2)" cx="88" cy="499"/>
      <path fill="none" d="M99.9706 218.961 L114.95 207.65 L119.6469 203.5367 L122.7125 199.5219 L124.1469 195.6055 L123.95 191.7875 L122.1219 188.068 L118.6625 184.4469 L113.5719 180.9242 L106.85 177.5 L100.15 174.5 L93.2102 171.807 L87.4656 170.4781 L82.9164 170.5133 L79.5625 171.9125 L77.4039 174.6758 L76.4406 178.8031 L76.6727 184.2945 L78.1 191.15 L82.0325 205.7876" clip-path="url(#clipPath2)"/>
      <path d="M84.1082 213.5137 L85.8234 200.6273 L81.773 204.8219 L76.1659 203.2219 Z" clip-path="url(#clipPath2)" stroke="none"/>
      <path fill="none" d="M79.0121 240.0091 L47.895 281.5861" clip-path="url(#clipPath2)"/>
      <path d="M43.1014 287.9909 L54.2948 281.3796 L48.4942 280.7855 L46.2887 275.3877 Z" clip-path="url(#clipPath2)" stroke="none"/>
      <path fill="none" d="M49.1129 299.8635 L121.001 299.2093" clip-path="url(#clipPath2)"/>
      <path d="M129.0006 299.1365 L116.9556 294.2459 L120.001 299.2184 L117.0466 304.2455 Z" clip-path="url(#clipPath2)" stroke="none"/>
      <path fill="none" d="M134.7107 287.2225 L102.2436 246.0588" clip-path="url(#clipPath2)"/>
      <path d="M97.2893 239.7775 L100.7949 252.2959 L102.8629 246.844 L108.6465 246.103 Z" clip-path="url(#clipPath2)" stroke="none"/>
      <path fill="none" d="M39.6525 313.9398 L40.3718 315.75 L44.842 331.5 L47.5241 347.25 L48.4181 363 L47.5241 378.75 L44.842 394.5 L42.0263 404.4204 L41.9894 404.5134" clip-path="url(#clipPath2)"/>
      <path d="M39.6231 412.1554 L47.9489 402.1713 L42.2852 403.5581 L38.3963 399.2134 Z" clip-path="url(#clipPath2)" stroke="none"/>
      <path fill="none" d="M26.7498 412.9319 L25.2386 410.25 L18.8994 394.5 L15.0958 378.75 L13.828 363 L15.0958 347.25 L18.8994 331.5 L23.3949 320.3307 L23.444 320.2435" clip-path="url(#clipPath2)"/>
      <path d="M26.7916 312.9776 L17.2291 321.7843 L23.0256 321.1518 L26.3115 325.9687 Z" clip-path="url(#clipPath2)" stroke="none"/>
      <path fill="none" d="M47.5365 419.3049 L47.8494 419.1488 L61.5852 414.2551 L75.321 411.3188 L89.0568 410.3401 L102.7926 411.3188 L116.5284 414.2551 L123.0553 416.5804 L123.1448 416.6251" clip-path="url(#clipPath2)"/>
      <path d="M130.6705 419.3386 L121.0778 410.5648 L122.204 416.2859 L117.686 419.972 Z" clip-path="url(#clipPath2)" stroke="none"/>
      <path fill="none" d="M134.1409 414.6952 L49.2308 317.334" clip-path="url(#clipPath2)"/>
      <path d="M43.9726 311.3048 L48.0917 323.635 L49.8881 318.0877 L55.6282 317.0623 Z" clip-path="url(#clipPath2)" stroke="none"/>
      <path fill="none" d="M144 411 L144 322" clip-path="url(#clipPath2)"/>
      <path d="M144 314 L139 326 L144 323 L149 326 Z" clip-path="url(#clipPath2)" stroke="none"/>
      <path fill="none" d="M130.5771 432.6951 L130.2642 432.8512 L116.5284 437.7449 L102.7926 440.6812 L89.0568 441.6599 L75.321 440.6812 L61.5852 437.7449 L55.0583 435.4196 L54.9688 435.3749" clip-path="url(#clipPath2)"/>
      <path d="M47.4431 432.6614 L57.0358 441.4352 L55.9095 435.7141 L60.4276 432.028 Z" clip-path="url(#clipPath2)" stroke="none"/>
      <path fill="none" d="M134.8701 437.9015 L101.9992 480.7511" clip-path="url(#clipPath2)"/>
      <path d="M97.1299 487.0985 L108.401 480.6206 L102.6078 479.9576 L100.4666 474.5341 Z" clip-path="url(#clipPath2)" stroke="none"/>
      <path fill="none" d="M43.0219 438.0682 L74.3405 480.4955" clip-path="url(#clipPath2)"/>
      <path d="M79.0916 486.9318 L75.9877 474.3078 L73.7466 479.6909 L67.9422 480.2467 Z" clip-path="url(#clipPath2)" stroke="none"/>
    </g>
  </g>
</svg>
