<?xml version="1.0" encoding="UTF-8"?><svg xmlns="http://www.w3.org/2000/svg" xmlns:xlink="http://www.w3.org/1999/xlink" fill-opacity="1" color-rendering="auto" color-interpolation="auto" text-rendering="auto" stroke="black" stroke-linecap="square" width="517" stroke-miterlimit="10" shape-rendering="auto" stroke-opacity="1" fill="black" stroke-dasharray="none" font-weight="normal" stroke-width="1" height="130" font-family="'Dialog'" font-style="normal" stroke-linejoin="miter" font-size="12px" stroke-dashoffset="0" image-rendering="auto">
  <!--Generated by ySVG 2.5-->
  <defs id="genericDefs"/>
  <g>
    <defs id="defs1">
      <clipPath clipPathUnits="userSpaceOnUse" id="clipPath1">
        <path d="M0 0 L517 0 L517 130 L0 130 L0 0 Z"/>
      </clipPath>
      <clipPath clipPathUnits="userSpaceOnUse" id="clipPath2">
        <path d="M-89 -86 L428 -86 L428 44 L-89 44 L-89 -86 Z"/>
      </clipPath>
    </defs>
    <g text-rendering="geometricPrecision" stroke-miterlimit="1.45" shape-rendering="geometricPrecision" font-family="sans-serif" transform="matrix(1,0,0,1,89,86)" stroke-linecap="butt">
      <text x="-32.3174" xml:space="preserve" y="-41.8301" clip-path="url(#clipPath2)" stroke="none">1</text>
    </g>
    <g text-rendering="geometricPrecision" stroke-miterlimit="1.45" shape-rendering="geometricPrecision" font-family="sans-serif" transform="matrix(1,0,0,1,89,86)" stroke-linecap="butt">
      <text x="-2.3174" xml:space="preserve" y="-41.8301" clip-path="url(#clipPath2)" stroke="none">2</text>
      <text x="27.6826" xml:space="preserve" y="-41.8301" clip-path="url(#clipPath2)" stroke="none">3</text>
      <text x="57.6826" xml:space="preserve" y="-41.8301" clip-path="url(#clipPath2)" stroke="none">4</text>
      <text x="87.6826" xml:space="preserve" y="-41.8301" clip-path="url(#clipPath2)" stroke="none">5</text>
      <text x="117.6826" xml:space="preserve" y="-41.8301" clip-path="url(#clipPath2)" stroke="none">6</text>
      <text x="147.6826" xml:space="preserve" y="-41.8301" clip-path="url(#clipPath2)" stroke="none">7</text>
      <text x="177.6826" xml:space="preserve" y="-41.8301" clip-path="url(#clipPath2)" stroke="none">8</text>
      <text x="207.6826" xml:space="preserve" y="-41.8301" clip-path="url(#clipPath2)" stroke="none">9</text>
      <text x="233.8652" xml:space="preserve" y="-41.8301" clip-path="url(#clipPath2)" stroke="none">10</text>
      <text x="-62.3174" xml:space="preserve" y="-41.8301" clip-path="url(#clipPath2)" stroke="none">0</text>
    </g>
    <g fill="rgb(255,204,0)" text-rendering="geometricPrecision" shape-rendering="geometricPrecision" transform="matrix(1,0,0,1,89,86)" stroke="rgb(255,204,0)">
      <rect x="-43.5" width="30" height="30" y="-33" clip-path="url(#clipPath2)" stroke="none"/>
    </g>
    <g text-rendering="geometricPrecision" stroke-miterlimit="1.45" shape-rendering="geometricPrecision" font-family="sans-serif" transform="matrix(1,0,0,1,89,86)" stroke-linecap="butt">
      <text x="-36.1348" xml:space="preserve" y="-13.8457" clip-path="url(#clipPath2)" stroke="none">13</text>
      <rect fill="none" x="-43.5" width="30" height="30" y="-33" clip-path="url(#clipPath2)"/>
    </g>
    <g fill="rgb(255,204,0)" text-rendering="geometricPrecision" shape-rendering="geometricPrecision" transform="matrix(1,0,0,1,89,86)" stroke="rgb(255,204,0)">
      <rect x="-13.5" width="30" height="30" y="-33" clip-path="url(#clipPath2)" stroke="none"/>
    </g>
    <g text-rendering="geometricPrecision" stroke-miterlimit="1.45" shape-rendering="geometricPrecision" font-family="sans-serif" transform="matrix(1,0,0,1,89,86)" stroke-linecap="butt">
      <text x="-6.1348" xml:space="preserve" y="-13.8457" clip-path="url(#clipPath2)" stroke="none">21</text>
      <rect fill="none" x="-13.5" width="30" height="30" y="-33" clip-path="url(#clipPath2)"/>
    </g>
    <g fill="rgb(255,204,0)" text-rendering="geometricPrecision" shape-rendering="geometricPrecision" transform="matrix(1,0,0,1,89,86)" stroke="rgb(255,204,0)">
      <rect x="16.5" width="30" height="30" y="-33" clip-path="url(#clipPath2)" stroke="none"/>
    </g>
    <g text-rendering="geometricPrecision" stroke-miterlimit="1.45" shape-rendering="geometricPrecision" font-family="sans-serif" transform="matrix(1,0,0,1,89,86)" stroke-linecap="butt">
      <text x="23.8652" xml:space="preserve" y="-13.8457" clip-path="url(#clipPath2)" stroke="none">16</text>
      <rect fill="none" x="16.5" width="30" height="30" y="-33" clip-path="url(#clipPath2)"/>
    </g>
    <g fill="rgb(255,204,0)" text-rendering="geometricPrecision" shape-rendering="geometricPrecision" transform="matrix(1,0,0,1,89,86)" stroke="rgb(255,204,0)">
      <rect x="46.5" width="30" height="30" y="-33" clip-path="url(#clipPath2)" stroke="none"/>
    </g>
    <g text-rendering="geometricPrecision" stroke-miterlimit="1.45" shape-rendering="geometricPrecision" font-family="sans-serif" transform="matrix(1,0,0,1,89,86)" stroke-linecap="butt">
      <text x="53.8652" xml:space="preserve" y="-13.8457" clip-path="url(#clipPath2)" stroke="none">24</text>
      <rect fill="none" x="46.5" width="30" height="30" y="-33" clip-path="url(#clipPath2)"/>
    </g>
    <g fill="rgb(255,204,0)" text-rendering="geometricPrecision" shape-rendering="geometricPrecision" transform="matrix(1,0,0,1,89,86)" stroke="rgb(255,204,0)">
      <rect x="76.5" width="30" height="30" y="-33" clip-path="url(#clipPath2)" stroke="none"/>
    </g>
    <g text-rendering="geometricPrecision" stroke-miterlimit="1.45" shape-rendering="geometricPrecision" font-family="sans-serif" transform="matrix(1,0,0,1,89,86)" stroke-linecap="butt">
      <text x="83.8652" xml:space="preserve" y="-13.8457" clip-path="url(#clipPath2)" stroke="none">31</text>
      <rect fill="none" x="76.5" width="30" height="30" y="-33" clip-path="url(#clipPath2)"/>
    </g>
    <g fill="rgb(255,204,0)" text-rendering="geometricPrecision" shape-rendering="geometricPrecision" transform="matrix(1,0,0,1,89,86)" stroke="rgb(255,204,0)">
      <rect x="106.5" width="30" height="30" y="-33" clip-path="url(#clipPath2)" stroke="none"/>
    </g>
    <g text-rendering="geometricPrecision" stroke-miterlimit="1.45" shape-rendering="geometricPrecision" font-family="sans-serif" transform="matrix(1,0,0,1,89,86)" stroke-linecap="butt">
      <text x="113.8652" xml:space="preserve" y="-13.8457" clip-path="url(#clipPath2)" stroke="none">19</text>
      <rect fill="none" x="106.5" width="30" height="30" y="-33" clip-path="url(#clipPath2)"/>
    </g>
    <g fill="rgb(255,204,0)" text-rendering="geometricPrecision" shape-rendering="geometricPrecision" transform="matrix(1,0,0,1,89,86)" stroke="rgb(255,204,0)">
      <rect x="136.5" width="30" height="30" y="-33" clip-path="url(#clipPath2)" stroke="none"/>
    </g>
    <g text-rendering="geometricPrecision" stroke-miterlimit="1.45" shape-rendering="geometricPrecision" font-family="sans-serif" transform="matrix(1,0,0,1,89,86)" stroke-linecap="butt">
      <text x="143.8652" xml:space="preserve" y="-13.8457" clip-path="url(#clipPath2)" stroke="none">68</text>
      <rect fill="none" x="136.5" width="30" height="30" y="-33" clip-path="url(#clipPath2)"/>
    </g>
    <g fill="rgb(255,204,0)" text-rendering="geometricPrecision" shape-rendering="geometricPrecision" transform="matrix(1,0,0,1,89,86)" stroke="rgb(255,204,0)">
      <rect x="166.5" width="30" height="30" y="-33" clip-path="url(#clipPath2)" stroke="none"/>
    </g>
    <g text-rendering="geometricPrecision" stroke-miterlimit="1.45" shape-rendering="geometricPrecision" font-family="sans-serif" transform="matrix(1,0,0,1,89,86)" stroke-linecap="butt">
      <text x="173.8652" xml:space="preserve" y="-13.8457" clip-path="url(#clipPath2)" stroke="none">65</text>
      <rect fill="none" x="166.5" width="30" height="30" y="-33" clip-path="url(#clipPath2)"/>
    </g>
    <g fill="rgb(255,204,0)" text-rendering="geometricPrecision" shape-rendering="geometricPrecision" transform="matrix(1,0,0,1,89,86)" stroke="rgb(255,204,0)">
      <rect x="196.5" width="30" height="30" y="-33" clip-path="url(#clipPath2)" stroke="none"/>
    </g>
    <g text-rendering="geometricPrecision" stroke-miterlimit="1.45" shape-rendering="geometricPrecision" font-family="sans-serif" transform="matrix(1,0,0,1,89,86)" stroke-linecap="butt">
      <text x="203.8652" xml:space="preserve" y="-13.8457" clip-path="url(#clipPath2)" stroke="none">26</text>
      <rect fill="none" x="196.5" width="30" height="30" y="-33" clip-path="url(#clipPath2)"/>
    </g>
    <g fill="rgb(255,204,0)" text-rendering="geometricPrecision" shape-rendering="geometricPrecision" transform="matrix(1,0,0,1,89,86)" stroke="rgb(255,204,0)">
      <rect x="226.5" width="30" height="30" y="-33" clip-path="url(#clipPath2)" stroke="none"/>
    </g>
    <g text-rendering="geometricPrecision" stroke-miterlimit="1.45" shape-rendering="geometricPrecision" font-family="sans-serif" transform="matrix(1,0,0,1,89,86)" stroke-linecap="butt">
      <text x="233.8652" xml:space="preserve" y="-13.8457" clip-path="url(#clipPath2)" stroke="none">32</text>
      <rect fill="none" x="226.5" width="30" height="30" y="-33" clip-path="url(#clipPath2)"/>
    </g>
    <g fill="rgb(255,204,0)" text-rendering="geometricPrecision" shape-rendering="geometricPrecision" transform="matrix(1,0,0,1,89,86)" stroke="rgb(255,204,0)">
      <rect x="-73.5" width="30" height="30" y="-33" clip-path="url(#clipPath2)" stroke="none"/>
    </g>
    <g text-rendering="geometricPrecision" stroke-miterlimit="1.45" shape-rendering="geometricPrecision" transform="matrix(1,0,0,1,89,86)" stroke-linecap="butt">
      <rect fill="none" x="-73.5" width="30" height="30" y="-33" clip-path="url(#clipPath2)"/>
    </g>
    <g fill="rgb(255,204,0)" text-rendering="geometricPrecision" shape-rendering="geometricPrecision" transform="matrix(1,0,0,1,89,86)" stroke="rgb(255,204,0)">
      <circle r="15" clip-path="url(#clipPath2)" cx="371.5" cy="-56" stroke="none"/>
    </g>
    <g text-rendering="geometricPrecision" stroke-miterlimit="1.45" shape-rendering="geometricPrecision" font-family="sans-serif" transform="matrix(1,0,0,1,89,86)" stroke-linecap="butt">
      <text x="369.833" xml:space="preserve" y="-51.8457" clip-path="url(#clipPath2)" stroke="none">i</text>
      <circle fill="none" r="15" clip-path="url(#clipPath2)" cx="371.5" cy="-56"/>
    </g>
    <g fill="rgb(255,204,0)" text-rendering="geometricPrecision" shape-rendering="geometricPrecision" transform="matrix(1,0,0,1,89,86)" stroke="rgb(255,204,0)">
      <circle r="15" clip-path="url(#clipPath2)" cx="346.5" cy="14" stroke="none"/>
    </g>
    <g text-rendering="geometricPrecision" stroke-miterlimit="1.45" shape-rendering="geometricPrecision" font-family="sans-serif" transform="matrix(1,0,0,1,89,86)" stroke-linecap="butt">
      <text x="341.0156" xml:space="preserve" y="18.1543" clip-path="url(#clipPath2)" stroke="none">2i</text>
      <circle fill="none" r="15" clip-path="url(#clipPath2)" cx="346.5" cy="14"/>
    </g>
    <g fill="rgb(255,204,0)" text-rendering="geometricPrecision" shape-rendering="geometricPrecision" transform="matrix(1,0,0,1,89,86)" stroke="rgb(255,204,0)">
      <circle r="15" clip-path="url(#clipPath2)" cx="396.5" cy="14" stroke="none"/>
    </g>
    <g text-rendering="geometricPrecision" stroke-miterlimit="1.45" shape-rendering="geometricPrecision" font-family="sans-serif" transform="matrix(1,0,0,1,89,86)" stroke-linecap="butt">
      <text x="382.1709" xml:space="preserve" y="18.1543" clip-path="url(#clipPath2)" stroke="none">2i+1</text>
      <circle fill="none" r="15" clip-path="url(#clipPath2)" cx="396.5" cy="14"/>
      <path fill="none" d="M366.455 -41.8739 L351.545 -0.1261" clip-path="url(#clipPath2)"/>
      <path fill="none" d="M376.545 -41.8739 L391.455 -0.1261" clip-path="url(#clipPath2)"/>
    </g>
  </g>
</svg>
