<?xml version="1.0" encoding="UTF-8"?><svg xmlns="http://www.w3.org/2000/svg" xmlns:xlink="http://www.w3.org/1999/xlink" fill-opacity="1" color-rendering="auto" color-interpolation="auto" text-rendering="auto" stroke="black" stroke-linecap="square" width="385" stroke-miterlimit="10" shape-rendering="auto" stroke-opacity="1" fill="black" stroke-dasharray="none" font-weight="normal" stroke-width="1" height="270" font-family="'Dialog'" font-style="normal" stroke-linejoin="miter" font-size="12px" stroke-dashoffset="0" image-rendering="auto">
  <!--Generated by ySVG 2.5-->
  <defs id="genericDefs"/>
  <g>
    <defs id="defs1">
      <clipPath clipPathUnits="userSpaceOnUse" id="clipPath1">
        <path d="M0 0 L385 0 L385 270 L0 270 L0 0 Z"/>
      </clipPath>
      <clipPath clipPathUnits="userSpaceOnUse" id="clipPath2">
        <path d="M-15 -15 L370 -15 L370 255 L-15 255 L-15 -15 Z"/>
      </clipPath>
    </defs>
    <g fill="rgb(255,204,0)" text-rendering="geometricPrecision" shape-rendering="geometricPrecision" transform="matrix(1,0,0,1,15,15)" stroke="rgb(255,204,0)">
      <circle r="15" clip-path="url(#clipPath2)" cx="190" cy="15" stroke="none"/>
    </g>
    <g text-rendering="geometricPrecision" stroke-miterlimit="1.45" shape-rendering="geometricPrecision" font-family="sans-serif" transform="matrix(1,0,0,1,15,15)" stroke-linecap="butt">
      <text x="182.3652" xml:space="preserve" y="19.1543" clip-path="url(#clipPath2)" stroke="none">16</text>
      <circle fill="none" r="15" clip-path="url(#clipPath2)" cx="190" cy="15"/>
    </g>
    <g fill="rgb(255,204,0)" text-rendering="geometricPrecision" shape-rendering="geometricPrecision" transform="matrix(1,0,0,1,15,15)" stroke="rgb(255,204,0)">
      <circle r="15" clip-path="url(#clipPath2)" cx="90" cy="85" stroke="none"/>
    </g>
    <g text-rendering="geometricPrecision" stroke-miterlimit="1.45" shape-rendering="geometricPrecision" font-family="sans-serif" transform="matrix(1,0,0,1,15,15)" stroke-linecap="butt">
      <text x="82.3652" xml:space="preserve" y="89.1543" clip-path="url(#clipPath2)" stroke="none">21</text>
      <circle fill="none" r="15" clip-path="url(#clipPath2)" cx="90" cy="85"/>
    </g>
    <g fill="rgb(255,204,0)" text-rendering="geometricPrecision" shape-rendering="geometricPrecision" transform="matrix(1,0,0,1,15,15)" stroke="rgb(255,204,0)">
      <circle r="15" clip-path="url(#clipPath2)" cx="290" cy="85" stroke="none"/>
    </g>
    <g text-rendering="geometricPrecision" stroke-miterlimit="1.45" shape-rendering="geometricPrecision" font-family="sans-serif" transform="matrix(1,0,0,1,15,15)" stroke-linecap="butt">
      <text x="282.3652" xml:space="preserve" y="89.1543" clip-path="url(#clipPath2)" stroke="none">19</text>
      <circle fill="none" r="15" clip-path="url(#clipPath2)" cx="290" cy="85"/>
    </g>
    <g fill="rgb(255,204,0)" text-rendering="geometricPrecision" shape-rendering="geometricPrecision" transform="matrix(1,0,0,1,15,15)" stroke="rgb(255,204,0)">
      <circle r="15" clip-path="url(#clipPath2)" cx="40" cy="155" stroke="none"/>
    </g>
    <g text-rendering="geometricPrecision" stroke-miterlimit="1.45" shape-rendering="geometricPrecision" font-family="sans-serif" transform="matrix(1,0,0,1,15,15)" stroke-linecap="butt">
      <text x="32.3652" xml:space="preserve" y="159.1543" clip-path="url(#clipPath2)" stroke="none">24</text>
      <circle fill="none" r="15" clip-path="url(#clipPath2)" cx="40" cy="155"/>
    </g>
    <g fill="rgb(255,204,0)" text-rendering="geometricPrecision" shape-rendering="geometricPrecision" transform="matrix(1,0,0,1,15,15)" stroke="rgb(255,204,0)">
      <circle r="15" clip-path="url(#clipPath2)" cx="140" cy="155" stroke="none"/>
    </g>
    <g text-rendering="geometricPrecision" stroke-miterlimit="1.45" shape-rendering="geometricPrecision" font-family="sans-serif" transform="matrix(1,0,0,1,15,15)" stroke-linecap="butt">
      <text x="132.3652" xml:space="preserve" y="159.1543" clip-path="url(#clipPath2)" stroke="none">31</text>
      <circle fill="none" r="15" clip-path="url(#clipPath2)" cx="140" cy="155"/>
    </g>
    <g fill="rgb(153,204,255)" text-rendering="geometricPrecision" shape-rendering="geometricPrecision" transform="matrix(1,0,0,1,15,15)" stroke="rgb(153,204,255)">
      <circle r="15" clip-path="url(#clipPath2)" cx="240" cy="155" stroke="none"/>
    </g>
    <g text-rendering="geometricPrecision" stroke-miterlimit="1.45" shape-rendering="geometricPrecision" font-family="sans-serif" transform="matrix(1,0,0,1,15,15)" stroke-linecap="butt">
      <text x="232.3652" xml:space="preserve" y="159.1543" clip-path="url(#clipPath2)" stroke="none">32</text>
      <circle fill="none" r="15" clip-path="url(#clipPath2)" cx="240" cy="155"/>
    </g>
    <g fill="rgb(255,204,0)" text-rendering="geometricPrecision" shape-rendering="geometricPrecision" transform="matrix(1,0,0,1,15,15)" stroke="rgb(255,204,0)">
      <circle r="15" clip-path="url(#clipPath2)" cx="340" cy="155" stroke="none"/>
    </g>
    <g text-rendering="geometricPrecision" stroke-miterlimit="1.45" shape-rendering="geometricPrecision" font-family="sans-serif" transform="matrix(1,0,0,1,15,15)" stroke-linecap="butt">
      <text x="332.3652" xml:space="preserve" y="159.1543" clip-path="url(#clipPath2)" stroke="none">68</text>
      <circle fill="none" r="15" clip-path="url(#clipPath2)" cx="340" cy="155"/>
    </g>
    <g fill="rgb(255,204,0)" text-rendering="geometricPrecision" shape-rendering="geometricPrecision" transform="matrix(1,0,0,1,15,15)" stroke="rgb(255,204,0)">
      <circle r="15" clip-path="url(#clipPath2)" cx="15" cy="225" stroke="none"/>
    </g>
    <g text-rendering="geometricPrecision" stroke-miterlimit="1.45" shape-rendering="geometricPrecision" font-family="sans-serif" transform="matrix(1,0,0,1,15,15)" stroke-linecap="butt">
      <text x="7.3652" xml:space="preserve" y="229.1543" clip-path="url(#clipPath2)" stroke="none">65</text>
      <circle fill="none" r="15" clip-path="url(#clipPath2)" cx="15" cy="225"/>
    </g>
    <g fill="rgb(255,204,0)" text-rendering="geometricPrecision" shape-rendering="geometricPrecision" transform="matrix(1,0,0,1,15,15)" stroke="rgb(255,204,0)">
      <circle r="15" clip-path="url(#clipPath2)" cx="65" cy="225" stroke="none"/>
    </g>
    <g text-rendering="geometricPrecision" stroke-miterlimit="1.45" shape-rendering="geometricPrecision" font-family="sans-serif" transform="matrix(1,0,0,1,15,15)" stroke-linecap="butt">
      <text x="57.3652" xml:space="preserve" y="229.1543" clip-path="url(#clipPath2)" stroke="none">26</text>
      <circle fill="none" r="15" clip-path="url(#clipPath2)" cx="65" cy="225"/>
      <path fill="none" d="M177.7115 23.6019 L102.2885 76.3981" clip-path="url(#clipPath2)"/>
      <path fill="none" d="M202.2885 23.6019 L277.7115 76.3981" clip-path="url(#clipPath2)"/>
      <path fill="none" d="M81.2814 97.206 L48.7186 142.794" clip-path="url(#clipPath2)"/>
      <path fill="none" d="M98.7186 97.206 L131.2814 142.794" clip-path="url(#clipPath2)"/>
      <path fill="none" d="M281.2814 97.206 L248.7186 142.794" clip-path="url(#clipPath2)"/>
      <path fill="none" d="M298.7186 97.206 L331.2814 142.794" clip-path="url(#clipPath2)"/>
      <path fill="none" d="M34.955 169.1261 L20.045 210.8739" clip-path="url(#clipPath2)"/>
      <path fill="none" d="M45.045 169.1261 L59.955 210.8739" clip-path="url(#clipPath2)"/>
    </g>
  </g>
</svg>
