<?xml version="1.0" encoding="UTF-8"?><svg xmlns="http://www.w3.org/2000/svg" xmlns:xlink="http://www.w3.org/1999/xlink" fill-opacity="1" color-rendering="auto" color-interpolation="auto" text-rendering="auto" stroke="black" stroke-linecap="square" width="170" stroke-miterlimit="10" shape-rendering="auto" stroke-opacity="1" fill="black" stroke-dasharray="none" font-weight="normal" stroke-width="1" height="195" font-family="'Dialog'" font-style="normal" stroke-linejoin="miter" font-size="12px" stroke-dashoffset="0" image-rendering="auto">
  <!--Generated by ySVG 2.5-->
  <defs id="genericDefs"/>
  <g>
    <defs id="defs1">
      <clipPath clipPathUnits="userSpaceOnUse" id="clipPath1">
        <path d="M0 0 L170 0 L170 195 L0 195 L0 0 Z"/>
      </clipPath>
      <clipPath clipPathUnits="userSpaceOnUse" id="clipPath2">
        <path d="M225 126 L395 126 L395 321 L225 321 L225 126 Z"/>
      </clipPath>
    </defs>
    <g fill="white" text-rendering="geometricPrecision" shape-rendering="geometricPrecision" transform="matrix(1,0,0,1,-225,-126)" stroke="white">
      <circle r="15" clip-path="url(#clipPath2)" cx="310" cy="156" stroke="none"/>
    </g>
    <g text-rendering="geometricPrecision" stroke-miterlimit="1.45" shape-rendering="geometricPrecision" font-family="sans-serif" transform="matrix(1,0,0,1,-225,-126)" stroke-linecap="butt">
      <text x="306.1826" xml:space="preserve" y="160.1543" clip-path="url(#clipPath2)" stroke="none">1</text>
      <circle fill="none" r="15" clip-path="url(#clipPath2)" cx="310" cy="156" stroke="silver"/>
      <text x="361.1826" xml:space="preserve" y="220.1543" clip-path="url(#clipPath2)" stroke="none">3</text>
      <circle fill="none" r="15" clip-path="url(#clipPath2)" cx="365" cy="216" stroke="silver"/>
      <text x="251.1826" xml:space="preserve" y="220.1543" clip-path="url(#clipPath2)" stroke="none">2</text>
      <circle fill="none" r="15" clip-path="url(#clipPath2)" cx="255" cy="216" stroke="silver"/>
      <text x="251.1826" xml:space="preserve" y="290.1543" clip-path="url(#clipPath2)" stroke="none">4</text>
      <circle fill="none" r="15" clip-path="url(#clipPath2)" cx="255" cy="286" stroke="silver"/>
      <text x="361.1826" xml:space="preserve" y="290.1543" clip-path="url(#clipPath2)" stroke="none">5</text>
      <circle fill="none" r="15" clip-path="url(#clipPath2)" cx="365" cy="286" stroke="silver"/>
      <path fill="none" d="M320.1359 167.0573 L349.4583 199.0455" clip-path="url(#clipPath2)" stroke="silver"/>
      <path fill="silver" d="M354.8641 204.9427 L350.4412 192.7182 L348.7826 198.3083 L343.0697 199.4755 Z" clip-path="url(#clipPath2)" stroke="none"/>
      <text x="333.6826" xml:space="preserve" y="172.8237" clip-path="url(#clipPath2)" stroke="none">1</text>
      <path fill="none" d="M299.8641 167.0573 L270.5417 199.0455" clip-path="url(#clipPath2)" stroke="silver"/>
      <path fill="silver" d="M265.1359 204.9427 L276.9303 199.4755 L271.2174 198.3083 L269.5588 192.7182 Z" clip-path="url(#clipPath2)" stroke="none"/>
      <text x="278.6826" xml:space="preserve" y="172.8237" clip-path="url(#clipPath2)" stroke="none">2</text>
      <path fill="none" d="M255 231 L255 263" clip-path="url(#clipPath2)" stroke="silver"/>
      <path fill="silver" d="M255 271 L260 259 L255 262 L250 259 Z" clip-path="url(#clipPath2)" stroke="none"/>
      <text x="259" xml:space="preserve" y="255.1543" clip-path="url(#clipPath2)" stroke="none">2</text>
      <path fill="none" d="M365 231 L365 263" clip-path="url(#clipPath2)" stroke="silver"/>
      <path fill="silver" d="M365 271 L370 259 L365 262 L360 259 Z" clip-path="url(#clipPath2)" stroke="none"/>
      <text x="369" xml:space="preserve" y="255.1543" clip-path="url(#clipPath2)" stroke="none">7</text>
      <path fill="none" d="M270 286 L342 286" clip-path="url(#clipPath2)" stroke="silver"/>
      <path fill="silver" d="M350 286 L338 281 L341 286 L338 291 Z" clip-path="url(#clipPath2)" stroke="none"/>
      <text x="306.1826" xml:space="preserve" y="301.1387" clip-path="url(#clipPath2)" stroke="none">2</text>
    </g>
  </g>
</svg>
