<?xml version="1.0" encoding="UTF-8"?><svg xmlns="http://www.w3.org/2000/svg" xmlns:xlink="http://www.w3.org/1999/xlink" fill-opacity="1" color-rendering="auto" color-interpolation="auto" text-rendering="auto" stroke="black" stroke-linecap="square" width="140" stroke-miterlimit="10" shape-rendering="auto" stroke-opacity="1" fill="black" stroke-dasharray="none" font-weight="normal" stroke-width="1" height="268" font-family="'Dialog'" font-style="normal" stroke-linejoin="miter" font-size="12px" stroke-dashoffset="0" image-rendering="auto">
  <!--Generated by ySVG 2.5-->
  <defs id="genericDefs"/>
  <g>
    <defs id="defs1">
      <clipPath clipPathUnits="userSpaceOnUse" id="clipPath1">
        <path d="M0 0 L140 0 L140 268 L0 268 L0 0 Z"/>
      </clipPath>
      <clipPath clipPathUnits="userSpaceOnUse" id="clipPath2">
        <path d="M244 157 L384 157 L384 425 L244 425 L244 157 Z"/>
      </clipPath>
    </defs>
    <g fill="rgb(255,204,0)" text-rendering="geometricPrecision" shape-rendering="geometricPrecision" transform="matrix(1,0,0,1,-244,-157)" stroke="rgb(255,204,0)">
      <circle r="15" clip-path="url(#clipPath2)" cx="314" cy="187.62" stroke="none"/>
    </g>
    <g text-rendering="geometricPrecision" stroke-miterlimit="1.45" shape-rendering="geometricPrecision" font-family="sans-serif" transform="matrix(1,0,0,1,-244,-157)" stroke-linecap="butt">
      <text x="310.1826" xml:space="preserve" y="191.7743" clip-path="url(#clipPath2)" stroke="none">1</text>
      <circle fill="none" r="15" clip-path="url(#clipPath2)" cx="314" cy="187.62"/>
    </g>
    <g fill="rgb(255,204,0)" text-rendering="geometricPrecision" shape-rendering="geometricPrecision" transform="matrix(1,0,0,1,-244,-157)" stroke="rgb(255,204,0)">
      <circle r="15" clip-path="url(#clipPath2)" cx="354" cy="255.5" stroke="none"/>
    </g>
    <g text-rendering="geometricPrecision" stroke-miterlimit="1.45" shape-rendering="geometricPrecision" font-family="sans-serif" transform="matrix(1,0,0,1,-244,-157)" stroke-linecap="butt">
      <text x="350.1826" xml:space="preserve" y="259.6543" clip-path="url(#clipPath2)" stroke="none">7</text>
      <circle fill="none" r="15" clip-path="url(#clipPath2)" cx="354" cy="255.5"/>
    </g>
    <g fill="rgb(255,204,0)" text-rendering="geometricPrecision" shape-rendering="geometricPrecision" transform="matrix(1,0,0,1,-244,-157)" stroke="rgb(255,204,0)">
      <circle r="15" clip-path="url(#clipPath2)" cx="354" cy="394.7" stroke="none"/>
    </g>
    <g text-rendering="geometricPrecision" stroke-miterlimit="1.45" shape-rendering="geometricPrecision" font-family="sans-serif" transform="matrix(1,0,0,1,-244,-157)" stroke-linecap="butt">
      <text x="350.1826" xml:space="preserve" y="398.8543" clip-path="url(#clipPath2)" stroke="none">5</text>
      <circle fill="none" r="15" clip-path="url(#clipPath2)" cx="354" cy="394.7"/>
    </g>
    <g fill="rgb(255,204,0)" text-rendering="geometricPrecision" shape-rendering="geometricPrecision" transform="matrix(1,0,0,1,-244,-157)" stroke="rgb(255,204,0)">
      <circle r="15" clip-path="url(#clipPath2)" cx="274" cy="255.5" stroke="none"/>
    </g>
    <g text-rendering="geometricPrecision" stroke-miterlimit="1.45" shape-rendering="geometricPrecision" font-family="sans-serif" transform="matrix(1,0,0,1,-244,-157)" stroke-linecap="butt">
      <text x="270.1826" xml:space="preserve" y="259.6543" clip-path="url(#clipPath2)" stroke="none">2</text>
      <circle fill="none" r="15" clip-path="url(#clipPath2)" cx="274" cy="255.5"/>
    </g>
    <g fill="rgb(255,204,0)" text-rendering="geometricPrecision" shape-rendering="geometricPrecision" transform="matrix(1,0,0,1,-244,-157)" stroke="rgb(255,204,0)">
      <circle r="15" clip-path="url(#clipPath2)" cx="274" cy="325.1" stroke="none"/>
    </g>
    <g text-rendering="geometricPrecision" stroke-miterlimit="1.45" shape-rendering="geometricPrecision" font-family="sans-serif" transform="matrix(1,0,0,1,-244,-157)" stroke-linecap="butt">
      <text x="270.1826" xml:space="preserve" y="329.2543" clip-path="url(#clipPath2)" stroke="none">3</text>
      <circle fill="none" r="15" clip-path="url(#clipPath2)" cx="274" cy="325.1"/>
    </g>
    <g fill="rgb(255,204,0)" text-rendering="geometricPrecision" shape-rendering="geometricPrecision" transform="matrix(1,0,0,1,-244,-157)" stroke="rgb(255,204,0)">
      <circle r="15" clip-path="url(#clipPath2)" cx="354" cy="325.1" stroke="none"/>
    </g>
    <g text-rendering="geometricPrecision" stroke-miterlimit="1.45" shape-rendering="geometricPrecision" font-family="sans-serif" transform="matrix(1,0,0,1,-244,-157)" stroke-linecap="butt">
      <text x="350.1826" xml:space="preserve" y="329.2543" clip-path="url(#clipPath2)" stroke="none">6</text>
      <circle fill="none" r="15" clip-path="url(#clipPath2)" cx="354" cy="325.1"/>
    </g>
    <g fill="rgb(255,204,0)" text-rendering="geometricPrecision" shape-rendering="geometricPrecision" transform="matrix(1,0,0,1,-244,-157)" stroke="rgb(255,204,0)">
      <circle r="15" clip-path="url(#clipPath2)" cx="274" cy="394.7" stroke="none"/>
    </g>
    <g text-rendering="geometricPrecision" stroke-miterlimit="1.45" shape-rendering="geometricPrecision" font-family="sans-serif" transform="matrix(1,0,0,1,-244,-157)" stroke-linecap="butt">
      <text x="270.1826" xml:space="preserve" y="398.8543" clip-path="url(#clipPath2)" stroke="none">4</text>
      <circle fill="none" r="15" clip-path="url(#clipPath2)" cx="274" cy="394.7"/>
      <path fill="none" d="M321.6153 200.5431 L342.3232 235.6845" clip-path="url(#clipPath2)"/>
      <path d="M346.3847 242.5769 L344.6002 229.6999 L341.8156 234.823 L335.9848 234.7768 Z" clip-path="url(#clipPath2)" stroke="none"/>
      <text x="343.2943" xml:space="preserve" y="225.7143" clip-path="url(#clipPath2)" stroke="none">4</text>
      <path fill="none" d="M306.3847 200.5431 L285.6768 235.6845" clip-path="url(#clipPath2)"/>
      <path d="M281.6153 242.5769 L292.0152 234.7768 L286.1844 234.823 L283.3998 229.6999 Z" clip-path="url(#clipPath2)" stroke="none"/>
      <text x="277.071" xml:space="preserve" y="225.7143" clip-path="url(#clipPath2)" stroke="none">3</text>
      <path fill="none" d="M274 270.5 L274 302.1" clip-path="url(#clipPath2)"/>
      <path d="M274 310.1 L279 298.1 L274 301.1 L269 298.1 Z" clip-path="url(#clipPath2)" stroke="none"/>
      <text x="278" xml:space="preserve" y="294.4543" clip-path="url(#clipPath2)" stroke="none">4</text>
      <path fill="none" d="M354 270.5 L354 302.1" clip-path="url(#clipPath2)"/>
      <path d="M354 310.1 L359 298.1 L354 301.1 L349 298.1 Z" clip-path="url(#clipPath2)" stroke="none"/>
      <text x="358" xml:space="preserve" y="294.4543" clip-path="url(#clipPath2)" stroke="none">2</text>
      <path fill="none" d="M354 340.1 L354 371.7" clip-path="url(#clipPath2)"/>
      <path d="M354 379.7 L359 367.7 L354 370.7 L349 367.7 Z" clip-path="url(#clipPath2)" stroke="none"/>
      <text x="358" xml:space="preserve" y="364.0543" clip-path="url(#clipPath2)" stroke="none">5</text>
      <path fill="none" d="M274 340.1 L274 371.7" clip-path="url(#clipPath2)"/>
      <path d="M274 379.7 L279 367.7 L274 370.7 L269 367.7 Z" clip-path="url(#clipPath2)" stroke="none"/>
      <text x="278" xml:space="preserve" y="363.3637" clip-path="url(#clipPath2)" stroke="none">5</text>
    </g>
  </g>
</svg>
