<?xml version="1.0" encoding="UTF-8"?><svg xmlns="http://www.w3.org/2000/svg" xmlns:xlink="http://www.w3.org/1999/xlink" fill-opacity="1" color-rendering="auto" color-interpolation="auto" text-rendering="auto" stroke="black" stroke-linecap="square" width="324" stroke-miterlimit="10" shape-rendering="auto" stroke-opacity="1" fill="black" stroke-dasharray="none" font-weight="normal" stroke-width="1" height="268" font-family="'Dialog'" font-style="normal" stroke-linejoin="miter" font-size="12px" stroke-dashoffset="0" image-rendering="auto">
  <!--Generated by ySVG 2.5-->
  <defs id="genericDefs"/>
  <g>
    <defs id="defs1">
      <clipPath clipPathUnits="userSpaceOnUse" id="clipPath1">
        <path d="M0 0 L324 0 L324 268 L0 268 L0 0 Z"/>
      </clipPath>
      <clipPath clipPathUnits="userSpaceOnUse" id="clipPath2">
        <path d="M130 157 L454 157 L454 425 L130 425 L130 157 Z"/>
      </clipPath>
    </defs>
    <g fill="rgb(255,204,0)" text-rendering="geometricPrecision" shape-rendering="geometricPrecision" transform="matrix(1,0,0,1,-130,-157)" stroke="rgb(255,204,0)">
      <circle r="15" clip-path="url(#clipPath2)" cx="200" cy="187.62" stroke="none"/>
    </g>
    <g text-rendering="geometricPrecision" stroke-miterlimit="1.45" shape-rendering="geometricPrecision" font-family="sans-serif" transform="matrix(1,0,0,1,-130,-157)" stroke-linecap="butt">
      <text x="196.1826" xml:space="preserve" y="191.7743" clip-path="url(#clipPath2)" stroke="none">1</text>
      <circle fill="none" r="15" clip-path="url(#clipPath2)" cx="200" cy="187.62"/>
    </g>
    <g fill="rgb(255,204,0)" text-rendering="geometricPrecision" shape-rendering="geometricPrecision" transform="matrix(1,0,0,1,-130,-157)" stroke="rgb(255,204,0)">
      <circle r="15" clip-path="url(#clipPath2)" cx="240" cy="255.5" stroke="none"/>
    </g>
    <g text-rendering="geometricPrecision" stroke-miterlimit="1.45" shape-rendering="geometricPrecision" font-family="sans-serif" transform="matrix(1,0,0,1,-130,-157)" stroke-linecap="butt">
      <text x="236.1826" xml:space="preserve" y="259.6543" clip-path="url(#clipPath2)" stroke="none">7</text>
      <circle fill="none" r="15" clip-path="url(#clipPath2)" cx="240" cy="255.5"/>
    </g>
    <g fill="rgb(255,204,0)" text-rendering="geometricPrecision" shape-rendering="geometricPrecision" transform="matrix(1,0,0,1,-130,-157)" stroke="rgb(255,204,0)">
      <circle r="15" clip-path="url(#clipPath2)" cx="240" cy="394.7" stroke="none"/>
    </g>
    <g text-rendering="geometricPrecision" stroke-miterlimit="1.45" shape-rendering="geometricPrecision" font-family="sans-serif" transform="matrix(1,0,0,1,-130,-157)" stroke-linecap="butt">
      <text x="236.1826" xml:space="preserve" y="398.8543" clip-path="url(#clipPath2)" stroke="none">5</text>
      <circle fill="none" r="15" clip-path="url(#clipPath2)" cx="240" cy="394.7"/>
    </g>
    <g fill="rgb(255,204,0)" text-rendering="geometricPrecision" shape-rendering="geometricPrecision" transform="matrix(1,0,0,1,-130,-157)" stroke="rgb(255,204,0)">
      <circle r="15" clip-path="url(#clipPath2)" cx="160" cy="255.5" stroke="none"/>
    </g>
    <g text-rendering="geometricPrecision" stroke-miterlimit="1.45" shape-rendering="geometricPrecision" font-family="sans-serif" transform="matrix(1,0,0,1,-130,-157)" stroke-linecap="butt">
      <text x="156.1826" xml:space="preserve" y="259.6543" clip-path="url(#clipPath2)" stroke="none">2</text>
      <circle fill="none" r="15" clip-path="url(#clipPath2)" cx="160" cy="255.5"/>
    </g>
    <g fill="rgb(255,204,0)" text-rendering="geometricPrecision" shape-rendering="geometricPrecision" transform="matrix(1,0,0,1,-130,-157)" stroke="rgb(255,204,0)">
      <circle r="15" clip-path="url(#clipPath2)" cx="160" cy="325.1" stroke="none"/>
    </g>
    <g text-rendering="geometricPrecision" stroke-miterlimit="1.45" shape-rendering="geometricPrecision" font-family="sans-serif" transform="matrix(1,0,0,1,-130,-157)" stroke-linecap="butt">
      <text x="156.1826" xml:space="preserve" y="329.2543" clip-path="url(#clipPath2)" stroke="none">3</text>
      <circle fill="none" r="15" clip-path="url(#clipPath2)" cx="160" cy="325.1"/>
    </g>
    <g fill="rgb(255,204,0)" text-rendering="geometricPrecision" shape-rendering="geometricPrecision" transform="matrix(1,0,0,1,-130,-157)" stroke="rgb(255,204,0)">
      <circle r="15" clip-path="url(#clipPath2)" cx="240" cy="325.1" stroke="none"/>
    </g>
    <g text-rendering="geometricPrecision" stroke-miterlimit="1.45" shape-rendering="geometricPrecision" font-family="sans-serif" transform="matrix(1,0,0,1,-130,-157)" stroke-linecap="butt">
      <text x="236.1826" xml:space="preserve" y="329.2543" clip-path="url(#clipPath2)" stroke="none">6</text>
      <circle fill="none" r="15" clip-path="url(#clipPath2)" cx="240" cy="325.1"/>
    </g>
    <g fill="rgb(255,204,0)" text-rendering="geometricPrecision" shape-rendering="geometricPrecision" transform="matrix(1,0,0,1,-130,-157)" stroke="rgb(255,204,0)">
      <circle r="15" clip-path="url(#clipPath2)" cx="160" cy="394.7" stroke="none"/>
    </g>
    <g text-rendering="geometricPrecision" stroke-miterlimit="1.45" shape-rendering="geometricPrecision" font-family="sans-serif" transform="matrix(1,0,0,1,-130,-157)" stroke-linecap="butt">
      <text x="156.1826" xml:space="preserve" y="398.8543" clip-path="url(#clipPath2)" stroke="none">4</text>
      <circle fill="none" r="15" clip-path="url(#clipPath2)" cx="160" cy="394.7"/>
    </g>
    <g fill="rgb(255,204,0)" text-rendering="geometricPrecision" shape-rendering="geometricPrecision" transform="matrix(1,0,0,1,-130,-157)" stroke="rgb(255,204,0)">
      <circle r="15" clip-path="url(#clipPath2)" cx="384" cy="187.62" stroke="none"/>
    </g>
    <g text-rendering="geometricPrecision" stroke-miterlimit="1.45" shape-rendering="geometricPrecision" font-family="sans-serif" transform="matrix(1,0,0,1,-130,-157)" stroke-linecap="butt">
      <text x="380.1826" xml:space="preserve" y="191.7743" clip-path="url(#clipPath2)" stroke="none">1</text>
      <circle fill="none" r="15" clip-path="url(#clipPath2)" cx="384" cy="187.62"/>
    </g>
    <g fill="rgb(255,204,0)" text-rendering="geometricPrecision" shape-rendering="geometricPrecision" transform="matrix(1,0,0,1,-130,-157)" stroke="rgb(255,204,0)">
      <circle r="15" clip-path="url(#clipPath2)" cx="424" cy="255.5" stroke="none"/>
    </g>
    <g text-rendering="geometricPrecision" stroke-miterlimit="1.45" shape-rendering="geometricPrecision" font-family="sans-serif" transform="matrix(1,0,0,1,-130,-157)" stroke-linecap="butt">
      <text x="420.1826" xml:space="preserve" y="259.6543" clip-path="url(#clipPath2)" stroke="none">7</text>
      <circle fill="none" r="15" clip-path="url(#clipPath2)" cx="424" cy="255.5"/>
    </g>
    <g fill="rgb(255,204,0)" text-rendering="geometricPrecision" shape-rendering="geometricPrecision" transform="matrix(1,0,0,1,-130,-157)" stroke="rgb(255,204,0)">
      <circle r="15" clip-path="url(#clipPath2)" cx="424" cy="394.7" stroke="none"/>
    </g>
    <g text-rendering="geometricPrecision" stroke-miterlimit="1.45" shape-rendering="geometricPrecision" font-family="sans-serif" transform="matrix(1,0,0,1,-130,-157)" stroke-linecap="butt">
      <text x="420.1826" xml:space="preserve" y="398.8543" clip-path="url(#clipPath2)" stroke="none">5</text>
      <circle fill="none" r="15" clip-path="url(#clipPath2)" cx="424" cy="394.7"/>
    </g>
    <g fill="rgb(255,204,0)" text-rendering="geometricPrecision" shape-rendering="geometricPrecision" transform="matrix(1,0,0,1,-130,-157)" stroke="rgb(255,204,0)">
      <circle r="15" clip-path="url(#clipPath2)" cx="344" cy="255.5" stroke="none"/>
    </g>
    <g text-rendering="geometricPrecision" stroke-miterlimit="1.45" shape-rendering="geometricPrecision" font-family="sans-serif" transform="matrix(1,0,0,1,-130,-157)" stroke-linecap="butt">
      <text x="340.1826" xml:space="preserve" y="259.6543" clip-path="url(#clipPath2)" stroke="none">2</text>
      <circle fill="none" r="15" clip-path="url(#clipPath2)" cx="344" cy="255.5"/>
    </g>
    <g fill="rgb(255,204,0)" text-rendering="geometricPrecision" shape-rendering="geometricPrecision" transform="matrix(1,0,0,1,-130,-157)" stroke="rgb(255,204,0)">
      <circle r="15" clip-path="url(#clipPath2)" cx="344" cy="325.1" stroke="none"/>
    </g>
    <g text-rendering="geometricPrecision" stroke-miterlimit="1.45" shape-rendering="geometricPrecision" font-family="sans-serif" transform="matrix(1,0,0,1,-130,-157)" stroke-linecap="butt">
      <text x="340.1826" xml:space="preserve" y="329.2543" clip-path="url(#clipPath2)" stroke="none">3</text>
      <circle fill="none" r="15" clip-path="url(#clipPath2)" cx="344" cy="325.1"/>
    </g>
    <g fill="rgb(255,204,0)" text-rendering="geometricPrecision" shape-rendering="geometricPrecision" transform="matrix(1,0,0,1,-130,-157)" stroke="rgb(255,204,0)">
      <circle r="15" clip-path="url(#clipPath2)" cx="424" cy="325.1" stroke="none"/>
    </g>
    <g text-rendering="geometricPrecision" stroke-miterlimit="1.45" shape-rendering="geometricPrecision" font-family="sans-serif" transform="matrix(1,0,0,1,-130,-157)" stroke-linecap="butt">
      <text x="420.1826" xml:space="preserve" y="329.2543" clip-path="url(#clipPath2)" stroke="none">6</text>
      <circle fill="none" r="15" clip-path="url(#clipPath2)" cx="424" cy="325.1"/>
    </g>
    <g fill="rgb(255,204,0)" text-rendering="geometricPrecision" shape-rendering="geometricPrecision" transform="matrix(1,0,0,1,-130,-157)" stroke="rgb(255,204,0)">
      <circle r="15" clip-path="url(#clipPath2)" cx="344" cy="394.7" stroke="none"/>
    </g>
    <g text-rendering="geometricPrecision" stroke-miterlimit="1.45" shape-rendering="geometricPrecision" font-family="sans-serif" transform="matrix(1,0,0,1,-130,-157)" stroke-linecap="butt">
      <text x="340.1826" xml:space="preserve" y="398.8543" clip-path="url(#clipPath2)" stroke="none">4</text>
      <circle fill="none" r="15" clip-path="url(#clipPath2)" cx="344" cy="394.7"/>
      <path fill="none" d="M207.6153 200.5431 L232.3847 242.5769" clip-path="url(#clipPath2)"/>
      <text x="229.2943" xml:space="preserve" y="225.7143" clip-path="url(#clipPath2)" stroke="none">4</text>
      <path fill="none" d="M192.3847 200.5431 L167.6153 242.5769" clip-path="url(#clipPath2)"/>
      <text x="163.071" xml:space="preserve" y="225.7143" clip-path="url(#clipPath2)" stroke="none">3</text>
      <path fill="none" d="M160 270.5 L160 310.1" clip-path="url(#clipPath2)"/>
      <text x="164" xml:space="preserve" y="294.4543" clip-path="url(#clipPath2)" stroke="none">4</text>
      <path fill="none" d="M240 270.5 L240 310.1" clip-path="url(#clipPath2)"/>
      <text x="244" xml:space="preserve" y="294.4543" clip-path="url(#clipPath2)" stroke="none">2</text>
      <path fill="none" d="M240 340.1 L240 379.7" clip-path="url(#clipPath2)"/>
      <text x="244" xml:space="preserve" y="364.0543" clip-path="url(#clipPath2)" stroke="none">5</text>
      <path fill="none" d="M175 394.7 L225 394.7" clip-path="url(#clipPath2)"/>
      <text x="196.1826" xml:space="preserve" y="387.8699" clip-path="url(#clipPath2)" stroke="none">4</text>
      <path fill="none" d="M391.6153 200.5431 L416.3847 242.5769" clip-path="url(#clipPath2)"/>
      <text x="413.2943" xml:space="preserve" y="225.7143" clip-path="url(#clipPath2)" stroke="none">4</text>
      <path fill="none" d="M376.3847 200.5431 L351.6153 242.5769" clip-path="url(#clipPath2)"/>
      <text x="347.071" xml:space="preserve" y="225.7143" clip-path="url(#clipPath2)" stroke="none">3</text>
      <path fill="none" d="M344 270.5 L344 310.1" clip-path="url(#clipPath2)"/>
      <text x="348" xml:space="preserve" y="294.4543" clip-path="url(#clipPath2)" stroke="none">4</text>
      <path fill="none" d="M424 270.5 L424 310.1" clip-path="url(#clipPath2)"/>
      <text x="428" xml:space="preserve" y="294.4543" clip-path="url(#clipPath2)" stroke="none">2</text>
      <path fill="none" d="M344 340.1 L344 379.7" clip-path="url(#clipPath2)"/>
      <text x="348" xml:space="preserve" y="363.3637" clip-path="url(#clipPath2)" stroke="none">5</text>
      <path fill="none" d="M359 394.7 L409 394.7" clip-path="url(#clipPath2)"/>
      <text x="380.1826" xml:space="preserve" y="387.8699" clip-path="url(#clipPath2)" stroke="none">4</text>
    </g>
  </g>
</svg>
