<?xml version="1.0" encoding="UTF-8"?><svg xmlns="http://www.w3.org/2000/svg" xmlns:xlink="http://www.w3.org/1999/xlink" fill-opacity="1" color-rendering="auto" color-interpolation="auto" text-rendering="auto" stroke="black" stroke-linecap="square" width="270" stroke-miterlimit="10" shape-rendering="auto" stroke-opacity="1" fill="black" stroke-dasharray="none" font-weight="normal" stroke-width="1" height="180" font-family="'Dialog'" font-style="normal" stroke-linejoin="miter" font-size="12px" stroke-dashoffset="0" image-rendering="auto">
  <!--Generated by ySVG 2.5-->
  <defs id="genericDefs"/>
  <g>
    <defs id="defs1">
      <clipPath clipPathUnits="userSpaceOnUse" id="clipPath1">
        <path d="M0 0 L270 0 L270 180 L0 180 L0 0 Z"/>
      </clipPath>
      <clipPath clipPathUnits="userSpaceOnUse" id="clipPath2">
        <path d="M30 -30 L300 -30 L300 150 L30 150 L30 -30 Z"/>
      </clipPath>
    </defs>
    <g fill="rgb(255,204,0)" text-rendering="geometricPrecision" shape-rendering="geometricPrecision" transform="matrix(1,0,0,1,-30,30)" stroke="rgb(255,204,0)">
      <circle r="15" clip-path="url(#clipPath2)" cx="60" cy="0" stroke="none"/>
    </g>
    <g text-rendering="geometricPrecision" stroke-miterlimit="1.45" shape-rendering="geometricPrecision" font-family="sans-serif" transform="matrix(1,0,0,1,-30,30)" stroke-linecap="butt">
      <text x="56.1826" xml:space="preserve" y="4.1543" clip-path="url(#clipPath2)" stroke="none">1</text>
      <circle fill="none" r="15" clip-path="url(#clipPath2)" cx="60" cy="0"/>
    </g>
    <g fill="rgb(255,204,0)" text-rendering="geometricPrecision" shape-rendering="geometricPrecision" transform="matrix(1,0,0,1,-30,30)" stroke="rgb(255,204,0)">
      <circle r="15" clip-path="url(#clipPath2)" cx="210" cy="0" stroke="none"/>
    </g>
    <g text-rendering="geometricPrecision" stroke-miterlimit="1.45" shape-rendering="geometricPrecision" font-family="sans-serif" transform="matrix(1,0,0,1,-30,30)" stroke-linecap="butt">
      <text x="206.1826" xml:space="preserve" y="4.1543" clip-path="url(#clipPath2)" stroke="none">2</text>
      <circle fill="none" r="15" clip-path="url(#clipPath2)" cx="210" cy="0"/>
    </g>
    <g fill="rgb(255,204,0)" text-rendering="geometricPrecision" shape-rendering="geometricPrecision" transform="matrix(1,0,0,1,-30,30)" stroke="rgb(255,204,0)">
      <circle r="15" clip-path="url(#clipPath2)" cx="270" cy="0" stroke="none"/>
    </g>
    <g text-rendering="geometricPrecision" stroke-miterlimit="1.45" shape-rendering="geometricPrecision" font-family="sans-serif" transform="matrix(1,0,0,1,-30,30)" stroke-linecap="butt">
      <text x="266.1826" xml:space="preserve" y="4.1543" clip-path="url(#clipPath2)" stroke="none">3</text>
      <circle fill="none" r="15" clip-path="url(#clipPath2)" cx="270" cy="0"/>
    </g>
    <g fill="rgb(255,204,0)" text-rendering="geometricPrecision" shape-rendering="geometricPrecision" transform="matrix(1,0,0,1,-30,30)" stroke="rgb(255,204,0)">
      <circle r="15" clip-path="url(#clipPath2)" cx="60" cy="120" stroke="none"/>
    </g>
    <g text-rendering="geometricPrecision" stroke-miterlimit="1.45" shape-rendering="geometricPrecision" font-family="sans-serif" transform="matrix(1,0,0,1,-30,30)" stroke-linecap="butt">
      <text x="56.1826" xml:space="preserve" y="124.1543" clip-path="url(#clipPath2)" stroke="none">4</text>
      <circle fill="none" r="15" clip-path="url(#clipPath2)" cx="60" cy="120"/>
    </g>
    <g fill="rgb(255,204,0)" text-rendering="geometricPrecision" shape-rendering="geometricPrecision" transform="matrix(1,0,0,1,-30,30)" stroke="rgb(255,204,0)">
      <circle r="15" clip-path="url(#clipPath2)" cx="210" cy="120" stroke="none"/>
    </g>
    <g text-rendering="geometricPrecision" stroke-miterlimit="1.45" shape-rendering="geometricPrecision" font-family="sans-serif" transform="matrix(1,0,0,1,-30,30)" stroke-linecap="butt">
      <text x="206.1826" xml:space="preserve" y="124.1543" clip-path="url(#clipPath2)" stroke="none">5</text>
      <circle fill="none" r="15" clip-path="url(#clipPath2)" cx="210" cy="120"/>
    </g>
    <g fill="rgb(255,204,0)" text-rendering="geometricPrecision" shape-rendering="geometricPrecision" transform="matrix(1,0,0,1,-30,30)" stroke="rgb(255,204,0)">
      <circle r="15" clip-path="url(#clipPath2)" cx="270" cy="120" stroke="none"/>
    </g>
    <g text-rendering="geometricPrecision" stroke-miterlimit="1.45" shape-rendering="geometricPrecision" font-family="sans-serif" transform="matrix(1,0,0,1,-30,30)" stroke-linecap="butt">
      <text x="266.1826" xml:space="preserve" y="124.1543" clip-path="url(#clipPath2)" stroke="none">6</text>
      <circle fill="none" r="15" clip-path="url(#clipPath2)" cx="270" cy="120"/>
      <path fill="none" d="M195 0 L75 0" clip-path="url(#clipPath2)"/>
      <path fill="none" d="M71.713 9.3704 L198.287 110.6296" clip-path="url(#clipPath2)"/>
      <path fill="none" d="M210 105 L210 15" clip-path="url(#clipPath2)"/>
      <path fill="none" d="M270 15 L270 105" clip-path="url(#clipPath2)"/>
    </g>
  </g>
</svg>
