<?xml version="1.0" encoding="UTF-8"?><svg xmlns="http://www.w3.org/2000/svg" xmlns:xlink="http://www.w3.org/1999/xlink" fill-opacity="1" color-rendering="auto" color-interpolation="auto" text-rendering="auto" stroke="black" stroke-linecap="square" width="385" stroke-miterlimit="10" shape-rendering="auto" stroke-opacity="1" fill="black" stroke-dasharray="none" font-weight="normal" stroke-width="1" height="208" font-family="'Dialog'" font-style="normal" stroke-linejoin="miter" font-size="12px" stroke-dashoffset="0" image-rendering="auto">
  <!--Generated by ySVG 2.5-->
  <defs id="genericDefs"/>
  <g>
    <defs id="defs1">
      <clipPath clipPathUnits="userSpaceOnUse" id="clipPath1">
        <path d="M0 0 L385 0 L385 208 L0 208 L0 0 Z"/>
      </clipPath>
      <clipPath clipPathUnits="userSpaceOnUse" id="clipPath2">
        <path d="M4 62 L389 62 L389 270 L4 270 L4 62 Z"/>
      </clipPath>
    </defs>
    <g fill="rgb(255,204,0)" text-rendering="geometricPrecision" shape-rendering="geometricPrecision" transform="matrix(1,0,0,1,-4,-62)" stroke="rgb(255,204,0)">
      <circle r="15" clip-path="url(#clipPath2)" cx="227" cy="125" stroke="none"/>
    </g>
    <g text-rendering="geometricPrecision" stroke-miterlimit="1.45" shape-rendering="geometricPrecision" font-family="sans-serif" transform="matrix(1,0,0,1,-4,-62)" stroke-linecap="butt">
      <text x="223.1826" xml:space="preserve" y="129.1543" clip-path="url(#clipPath2)" stroke="none">1</text>
      <circle fill="none" r="15" clip-path="url(#clipPath2)" cx="227" cy="125"/>
    </g>
    <g fill="rgb(255,204,0)" text-rendering="geometricPrecision" shape-rendering="geometricPrecision" transform="matrix(1,0,0,1,-4,-62)" stroke="rgb(255,204,0)">
      <circle r="15" clip-path="url(#clipPath2)" cx="34" cy="119" stroke="none"/>
    </g>
    <g text-rendering="geometricPrecision" stroke-miterlimit="1.45" shape-rendering="geometricPrecision" font-family="sans-serif" transform="matrix(1,0,0,1,-4,-62)" stroke-linecap="butt">
      <text x="30.1826" xml:space="preserve" y="123.1543" clip-path="url(#clipPath2)" stroke="none">0</text>
      <circle fill="none" r="15" clip-path="url(#clipPath2)" cx="34" cy="119"/>
    </g>
    <g fill="rgb(255,204,0)" text-rendering="geometricPrecision" shape-rendering="geometricPrecision" transform="matrix(1,0,0,1,-4,-62)" stroke="rgb(255,204,0)">
      <circle r="15" clip-path="url(#clipPath2)" cx="120" cy="240" stroke="none"/>
    </g>
    <g text-rendering="geometricPrecision" stroke-miterlimit="1.45" shape-rendering="geometricPrecision" font-family="sans-serif" transform="matrix(1,0,0,1,-4,-62)" stroke-linecap="butt">
      <text x="116.1826" xml:space="preserve" y="244.1543" clip-path="url(#clipPath2)" stroke="none">2</text>
      <circle fill="none" r="15" clip-path="url(#clipPath2)" cx="120" cy="240"/>
    </g>
    <g fill="rgb(255,204,0)" text-rendering="geometricPrecision" shape-rendering="geometricPrecision" transform="matrix(1,0,0,1,-4,-62)" stroke="rgb(255,204,0)">
      <circle r="15" clip-path="url(#clipPath2)" cx="359" cy="92" stroke="none"/>
    </g>
    <g text-rendering="geometricPrecision" stroke-miterlimit="1.45" shape-rendering="geometricPrecision" font-family="sans-serif" transform="matrix(1,0,0,1,-4,-62)" stroke-linecap="butt">
      <text x="355.1826" xml:space="preserve" y="96.1543" clip-path="url(#clipPath2)" stroke="none">3</text>
      <circle fill="none" r="15" clip-path="url(#clipPath2)" cx="359" cy="92"/>
      <path fill="none" d="M48.9928 119.4661 L204.0111 124.2853" clip-path="url(#clipPath2)"/>
      <path d="M212.0072 124.5339 L200.1684 119.1634 L203.0116 124.2542 L199.8577 129.1586 Z" clip-path="url(#clipPath2)" stroke="none"/>
      <rect x="124.6826" y="113.0156" clip-path="url(#clipPath2)" fill="white" width="11.6348" height="17.9688" stroke="none"/>
      <text x="126.6826" xml:space="preserve" y="126.1543" clip-path="url(#clipPath2)" stroke="none">3</text>
      <path fill="none" d="M42.6899 131.2265 L106.6755 221.2528" clip-path="url(#clipPath2)"/>
      <path d="M111.3101 227.7735 L108.4337 215.0958 L106.0962 220.4377 L100.2827 220.889 Z" clip-path="url(#clipPath2)" stroke="none"/>
      <rect x="71.1826" y="170.5156" clip-path="url(#clipPath2)" fill="white" width="11.6348" height="17.9688" stroke="none"/>
      <text x="73.1826" xml:space="preserve" y="183.6543" clip-path="url(#clipPath2)" stroke="none">6</text>
      <path fill="none" d="M130.2177 229.0183 L211.3328 141.8386" clip-path="url(#clipPath2)"/>
      <path d="M216.7823 135.9817 L204.9475 141.3611 L210.6516 142.5707 L212.2686 148.173 Z" clip-path="url(#clipPath2)" stroke="none"/>
      <rect x="165.5176" y="173.5156" clip-path="url(#clipPath2)" fill="white" width="15.9648" height="17.9688" stroke="none"/>
      <text x="167.5176" xml:space="preserve" y="186.6543" clip-path="url(#clipPath2)" stroke="none">-5</text>
      <path fill="none" d="M241.5521 121.362 L336.6867 97.5783" clip-path="url(#clipPath2)"/>
      <path d="M344.4479 95.638 L331.5935 93.6977 L335.7166 97.8209 L334.0188 103.3992 Z" clip-path="url(#clipPath2)" stroke="none"/>
      <rect x="287.1826" y="99.5156" clip-path="url(#clipPath2)" fill="white" width="11.6348" height="17.9688" stroke="none"/>
      <text x="289.1826" xml:space="preserve" y="112.6543" clip-path="url(#clipPath2)" stroke="none">1</text>
    </g>
  </g>
</svg>
