<?xml version="1.0" encoding="UTF-8"?><svg xmlns="http://www.w3.org/2000/svg" xmlns:xlink="http://www.w3.org/1999/xlink" fill-opacity="1" color-rendering="auto" color-interpolation="auto" text-rendering="auto" stroke="black" stroke-linecap="square" width="450" stroke-miterlimit="10" shape-rendering="auto" stroke-opacity="1" fill="black" stroke-dasharray="none" font-weight="normal" stroke-width="1" height="306" font-family="'Dialog'" font-style="normal" stroke-linejoin="miter" font-size="12px" stroke-dashoffset="0" image-rendering="auto">
  <!--Generated by ySVG 2.5-->
  <defs id="genericDefs"/>
  <g>
    <defs id="defs1">
      <clipPath clipPathUnits="userSpaceOnUse" id="clipPath1">
        <path d="M0 0 L450 0 L450 306 L0 306 L0 0 Z"/>
      </clipPath>
      <clipPath clipPathUnits="userSpaceOnUse" id="clipPath2">
        <path d="M237 359 L687 359 L687 665 L237 665 L237 359 Z"/>
      </clipPath>
    </defs>
    <g fill="rgb(255,204,0)" text-rendering="geometricPrecision" shape-rendering="geometricPrecision" transform="matrix(1,0,0,1,-237,-359)" stroke="rgb(255,204,0)">
      <circle r="15" clip-path="url(#clipPath2)" cx="267" cy="509" stroke="none"/>
    </g>
    <g text-rendering="geometricPrecision" stroke-miterlimit="1.45" shape-rendering="geometricPrecision" font-family="sans-serif" transform="matrix(1,0,0,1,-237,-359)" stroke-linecap="butt">
      <text x="263.1826" xml:space="preserve" y="513.1543" clip-path="url(#clipPath2)" stroke="none">1</text>
      <circle fill="none" r="15" clip-path="url(#clipPath2)" cx="267" cy="509"/>
    </g>
    <g fill="rgb(255,204,0)" text-rendering="geometricPrecision" shape-rendering="geometricPrecision" transform="matrix(1,0,0,1,-237,-359)" stroke="rgb(255,204,0)">
      <circle r="15" clip-path="url(#clipPath2)" cx="403" cy="395" stroke="none"/>
    </g>
    <g text-rendering="geometricPrecision" stroke-miterlimit="1.45" shape-rendering="geometricPrecision" font-family="sans-serif" transform="matrix(1,0,0,1,-237,-359)" stroke-linecap="butt">
      <text x="399.1826" xml:space="preserve" y="399.1543" clip-path="url(#clipPath2)" stroke="none">2</text>
      <circle fill="none" r="15" clip-path="url(#clipPath2)" cx="403" cy="395"/>
    </g>
    <g fill="rgb(255,204,0)" text-rendering="geometricPrecision" shape-rendering="geometricPrecision" transform="matrix(1,0,0,1,-237,-359)" stroke="rgb(255,204,0)">
      <circle r="15" clip-path="url(#clipPath2)" cx="437" cy="509" stroke="none"/>
    </g>
    <g text-rendering="geometricPrecision" stroke-miterlimit="1.45" shape-rendering="geometricPrecision" font-family="sans-serif" transform="matrix(1,0,0,1,-237,-359)" stroke-linecap="butt">
      <text x="433.1826" xml:space="preserve" y="513.1543" clip-path="url(#clipPath2)" stroke="none">3</text>
      <circle fill="none" r="15" clip-path="url(#clipPath2)" cx="437" cy="509"/>
    </g>
    <g fill="rgb(255,204,0)" text-rendering="geometricPrecision" shape-rendering="geometricPrecision" transform="matrix(1,0,0,1,-237,-359)" stroke="rgb(255,204,0)">
      <circle r="15" clip-path="url(#clipPath2)" cx="412" cy="613" stroke="none"/>
    </g>
    <g text-rendering="geometricPrecision" stroke-miterlimit="1.45" shape-rendering="geometricPrecision" font-family="sans-serif" transform="matrix(1,0,0,1,-237,-359)" stroke-linecap="butt">
      <text x="408.1826" xml:space="preserve" y="617.1543" clip-path="url(#clipPath2)" stroke="none">4</text>
      <circle fill="none" r="15" clip-path="url(#clipPath2)" cx="412" cy="613"/>
    </g>
    <g fill="rgb(255,204,0)" text-rendering="geometricPrecision" shape-rendering="geometricPrecision" transform="matrix(1,0,0,1,-237,-359)" stroke="rgb(255,204,0)">
      <circle r="15" clip-path="url(#clipPath2)" cx="646" cy="389" stroke="none"/>
    </g>
    <g text-rendering="geometricPrecision" stroke-miterlimit="1.45" shape-rendering="geometricPrecision" font-family="sans-serif" transform="matrix(1,0,0,1,-237,-359)" stroke-linecap="butt">
      <text x="642.1826" xml:space="preserve" y="393.1543" clip-path="url(#clipPath2)" stroke="none">5</text>
      <circle fill="none" r="15" clip-path="url(#clipPath2)" cx="646" cy="389"/>
    </g>
    <g fill="rgb(255,204,0)" text-rendering="geometricPrecision" shape-rendering="geometricPrecision" transform="matrix(1,0,0,1,-237,-359)" stroke="rgb(255,204,0)">
      <circle r="15" clip-path="url(#clipPath2)" cx="657" cy="635" stroke="none"/>
    </g>
    <g text-rendering="geometricPrecision" stroke-miterlimit="1.45" shape-rendering="geometricPrecision" font-family="sans-serif" transform="matrix(1,0,0,1,-237,-359)" stroke-linecap="butt">
      <text x="653.1826" xml:space="preserve" y="639.1543" clip-path="url(#clipPath2)" stroke="none">6</text>
      <circle fill="none" r="15" clip-path="url(#clipPath2)" cx="657" cy="635"/>
    </g>
    <g fill="rgb(255,204,0)" text-rendering="geometricPrecision" shape-rendering="geometricPrecision" transform="matrix(1,0,0,1,-237,-359)" stroke="rgb(255,204,0)">
      <circle r="15" clip-path="url(#clipPath2)" cx="571" cy="509" stroke="none"/>
    </g>
    <g text-rendering="geometricPrecision" stroke-miterlimit="1.45" shape-rendering="geometricPrecision" font-family="sans-serif" transform="matrix(1,0,0,1,-237,-359)" stroke-linecap="butt">
      <text x="567.1826" xml:space="preserve" y="513.1543" clip-path="url(#clipPath2)" stroke="none">7</text>
      <circle fill="none" r="15" clip-path="url(#clipPath2)" cx="571" cy="509"/>
      <path fill="none" d="M278.4955 499.364 L391.5045 404.636" clip-path="url(#clipPath2)"/>
      <rect x="329.1826" y="443.0156" clip-path="url(#clipPath2)" fill="white" width="11.6348" height="17.9688" stroke="none"/>
      <text x="331.1826" xml:space="preserve" y="456.1543" clip-path="url(#clipPath2)" stroke="none">7</text>
      <path fill="none" d="M282 509 L422 509" clip-path="url(#clipPath2)"/>
      <rect x="346.1826" y="500.0156" clip-path="url(#clipPath2)" fill="white" width="11.6348" height="17.9688" stroke="none"/>
      <text x="348.1826" xml:space="preserve" y="513.1543" clip-path="url(#clipPath2)" stroke="none">5</text>
      <path fill="none" d="M279.1889 517.7424 L399.8111 604.2576" clip-path="url(#clipPath2)"/>
      <rect x="333.6826" y="552.0156" clip-path="url(#clipPath2)" fill="white" width="11.6348" height="17.9688" stroke="none"/>
      <text x="335.6826" xml:space="preserve" y="565.1543" clip-path="url(#clipPath2)" stroke="none">2</text>
      <path fill="none" d="M417.9954 394.6297 L631.0046 389.3703" clip-path="url(#clipPath2)"/>
      <rect x="518.6826" y="383.0156" clip-path="url(#clipPath2)" fill="white" width="11.6348" height="17.9688" stroke="none"/>
      <text x="520.6826" xml:space="preserve" y="396.1543" clip-path="url(#clipPath2)" stroke="none">7</text>
      <path fill="none" d="M450.0083 501.5311 L632.9917 396.4689" clip-path="url(#clipPath2)"/>
      <rect x="535.6826" y="440.0156" clip-path="url(#clipPath2)" fill="white" width="11.6348" height="17.9688" stroke="none"/>
      <text x="537.6826" xml:space="preserve" y="453.1543" clip-path="url(#clipPath2)" stroke="none">6</text>
      <path fill="none" d="M426.9399 614.3416 L642.0601 633.6584" clip-path="url(#clipPath2)"/>
      <rect x="528.6826" y="615.0156" clip-path="url(#clipPath2)" fill="white" width="11.6348" height="17.9688" stroke="none"/>
      <text x="530.6826" xml:space="preserve" y="628.1543" clip-path="url(#clipPath2)" stroke="none">3</text>
      <path fill="none" d="M450.0164 516.4548 L643.9836 627.5452" clip-path="url(#clipPath2)"/>
      <rect x="541.1826" y="563.0156" clip-path="url(#clipPath2)" fill="white" width="11.6348" height="17.9688" stroke="none"/>
      <text x="543.1826" xml:space="preserve" y="576.1543" clip-path="url(#clipPath2)" stroke="none">2</text>
      <path fill="none" d="M646.67 403.985 L656.33 620.015" clip-path="url(#clipPath2)"/>
      <rect x="645.6826" y="503.0156" clip-path="url(#clipPath2)" fill="white" width="11.6348" height="17.9688" stroke="none"/>
      <text x="647.6826" xml:space="preserve" y="516.1543" clip-path="url(#clipPath2)" stroke="none">4</text>
      <path fill="none" d="M452 509 L556 509" clip-path="url(#clipPath2)"/>
      <rect x="498.1826" y="500.0156" clip-path="url(#clipPath2)" fill="white" width="11.6348" height="17.9688" stroke="none"/>
      <text x="500.1826" xml:space="preserve" y="513.1543" clip-path="url(#clipPath2)" stroke="none">9</text>
      <path fill="none" d="M578.95 496.28 L638.05 401.72" clip-path="url(#clipPath2)"/>
      <rect x="602.6826" y="440.0156" clip-path="url(#clipPath2)" fill="white" width="11.6348" height="17.9688" stroke="none"/>
      <text x="604.6826" xml:space="preserve" y="453.1543" clip-path="url(#clipPath2)" stroke="none">1</text>
      <path fill="none" d="M579.4562 521.3892 L648.5438 622.6108" clip-path="url(#clipPath2)"/>
      <rect x="608.1826" y="563.0156" clip-path="url(#clipPath2)" fill="white" width="11.6348" height="17.9688" stroke="none"/>
      <text x="610.1826" xml:space="preserve" y="576.1543" clip-path="url(#clipPath2)" stroke="none">8</text>
    </g>
  </g>
</svg>
