<?xml version="1.0" encoding="UTF-8"?><svg xmlns="http://www.w3.org/2000/svg" xmlns:xlink="http://www.w3.org/1999/xlink" fill-opacity="1" color-rendering="auto" color-interpolation="auto" text-rendering="auto" stroke="black" stroke-linecap="square" width="471" stroke-miterlimit="10" shape-rendering="auto" stroke-opacity="1" fill="black" stroke-dasharray="none" font-weight="normal" stroke-width="1" height="219" font-family="'Dialog'" font-style="normal" stroke-linejoin="miter" font-size="12px" stroke-dashoffset="0" image-rendering="auto">
  <!--Generated by ySVG 2.5-->
  <defs id="genericDefs"/>
  <g>
    <defs id="defs1">
      <clipPath clipPathUnits="userSpaceOnUse" id="clipPath1">
        <path d="M0 0 L471 0 L471 219 L0 219 L0 0 Z"/>
      </clipPath>
      <clipPath clipPathUnits="userSpaceOnUse" id="clipPath2">
        <path d="M29 248 L500 248 L500 467 L29 467 L29 248 Z"/>
      </clipPath>
    </defs>
    <g fill="rgb(255,204,0)" text-rendering="geometricPrecision" shape-rendering="geometricPrecision" transform="matrix(1,0,0,1,-29,-248)" stroke="rgb(255,204,0)">
      <circle r="15" clip-path="url(#clipPath2)" cx="59" cy="282" stroke="none"/>
    </g>
    <g text-rendering="geometricPrecision" stroke-miterlimit="1.45" shape-rendering="geometricPrecision" font-family="sans-serif" transform="matrix(1,0,0,1,-29,-248)" stroke-linecap="butt">
      <text x="55.1826" xml:space="preserve" y="286.1543" clip-path="url(#clipPath2)" stroke="none">1</text>
      <circle fill="none" r="15" clip-path="url(#clipPath2)" cx="59" cy="282"/>
    </g>
    <g fill="rgb(255,204,0)" text-rendering="geometricPrecision" shape-rendering="geometricPrecision" transform="matrix(1,0,0,1,-29,-248)" stroke="rgb(255,204,0)">
      <circle r="15" clip-path="url(#clipPath2)" cx="203" cy="356" stroke="none"/>
    </g>
    <g text-rendering="geometricPrecision" stroke-miterlimit="1.45" shape-rendering="geometricPrecision" font-family="sans-serif" transform="matrix(1,0,0,1,-29,-248)" stroke-linecap="butt">
      <text x="199.1826" xml:space="preserve" y="360.1543" clip-path="url(#clipPath2)" stroke="none">2</text>
      <circle fill="none" r="15" clip-path="url(#clipPath2)" cx="203" cy="356"/>
    </g>
    <g fill="rgb(255,204,0)" text-rendering="geometricPrecision" shape-rendering="geometricPrecision" transform="matrix(1,0,0,1,-29,-248)" stroke="rgb(255,204,0)">
      <circle r="15" clip-path="url(#clipPath2)" cx="305" cy="278" stroke="none"/>
    </g>
    <g text-rendering="geometricPrecision" stroke-miterlimit="1.45" shape-rendering="geometricPrecision" font-family="sans-serif" transform="matrix(1,0,0,1,-29,-248)" stroke-linecap="butt">
      <text x="301.1826" xml:space="preserve" y="282.1543" clip-path="url(#clipPath2)" stroke="none">3</text>
      <circle fill="none" r="15" clip-path="url(#clipPath2)" cx="305" cy="278"/>
    </g>
    <g fill="rgb(255,204,0)" text-rendering="geometricPrecision" shape-rendering="geometricPrecision" transform="matrix(1,0,0,1,-29,-248)" stroke="rgb(255,204,0)">
      <circle r="15" clip-path="url(#clipPath2)" cx="314" cy="437" stroke="none"/>
    </g>
    <g text-rendering="geometricPrecision" stroke-miterlimit="1.45" shape-rendering="geometricPrecision" font-family="sans-serif" transform="matrix(1,0,0,1,-29,-248)" stroke-linecap="butt">
      <text x="310.1826" xml:space="preserve" y="441.1543" clip-path="url(#clipPath2)" stroke="none">4</text>
      <circle fill="none" r="15" clip-path="url(#clipPath2)" cx="314" cy="437"/>
    </g>
    <g fill="rgb(255,204,0)" text-rendering="geometricPrecision" shape-rendering="geometricPrecision" transform="matrix(1,0,0,1,-29,-248)" stroke="rgb(255,204,0)">
      <circle r="15" clip-path="url(#clipPath2)" cx="470" cy="367" stroke="none"/>
    </g>
    <g text-rendering="geometricPrecision" stroke-miterlimit="1.45" shape-rendering="geometricPrecision" font-family="sans-serif" transform="matrix(1,0,0,1,-29,-248)" stroke-linecap="butt">
      <text x="466.1826" xml:space="preserve" y="371.1543" clip-path="url(#clipPath2)" stroke="none">5</text>
      <circle fill="none" r="15" clip-path="url(#clipPath2)" cx="470" cy="367"/>
      <path fill="none" d="M72.3415 288.856 L182.5431 345.4874" clip-path="url(#clipPath2)"/>
      <path d="M189.6585 349.144 L181.2707 339.212 L181.6536 345.0304 L176.7 348.1063 Z" clip-path="url(#clipPath2)" stroke="none"/>
      <rect x="125.1826" y="310.0156" clip-path="url(#clipPath2)" fill="white" width="11.6348" height="17.9688" stroke="none"/>
      <text x="127.1826" xml:space="preserve" y="323.1543" clip-path="url(#clipPath2)" stroke="none">3</text>
      <path fill="none" d="M214.9154 346.8882 L286.7298 291.9713" clip-path="url(#clipPath2)"/>
      <path d="M293.0846 287.1118 L280.5151 290.4294 L285.9354 292.5788 L286.5896 298.3729 Z" clip-path="url(#clipPath2)" stroke="none"/>
      <rect x="248.1826" y="308.0156" clip-path="url(#clipPath2)" fill="white" width="11.6348" height="17.9688" stroke="none"/>
      <text x="250.1826" xml:space="preserve" y="321.1543" clip-path="url(#clipPath2)" stroke="none">1</text>
      <path fill="none" d="M305.8477 292.976 L312.7002 414.0367" clip-path="url(#clipPath2)"/>
      <path d="M313.1523 422.024 L317.4662 409.7606 L312.6437 413.0383 L307.4821 410.3257 Z" clip-path="url(#clipPath2)" stroke="none"/>
      <rect x="301.5176" y="348.5156" clip-path="url(#clipPath2)" fill="white" width="15.9648" height="17.9688" stroke="none"/>
      <text x="303.5176" xml:space="preserve" y="361.6543" clip-path="url(#clipPath2)" stroke="none">-2</text>
      <path fill="none" d="M301.8831 428.158 L221.5792 369.5578" clip-path="url(#clipPath2)"/>
      <path d="M215.1169 364.842 L221.863 375.9546 L222.387 370.1473 L227.7577 367.8767 Z" clip-path="url(#clipPath2)" stroke="none"/>
      <rect x="250.5176" y="387.5156" clip-path="url(#clipPath2)" fill="white" width="15.9648" height="17.9688" stroke="none"/>
      <text x="252.5176" xml:space="preserve" y="400.6543" clip-path="url(#clipPath2)" stroke="none">-1</text>
      <path fill="none" d="M318.2019 285.121 L449.757 356.0811" clip-path="url(#clipPath2)"/>
      <path d="M456.7981 359.879 L448.6102 349.7815 L448.8769 355.6064 L443.8629 358.5828 Z" clip-path="url(#clipPath2)" stroke="none"/>
      <rect x="381.6826" y="313.5156" clip-path="url(#clipPath2)" fill="white" width="11.6348" height="17.9688" stroke="none"/>
      <text x="383.6826" xml:space="preserve" y="326.6543" clip-path="url(#clipPath2)" stroke="none">3</text>
    </g>
  </g>
</svg>
