<?xml version="1.0" encoding="UTF-8"?><svg xmlns="http://www.w3.org/2000/svg" xmlns:xlink="http://www.w3.org/1999/xlink" fill-opacity="1" color-rendering="auto" color-interpolation="auto" text-rendering="auto" stroke="black" stroke-linecap="square" width="600" stroke-miterlimit="10" shape-rendering="auto" stroke-opacity="1" fill="black" stroke-dasharray="none" font-weight="normal" stroke-width="1" height="240" font-family="'Dialog'" font-style="normal" stroke-linejoin="miter" font-size="12px" stroke-dashoffset="0" image-rendering="auto">
  <!--Generated by ySVG 2.5-->
  <defs id="genericDefs"/>
  <g>
    <defs id="defs1">
      <clipPath clipPathUnits="userSpaceOnUse" id="clipPath1">
        <path d="M0 0 L600 0 L600 240 L0 240 L0 0 Z"/>
      </clipPath>
      <clipPath clipPathUnits="userSpaceOnUse" id="clipPath2">
        <path d="M60 30 L660 30 L660 270 L60 270 L60 30 Z"/>
      </clipPath>
    </defs>
    <g fill="rgb(255,204,0)" text-rendering="geometricPrecision" shape-rendering="geometricPrecision" transform="matrix(1,0,0,1,-60,-30)" stroke="rgb(255,204,0)">
      <circle r="15" clip-path="url(#clipPath2)" cx="90" cy="150" stroke="none"/>
    </g>
    <g text-rendering="geometricPrecision" stroke-miterlimit="1.45" shape-rendering="geometricPrecision" font-family="sans-serif" transform="matrix(1,0,0,1,-60,-30)" stroke-linecap="butt">
      <text x="86.3232" xml:space="preserve" y="154.1543" clip-path="url(#clipPath2)" stroke="none">a</text>
      <circle fill="none" r="15" clip-path="url(#clipPath2)" cx="90" cy="150"/>
    </g>
    <g fill="rgb(255,204,0)" text-rendering="geometricPrecision" shape-rendering="geometricPrecision" transform="matrix(1,0,0,1,-60,-30)" stroke="rgb(255,204,0)">
      <circle r="15" clip-path="url(#clipPath2)" cx="180" cy="60" stroke="none"/>
    </g>
    <g text-rendering="geometricPrecision" stroke-miterlimit="1.45" shape-rendering="geometricPrecision" font-family="sans-serif" transform="matrix(1,0,0,1,-60,-30)" stroke-linecap="butt">
      <text x="176.1914" xml:space="preserve" y="64.1543" clip-path="url(#clipPath2)" stroke="none">b</text>
      <circle fill="none" r="15" clip-path="url(#clipPath2)" cx="180" cy="60"/>
    </g>
    <g fill="rgb(255,204,0)" text-rendering="geometricPrecision" shape-rendering="geometricPrecision" transform="matrix(1,0,0,1,-60,-30)" stroke="rgb(255,204,0)">
      <circle r="15" clip-path="url(#clipPath2)" cx="180" cy="240" stroke="none"/>
    </g>
    <g text-rendering="geometricPrecision" stroke-miterlimit="1.45" shape-rendering="geometricPrecision" font-family="sans-serif" transform="matrix(1,0,0,1,-60,-30)" stroke-linecap="butt">
      <text x="176.1973" xml:space="preserve" y="244.1543" clip-path="url(#clipPath2)" stroke="none">h</text>
      <circle fill="none" r="15" clip-path="url(#clipPath2)" cx="180" cy="240"/>
    </g>
    <g fill="rgb(255,204,0)" text-rendering="geometricPrecision" shape-rendering="geometricPrecision" transform="matrix(1,0,0,1,-60,-30)" stroke="rgb(255,204,0)">
      <circle r="15" clip-path="url(#clipPath2)" cx="270" cy="150" stroke="none"/>
    </g>
    <g text-rendering="geometricPrecision" stroke-miterlimit="1.45" shape-rendering="geometricPrecision" font-family="sans-serif" transform="matrix(1,0,0,1,-60,-30)" stroke-linecap="butt">
      <text x="268.333" xml:space="preserve" y="154.1543" clip-path="url(#clipPath2)" stroke="none">i</text>
      <circle fill="none" r="15" clip-path="url(#clipPath2)" cx="270" cy="150"/>
    </g>
    <g fill="rgb(255,204,0)" text-rendering="geometricPrecision" shape-rendering="geometricPrecision" transform="matrix(1,0,0,1,-60,-30)" stroke="rgb(255,204,0)">
      <circle r="15" clip-path="url(#clipPath2)" cx="360" cy="60" stroke="none"/>
    </g>
    <g text-rendering="geometricPrecision" stroke-miterlimit="1.45" shape-rendering="geometricPrecision" font-family="sans-serif" transform="matrix(1,0,0,1,-60,-30)" stroke-linecap="butt">
      <text x="356.7012" xml:space="preserve" y="64.1543" clip-path="url(#clipPath2)" stroke="none">c</text>
      <circle fill="none" r="15" clip-path="url(#clipPath2)" cx="360" cy="60"/>
    </g>
    <g fill="rgb(255,204,0)" text-rendering="geometricPrecision" shape-rendering="geometricPrecision" transform="matrix(1,0,0,1,-60,-30)" stroke="rgb(255,204,0)">
      <circle r="15" clip-path="url(#clipPath2)" cx="360" cy="240" stroke="none"/>
    </g>
    <g text-rendering="geometricPrecision" stroke-miterlimit="1.45" shape-rendering="geometricPrecision" font-family="sans-serif" transform="matrix(1,0,0,1,-60,-30)" stroke-linecap="butt">
      <text x="356.1914" xml:space="preserve" y="244.1543" clip-path="url(#clipPath2)" stroke="none">g</text>
      <circle fill="none" r="15" clip-path="url(#clipPath2)" cx="360" cy="240"/>
    </g>
    <g fill="rgb(255,204,0)" text-rendering="geometricPrecision" shape-rendering="geometricPrecision" transform="matrix(1,0,0,1,-60,-30)" stroke="rgb(255,204,0)">
      <circle r="15" clip-path="url(#clipPath2)" cx="510" cy="240" stroke="none"/>
    </g>
    <g text-rendering="geometricPrecision" stroke-miterlimit="1.45" shape-rendering="geometricPrecision" font-family="sans-serif" transform="matrix(1,0,0,1,-60,-30)" stroke-linecap="butt">
      <text x="507.8877" xml:space="preserve" y="244.1543" clip-path="url(#clipPath2)" stroke="none">f</text>
      <circle fill="none" r="15" clip-path="url(#clipPath2)" cx="510" cy="240"/>
    </g>
    <g fill="rgb(255,204,0)" text-rendering="geometricPrecision" shape-rendering="geometricPrecision" transform="matrix(1,0,0,1,-60,-30)" stroke="rgb(255,204,0)">
      <circle r="15" clip-path="url(#clipPath2)" cx="510" cy="60" stroke="none"/>
    </g>
    <g text-rendering="geometricPrecision" stroke-miterlimit="1.45" shape-rendering="geometricPrecision" font-family="sans-serif" transform="matrix(1,0,0,1,-60,-30)" stroke-linecap="butt">
      <text x="506.1914" xml:space="preserve" y="64.1543" clip-path="url(#clipPath2)" stroke="none">d</text>
      <circle fill="none" r="15" clip-path="url(#clipPath2)" cx="510" cy="60"/>
    </g>
    <g fill="rgb(255,204,0)" text-rendering="geometricPrecision" shape-rendering="geometricPrecision" transform="matrix(1,0,0,1,-60,-30)" stroke="rgb(255,204,0)">
      <circle r="15" clip-path="url(#clipPath2)" cx="630" cy="150" stroke="none"/>
    </g>
    <g text-rendering="geometricPrecision" stroke-miterlimit="1.45" shape-rendering="geometricPrecision" font-family="sans-serif" transform="matrix(1,0,0,1,-60,-30)" stroke-linecap="butt">
      <text x="626.3086" xml:space="preserve" y="154.1543" clip-path="url(#clipPath2)" stroke="none">e</text>
      <circle fill="none" r="15" clip-path="url(#clipPath2)" cx="630" cy="150"/>
    </g>
    <g stroke-linecap="butt" transform="matrix(1,0,0,1,-60,-30)" fill="red" text-rendering="geometricPrecision" shape-rendering="geometricPrecision" stroke="red" stroke-width="3" stroke-miterlimit="1.45">
      <path fill="none" d="M100.6066 139.3934 L169.3934 70.6066" clip-path="url(#clipPath2)"/>
      <rect x="129.1826" y="96.0156" clip-path="url(#clipPath2)" fill="white" width="11.6348" height="17.9688" stroke="none"/>
    </g>
    <g text-rendering="geometricPrecision" stroke-miterlimit="1.45" shape-rendering="geometricPrecision" font-family="sans-serif" transform="matrix(1,0,0,1,-60,-30)" stroke-linecap="butt">
      <text x="131.1826" xml:space="preserve" y="109.1543" clip-path="url(#clipPath2)" stroke="none">4</text>
      <path fill="none" d="M100.6066 160.6066 L169.3934 229.3934" clip-path="url(#clipPath2)"/>
      <rect x="129.1826" y="186.0156" clip-path="url(#clipPath2)" fill="white" width="11.6348" height="17.9688" stroke="none"/>
      <text x="131.1826" xml:space="preserve" y="199.1543" clip-path="url(#clipPath2)" stroke="none">8</text>
      <path fill="none" d="M180 225 L180 75" clip-path="url(#clipPath2)"/>
      <rect x="170.3652" y="141.0156" clip-path="url(#clipPath2)" fill="white" width="19.2695" height="17.9688" stroke="none"/>
      <text x="172.3652" xml:space="preserve" y="154.1543" clip-path="url(#clipPath2)" stroke="none">11</text>
      <path fill="none" d="M259.3934 160.6066 L190.6066 229.3934" clip-path="url(#clipPath2)"/>
      <rect x="219.1826" y="186.0156" clip-path="url(#clipPath2)" fill="white" width="11.6348" height="17.9688" stroke="none"/>
      <text x="221.1826" xml:space="preserve" y="199.1543" clip-path="url(#clipPath2)" stroke="none">7</text>
    </g>
    <g stroke-linecap="butt" transform="matrix(1,0,0,1,-60,-30)" fill="red" text-rendering="geometricPrecision" shape-rendering="geometricPrecision" stroke="red" stroke-width="3" stroke-miterlimit="1.45">
      <path fill="none" d="M195 60 L345 60" clip-path="url(#clipPath2)"/>
      <rect x="264.1826" y="51.0156" clip-path="url(#clipPath2)" fill="white" width="11.6348" height="17.9688" stroke="none"/>
    </g>
    <g text-rendering="geometricPrecision" stroke-miterlimit="1.45" shape-rendering="geometricPrecision" font-family="sans-serif" transform="matrix(1,0,0,1,-60,-30)" stroke-linecap="butt">
      <text x="266.1826" xml:space="preserve" y="64.1543" clip-path="url(#clipPath2)" stroke="none">8</text>
    </g>
    <g stroke-linecap="butt" transform="matrix(1,0,0,1,-60,-30)" fill="red" text-rendering="geometricPrecision" shape-rendering="geometricPrecision" stroke="red" stroke-width="3" stroke-miterlimit="1.45">
      <path fill="none" d="M349.3934 70.6066 L280.6066 139.3934" clip-path="url(#clipPath2)"/>
      <rect x="309.1826" y="96.0156" clip-path="url(#clipPath2)" fill="white" width="11.6348" height="17.9688" stroke="none"/>
    </g>
    <g text-rendering="geometricPrecision" stroke-miterlimit="1.45" shape-rendering="geometricPrecision" font-family="sans-serif" transform="matrix(1,0,0,1,-60,-30)" stroke-linecap="butt">
      <text x="311.1826" xml:space="preserve" y="109.1543" clip-path="url(#clipPath2)" stroke="none">2</text>
      <path fill="none" d="M280.6066 160.6066 L349.3934 229.3934" clip-path="url(#clipPath2)"/>
      <rect x="309.1826" y="186.0156" clip-path="url(#clipPath2)" fill="white" width="11.6348" height="17.9688" stroke="none"/>
      <text x="311.1826" xml:space="preserve" y="199.1543" clip-path="url(#clipPath2)" stroke="none">6</text>
    </g>
    <g stroke-linecap="butt" transform="matrix(1,0,0,1,-60,-30)" fill="red" text-rendering="geometricPrecision" shape-rendering="geometricPrecision" stroke="red" stroke-width="3" stroke-miterlimit="1.45">
      <path fill="none" d="M345 240 L195 240" clip-path="url(#clipPath2)"/>
      <rect x="264.1826" y="231.0156" clip-path="url(#clipPath2)" fill="white" width="11.6348" height="17.9688" stroke="none"/>
    </g>
    <g text-rendering="geometricPrecision" stroke-miterlimit="1.45" shape-rendering="geometricPrecision" font-family="sans-serif" transform="matrix(1,0,0,1,-60,-30)" stroke-linecap="butt">
      <text x="266.1826" xml:space="preserve" y="244.1543" clip-path="url(#clipPath2)" stroke="none">1</text>
    </g>
    <g stroke-linecap="butt" transform="matrix(1,0,0,1,-60,-30)" fill="red" text-rendering="geometricPrecision" shape-rendering="geometricPrecision" stroke="red" stroke-width="3" stroke-miterlimit="1.45">
      <path fill="none" d="M375 240 L495 240" clip-path="url(#clipPath2)"/>
      <rect x="429.1826" y="231.0156" clip-path="url(#clipPath2)" fill="white" width="11.6348" height="17.9688" stroke="none"/>
    </g>
    <g text-rendering="geometricPrecision" stroke-miterlimit="1.45" shape-rendering="geometricPrecision" font-family="sans-serif" transform="matrix(1,0,0,1,-60,-30)" stroke-linecap="butt">
      <text x="431.1826" xml:space="preserve" y="244.1543" clip-path="url(#clipPath2)" stroke="none">2</text>
    </g>
    <g stroke-linecap="butt" transform="matrix(1,0,0,1,-60,-30)" fill="red" text-rendering="geometricPrecision" shape-rendering="geometricPrecision" stroke="red" stroke-width="3" stroke-miterlimit="1.45">
      <path fill="none" d="M500.3972 228.4767 L369.6028 71.5233" clip-path="url(#clipPath2)"/>
      <rect x="429.1826" y="141.0156" clip-path="url(#clipPath2)" fill="white" width="11.6348" height="17.9688" stroke="none"/>
    </g>
    <g text-rendering="geometricPrecision" stroke-miterlimit="1.45" shape-rendering="geometricPrecision" font-family="sans-serif" transform="matrix(1,0,0,1,-60,-30)" stroke-linecap="butt">
      <text x="431.1826" xml:space="preserve" y="154.1543" clip-path="url(#clipPath2)" stroke="none">4</text>
      <path fill="none" d="M510 225 L510 75" clip-path="url(#clipPath2)"/>
      <rect x="500.3652" y="141.0156" clip-path="url(#clipPath2)" fill="white" width="19.2695" height="17.9688" stroke="none"/>
      <text x="502.3652" xml:space="preserve" y="154.1543" clip-path="url(#clipPath2)" stroke="none">14</text>
    </g>
    <g stroke-linecap="butt" transform="matrix(1,0,0,1,-60,-30)" fill="red" text-rendering="geometricPrecision" shape-rendering="geometricPrecision" stroke="red" stroke-width="3" stroke-miterlimit="1.45">
      <path fill="none" d="M375 60 L495 60" clip-path="url(#clipPath2)"/>
      <rect x="429.1826" y="51.0156" clip-path="url(#clipPath2)" fill="white" width="11.6348" height="17.9688" stroke="none"/>
    </g>
    <g text-rendering="geometricPrecision" stroke-miterlimit="1.45" shape-rendering="geometricPrecision" font-family="sans-serif" transform="matrix(1,0,0,1,-60,-30)" stroke-linecap="butt">
      <text x="431.1826" xml:space="preserve" y="64.1543" clip-path="url(#clipPath2)" stroke="none">7</text>
    </g>
    <g stroke-linecap="butt" transform="matrix(1,0,0,1,-60,-30)" fill="red" text-rendering="geometricPrecision" shape-rendering="geometricPrecision" stroke="red" stroke-width="3" stroke-miterlimit="1.45">
      <path fill="none" d="M522 69 L618 141" clip-path="url(#clipPath2)"/>
      <rect x="564.1826" y="96.0156" clip-path="url(#clipPath2)" fill="white" width="11.6348" height="17.9688" stroke="none"/>
    </g>
    <g text-rendering="geometricPrecision" stroke-miterlimit="1.45" shape-rendering="geometricPrecision" font-family="sans-serif" transform="matrix(1,0,0,1,-60,-30)" stroke-linecap="butt">
      <text x="566.1826" xml:space="preserve" y="109.1543" clip-path="url(#clipPath2)" stroke="none">9</text>
      <path fill="none" d="M618 159 L522 231" clip-path="url(#clipPath2)"/>
      <rect x="560.3652" y="186.0156" clip-path="url(#clipPath2)" fill="white" width="19.2695" height="17.9688" stroke="none"/>
      <text x="562.3652" xml:space="preserve" y="199.1543" clip-path="url(#clipPath2)" stroke="none">10</text>
    </g>
  </g>
</svg>
