<?xml version="1.0" encoding="UTF-8"?><svg xmlns="http://www.w3.org/2000/svg" xmlns:xlink="http://www.w3.org/1999/xlink" fill-opacity="1" color-rendering="auto" color-interpolation="auto" text-rendering="auto" stroke="black" stroke-linecap="square" width="390" stroke-miterlimit="10" shape-rendering="auto" stroke-opacity="1" fill="black" stroke-dasharray="none" font-weight="normal" stroke-width="1" height="218" font-family="'Dialog'" font-style="normal" stroke-linejoin="miter" font-size="12px" stroke-dashoffset="0" image-rendering="auto">
  <!--Generated by ySVG 2.5-->
  <defs id="genericDefs"/>
  <g>
    <defs id="defs1">
      <clipPath clipPathUnits="userSpaceOnUse" id="clipPath1">
        <path d="M0 0 L390 0 L390 218 L0 218 L0 0 Z"/>
      </clipPath>
      <clipPath clipPathUnits="userSpaceOnUse" id="clipPath2">
        <path d="M-270 -90 L120 -90 L120 128 L-270 128 L-270 -90 Z"/>
      </clipPath>
    </defs>
    <g fill="rgb(255,204,0)" text-rendering="geometricPrecision" shape-rendering="geometricPrecision" transform="matrix(1,0,0,1,270,90)" stroke="rgb(255,204,0)">
      <circle r="15" clip-path="url(#clipPath2)" cx="-240" cy="-60" stroke="none"/>
    </g>
    <g text-rendering="geometricPrecision" stroke-miterlimit="1.45" shape-rendering="geometricPrecision" font-family="sans-serif" transform="matrix(1,0,0,1,270,90)" stroke-linecap="butt">
      <text x="-243.8174" xml:space="preserve" y="-55.8457" clip-path="url(#clipPath2)" stroke="none">1</text>
      <circle fill="none" r="15" clip-path="url(#clipPath2)" cx="-240" cy="-60"/>
    </g>
    <g fill="rgb(255,204,0)" text-rendering="geometricPrecision" shape-rendering="geometricPrecision" transform="matrix(1,0,0,1,270,90)" stroke="rgb(255,204,0)">
      <circle r="15" clip-path="url(#clipPath2)" cx="-60" cy="-60" stroke="none"/>
    </g>
    <g text-rendering="geometricPrecision" stroke-miterlimit="1.45" shape-rendering="geometricPrecision" font-family="sans-serif" transform="matrix(1,0,0,1,270,90)" stroke-linecap="butt">
      <text x="-63.8174" xml:space="preserve" y="-55.8457" clip-path="url(#clipPath2)" stroke="none">2</text>
      <circle fill="none" r="15" clip-path="url(#clipPath2)" cx="-60" cy="-60"/>
    </g>
    <g fill="rgb(255,204,0)" text-rendering="geometricPrecision" shape-rendering="geometricPrecision" transform="matrix(1,0,0,1,270,90)" stroke="rgb(255,204,0)">
      <circle r="15" clip-path="url(#clipPath2)" cx="90" cy="-60" stroke="none"/>
    </g>
    <g text-rendering="geometricPrecision" stroke-miterlimit="1.45" shape-rendering="geometricPrecision" font-family="sans-serif" transform="matrix(1,0,0,1,270,90)" stroke-linecap="butt">
      <text x="86.1826" xml:space="preserve" y="-55.8457" clip-path="url(#clipPath2)" stroke="none">3</text>
      <circle fill="none" r="15" clip-path="url(#clipPath2)" cx="90" cy="-60"/>
    </g>
    <g fill="rgb(255,204,0)" text-rendering="geometricPrecision" shape-rendering="geometricPrecision" transform="matrix(1,0,0,1,270,90)" stroke="rgb(255,204,0)">
      <circle r="15" clip-path="url(#clipPath2)" cx="-150" cy="90" stroke="none"/>
    </g>
    <g text-rendering="geometricPrecision" stroke-miterlimit="1.45" shape-rendering="geometricPrecision" font-family="sans-serif" transform="matrix(1,0,0,1,270,90)" stroke-linecap="butt">
      <text x="-153.8174" xml:space="preserve" y="94.1543" clip-path="url(#clipPath2)" stroke="none">4</text>
      <circle fill="none" r="15" clip-path="url(#clipPath2)" cx="-150" cy="90"/>
    </g>
    <g fill="rgb(255,204,0)" text-rendering="geometricPrecision" shape-rendering="geometricPrecision" transform="matrix(1,0,0,1,270,90)" stroke="rgb(255,204,0)">
      <circle r="15" clip-path="url(#clipPath2)" cx="0" cy="90" stroke="none"/>
    </g>
    <g text-rendering="geometricPrecision" stroke-miterlimit="1.45" shape-rendering="geometricPrecision" font-family="sans-serif" transform="matrix(1,0,0,1,270,90)" stroke-linecap="butt">
      <text x="-3.8174" xml:space="preserve" y="94.1543" clip-path="url(#clipPath2)" stroke="none">5</text>
      <circle fill="none" r="15" clip-path="url(#clipPath2)" cx="0" cy="90"/>
    </g>
    <g fill="rgb(255,204,0)" text-rendering="geometricPrecision" shape-rendering="geometricPrecision" transform="matrix(1,0,0,1,270,90)" stroke="rgb(255,204,0)">
      <circle r="15" clip-path="url(#clipPath2)" cx="90" cy="90" stroke="none"/>
    </g>
    <g text-rendering="geometricPrecision" stroke-miterlimit="1.45" shape-rendering="geometricPrecision" font-family="sans-serif" transform="matrix(1,0,0,1,270,90)" stroke-linecap="butt">
      <text x="86.1826" xml:space="preserve" y="94.1543" clip-path="url(#clipPath2)" stroke="none">6</text>
      <circle fill="none" r="15" clip-path="url(#clipPath2)" cx="90" cy="90"/>
      <path fill="none" d="M-225 -60 L-83 -60" clip-path="url(#clipPath2)"/>
      <path d="M-75 -60 L-87 -65 L-84 -60 L-87 -55 Z" clip-path="url(#clipPath2)" stroke="none"/>
      <path fill="none" d="M-45 -60 L67 -60" clip-path="url(#clipPath2)"/>
      <path d="M75 -60 L63 -65 L66 -60 L63 -55 Z" clip-path="url(#clipPath2)" stroke="none"/>
      <path fill="none" d="M-67.7174 -47.1376 L-138.1666 70.2777" clip-path="url(#clipPath2)"/>
      <path d="M-142.2826 77.1376 L-131.8212 69.4202 L-137.6521 69.4202 L-140.3961 64.2752 Z" clip-path="url(#clipPath2)" stroke="none"/>
      <path fill="none" d="M-227.9665 -51.0448 L-221.0294 -45.8824 L-204.2647 -30.4412 L-189.7059 -13.6765 L-177.3529 4.4118 L-167.2059 23.8235 L-159.2647 44.5588 L-153.5294 66.6176 L-153.4328 67.2576" clip-path="url(#clipPath2)"/>
      <path d="M-152.2388 75.168 L-149.0858 62.5562 L-153.582 66.2688 L-158.9738 64.0487 Z" clip-path="url(#clipPath2)" stroke="none"/>
      <path fill="none" d="M-162.0335 81.0448 L-168.9706 75.8824 L-185.7353 60.4412 L-200.2941 43.6765 L-212.6471 25.5882 L-222.7941 6.1765 L-230.7353 -14.5588 L-236.4706 -36.6176 L-236.5672 -37.2576" clip-path="url(#clipPath2)"/>
      <path d="M-237.7612 -45.168 L-240.9142 -32.5562 L-236.418 -36.2688 L-231.0262 -34.0487 Z" clip-path="url(#clipPath2)" stroke="none"/>
      <path fill="none" d="M90 -45 L90 67" clip-path="url(#clipPath2)"/>
      <path d="M90 75 L95 63 L90 66 L85 63 Z" clip-path="url(#clipPath2)" stroke="none"/>
      <path fill="none" d="M11.3159 80.1151 L22.5 73.125 L33.75 68.9062 L45 67.5 L56.25 68.9062 L67.5 73.125 L71.9001 75.8751" clip-path="url(#clipPath2)"/>
      <path d="M78.6841 80.1151 L71.1581 69.5151 L71.0521 75.3451 L65.8581 77.9951 Z" clip-path="url(#clipPath2)" stroke="none"/>
      <path fill="none" d="M78.6841 99.8849 L67.5 106.875 L56.25 111.0938 L45 112.5 L33.75 111.0938 L22.5 106.875 L18.0999 104.1249" clip-path="url(#clipPath2)"/>
      <path d="M11.3159 99.8849 L18.8419 110.4849 L18.9479 104.6549 L24.1419 102.0049 Z" clip-path="url(#clipPath2)" stroke="none"/>
    </g>
  </g>
</svg>
