<?xml version="1.0" encoding="UTF-8"?><svg xmlns="http://www.w3.org/2000/svg" xmlns:xlink="http://www.w3.org/1999/xlink" fill-opacity="1" color-rendering="auto" color-interpolation="auto" text-rendering="auto" stroke="black" stroke-linecap="square" width="270" stroke-miterlimit="10" shape-rendering="auto" stroke-opacity="1" fill="black" stroke-dasharray="none" font-weight="normal" stroke-width="1" height="218" font-family="'Dialog'" font-style="normal" stroke-linejoin="miter" font-size="12px" stroke-dashoffset="0" image-rendering="auto">
  <!--Generated by ySVG 2.5-->
  <defs id="genericDefs"/>
  <g>
    <defs id="defs1">
      <clipPath clipPathUnits="userSpaceOnUse" id="clipPath1">
        <path d="M0 0 L270 0 L270 218 L0 218 L0 0 Z"/>
      </clipPath>
      <clipPath clipPathUnits="userSpaceOnUse" id="clipPath2">
        <path d="M30 -59 L300 -59 L300 159 L30 159 L30 -59 Z"/>
      </clipPath>
    </defs>
    <g fill="rgb(255,204,0)" text-rendering="geometricPrecision" shape-rendering="geometricPrecision" transform="matrix(1,0,0,1,-30,59)" stroke="rgb(255,204,0)">
      <circle r="15" clip-path="url(#clipPath2)" cx="60" cy="0" stroke="none"/>
    </g>
    <g text-rendering="geometricPrecision" stroke-miterlimit="1.45" shape-rendering="geometricPrecision" font-family="sans-serif" transform="matrix(1,0,0,1,-30,59)" stroke-linecap="butt">
      <text x="56.1826" xml:space="preserve" y="4.1543" clip-path="url(#clipPath2)" stroke="none">1</text>
      <circle fill="none" r="15" clip-path="url(#clipPath2)" cx="60" cy="0"/>
    </g>
    <g fill="rgb(255,204,0)" text-rendering="geometricPrecision" shape-rendering="geometricPrecision" transform="matrix(1,0,0,1,-30,59)" stroke="rgb(255,204,0)">
      <circle r="15" clip-path="url(#clipPath2)" cx="210" cy="0" stroke="none"/>
    </g>
    <g text-rendering="geometricPrecision" stroke-miterlimit="1.45" shape-rendering="geometricPrecision" font-family="sans-serif" transform="matrix(1,0,0,1,-30,59)" stroke-linecap="butt">
      <text x="206.1826" xml:space="preserve" y="4.1543" clip-path="url(#clipPath2)" stroke="none">2</text>
      <circle fill="none" r="15" clip-path="url(#clipPath2)" cx="210" cy="0"/>
    </g>
    <g fill="rgb(255,204,0)" text-rendering="geometricPrecision" shape-rendering="geometricPrecision" transform="matrix(1,0,0,1,-30,59)" stroke="rgb(255,204,0)">
      <circle r="15" clip-path="url(#clipPath2)" cx="270" cy="0" stroke="none"/>
    </g>
    <g text-rendering="geometricPrecision" stroke-miterlimit="1.45" shape-rendering="geometricPrecision" font-family="sans-serif" transform="matrix(1,0,0,1,-30,59)" stroke-linecap="butt">
      <text x="266.1826" xml:space="preserve" y="4.1543" clip-path="url(#clipPath2)" stroke="none">3</text>
      <circle fill="none" r="15" clip-path="url(#clipPath2)" cx="270" cy="0"/>
    </g>
    <g fill="rgb(255,204,0)" text-rendering="geometricPrecision" shape-rendering="geometricPrecision" transform="matrix(1,0,0,1,-30,59)" stroke="rgb(255,204,0)">
      <circle r="15" clip-path="url(#clipPath2)" cx="60" cy="120" stroke="none"/>
    </g>
    <g text-rendering="geometricPrecision" stroke-miterlimit="1.45" shape-rendering="geometricPrecision" font-family="sans-serif" transform="matrix(1,0,0,1,-30,59)" stroke-linecap="butt">
      <text x="56.1826" xml:space="preserve" y="124.1543" clip-path="url(#clipPath2)" stroke="none">4</text>
      <circle fill="none" r="15" clip-path="url(#clipPath2)" cx="60" cy="120"/>
    </g>
    <g fill="rgb(255,204,0)" text-rendering="geometricPrecision" shape-rendering="geometricPrecision" transform="matrix(1,0,0,1,-30,59)" stroke="rgb(255,204,0)">
      <circle r="15" clip-path="url(#clipPath2)" cx="210" cy="120" stroke="none"/>
    </g>
    <g text-rendering="geometricPrecision" stroke-miterlimit="1.45" shape-rendering="geometricPrecision" font-family="sans-serif" transform="matrix(1,0,0,1,-30,59)" stroke-linecap="butt">
      <text x="206.1826" xml:space="preserve" y="124.1543" clip-path="url(#clipPath2)" stroke="none">5</text>
      <circle fill="none" r="15" clip-path="url(#clipPath2)" cx="210" cy="120"/>
    </g>
    <g fill="rgb(255,204,0)" text-rendering="geometricPrecision" shape-rendering="geometricPrecision" transform="matrix(1,0,0,1,-30,59)" stroke="rgb(255,204,0)">
      <circle r="15" clip-path="url(#clipPath2)" cx="270" cy="120" stroke="none"/>
    </g>
    <g text-rendering="geometricPrecision" stroke-miterlimit="1.45" shape-rendering="geometricPrecision" font-family="sans-serif" transform="matrix(1,0,0,1,-30,59)" stroke-linecap="butt">
      <text x="266.1826" xml:space="preserve" y="124.1543" clip-path="url(#clipPath2)" stroke="none">6</text>
      <circle fill="none" r="15" clip-path="url(#clipPath2)" cx="270" cy="120"/>
      <path fill="none" d="M216.4359 -13.5492 L220.45 -22 L222.1996 -26.2609 L223.1734 -30.0438 L223.3715 -33.3484 L222.7938 -36.175 L221.4402 -38.5234 L219.3109 -40.3937 L216.4059 -41.7859 L212.725 -42.7 L209.1083 -43.3 L205.4146 -43.6094 L202.4708 -43.1875 L200.2771 -42.0344 L198.8333 -40.15 L198.1396 -37.5344 L198.1958 -34.1875 L199.0021 -30.1094 L200.5583 -25.3 L201.9584 -21.5484" clip-path="url(#clipPath2)"/>
      <path d="M204.7555 -14.0533 L205.2443 -27.0441 L201.6088 -22.4853 L195.8754 -23.5478 Z" clip-path="url(#clipPath2)" stroke="none"/>
      <path fill="none" d="M75 0 L187 0" clip-path="url(#clipPath2)"/>
      <path d="M195 0 L183 -5 L186 0 L183 5 Z" clip-path="url(#clipPath2)" stroke="none"/>
      <path fill="none" d="M198.287 9.3704 L77.96 105.632" clip-path="url(#clipPath2)"/>
      <path d="M71.713 110.6296 L84.2069 107.0376 L78.7409 105.0073 L77.96 99.2289 Z" clip-path="url(#clipPath2)" stroke="none"/>
      <path fill="none" d="M60 105 L60 23" clip-path="url(#clipPath2)"/>
      <path d="M60 15 L55 27 L60 24 L65 27 Z" clip-path="url(#clipPath2)" stroke="none"/>
      <path fill="none" d="M210 15 L210 97" clip-path="url(#clipPath2)"/>
      <path d="M210 105 L215 93 L210 96 L205 93 Z" clip-path="url(#clipPath2)" stroke="none"/>
      <path fill="none" d="M73.8967 114.3535 L100.6083 103.5 L108.931 100.5469 L117.2865 98.4375 L125.6747 97.1719 L134.0958 96.75 L142.5497 97.1719 L151.0365 98.4375 L159.556 100.5469 L168.1083 103.5 L188.6001 111.5712" clip-path="url(#clipPath2)"/>
      <path d="M196.0436 114.5029 L186.7108 105.4531 L187.6697 111.2047 L183.0461 114.7574 Z" clip-path="url(#clipPath2)" stroke="none"/>
      <path fill="none" d="M196.0436 125.4971 L168.1083 136.5 L159.556 139.4531 L151.0365 141.5625 L142.5497 142.8281 L134.0958 143.25 L125.6747 142.8281 L117.2865 141.5625 L108.931 139.4531 L100.6083 136.5 L81.3082 128.658" clip-path="url(#clipPath2)"/>
      <path d="M73.8967 125.6465 L83.1318 134.7959 L82.2347 129.0344 L86.8961 125.5315 Z" clip-path="url(#clipPath2)" stroke="none"/>
      <path fill="none" d="M270 105 L270 23" clip-path="url(#clipPath2)"/>
      <path d="M270 15 L265 27 L270 24 L275 27 Z" clip-path="url(#clipPath2)" stroke="none"/>
    </g>
  </g>
</svg>
