<?xml version="1.0" encoding="UTF-8"?><svg xmlns="http://www.w3.org/2000/svg" xmlns:xlink="http://www.w3.org/1999/xlink" fill-opacity="1" color-rendering="auto" color-interpolation="auto" text-rendering="auto" stroke="black" stroke-linecap="square" width="582" stroke-miterlimit="10" shape-rendering="auto" stroke-opacity="1" fill="black" stroke-dasharray="none" font-weight="normal" stroke-width="1" height="462" font-family="'Dialog'" font-style="normal" stroke-linejoin="miter" font-size="12px" stroke-dashoffset="0" image-rendering="auto">
  <!--Generated by ySVG 2.5-->
  <defs id="genericDefs"/>
  <g>
    <defs id="defs1">
      <clipPath clipPathUnits="userSpaceOnUse" id="clipPath1">
        <path d="M0 0 L582 0 L582 462 L0 462 L0 0 Z"/>
      </clipPath>
      <clipPath clipPathUnits="userSpaceOnUse" id="clipPath2">
        <path d="M146 266 L728 266 L728 728 L146 728 L146 266 Z"/>
      </clipPath>
    </defs>
    <g fill="rgb(255,204,0)" text-rendering="geometricPrecision" shape-rendering="geometricPrecision" transform="matrix(1,0,0,1,-146,-266)" stroke="rgb(255,204,0)">
      <circle r="15" clip-path="url(#clipPath2)" cx="176" cy="509" stroke="none"/>
    </g>
    <g text-rendering="geometricPrecision" stroke-miterlimit="1.45" shape-rendering="geometricPrecision" font-family="sans-serif" transform="matrix(1,0,0,1,-146,-266)" stroke-linecap="butt">
      <text x="172.1826" xml:space="preserve" y="513.1543" clip-path="url(#clipPath2)" stroke="none">1</text>
      <circle fill="none" r="15" clip-path="url(#clipPath2)" cx="176" cy="509"/>
    </g>
    <g fill="rgb(255,204,0)" text-rendering="geometricPrecision" shape-rendering="geometricPrecision" transform="matrix(1,0,0,1,-146,-266)" stroke="rgb(255,204,0)">
      <circle r="15" clip-path="url(#clipPath2)" cx="355" cy="299" stroke="none"/>
    </g>
    <g text-rendering="geometricPrecision" stroke-miterlimit="1.45" shape-rendering="geometricPrecision" font-family="sans-serif" transform="matrix(1,0,0,1,-146,-266)" stroke-linecap="butt">
      <text x="351.1826" xml:space="preserve" y="303.1543" clip-path="url(#clipPath2)" stroke="none">2</text>
      <circle fill="none" r="15" clip-path="url(#clipPath2)" cx="355" cy="299"/>
    </g>
    <g fill="rgb(255,204,0)" text-rendering="geometricPrecision" shape-rendering="geometricPrecision" transform="matrix(1,0,0,1,-146,-266)" stroke="rgb(255,204,0)">
      <circle r="15" clip-path="url(#clipPath2)" cx="355" cy="509" stroke="none"/>
    </g>
    <g text-rendering="geometricPrecision" stroke-miterlimit="1.45" shape-rendering="geometricPrecision" font-family="sans-serif" transform="matrix(1,0,0,1,-146,-266)" stroke-linecap="butt">
      <text x="351.1826" xml:space="preserve" y="513.1543" clip-path="url(#clipPath2)" stroke="none">3</text>
      <circle fill="none" r="15" clip-path="url(#clipPath2)" cx="355" cy="509"/>
    </g>
    <g fill="rgb(255,204,0)" text-rendering="geometricPrecision" shape-rendering="geometricPrecision" transform="matrix(1,0,0,1,-146,-266)" stroke="rgb(255,204,0)">
      <circle r="15" clip-path="url(#clipPath2)" cx="358" cy="673" stroke="none"/>
    </g>
    <g text-rendering="geometricPrecision" stroke-miterlimit="1.45" shape-rendering="geometricPrecision" font-family="sans-serif" transform="matrix(1,0,0,1,-146,-266)" stroke-linecap="butt">
      <text x="354.1826" xml:space="preserve" y="677.1543" clip-path="url(#clipPath2)" stroke="none">4</text>
      <circle fill="none" r="15" clip-path="url(#clipPath2)" cx="358" cy="673"/>
    </g>
    <g fill="rgb(255,204,0)" text-rendering="geometricPrecision" shape-rendering="geometricPrecision" transform="matrix(1,0,0,1,-146,-266)" stroke="rgb(255,204,0)">
      <circle r="15" clip-path="url(#clipPath2)" cx="698" cy="296" stroke="none"/>
    </g>
    <g text-rendering="geometricPrecision" stroke-miterlimit="1.45" shape-rendering="geometricPrecision" font-family="sans-serif" transform="matrix(1,0,0,1,-146,-266)" stroke-linecap="butt">
      <text x="694.1826" xml:space="preserve" y="300.1543" clip-path="url(#clipPath2)" stroke="none">5</text>
      <circle fill="none" r="15" clip-path="url(#clipPath2)" cx="698" cy="296"/>
    </g>
    <g fill="rgb(255,204,0)" text-rendering="geometricPrecision" shape-rendering="geometricPrecision" transform="matrix(1,0,0,1,-146,-266)" stroke="rgb(255,204,0)">
      <circle r="15" clip-path="url(#clipPath2)" cx="698" cy="674" stroke="none"/>
    </g>
    <g text-rendering="geometricPrecision" stroke-miterlimit="1.45" shape-rendering="geometricPrecision" font-family="sans-serif" transform="matrix(1,0,0,1,-146,-266)" stroke-linecap="butt">
      <text x="694.1826" xml:space="preserve" y="678.1543" clip-path="url(#clipPath2)" stroke="none">6</text>
      <circle fill="none" r="15" clip-path="url(#clipPath2)" cx="698" cy="674"/>
    </g>
    <g fill="rgb(255,204,0)" text-rendering="geometricPrecision" shape-rendering="geometricPrecision" transform="matrix(1,0,0,1,-146,-266)" stroke="rgb(255,204,0)">
      <circle r="15" clip-path="url(#clipPath2)" cx="571" cy="509" stroke="none"/>
    </g>
    <g text-rendering="geometricPrecision" stroke-miterlimit="1.45" shape-rendering="geometricPrecision" font-family="sans-serif" transform="matrix(1,0,0,1,-146,-266)" stroke-linecap="butt">
      <text x="567.1826" xml:space="preserve" y="513.1543" clip-path="url(#clipPath2)" stroke="none">7</text>
      <circle fill="none" r="15" clip-path="url(#clipPath2)" cx="571" cy="509"/>
      <path fill="none" d="M185.7305 497.5843 L345.2695 310.4157" clip-path="url(#clipPath2)"/>
      <text x="284.5139" xml:space="preserve" y="427.6153" clip-path="url(#clipPath2)" stroke="none">7</text>
      <path fill="none" d="M191 509 L340 509" clip-path="url(#clipPath2)"/>
      <text x="261.6826" xml:space="preserve" y="543.1543" clip-path="url(#clipPath2)" stroke="none">5</text>
      <path fill="none" d="M187.1433 519.0413 L346.8567 662.9587" clip-path="url(#clipPath2)"/>
      <text x="243.1001" xml:space="preserve" y="617.4409" clip-path="url(#clipPath2)" stroke="none">2</text>
      <path fill="none" d="M369.9994 298.8688 L683.0005 296.1312" clip-path="url(#clipPath2)"/>
      <text x="522.945" xml:space="preserve" y="331.6531" clip-path="url(#clipPath2)" stroke="none">7</text>
      <path fill="none" d="M367.7429 501.0868 L685.2571 303.9132" clip-path="url(#clipPath2)"/>
      <text x="538.509" xml:space="preserve" y="432.14" clip-path="url(#clipPath2)" stroke="none">6</text>
      <path fill="none" d="M372.9999 673.0441 L683.0001 673.9559" clip-path="url(#clipPath2)"/>
      <text x="524.0944" xml:space="preserve" y="707.6542" clip-path="url(#clipPath2)" stroke="none">3</text>
      <path fill="none" d="M368.5173 515.5025 L684.4827 667.4975" clip-path="url(#clipPath2)"/>
      <text x="509.6776" xml:space="preserve" y="622.6889" clip-path="url(#clipPath2)" stroke="none">2</text>
      <path fill="none" d="M698 311 L698 659" clip-path="url(#clipPath2)"/>
      <text x="664.1826" xml:space="preserve" y="489.1543" clip-path="url(#clipPath2)" stroke="none">4</text>
      <path fill="none" d="M370 509 L556 509" clip-path="url(#clipPath2)"/>
      <text x="459.1826" xml:space="preserve" y="543.1543" clip-path="url(#clipPath2)" stroke="none">9</text>
      <path fill="none" d="M578.6818 496.1163 L690.3182 308.8837" clip-path="url(#clipPath2)"/>
      <path fill="none" d="M580.1492 520.8867 L688.8508 662.1133" clip-path="url(#clipPath2)"/>
    </g>
  </g>
</svg>
